<svg version="1.1" id="Layer_1" xmlns="http://www.w3.org/2000/svg" xmlns:xlink="http://www.w3.org/1999/xlink" x="0px" y="0px"
	 width="100%" viewBox="0 0 344 239" enable-background="new 0 0 344 239" xml:space="preserve">
<path fill="none" opacity="1.000000" stroke="none" 
	d="
M345.000000,65.000000 
	C345.000000,123.311119 345.000000,181.622238 345.000000,239.966675 
	C230.399216,239.966675 115.798431,239.966675 1.098821,239.966675 
	C1.098821,160.429657 1.098821,80.859161 1.098821,1.144329 
	C115.666534,1.144329 230.333237,1.144329 345.000000,1.144329 
	C345.000000,16.074329 345.000000,31.068506 344.625183,46.527008 
	C341.374420,47.166496 338.498505,47.341663 335.382690,47.531437 
	C335.082916,46.561535 334.532471,44.780624 333.985107,42.583450 
	C333.983490,40.780224 333.978760,39.393253 334.350861,37.999470 
	C336.664490,36.239517 338.601257,34.486382 340.292175,32.955765 
	C335.775665,30.781176 331.931793,29.718098 329.169708,27.378057 
	C326.432037,25.058659 324.539124,24.676340 321.965393,26.640259 
	C320.705780,23.441692 319.953705,19.590906 315.854218,20.369013 
	C312.725220,20.962919 307.892303,20.141829 307.603882,25.881376 
	C306.211487,26.000595 305.193237,26.040163 303.765930,26.047459 
	C296.984467,25.194803 292.976532,27.188850 289.418335,33.285023 
	C287.883148,32.519482 286.317780,31.738897 284.731995,30.569431 
	C284.688660,29.143393 284.665710,28.106239 285.033386,27.005535 
	C285.719696,25.439554 286.630310,22.842892 286.213379,22.608606 
	C283.010681,20.808853 279.574036,19.409874 276.162354,18.002052 
	C273.203552,16.781107 270.835297,17.353516 269.066284,20.311625 
	C267.106934,23.588083 264.869904,26.698502 262.340454,29.806948 
	C260.279480,29.380304 258.631836,29.027935 256.794891,28.494846 
	C256.263184,28.286642 255.920822,28.259155 255.179352,28.265923 
	C253.181122,28.168550 251.582001,28.036928 249.811569,27.683586 
	C248.758804,27.922506 247.877365,28.383142 246.816772,28.950832 
	C246.637634,29.057888 246.223480,29.109583 245.972763,29.126173 
	C245.480530,29.361151 245.239014,29.579536 244.793610,29.919498 
	C244.589737,30.041073 244.119278,30.104712 244.023926,29.736259 
	C239.100937,26.816280 232.236069,30.222237 232.183792,35.154778 
	C232.210129,35.101589 232.218231,35.220016 231.798859,35.186050 
	C228.685959,35.648067 225.992416,36.144047 222.815582,36.729019 
	C223.344177,38.796959 223.782715,40.512581 224.147522,42.197357 
	C224.073776,42.166519 224.215103,42.213776 223.887451,42.168449 
	C223.027679,42.693546 222.495544,43.263973 221.813751,43.958054 
	C221.664078,44.081711 221.283401,44.158230 220.878021,44.107262 
	C217.629669,45.108822 213.516769,44.152744 212.785645,48.926895 
	C212.618088,49.043335 212.219940,49.132938 211.962128,49.148956 
	C211.465714,49.399529 211.227127,49.634079 210.817612,49.972260 
	C210.646683,50.075893 210.253235,50.146763 209.981842,50.167122 
	C209.472672,50.446850 209.234879,50.706215 208.847809,51.064171 
	C208.698502,51.162762 208.346710,51.228218 207.953369,51.164650 
	C206.105225,52.138611 204.650391,53.176140 203.161331,54.219696 
	C203.127106,54.225719 203.175308,54.175713 202.914642,54.197098 
	C202.439514,54.478706 202.225052,54.738930 201.876678,55.205086 
	C201.529587,55.671955 201.263809,55.857601 200.628052,55.832062 
	C195.761414,54.709698 195.568848,58.661095 193.889099,61.438957 
	C193.554688,62.982719 193.436096,64.259033 193.227737,65.944290 
	C192.724976,69.995903 194.597824,72.015198 197.989349,73.190605 
	C198.097183,73.348694 198.178375,73.722717 198.140610,74.082153 
	C199.011688,75.642166 199.920547,76.842743 200.948654,78.202881 
	C201.067917,78.362450 201.157623,78.750648 201.122131,79.077858 
	C201.643951,79.957359 202.201294,80.509659 202.884216,81.227982 
	C203.009811,81.394005 203.125687,81.793907 203.110291,82.180298 
	C203.719849,85.016769 204.344788,87.466858 204.648590,90.072876 
	C200.180176,93.477699 196.032928,96.726570 191.495117,99.981842 
	C185.285904,101.628983 178.819901,102.166550 175.618195,108.972717 
	C169.591431,111.821976 164.010132,114.787933 158.205399,117.220810 
	C155.197174,118.481613 151.658707,119.792351 148.590515,119.376823 
	C131.502884,117.062675 116.577721,122.739578 101.728516,130.223343 
	C93.809052,134.214615 85.155930,136.648300 75.890839,133.187729 
	C69.888069,130.945663 65.984467,132.924683 63.581230,139.046310 
	C60.362713,147.244659 57.632526,155.634735 54.301613,163.955872 
	C51.708767,163.882965 49.003429,162.949844 47.414711,163.894562 
	C44.508610,165.622665 42.773849,164.819916 40.406448,163.179001 
	C39.430443,162.502502 37.471004,163.244858 35.683693,163.398376 
	C35.221382,163.447449 35.034248,163.440002 34.584579,163.290527 
	C33.599499,163.826904 32.876949,164.505310 32.105507,165.186325 
	C32.056610,165.188934 32.146812,165.154266 31.726112,165.103394 
	C27.475046,165.371826 23.279644,165.023438 21.954029,170.317047 
	C21.664412,170.783401 21.417229,170.959641 20.715277,171.036102 
	C19.280104,171.510849 18.240721,172.002670 17.201342,172.494507 
	C17.904121,173.016281 18.606899,173.538071 19.222525,174.454758 
	C19.089714,175.905029 19.044056,176.960403 19.002577,178.388474 
	C22.339518,180.506226 25.672277,182.251282 29.042433,184.294861 
	C29.485229,184.913727 29.890633,185.234039 30.296040,185.554352 
	C30.532858,185.038269 30.769676,184.522186 31.355783,184.007187 
	C32.169098,183.969376 32.633121,183.930496 33.044418,183.934052 
	C32.991695,183.976501 33.079121,183.872772 33.100914,184.231445 
	C35.376900,187.048782 37.631088,189.507462 39.827972,192.251236 
	C39.673241,192.703949 39.575813,192.871552 39.368210,193.116089 
	C39.126583,193.317032 39.017220,193.458160 38.896194,193.712418 
	C38.862438,193.808426 38.669327,193.872711 38.517090,193.883240 
	C38.364853,193.893753 38.059845,193.882935 37.858162,193.585068 
	C36.159271,193.049545 34.640259,192.596466 33.182049,192.744064 
	C32.865570,192.776108 32.909317,195.009399 32.537479,196.147247 
	C31.857733,198.227280 31.553959,200.943069 30.077341,202.135025 
	C27.580379,204.150589 27.462526,206.282104 27.529139,208.953934 
	C26.479412,210.449188 25.816420,211.898590 25.060627,213.697296 
	C24.473427,215.399445 23.979025,216.752319 23.409273,218.233414 
	C23.327036,218.692337 23.493263,218.901428 23.952171,219.142517 
	C24.071737,219.296143 24.141506,219.679169 24.097328,220.120743 
	C24.062664,223.756638 23.721609,227.007324 24.222574,230.122604 
	C24.492203,231.799286 26.205429,233.243820 27.267303,234.793091 
	C27.852726,234.174347 28.438143,233.555603 29.348434,232.951813 
	C30.321665,232.922729 30.970022,232.878708 32.014839,232.886658 
	C33.762093,233.744461 35.112885,234.550293 36.577595,235.424088 
	C37.387417,231.410675 38.153191,227.615570 38.988609,223.583191 
	C39.058254,223.345947 39.367573,222.960098 39.509174,222.870331 
	C39.822155,222.629898 39.951675,222.449219 40.159256,221.955490 
	C40.863804,221.119354 41.448429,220.566254 42.400497,220.007339 
	C49.707226,214.157639 55.411270,207.578506 55.929100,197.957367 
	C55.938545,198.008026 55.883259,197.920990 56.265060,197.911102 
	C58.699902,196.956787 60.752937,196.012360 63.266361,194.856155 
	C60.481224,189.346909 63.397923,187.511551 68.359261,186.544022 
	C69.739990,186.274765 70.764168,184.177185 71.977707,182.952118 
	C72.003494,182.985840 71.930084,182.943268 72.205254,182.962769 
	C72.962234,182.770355 73.444038,182.558411 74.245445,182.212891 
	C75.248596,182.004669 75.932144,181.930038 76.876228,181.853790 
	C77.410538,181.657532 77.684319,181.462891 78.246475,181.148788 
	C78.946716,180.989502 79.358589,180.949661 79.996277,180.899231 
	C80.528351,180.813477 80.769379,180.645035 81.269577,180.257431 
	C82.050774,180.056610 82.507561,179.981659 83.173401,180.185730 
	C85.259415,179.696838 87.136375,178.928940 89.382248,178.037994 
	C91.799866,177.525085 93.848564,177.135223 96.167130,177.087677 
	C96.897385,177.598511 97.350288,177.888901 97.819252,177.917664 
	C108.262993,178.558136 118.915710,175.659943 129.187378,179.752655 
	C129.509949,179.881180 130.384796,178.623657 131.362823,178.037628 
	C132.835968,178.517578 133.948471,178.972183 135.178802,179.566711 
	C135.488388,179.868973 135.708191,179.970825 136.292999,180.100372 
	C137.745071,180.436966 138.860184,180.685364 140.167847,181.221161 
	C141.510925,182.407593 142.590683,183.422424 143.828278,184.179077 
	C145.771149,185.366943 147.569183,185.692032 148.406555,182.719910 
	C150.163574,183.520416 151.581772,184.253952 153.051529,185.331879 
	C153.614670,186.306320 154.051498,187.020126 154.649277,187.553543 
	C161.322830,193.508835 170.021149,193.630157 178.083237,195.558792 
	C178.257156,195.600372 178.690826,194.556122 179.357513,194.009293 
	C180.166992,194.118622 180.622284,194.237076 181.281830,194.541962 
	C182.030792,194.799942 182.575500,194.871475 183.345551,194.946442 
	C183.570908,194.949875 183.986938,195.123367 184.037933,195.471497 
	C185.555084,199.667740 188.138062,196.948822 190.680328,196.852020 
	C192.723526,196.918701 194.358276,197.004501 196.079407,197.453247 
	C198.744843,198.818161 201.323868,199.820160 203.856812,200.804260 
	C204.957581,199.168411 206.076889,197.702316 206.974457,196.111130 
	C207.747147,194.741394 208.267014,193.229034 208.963196,191.575287 
	C209.166153,191.108246 209.368622,190.911652 209.915222,190.937683 
	C210.707809,191.405579 211.220337,191.716843 211.732864,192.028107 
	C213.291550,188.444214 214.626892,184.739670 216.478058,181.313812 
	C218.017868,178.464142 217.164444,174.210464 221.326828,172.802567 
	C221.699142,172.676636 221.798325,171.640076 221.959045,171.009766 
	C222.631393,168.372787 223.748917,165.731155 223.758530,163.087799 
	C223.764282,161.509552 226.783188,158.815674 222.793365,157.567841 
	C223.039062,156.433197 223.231003,155.682861 223.575729,154.770630 
	C223.890320,154.340210 223.946045,154.051208 223.887421,153.383240 
	C224.027588,152.326385 224.176041,151.628006 224.521774,150.714142 
	C224.775040,149.920578 224.831039,149.342468 224.851166,148.365997 
	C225.175735,145.641937 225.536148,143.316269 226.254044,140.945892 
	C228.102310,138.738968 229.445251,136.450348 231.142883,134.464996 
	C232.066620,133.384720 233.592773,132.819580 234.957947,132.199203 
	C235.068680,132.376312 235.096909,132.793121 235.060394,133.229919 
	C235.450668,136.556122 235.877426,139.445541 236.145370,141.259628 
	C233.584412,143.674973 230.380524,145.404282 229.454834,147.959076 
	C228.644196,150.196320 230.824463,152.941315 234.239624,153.337357 
	C235.139801,153.962616 235.988342,154.278519 237.027069,154.917725 
	C241.132004,156.913284 239.523178,153.554443 240.135681,151.861542 
	C240.734741,151.021133 241.243240,150.455566 242.112549,149.920929 
	C243.432205,149.561890 244.391052,149.171890 245.349915,148.781906 
	C244.775757,148.146133 244.201599,147.510361 243.720154,146.564590 
	C244.232635,145.506851 244.652405,144.759079 245.446747,144.019714 
	C246.371292,145.044540 247.636993,146.398682 247.344879,147.017746 
	C246.204941,149.433640 244.571762,151.616791 243.068634,153.970016 
	C245.051361,155.051529 246.858368,156.037216 248.768051,157.394730 
	C248.803970,158.527924 248.737213,159.289276 248.495667,160.216888 
	C248.134705,160.669144 248.069199,160.980591 248.171997,161.620605 
	C248.485352,162.658661 248.751022,163.393570 249.175858,164.414795 
	C251.250198,166.625656 252.787888,166.339340 253.996216,163.673080 
	C254.032486,163.434692 254.197998,162.981735 254.482071,162.803192 
	C254.823074,161.076019 254.880005,159.527420 254.906128,157.588791 
	C254.955200,155.387863 255.035080,153.576935 255.555420,151.833435 
	C257.429016,152.207870 258.862152,152.514877 260.717865,152.897339 
	C263.170441,153.012741 265.200439,153.052689 267.491455,153.064636 
	C268.178894,152.762222 268.605347,152.487823 269.186829,151.940460 
	C269.819305,151.266113 270.296692,150.864700 270.856628,150.865860 
	C271.715393,154.136017 273.582092,154.669083 275.671783,152.917587 
	C276.435242,152.277664 276.816376,150.010590 276.283081,149.224930 
	C274.946075,147.255203 272.986938,145.707764 271.130920,143.698547 
	C270.601044,142.625076 270.217590,141.844025 270.200317,141.019409 
	C276.606537,137.134659 277.714935,131.545624 273.450745,126.409927 
	C273.614197,125.844276 273.732574,125.528061 273.941284,124.921219 
	C274.077209,124.432877 274.122803,124.235168 274.599060,124.025681 
	C278.110718,123.554756 281.997131,125.343704 284.090118,120.769112 
	C282.685242,120.319221 281.240479,120.288933 280.662964,119.565948 
	C279.879974,118.585739 279.761414,117.074821 279.357849,115.791542 
	C280.769165,115.568718 282.466553,114.731270 283.541443,115.231476 
	C287.772644,117.200485 291.726929,119.762169 295.948792,121.754646 
	C298.224396,122.828590 300.833832,123.195206 303.958435,124.066635 
	C302.899139,120.993645 300.460205,117.732170 305.214508,117.109390 
	C309.209259,116.586098 311.693359,115.884872 308.638153,111.374298 
	C308.402679,111.026665 309.188660,110.020920 309.443115,109.301003 
	C310.080719,107.497177 310.685730,105.681831 311.555725,103.133118 
	C308.703247,103.814644 307.071442,104.204529 305.439606,104.594406 
	C305.191040,104.161285 304.942444,103.728165 304.693878,103.295044 
	C306.466248,102.005920 309.029114,101.060402 309.782043,99.328163 
	C310.493042,97.692345 309.300903,95.229309 309.057983,93.792999 
	C309.775177,91.301704 310.568298,89.210228 310.958221,87.046112 
	C311.645508,83.231163 308.178680,78.844406 312.555176,75.483536 
	C312.747833,75.335556 312.632294,74.469948 312.392914,74.123222 
	C309.001160,69.209732 312.531494,67.050346 316.400879,64.836899 
	C317.512146,64.929718 318.249451,65.050850 318.981934,65.532501 
	C317.994568,68.874115 317.957031,71.650139 321.597443,72.666626 
	C325.967682,73.886879 325.043518,69.873459 326.381714,67.819992 
	C327.137543,67.961479 327.562195,68.080856 327.989075,68.602844 
	C328.452972,70.834953 328.914581,72.664436 329.376221,74.493927 
	C331.043671,73.966461 334.038147,73.660667 334.169128,72.876534 
	C335.237244,66.482590 341.511353,67.706757 345.000000,65.000000 
M62.473644,136.018570 
	C65.178864,133.164337 62.797680,132.313400 59.964664,130.613693 
	C59.164074,133.518173 58.511456,135.885818 57.858841,138.253464 
	C58.263382,138.443588 58.667923,138.633713 59.072464,138.823837 
	C60.038155,138.058762 61.003845,137.293686 62.473644,136.018570 
M79.704941,186.565170 
	C79.989204,186.293915 80.273476,186.022644 80.557755,185.751389 
	C80.445267,185.633743 80.241188,185.407623 80.233482,185.414124 
	C79.933678,185.667252 79.651772,185.941620 79.704941,186.565170 
z"/>
<path fill="none" opacity="1.000000" stroke="none" 
	d="
M333.982056,42.999702 
	C334.532471,44.780624 335.082916,46.561535 335.382690,47.531437 
	C338.498505,47.341663 341.374420,47.166496 344.625183,46.995667 
	C345.000000,50.030594 345.000000,53.061188 344.622986,56.554676 
	C343.522797,57.823635 342.799591,58.629704 342.076385,59.435768 
	C343.050934,60.290504 344.025452,61.145252 345.000000,62.000000 
	C345.000000,62.750000 345.000000,63.500000 345.000000,64.625000 
	C341.511353,67.706757 335.237244,66.482590 334.169128,72.876534 
	C334.038147,73.660667 331.043671,73.966461 329.376221,74.493927 
	C328.914581,72.664436 328.452972,70.834953 328.346893,68.539261 
	C330.129700,67.363319 331.556946,66.653595 333.316162,66.025269 
	C334.098511,66.049690 334.548859,65.992722 335.370178,65.959930 
	C336.191925,63.315670 336.642700,60.647232 337.337708,57.748421 
	C336.512512,56.676765 335.449249,55.132641 334.372620,55.123276 
	C330.851685,55.092636 329.652740,53.492123 330.184082,50.114632 
	C330.343048,49.988380 330.740723,49.906796 331.043701,49.793999 
	C331.512878,49.296581 331.679047,48.911957 331.759399,48.156929 
	C331.768890,46.527332 331.864166,45.268139 332.222290,43.902969 
	C332.984161,43.531231 333.483093,43.265465 333.982056,42.999702 
z"/>
<path fill="none" opacity="1.000000" stroke="none" 
	d="
M345.000000,61.583336 
	C344.025452,61.145252 343.050934,60.290504 342.076385,59.435768 
	C342.799591,58.629704 343.522797,57.823635 344.622986,57.008785 
	C345.000000,58.388889 345.000000,59.777779 345.000000,61.583336 
z"/>
<path fill="#5D6CF3" opacity="1.000000" stroke="none" 
	d="
M330.740723,49.906796 
	C330.740723,49.906796 330.343048,49.988380 329.865845,50.153183 
	C326.634247,52.587650 326.710358,54.553028 330.142456,55.908283 
	C332.070160,56.669487 334.112671,57.140015 336.075867,58.175468 
	C335.698578,61.051540 335.348877,63.493645 334.999207,65.935753 
	C334.548859,65.992722 334.098511,66.049690 333.266174,65.692619 
	C329.144409,64.221863 325.454071,62.916534 321.654419,62.161274 
	C314.219116,60.683361 309.562408,63.416744 306.672241,70.433220 
	C306.326447,71.272736 305.529083,71.929237 304.928253,72.660103 
	C303.658752,74.204323 302.105438,75.592537 301.171783,77.317184 
	C299.819489,79.815125 298.911194,82.553627 297.816864,85.190918 
	C297.252808,86.550316 295.822266,88.485458 296.277985,89.180702 
	C299.196198,93.632683 294.635406,93.614151 292.686035,95.260117 
	C292.091248,95.228943 291.750824,95.219551 291.040649,95.179901 
	C290.171997,95.827766 289.673126,96.505905 289.134460,97.116119 
	C289.094666,97.048180 289.184875,97.189369 288.805725,97.129990 
	C284.664612,98.020058 284.389923,98.616577 286.751038,101.213715 
	C286.936401,101.601387 286.993042,101.764427 287.097717,102.298401 
	C291.376556,104.943314 295.842773,102.979828 298.019836,97.593735 
	C298.141083,96.855759 298.213074,96.434433 298.624207,95.962875 
	C302.172577,94.630013 302.311340,95.999352 301.428162,98.603600 
	C300.831390,100.363373 299.939423,102.376144 300.288086,104.043983 
	C302.052734,112.485199 301.265778,113.716309 292.868408,114.204407 
	C292.909088,114.228256 292.815338,114.216652 292.850037,113.824326 
	C291.904755,112.244080 291.088257,110.251740 289.915253,110.013321 
	C285.764923,109.169762 281.499359,108.807175 277.260254,108.569969 
	C276.540588,108.529701 275.736145,110.004166 274.729797,110.936752 
	C274.252502,111.391907 274.016327,111.689117 273.484558,112.049240 
	C272.733856,114.781235 272.404327,117.479263 271.797729,120.113472 
	C270.504120,125.730927 265.634979,130.240814 261.553467,128.701309 
	C258.369232,127.500259 255.522964,124.761284 253.187073,122.121262 
	C250.480545,119.062393 249.271057,120.119949 247.886597,123.279388 
	C247.482620,123.985535 247.197144,124.446259 246.523148,124.929459 
	C245.096146,124.974533 244.057648,124.997139 242.960297,124.885201 
	C242.819778,124.700150 242.738159,124.649643 242.656525,124.599129 
	C242.777618,124.739052 242.898712,124.878975 243.001434,125.316620 
	C242.662506,126.083733 242.341949,126.553131 241.792068,127.153503 
	C241.688110,127.840546 241.813461,128.396622 242.065445,128.985855 
	C242.192062,129.019012 242.453552,129.031128 242.551788,129.340393 
	C242.699631,130.076645 242.749237,130.503616 242.560242,131.228745 
	C242.483459,134.490631 242.645294,137.454376 242.807114,140.418121 
	C239.712646,136.995682 238.042618,133.055542 235.593613,129.680679 
	C234.457794,128.115448 231.675919,126.706329 229.878296,126.954018 
	C228.107895,127.197945 225.745148,129.367462 225.227936,131.151733 
	C224.233276,134.583038 224.755280,138.430923 223.941513,141.942245 
	C221.895050,150.772675 219.414597,159.501678 217.195831,168.293472 
	C216.455246,171.228012 215.980560,174.229645 215.355331,177.192657 
	C215.326340,177.184723 215.269531,177.176895 214.907471,177.255981 
	C213.738892,179.597443 212.932373,181.859818 212.139481,184.135742 
	C212.153122,184.149277 212.180786,184.177414 211.847290,184.254150 
	C210.987183,184.947388 210.327805,185.492996 209.954773,186.191528 
	C206.687302,192.309982 201.747986,195.768707 194.697830,194.941071 
	C189.514511,194.332581 184.310074,193.364700 179.305222,191.904938 
	C172.302826,189.862549 165.404343,187.402512 158.596054,184.772568 
	C151.300888,181.954544 144.782440,176.383667 135.992310,178.545090 
	C132.404175,177.215149 128.932648,176.227646 125.215302,175.291290 
	C124.650139,175.250366 124.330795,175.158310 123.827995,174.710388 
	C122.619637,173.912766 121.565804,173.032181 120.574364,173.097565 
	C111.336960,173.706818 102.036400,173.984253 92.902298,175.349243 
	C84.598709,176.590088 76.554077,179.567444 68.249924,180.799484 
	C63.547058,181.497223 60.848541,183.349869 58.688637,187.350662 
	C54.930363,194.312134 50.711941,201.023849 46.754120,207.879349 
	C44.076107,212.518036 41.514065,217.223679 38.566246,221.971222 
	C35.867451,224.349533 33.502560,226.656021 30.233232,229.844604 
	C30.685419,222.609436 23.807333,218.115479 27.488840,211.621948 
	C27.553331,211.627701 27.656595,211.705841 28.018440,211.690674 
	C29.485205,209.691940 30.590126,207.708389 31.787518,205.724289 
	C31.879990,205.723755 31.702765,205.776627 32.055031,205.739532 
	C36.695469,199.784088 40.983643,193.865753 45.271816,187.947418 
	C44.826370,187.632172 44.380928,187.316925 43.914940,186.750885 
	C43.918575,186.334106 43.942753,186.168106 43.895416,185.773529 
	C43.657249,185.262360 43.430813,185.040863 43.022293,184.520630 
	C38.119221,182.771637 33.245403,181.630936 28.596302,179.890121 
	C26.215307,178.998566 24.236269,177.033524 22.075562,175.553665 
	C23.788530,173.845001 25.266691,171.760208 27.266815,170.511505 
	C30.683758,168.378265 34.427940,166.769165 38.320145,164.973816 
	C39.083218,165.300110 39.560818,165.592529 40.067574,166.246429 
	C42.465111,167.702911 44.833500,168.797897 47.526848,169.910858 
	C49.208031,169.945007 50.564251,169.961197 52.161026,169.866913 
	C52.568508,169.455078 52.735428,169.153702 52.879074,168.856659 
	C52.855801,168.861008 52.835472,168.817398 53.193840,168.824249 
	C55.683903,164.312363 57.992813,159.866913 59.899906,155.255280 
	C62.015053,150.140549 63.476643,144.743668 65.764275,139.716019 
	C67.510658,135.877899 71.190842,133.800583 75.251442,135.320099 
	C87.381767,139.859421 98.458199,135.143234 108.371933,130.018402 
	C119.910660,124.053535 131.257736,120.344299 144.212143,120.884514 
	C148.923737,121.080994 153.995377,120.720505 158.371033,119.141083 
	C166.401047,116.242592 174.118347,112.416893 181.794418,108.629921 
	C184.713837,107.189629 187.160400,104.790840 189.836945,102.843239 
	C189.851425,102.857567 189.873672,102.887634 190.210480,102.893448 
	C191.030228,102.260117 191.513184,101.620979 191.999069,100.989807 
	C192.001999,100.997765 191.983658,100.996063 192.330383,100.972122 
	C199.764420,93.542519 208.065674,89.354134 218.656265,90.873619 
	C219.333817,90.970833 220.214081,89.655243 221.000031,88.998444 
	C221.000000,89.000000 220.996597,88.999741 221.324951,88.962791 
	C222.078903,88.259254 222.504486,87.592659 222.922485,86.952446 
	C222.914902,86.978828 222.906998,86.920464 223.281891,86.949097 
	C228.299133,85.315460 228.944672,84.390709 227.581360,80.844757 
	C224.004745,81.945953 220.627350,83.158104 217.315323,84.528282 
	C208.862122,88.025345 208.873779,88.053528 203.125687,81.793907 
	C203.125687,81.793907 203.009811,81.394005 202.887589,80.923981 
	C202.229446,79.886192 201.693542,79.318420 201.157623,78.750648 
	C201.157623,78.750648 201.067917,78.362450 200.943832,77.867874 
	C199.939301,76.156433 199.058838,74.939575 198.178375,73.722717 
	C198.178375,73.722717 198.097183,73.348694 197.975388,72.842392 
	C196.341553,70.069176 194.829529,67.802261 193.317490,65.535347 
	C193.436096,64.259033 193.554688,62.982719 194.234009,61.386616 
	C196.844971,59.367203 198.895203,57.667576 200.945435,55.967957 
	C201.263809,55.857601 201.529587,55.671955 202.130264,55.164757 
	C202.736954,54.670898 202.956131,54.423306 203.175308,54.175713 
	C203.175308,54.175713 203.127106,54.225719 203.503372,54.188499 
	C205.368668,53.176929 206.857697,52.202576 208.346710,51.228222 
	C208.346710,51.228218 208.698502,51.162762 209.112793,51.032219 
	C209.769135,50.650040 210.011185,50.398403 210.253235,50.146767 
	C210.253235,50.146763 210.646683,50.075893 211.075500,49.959244 
	C211.742874,49.606041 211.981415,49.369492 212.219940,49.132942 
	C212.219940,49.132938 212.618088,49.043335 213.136047,48.926575 
	C216.197128,47.259285 218.740265,45.708752 221.283401,44.158226 
	C221.283401,44.158230 221.664078,44.081711 222.120667,43.957771 
	C223.123215,43.293816 223.669159,42.753792 224.215103,42.213772 
	C224.215103,42.213776 224.073776,42.166519 224.499847,42.151024 
	C227.356689,39.830353 229.787460,37.525181 232.218231,35.220013 
	C232.218231,35.220016 232.210129,35.101589 232.410233,35.138603 
	C232.610336,35.175613 233.004044,34.946342 233.268921,34.902397 
	C233.778839,34.606728 234.023880,34.355000 234.480896,34.063454 
	C234.692902,34.023632 235.047699,33.778164 235.374207,33.807190 
	C236.505112,33.575687 237.309494,33.315159 238.432098,33.047012 
	C239.503052,32.666149 240.255768,32.292908 241.275391,31.882290 
	C241.806976,31.606466 242.071671,31.368011 242.518112,31.125587 
	C242.699860,31.121618 243.005295,30.924408 243.257416,30.891840 
	C243.720322,30.607967 243.931122,30.356665 244.136459,30.081882 
	C244.130997,30.058403 244.119278,30.104712 244.119278,30.104712 
	C244.119278,30.104712 244.589737,30.041073 245.047241,29.915373 
	C245.744308,29.562977 245.983902,29.336281 246.223480,29.109585 
	C246.223480,29.109583 246.637634,29.057888 247.142242,28.981972 
	C248.425537,28.572472 249.204208,28.238890 249.982880,27.905306 
	C251.582001,28.036928 253.181122,28.168550 255.367889,28.459560 
	C256.298431,28.637817 256.641327,28.656691 256.984222,28.675566 
	C258.631836,29.027935 260.279480,29.380304 262.434204,29.926701 
	C262.941345,30.120729 263.225861,30.253527 263.225861,30.253527 
	C263.225861,30.253527 263.537964,30.217115 263.733093,30.391769 
	C264.346924,30.388847 264.765564,30.211271 265.538147,29.896248 
	C267.643127,29.281210 269.394226,28.803619 271.315308,28.434914 
	C271.780548,28.485830 271.975433,28.313875 272.311005,27.979317 
	C272.552002,27.930695 272.947021,27.637863 273.163940,27.636587 
	C273.567841,27.102743 273.754761,26.570173 273.997284,25.665436 
	C275.451355,24.420492 276.849854,23.547722 278.248016,22.725857 
	C278.247681,22.776760 278.323212,22.708492 278.231628,23.083775 
	C277.832489,28.691360 280.867981,32.335960 284.383850,36.093880 
	C289.993866,39.136368 294.275208,39.060268 295.460449,35.611774 
	C297.038025,31.021711 300.070526,28.158175 304.174988,26.079729 
	C305.193237,26.040163 306.211487,26.000595 307.993652,25.972645 
	C310.349060,26.042469 311.940552,26.100674 313.719788,26.353533 
	C314.252747,26.601448 314.597992,26.654709 315.293762,26.818451 
	C316.376007,26.978565 317.107727,27.028200 318.050842,27.280027 
	C318.823395,27.585150 319.384552,27.688082 320.156067,27.903845 
	C320.366425,28.016678 320.839203,28.082909 321.009796,28.386147 
	C322.890747,31.043058 324.120697,34.533218 326.415894,35.503418 
	C330.623962,37.282196 331.757507,40.106667 331.959412,44.008942 
	C331.864166,45.268139 331.768890,46.527332 331.515656,48.336830 
	C331.152039,49.227016 330.946381,49.566906 330.740723,49.906796 
M96.490746,164.836700 
	C96.745224,164.597946 96.999702,164.359177 97.658417,164.076523 
	C97.658417,164.076523 98.005363,163.864487 98.531952,163.836472 
	C98.780464,163.600601 99.028976,163.364731 99.878609,163.020935 
	C100.587669,162.631882 101.296722,162.242813 102.536079,161.831345 
	C102.800659,161.605682 103.065231,161.380020 103.920135,161.069305 
	C104.615685,160.694534 105.311226,160.319778 106.553169,159.891815 
	C106.821838,159.652130 107.090515,159.412445 107.712837,159.153702 
	C107.712837,159.153702 108.007080,158.956573 108.561470,158.905869 
	C108.832573,158.662521 109.103683,158.419174 109.725479,158.142731 
	C109.725479,158.142731 110.006279,157.930054 110.705238,157.936096 
	C112.451263,156.948425 114.197289,155.960754 116.532043,154.891724 
	C117.016991,154.573593 117.501930,154.255463 118.536308,153.881912 
	C118.809822,153.644012 119.083336,153.406113 119.957306,153.119614 
	C120.642693,152.749374 121.328072,152.379120 122.568878,151.924545 
	C122.844414,151.678345 123.119942,151.432129 123.729378,151.184418 
	C123.729378,151.184418 124.006241,150.997726 124.574364,150.937866 
	C124.855843,150.691147 125.137321,150.444443 125.746552,150.187454 
	C125.746552,150.187454 126.006561,149.987640 126.797791,149.962372 
	C130.210602,149.833267 133.623428,149.704163 137.447372,150.266800 
	C137.731506,151.850800 138.015640,153.434814 138.153839,155.888290 
	C138.153839,158.113800 138.153839,160.339294 138.153839,162.935318 
	C140.240295,163.181931 142.105103,163.402344 144.711426,163.835693 
	C145.989716,163.971298 147.267990,164.106903 149.041077,164.878922 
	C150.614868,165.217545 152.184418,165.824173 153.763153,165.849091 
	C161.167435,165.966034 168.574249,165.922958 176.359940,166.108826 
	C176.359940,166.108826 176.775864,166.136490 177.183426,166.595245 
	C177.777481,166.653442 178.371536,166.711655 179.544601,167.165588 
	C181.005722,167.791336 182.466858,168.417068 184.233658,169.532227 
	C185.206558,169.387527 186.179459,169.242828 187.813446,169.056732 
	C188.530701,168.330078 189.247955,167.603424 190.589523,166.765564 
	C190.681946,166.172241 190.774368,165.578918 191.009964,164.059753 
	C190.944504,155.051117 190.879044,146.042480 190.609863,136.393250 
	C189.358856,136.568268 188.107864,136.743301 186.215805,136.893311 
	C185.803818,136.998489 185.391830,137.103653 184.231461,137.101669 
	C182.831329,137.427475 181.431183,137.753265 179.213821,138.002121 
	C178.130722,138.121536 177.047638,138.240952 175.458023,138.267883 
	C175.171371,138.445206 174.884720,138.622528 173.789612,138.798523 
	C167.848511,139.270447 161.907410,139.742371 155.110641,140.049194 
	C153.075684,140.068192 151.040726,140.087204 148.948425,140.008514 
	C148.948425,140.008514 148.848801,140.062424 148.429733,139.601807 
	C147.626938,139.460190 146.824127,139.318573 145.290741,138.988724 
	C144.288803,138.937057 143.286865,138.885391 141.760941,138.422501 
	C140.720612,138.545807 139.680283,138.669098 137.827850,138.725311 
	C136.213120,138.931000 134.598389,139.136673 132.479568,139.258423 
	C132.198746,139.438629 131.917923,139.618835 130.847412,139.782135 
	C129.550613,139.981125 128.253815,140.180130 126.273140,140.208313 
	C125.191223,140.502548 124.109314,140.796783 122.178040,141.044769 
	C120.804932,141.308716 119.431831,141.572678 117.402672,141.533844 
	C115.572807,142.002014 113.742943,142.470184 111.165619,142.939941 
	C110.431602,143.062943 109.697594,143.185944 108.349808,143.182312 
	C107.601555,143.463989 106.853302,143.745667 105.387276,144.017410 
	C104.917160,144.100357 104.447052,144.183304 103.380745,144.119797 
	C102.840477,144.365524 102.300209,144.611237 101.361549,144.862930 
	C101.361549,144.862930 101.010490,145.051376 100.376282,145.066589 
	C99.790680,145.638168 99.205078,146.209763 97.889343,146.873657 
	C84.205963,149.669312 76.496864,159.762924 68.994377,170.417908 
	C77.673782,169.873962 86.286461,170.129776 94.558777,165.791534 
	C94.977570,165.495728 95.396370,165.199921 95.919266,164.956055 
	C95.919266,164.956055 95.957733,164.846268 96.490746,164.836700 
M276.099915,40.667648 
	C277.371063,39.563442 278.642212,38.459240 279.913391,37.355034 
	C279.538757,36.691933 279.164124,36.028835 278.789490,35.365734 
	C276.285126,36.273685 273.780762,37.181637 271.276398,38.089592 
	C272.640350,38.980965 274.004303,39.872334 276.099915,40.667648 
z"/>
<path fill="none" opacity="1.000000" stroke="none" 
	d="
M316.026917,64.865219 
	C312.531494,67.050346 309.001160,69.209732 312.392914,74.123222 
	C312.632294,74.469948 312.747833,75.335556 312.555176,75.483536 
	C308.178680,78.844406 311.645508,83.231163 310.958221,87.046112 
	C310.568298,89.210228 309.775177,91.301704 309.057983,93.792999 
	C309.300903,95.229309 310.493042,97.692345 309.782043,99.328163 
	C309.029114,101.060402 306.466248,102.005920 304.693878,103.295044 
	C304.942444,103.728165 305.191040,104.161285 305.439606,104.594406 
	C307.071442,104.204529 308.703247,103.814644 311.555725,103.133118 
	C310.685730,105.681831 310.080719,107.497177 309.443115,109.301003 
	C309.188660,110.020920 308.402679,111.026665 308.638153,111.374298 
	C311.693359,115.884872 309.209259,116.586098 305.214508,117.109390 
	C300.460205,117.732170 302.899139,120.993645 303.958435,124.066635 
	C300.833832,123.195206 298.224396,122.828590 295.948792,121.754646 
	C291.726929,119.762169 287.772644,117.200485 283.541443,115.231476 
	C282.466553,114.731270 280.769165,115.568718 279.357849,115.791542 
	C279.761414,117.074821 279.879974,118.585739 280.662964,119.565948 
	C281.240479,120.288933 282.685242,120.319221 284.090118,120.769112 
	C281.997131,125.343704 278.110718,123.554756 274.428528,123.991943 
	C273.827423,123.970001 273.485199,123.933495 273.333008,123.565399 
	C274.199036,120.451256 275.217285,117.705215 276.506744,114.786880 
	C277.190369,113.435966 277.602722,112.257347 278.470398,111.009476 
	C282.295380,111.102974 285.665070,111.265739 289.120605,111.552658 
	C289.346130,111.828217 289.514435,111.934074 289.948883,112.221321 
	C291.062683,113.037727 291.938995,113.627197 292.815338,114.216660 
	C292.815338,114.216652 292.909088,114.228256 292.989410,114.498672 
	C293.737213,115.291458 294.404724,115.813828 295.328369,116.545616 
	C296.472260,116.796471 297.359955,116.837914 298.608856,116.881737 
	C302.230560,114.892067 304.749023,108.527794 303.765198,105.798233 
	C303.127289,104.028336 302.799072,101.877991 303.158966,100.062012 
	C305.125610,90.139244 307.827820,80.336784 309.276550,70.347847 
	C309.978485,65.507942 311.554565,63.983070 316.026917,64.865219 
z"/>
<path fill="#707ADA" opacity="1.000000" stroke="none" 
	d="
M189.822464,102.828911 
	C187.160400,104.790840 184.713837,107.189629 181.794418,108.629921 
	C174.118347,112.416893 166.401047,116.242592 158.371033,119.141083 
	C153.995377,120.720505 148.923737,121.080994 144.212143,120.884514 
	C131.257736,120.344299 119.910660,124.053535 108.371933,130.018402 
	C98.458199,135.143234 87.381767,139.859421 75.251442,135.320099 
	C71.190842,133.800583 67.510658,135.877899 65.764275,139.716019 
	C63.476643,144.743668 62.015053,150.140549 59.899906,155.255280 
	C57.992813,159.866913 55.683903,164.312363 53.227245,168.491852 
	C53.499073,166.749207 54.095863,165.345856 54.692657,163.942490 
	C57.632526,155.634735 60.362713,147.244659 63.581230,139.046310 
	C65.984467,132.924683 69.888069,130.945663 75.890839,133.187729 
	C85.155930,136.648300 93.809052,134.214615 101.728516,130.223343 
	C116.577721,122.739578 131.502884,117.062675 148.590515,119.376823 
	C151.658707,119.792351 155.197174,118.481613 158.205399,117.220810 
	C164.010132,114.787933 169.591431,111.821976 175.979507,108.979126 
	C181.069931,106.863792 185.446198,104.846352 189.822464,102.828911 
z"/>
<path fill="#6F79DB" opacity="1.000000" stroke="none" 
	d="
M316.400879,64.836899 
	C311.554565,63.983070 309.978485,65.507942 309.276550,70.347847 
	C307.827820,80.336784 305.125610,90.139244 303.158966,100.062012 
	C302.799072,101.877991 303.127289,104.028336 303.765198,105.798233 
	C304.749023,108.527794 302.230560,114.892067 298.348663,116.663132 
	C296.842255,116.406837 295.957245,116.371513 295.072205,116.336197 
	C294.404724,115.813828 293.737213,115.291458 292.948730,114.474823 
	C301.265778,113.716309 302.052734,112.485199 300.288086,104.043983 
	C299.939423,102.376144 300.831390,100.363373 301.428162,98.603600 
	C302.311340,95.999352 302.172577,94.630013 298.350220,95.807365 
	C296.138184,95.562027 294.539307,95.421959 292.940460,95.281891 
	C294.635406,93.614151 299.196198,93.632683 296.277985,89.180702 
	C295.822266,88.485458 297.252808,86.550316 297.816864,85.190918 
	C298.911194,82.553627 299.819489,79.815125 301.171783,77.317184 
	C302.105438,75.592537 303.658752,74.204323 304.928253,72.660103 
	C305.529083,71.929237 306.326447,71.272736 306.672241,70.433220 
	C309.562408,63.416744 314.219116,60.683361 321.654419,62.161274 
	C325.454071,62.916534 329.144409,64.221863 332.934174,65.611221 
	C331.556946,66.653595 330.129700,67.363319 328.344635,68.136635 
	C327.562195,68.080856 327.137543,67.961479 326.216248,67.537689 
	C324.352264,63.681664 321.717377,64.270355 318.986725,65.171982 
	C318.249451,65.050850 317.512146,64.929718 316.400879,64.836899 
z"/>
<path fill="#717AD8" opacity="1.000000" stroke="none" 
	d="
M38.900150,221.899384 
	C41.514065,217.223679 44.076107,212.518036 46.754120,207.879349 
	C50.711941,201.023849 54.930363,194.312134 58.688637,187.350662 
	C60.848541,183.349869 63.547058,181.497223 68.249924,180.799484 
	C76.554077,179.567444 84.598709,176.590088 92.902298,175.349243 
	C102.036400,173.984253 111.336960,173.706818 120.574364,173.097565 
	C121.565804,173.032181 122.619637,173.912766 123.359741,174.734772 
	C114.015717,175.658478 104.956490,176.201920 95.897263,176.745377 
	C93.848564,177.135223 91.799866,177.525085 89.020844,178.006470 
	C86.515137,178.700912 84.739738,179.303818 82.964340,179.906723 
	C82.507561,179.981659 82.050774,180.056610 81.037704,180.237259 
	C80.153305,180.417557 79.916321,180.606506 79.770462,180.909821 
	C79.358589,180.949661 78.946716,180.989502 77.985703,181.133453 
	C77.162933,181.443497 76.889320,181.649445 76.615700,181.855392 
	C75.932144,181.930038 75.248596,182.004669 73.970367,182.153778 
	C72.893829,182.466568 72.411957,182.704926 71.930084,182.943268 
	C71.930084,182.943268 72.003494,182.985840 71.560593,182.939011 
	C68.132996,183.854965 64.162224,183.952591 62.386681,185.976273 
	C59.469898,189.300720 57.976704,193.874176 55.883255,197.920990 
	C55.883259,197.920990 55.938545,198.008026 55.644394,198.143723 
	C50.911182,205.524002 46.472118,212.768570 42.033058,220.013153 
	C41.448429,220.566254 40.863804,221.119354 39.960213,221.927460 
	C39.641243,222.182465 39.241882,222.227081 39.156136,222.145477 
	C39.070393,222.063889 38.900154,221.899384 38.900150,221.899384 
z"/>
<path fill="#7881D7" opacity="1.000000" stroke="none" 
	d="
M215.384323,177.200607 
	C215.980560,174.229645 216.455246,171.228012 217.195831,168.293472 
	C219.414597,159.501678 221.895050,150.772675 223.941513,141.942245 
	C224.755280,138.430923 224.233276,134.583038 225.227936,131.151733 
	C225.745148,129.367462 228.107895,127.197945 229.878296,126.954018 
	C231.675919,126.706329 234.457794,128.115448 235.593613,129.680679 
	C238.042618,133.055542 239.712646,136.995682 242.807114,140.418121 
	C242.645294,137.454376 242.483459,134.490631 242.760834,131.558441 
	C243.824081,135.730438 244.448135,139.870880 245.072174,144.011322 
	C244.652405,144.759079 244.232635,145.506851 243.486572,146.753235 
	C242.690781,148.131241 242.221268,149.010620 241.751740,149.889984 
	C241.243240,150.455566 240.734741,151.021133 239.855576,151.949463 
	C238.602234,153.072968 237.719559,153.833694 236.836884,154.594421 
	C235.988342,154.278519 235.139801,153.962616 234.454422,153.046448 
	C235.765701,150.506409 237.046524,148.630417 238.019287,146.606354 
	C238.776428,145.030975 239.969421,143.005020 239.528351,141.647247 
	C238.520126,138.543533 236.629272,135.726547 235.096924,132.793121 
	C235.096909,132.793121 235.068680,132.376312 234.886322,131.882675 
	C232.971344,130.632584 230.638535,128.804443 229.642120,129.362488 
	C228.011963,130.275452 226.837814,132.615906 226.240097,134.587296 
	C225.637772,136.573837 225.972443,138.844452 225.896561,140.990601 
	C225.536148,143.316269 225.175735,145.641937 224.651978,148.588425 
	C224.433929,149.782700 224.379211,150.356171 224.324493,150.929626 
	C224.176041,151.628006 224.027588,152.326385 223.716614,153.539185 
	C223.362305,154.324554 223.318588,154.617538 223.422958,154.932541 
	C223.231003,155.682861 223.039062,156.433197 222.571442,157.839569 
	C219.991959,164.730606 217.688141,170.965607 215.384323,177.200607 
z"/>
<path fill="none" opacity="1.000000" stroke="none" 
	d="
M260.295288,152.821884 
	C258.862152,152.514877 257.429016,152.207870 255.487335,151.502380 
	C254.610825,147.728394 254.242874,144.352890 253.919159,140.540619 
	C253.577377,135.733810 253.191360,131.363739 253.032028,126.758148 
	C255.057709,127.922714 256.776520,130.377350 258.671021,130.521347 
	C263.945618,130.922272 264.266998,133.984253 263.612610,138.026306 
	C263.240875,138.222198 263.107269,138.327332 262.576172,138.367035 
	C261.369293,139.491837 259.921753,140.655273 259.870361,141.877365 
	C259.717621,145.513168 260.113708,149.172028 260.295288,152.821884 
z"/>
<path fill="#7881D7" opacity="1.000000" stroke="none" 
	d="
M136.108902,178.887527 
	C144.782440,176.383667 151.300888,181.954544 158.596054,184.772568 
	C165.404343,187.402512 172.302826,189.862549 179.305222,191.904938 
	C184.310074,193.364700 189.514511,194.332581 194.697830,194.941071 
	C201.747986,195.768707 206.687302,192.309982 209.954773,186.191528 
	C210.327805,185.492996 210.987183,184.947388 211.804077,184.607666 
	C211.274612,186.849991 210.454895,188.815521 209.635162,190.781036 
	C209.368622,190.911652 209.166153,191.108246 208.665634,191.759644 
	C204.200027,193.795746 200.096527,195.443024 195.993011,197.090302 
	C194.358276,197.004501 192.723526,196.918701 190.390930,196.623383 
	C187.791031,195.983704 185.888977,195.553528 183.986938,195.123367 
	C183.986938,195.123367 183.570908,194.949875 183.148941,194.737671 
	C182.177170,194.468811 181.627380,194.412170 181.077576,194.355530 
	C180.622284,194.237076 180.166992,194.118622 179.001221,193.874115 
	C169.860474,190.827881 161.430222,187.907669 152.999954,184.987457 
	C151.581772,184.253952 150.163574,183.520416 148.157822,182.498810 
	C145.038605,181.785049 142.506943,181.359406 139.975296,180.933777 
	C138.860184,180.685364 137.745071,180.436966 136.255905,179.906921 
	C135.881851,179.625275 135.774109,179.246323 135.857590,179.156433 
	C135.941071,179.066528 136.108902,178.887527 136.108902,178.887527 
z"/>
<path fill="none" opacity="1.000000" stroke="none" 
	d="
M245.446747,144.019714 
	C244.448135,139.870880 243.824081,135.730438 242.999435,131.260300 
	C242.749237,130.503616 242.699631,130.076645 242.837021,129.102875 
	C244.319901,127.339722 245.615784,126.123360 246.911667,124.906998 
	C247.197144,124.446259 247.482620,123.985535 248.254837,123.327354 
	C249.347443,124.075676 249.953308,125.021454 250.383972,126.370941 
	C250.416260,131.155136 250.623734,135.535614 250.612335,140.247986 
	C249.817459,146.060898 249.241425,151.541885 248.665390,157.022888 
	C246.858368,156.037216 245.051361,155.051529 243.068634,153.970016 
	C244.571762,151.616791 246.204941,149.433640 247.344879,147.017746 
	C247.636993,146.398682 246.371292,145.044540 245.446747,144.019714 
z"/>
<path fill="#6B76DD" opacity="1.000000" stroke="none" 
	d="
M250.559174,125.967224 
	C249.953308,125.021454 249.347443,124.075676 248.373322,123.081940 
	C249.271057,120.119949 250.480545,119.062393 253.187073,122.121262 
	C255.522964,124.761284 258.369232,127.500259 261.553467,128.701309 
	C265.634979,130.240814 270.504120,125.730927 271.797729,120.113472 
	C272.404327,117.479263 272.733856,114.781235 273.732452,112.269089 
	C274.929138,113.270416 275.582306,114.114799 276.235504,114.959175 
	C275.217285,117.705215 274.199036,120.451256 273.281525,123.800568 
	C273.403564,124.751373 273.559814,125.020714 273.850952,125.211853 
	C273.732574,125.528061 273.614197,125.844276 273.114410,126.453415 
	C271.156891,128.195755 269.580780,129.645172 267.790924,131.147308 
	C267.290009,131.397446 267.211456,131.657806 267.256744,132.314499 
	C267.211090,133.102493 267.250214,133.557098 267.235657,134.256470 
	C267.240326,134.657761 267.298767,134.814255 267.307678,135.376312 
	C267.246552,136.871536 267.234985,137.961227 266.885010,138.924713 
	C265.647980,138.510864 264.749329,138.223221 263.850708,137.935562 
	C264.266998,133.984253 263.945618,130.922272 258.671021,130.521347 
	C256.776520,130.377350 255.057709,127.922714 252.810898,126.640839 
	C251.761780,126.495117 251.160492,126.231171 250.559174,125.967224 
z"/>
<path fill="#6D79DB" opacity="1.000000" stroke="none" 
	d="
M248.768051,157.394730 
	C249.241425,151.541885 249.817459,146.060898 250.937515,140.287445 
	C252.279343,140.322449 253.077118,140.649902 253.874908,140.977371 
	C254.242874,144.352890 254.610825,147.728394 255.046875,151.434967 
	C255.035080,153.576935 254.955200,155.387863 254.691711,157.883118 
	C254.404739,160.038879 254.301361,161.510300 254.197998,162.981735 
	C254.197998,162.981735 254.032486,163.434692 253.588013,163.739380 
	C251.767929,164.072205 250.392319,164.100342 249.016693,164.128479 
	C248.751022,163.393570 248.485352,162.658661 248.362930,161.458038 
	C248.740204,160.709579 248.794968,160.395691 248.670471,160.050629 
	C248.737213,159.289276 248.803970,158.527924 248.768051,157.394730 
z"/>
<path fill="none" opacity="1.000000" stroke="none" 
	d="
M263.537964,30.217115 
	C263.537964,30.217115 263.225861,30.253527 263.225861,30.253527 
	C263.225861,30.253527 262.941345,30.120729 262.847565,30.000977 
	C264.869904,26.698502 267.106934,23.588083 269.066284,20.311625 
	C270.835297,17.353516 273.203552,16.781107 276.162354,18.002052 
	C279.574036,19.409874 283.010681,20.808853 286.213379,22.608606 
	C286.630310,22.842892 285.719696,25.439554 284.826355,26.753307 
	C282.260223,25.279249 280.291718,23.993868 278.323212,22.708490 
	C278.323212,22.708492 278.247681,22.776760 278.115814,22.427679 
	C273.684021,20.775518 272.105652,22.023033 272.985413,26.292704 
	C272.967377,26.920822 272.957184,27.279343 272.947021,27.637863 
	C272.947021,27.637863 272.552002,27.930695 272.144501,27.987875 
	C271.517029,28.090889 271.319794,28.184546 271.145325,28.326029 
	C269.394226,28.803619 267.643127,29.281210 265.123169,29.917019 
	C264.082184,30.122528 263.810089,30.169823 263.537964,30.217115 
z"/>
<path fill="none" opacity="1.000000" stroke="none" 
	d="
M303.765930,26.047459 
	C300.070526,28.158175 297.038025,31.021711 295.460449,35.611774 
	C294.275208,39.060268 289.993866,39.136368 284.343811,35.724907 
	C284.232849,33.767120 284.492645,32.362720 284.752411,30.958317 
	C286.317780,31.738897 287.883148,32.519482 289.418335,33.285023 
	C292.976532,27.188850 296.984467,25.194803 303.765930,26.047459 
z"/>
<path fill="none" opacity="1.000000" stroke="none" 
	d="
M322.004883,27.000687 
	C324.539124,24.676340 326.432037,25.058659 329.169708,27.378057 
	C331.931793,29.718098 335.775665,30.781176 340.292175,32.955765 
	C338.601257,34.486382 336.664490,36.239517 334.044373,37.843857 
	C329.580811,34.453358 325.800598,31.211653 322.015472,27.727650 
	C322.010559,27.485353 322.004883,27.000687 322.004883,27.000687 
z"/>
<path fill="#717AD8" opacity="1.000000" stroke="none" 
	d="
M38.034672,164.939941 
	C34.427940,166.769165 30.683758,168.378265 27.266815,170.511505 
	C25.266691,171.760208 23.788530,173.845001 22.075562,175.553665 
	C24.236269,177.033524 26.215307,178.998566 28.596302,179.890121 
	C33.245403,181.630936 38.119221,182.771637 42.990074,184.546234 
	C43.080151,184.931641 43.015945,184.981583 42.685707,185.001114 
	C41.919571,185.078522 41.483669,185.136398 40.738739,185.090668 
	C39.997250,184.972687 39.564789,184.958298 38.921005,184.755600 
	C38.166729,184.489761 37.623772,184.412247 36.688759,184.233337 
	C35.224174,184.045547 34.151649,183.959152 33.079121,183.872772 
	C33.079121,183.872772 32.991695,183.976501 32.787453,183.677002 
	C28.054937,181.590256 23.526667,179.803009 18.998398,178.015778 
	C19.044056,176.960403 19.089714,175.905029 19.472086,174.290649 
	C20.242889,172.838821 20.676981,171.945984 21.111071,171.053162 
	C21.417229,170.959641 21.664412,170.783401 22.298401,170.200089 
	C25.878393,168.301895 29.012602,166.728073 32.146812,165.154266 
	C32.146812,165.154266 32.056610,165.188934 32.430157,165.130432 
	C33.484844,164.525467 34.165981,163.979019 34.847122,163.432571 
	C35.034248,163.440002 35.221382,163.447449 35.943314,163.609894 
	C36.996964,164.156570 37.515816,164.548248 38.034672,164.939941 
z"/>
<path fill="none" opacity="1.000000" stroke="none" 
	d="
M268.004700,131.094604 
	C269.580780,129.645172 271.156891,128.195755 273.069336,126.702850 
	C277.714935,131.545624 276.606537,137.134659 269.875305,141.014618 
	C268.578644,140.820816 267.973083,140.588242 267.404358,140.136261 
	C267.424225,139.614227 267.351654,139.325592 267.223389,139.050919 
	C267.234985,137.961227 267.246552,136.871536 267.421936,135.273193 
	C267.714752,134.437286 267.615967,134.186325 267.289368,134.011703 
	C267.250214,133.557098 267.211090,133.102493 267.411133,132.204224 
	C267.833771,131.573349 267.951874,131.351349 268.004700,131.094604 
z"/>
<path fill="none" opacity="1.000000" stroke="none" 
	d="
M209.915222,190.937683 
	C210.454895,188.815521 211.274612,186.849991 212.137558,184.530945 
	C212.180786,184.177414 212.153122,184.149277 212.444244,183.964752 
	C213.580093,181.579132 214.424805,179.378006 215.269531,177.176895 
	C215.269531,177.176895 215.326340,177.184723 215.355331,177.192657 
	C217.688141,170.965607 219.991959,164.730606 222.517685,158.223877 
	C226.783188,158.815674 223.764282,161.509552 223.758530,163.087799 
	C223.748917,165.731155 222.631393,168.372787 221.959045,171.009766 
	C221.798325,171.640076 221.699142,172.676636 221.326828,172.802567 
	C217.164444,174.210464 218.017868,178.464142 216.478058,181.313812 
	C214.626892,184.739670 213.291550,188.444214 211.732864,192.028107 
	C211.220337,191.716843 210.707809,191.405579 209.915222,190.937683 
z"/>
<path fill="#D9E2FD" opacity="1.000000" stroke="none" 
	d="
M203.110291,82.180298 
	C208.873779,88.053528 208.862122,88.025345 217.315323,84.528282 
	C220.627350,83.158104 224.004745,81.945953 227.467041,81.148956 
	C226.023483,83.397530 224.465240,85.159004 222.906998,86.920471 
	C222.906998,86.920464 222.914902,86.978828 222.650635,87.063538 
	C221.923111,87.765404 221.459854,88.382576 220.996597,88.999741 
	C220.996597,88.999741 221.000000,89.000000 220.535767,89.025681 
	C215.037598,89.339897 210.003662,89.628418 204.969727,89.916939 
	C204.344788,87.466858 203.719849,85.016769 203.110291,82.180298 
z"/>
<path fill="none" opacity="1.000000" stroke="none" 
	d="
M235.060410,133.229919 
	C236.629272,135.726547 238.520126,138.543533 239.528351,141.647247 
	C239.969421,143.005020 238.776428,145.030975 238.019287,146.606354 
	C237.046524,148.630417 235.765701,150.506409 234.402786,152.737091 
	C230.824463,152.941315 228.644196,150.196320 229.454834,147.959076 
	C230.380524,145.404282 233.584412,143.674973 236.145370,141.259628 
	C235.877426,139.445541 235.450668,136.556122 235.060410,133.229919 
z"/>
<path fill="none" opacity="1.000000" stroke="none" 
	d="
M96.167130,177.087677 
	C104.956490,176.201920 114.015717,175.658478 123.543198,175.090637 
	C124.330795,175.158310 124.650139,175.250366 125.459076,175.554184 
	C127.633186,176.514740 129.317688,177.263519 131.002197,178.012299 
	C130.384796,178.623657 129.509949,179.881180 129.187378,179.752655 
	C118.915710,175.659943 108.262993,178.558136 97.819252,177.917664 
	C97.350288,177.888901 96.897385,177.598511 96.167130,177.087677 
z"/>
<path fill="#717AD8" opacity="1.000000" stroke="none" 
	d="
M27.424351,211.616196 
	C23.807333,218.115479 30.685419,222.609436 30.233232,229.844604 
	C33.502560,226.656021 35.867451,224.349533 38.566246,221.971222 
	C38.900154,221.899384 39.070393,222.063889 39.168865,222.331757 
	C39.267338,222.599640 39.367573,222.960098 39.367573,222.960098 
	C39.367573,222.960098 39.058254,223.345947 38.692307,223.752365 
	C36.090363,227.050751 33.854370,229.942719 31.618382,232.834686 
	C30.970022,232.878708 30.321665,232.922729 29.281733,232.558517 
	C27.684647,227.849548 28.673063,222.713425 24.141506,219.679169 
	C24.141506,219.679169 24.071737,219.296143 23.930695,218.895905 
	C23.789650,218.495667 23.484623,218.105179 23.484623,218.105179 
	C23.979025,216.752319 24.473427,215.399445 25.311434,213.550201 
	C26.244810,212.574615 26.834579,212.095413 27.424351,211.616196 
z"/>
<path fill="none" opacity="1.000000" stroke="none" 
	d="
M321.965393,26.640259 
	C322.004883,27.000687 322.010559,27.485353 321.719391,27.749012 
	C321.231903,28.036081 321.035553,28.059494 320.839203,28.082909 
	C320.839203,28.082909 320.366425,28.016678 319.960144,27.685715 
	C318.982422,27.262445 318.410950,27.170141 317.839478,27.077835 
	C317.107727,27.028200 316.376007,26.978565 315.107056,26.631355 
	C314.223938,26.275480 313.877991,26.217178 313.532074,26.158878 
	C311.940552,26.100674 310.349060,26.042469 308.367798,25.892994 
	C307.892303,20.141829 312.725220,20.962919 315.854218,20.369013 
	C319.953705,19.590906 320.705780,23.441692 321.965393,26.640259 
z"/>
<path fill="#707ADA" opacity="1.000000" stroke="none" 
	d="
M204.648590,90.072876 
	C210.003662,89.628418 215.037598,89.339897 220.535782,89.024124 
	C220.214081,89.655243 219.333817,90.970833 218.656265,90.873619 
	C208.065674,89.354134 199.764420,93.542519 192.311584,100.716415 
	C191.925934,100.314919 191.905792,100.145187 191.885666,99.975449 
	C196.032928,96.726570 200.180176,93.477699 204.648590,90.072876 
z"/>
<path fill="none" opacity="1.000000" stroke="none" 
	d="
M56.265060,197.911102 
	C57.976704,193.874176 59.469898,189.300720 62.386681,185.976273 
	C64.162224,183.952591 68.132996,183.854965 71.534805,182.905273 
	C70.764168,184.177185 69.739990,186.274765 68.359261,186.544022 
	C63.397923,187.511551 60.481224,189.346909 63.266361,194.856155 
	C60.752937,196.012360 58.699902,196.956787 56.265060,197.911102 
z"/>
<path fill="none" opacity="1.000000" stroke="none" 
	d="
M38.320145,164.973816 
	C37.515816,164.548248 36.996964,164.156570 36.218491,163.553375 
	C37.471004,163.244858 39.430443,162.502502 40.406448,163.179001 
	C42.773849,164.819916 44.508610,165.622665 47.414711,163.894562 
	C49.003429,162.949844 51.708767,163.882965 54.301609,163.955872 
	C54.095863,165.345856 53.499073,166.749207 52.868874,168.484985 
	C52.835472,168.817398 52.855801,168.861008 52.620056,168.952087 
	C52.229698,169.354568 52.075085,169.665970 51.920471,169.977371 
	C50.564251,169.961197 49.208031,169.945007 47.427422,169.576782 
	C44.681488,168.111496 42.359951,166.998230 40.038414,165.884949 
	C39.560818,165.592529 39.083218,165.300110 38.320145,164.973816 
z"/>
<path fill="none" opacity="1.000000" stroke="none" 
	d="
M153.051529,185.331879 
	C161.430222,187.907669 169.860474,190.827881 178.647034,193.883240 
	C178.690826,194.556122 178.257156,195.600372 178.083237,195.558792 
	C170.021149,193.630157 161.322830,193.508835 154.649277,187.553543 
	C154.051498,187.020126 153.614670,186.306320 153.051529,185.331879 
z"/>
<path fill="none" opacity="1.000000" stroke="none" 
	d="
M27.915873,208.908081 
	C27.462526,206.282104 27.580379,204.150589 30.077341,202.135025 
	C31.553959,200.943069 31.857733,198.227280 32.537479,196.147247 
	C32.909317,195.009399 32.865570,192.776108 33.182049,192.744064 
	C34.640259,192.596466 36.159271,193.049545 37.830925,193.859650 
	C38.001911,194.615051 37.998459,194.797989 37.890884,195.308533 
	C35.758759,199.016296 33.730759,202.396469 31.702763,205.776627 
	C31.702765,205.776627 31.879990,205.723755 31.484135,205.786987 
	C30.137947,206.964386 29.187614,208.078552 28.155819,209.122833 
	C28.074356,209.052933 27.915873,208.908081 27.915873,208.908081 
z"/>
<path fill="none" opacity="1.000000" stroke="none" 
	d="
M42.400497,220.007339 
	C46.472118,212.768570 50.911182,205.524002 55.634949,198.093048 
	C55.411270,207.578506 49.707226,214.157639 42.400497,220.007339 
z"/>
<path fill="none" opacity="1.000000" stroke="none" 
	d="
M226.254044,140.945892 
	C225.972443,138.844452 225.637772,136.573837 226.240097,134.587296 
	C226.837814,132.615906 228.011963,130.275452 229.642120,129.362488 
	C230.638535,128.804443 232.971344,130.632584 234.775574,131.705566 
	C233.592773,132.819580 232.066620,133.384720 231.142883,134.464996 
	C229.445251,136.450348 228.102310,138.738968 226.254044,140.945892 
z"/>
<path fill="#6B76DD" opacity="1.000000" stroke="none" 
	d="
M267.367554,140.355682 
	C267.973083,140.588242 268.578644,140.820816 269.509155,141.058167 
	C270.217590,141.844025 270.601044,142.625076 271.082550,144.112061 
	C271.045074,146.699753 270.909576,148.581512 270.774048,150.463287 
	C270.296692,150.864700 269.819305,151.266113 268.911438,151.927856 
	C268.064148,152.489670 267.647308,152.791153 267.230438,153.092651 
	C265.200439,153.052689 263.170441,153.012741 260.717896,152.897339 
	C260.113708,149.172028 259.717621,145.513168 259.870361,141.877365 
	C259.921753,140.655273 261.369293,139.491837 262.476868,138.699219 
	C262.184113,141.707611 261.205811,144.311340 261.158020,146.932037 
	C261.132263,148.342743 262.425018,150.579147 263.625336,150.995926 
	C264.953278,151.457031 267.404694,150.740967 268.347107,149.653671 
	C269.224731,148.641159 269.006226,146.438934 268.818634,144.812515 
	C268.643158,143.291351 267.874908,141.838562 267.367554,140.355682 
z"/>
<path fill="#8489C7" opacity="1.000000" stroke="none" 
	d="
M284.731995,30.569433 
	C284.492645,32.362720 284.232849,33.767120 284.013092,35.540497 
	C280.867981,32.335960 277.832489,28.691360 278.231628,23.083773 
	C280.291718,23.993868 282.260223,25.279249 284.435730,26.816856 
	C284.665710,28.106239 284.688660,29.143393 284.731995,30.569433 
z"/>
<path fill="none" opacity="1.000000" stroke="none" 
	d="
M318.981934,65.532501 
	C321.717377,64.270355 324.352264,63.681664 325.885040,67.515564 
	C325.043518,69.873459 325.967682,73.886879 321.597443,72.666626 
	C317.957031,71.650139 317.994568,68.874115 318.981934,65.532501 
z"/>
<path fill="none" opacity="1.000000" stroke="none" 
	d="
M24.097328,220.120743 
	C28.673063,222.713425 27.684647,227.849548 28.956860,232.543564 
	C28.438143,233.555603 27.852726,234.174347 27.267303,234.793091 
	C26.205429,233.243820 24.492203,231.799286 24.222574,230.122604 
	C23.721609,227.007324 24.062664,223.756638 24.097328,220.120743 
z"/>
<path fill="none" opacity="1.000000" stroke="none" 
	d="
M191.495117,99.981842 
	C191.905792,100.145187 191.925934,100.314919 191.964859,100.740356 
	C191.983658,100.996063 192.001999,100.997765 191.725525,101.097908 
	C190.923935,101.761246 190.398804,102.324432 189.873657,102.887634 
	C189.873672,102.887634 189.851425,102.857567 189.836945,102.843239 
	C185.446198,104.846352 181.069931,106.863792 176.332336,108.874817 
	C178.819901,102.166550 185.285904,101.628983 191.495117,99.981842 
z"/>
<path fill="none" opacity="1.000000" stroke="none" 
	d="
M321.009796,28.386147 
	C321.035553,28.059494 321.231903,28.036081 321.724304,27.991310 
	C325.800598,31.211653 329.580811,34.453358 333.667480,37.850670 
	C333.978760,39.393253 333.983490,40.780224 333.985138,42.583447 
	C333.483093,43.265465 332.984161,43.531231 332.222290,43.902969 
	C331.757507,40.106667 330.623962,37.282196 326.415894,35.503418 
	C324.120697,34.533218 322.890747,31.043058 321.009796,28.386147 
z"/>
<path fill="#717AD8" opacity="1.000000" stroke="none" 
	d="
M32.055031,205.739532 
	C33.730759,202.396469 35.758759,199.016296 38.097866,195.191833 
	C38.664494,194.506180 38.751278,194.214569 38.669327,193.872711 
	C38.669327,193.872711 38.862438,193.808426 39.072811,193.723053 
	C39.547310,193.503220 39.612377,193.303711 39.478386,193.039169 
	C39.575813,192.871552 39.673241,192.703949 40.109573,192.087067 
	C41.610813,190.092422 42.773151,188.547043 43.935486,187.001663 
	C44.380928,187.316925 44.826370,187.632172 45.271816,187.947418 
	C40.983643,193.865753 36.695469,199.784088 32.055031,205.739532 
z"/>
<path fill="none" opacity="1.000000" stroke="none" 
	d="
M43.914944,186.750885 
	C42.773151,188.547043 41.610813,190.092422 40.166878,191.801971 
	C37.631088,189.507462 35.376900,187.048782 33.100914,184.231445 
	C34.151649,183.959152 35.224174,184.045547 36.893219,184.422028 
	C38.037266,184.789368 38.584797,184.866638 39.132324,184.943909 
	C39.564789,184.958298 39.997250,184.972687 40.926247,185.305237 
	C41.975521,185.734344 42.528259,185.845306 43.302048,185.976044 
	C43.523102,185.995819 43.966930,186.002090 43.966930,186.002090 
	C43.942753,186.168106 43.918575,186.334106 43.914944,186.750885 
z"/>
<path fill="none" opacity="1.000000" stroke="none" 
	d="
M196.079407,197.453247 
	C200.096527,195.443024 204.200027,193.795746 208.601105,191.964096 
	C208.267014,193.229034 207.747147,194.741394 206.974457,196.111130 
	C206.076889,197.702316 204.957581,199.168411 203.856812,200.804260 
	C201.323868,199.820160 198.744843,198.818161 196.079407,197.453247 
z"/>
<path fill="none" opacity="1.000000" stroke="none" 
	d="
M243.005295,30.924408 
	C243.005295,30.924408 242.699860,31.121618 242.241272,31.150829 
	C241.524612,31.426580 241.266556,31.673120 241.008499,31.919662 
	C240.255768,32.292908 239.503052,32.666149 238.096405,33.014549 
	C236.644241,33.252522 235.845963,33.515347 235.047699,33.778168 
	C235.047699,33.778164 234.692902,34.023632 234.212677,34.104698 
	C233.489639,34.439293 233.246841,34.692818 233.004044,34.946342 
	C233.004044,34.946342 232.610336,35.175613 232.383896,35.191788 
	C232.236069,30.222237 239.100937,26.816280 244.023926,29.736259 
	C244.119278,30.104712 244.130997,30.058403 243.891754,30.129520 
	C243.337036,30.352720 243.121292,30.593977 243.005295,30.924408 
z"/>
<path fill="none" opacity="1.000000" stroke="none" 
	d="
M270.856628,150.865860 
	C270.909576,148.581512 271.045074,146.699753 271.228943,144.404449 
	C272.986938,145.707764 274.946075,147.255203 276.283081,149.224930 
	C276.816376,150.010590 276.435242,152.277664 275.671783,152.917587 
	C273.582092,154.669083 271.715393,154.136017 270.856628,150.865860 
z"/>
<path fill="none" opacity="1.000000" stroke="none" 
	d="
M231.798859,35.186050 
	C229.787460,37.525181 227.356689,39.830353 224.573593,42.181862 
	C223.782715,40.512581 223.344177,38.796959 222.815582,36.729019 
	C225.992416,36.144047 228.685959,35.648067 231.798859,35.186050 
z"/>
<path fill="none" opacity="1.000000" stroke="none" 
	d="
M32.014839,232.886658 
	C33.854370,229.942719 36.090363,227.050751 38.622658,223.989624 
	C38.153191,227.615570 37.387417,231.410675 36.577595,235.424088 
	C35.112885,234.550293 33.762093,233.744461 32.014839,232.886658 
z"/>
<path fill="none" opacity="1.000000" stroke="none" 
	d="
M62.221588,136.273590 
	C61.003845,137.293686 60.038155,138.058762 59.072464,138.823837 
	C58.667923,138.633713 58.263382,138.443588 57.858841,138.253464 
	C58.511456,135.885818 59.164074,133.518173 59.964664,130.613693 
	C62.797680,132.313400 65.178864,133.164337 62.221588,136.273590 
z"/>
<path fill="none" opacity="1.000000" stroke="none" 
	d="
M19.002577,178.388474 
	C23.526667,179.803009 28.054937,181.590256 32.840176,183.634552 
	C32.633121,183.930496 32.169098,183.969376 31.022106,184.003128 
	C29.894438,183.997437 29.449736,183.996887 29.005037,183.996338 
	C25.672277,182.251282 22.339518,180.506226 19.002577,178.388474 
z"/>
<path fill="none" opacity="1.000000" stroke="none" 
	d="
M140.167847,181.221146 
	C142.506943,181.359406 145.038605,181.785049 147.819000,182.431824 
	C147.569183,185.692032 145.771149,185.366943 143.828278,184.179077 
	C142.590683,183.422424 141.510925,182.407593 140.167847,181.221146 
z"/>
<path fill="none" opacity="1.000000" stroke="none" 
	d="
M31.726112,165.103394 
	C29.012602,166.728073 25.878393,168.301895 22.399811,169.992676 
	C23.279644,165.023438 27.475046,165.371826 31.726112,165.103394 
z"/>
<path fill="#D9E2FD" opacity="1.000000" stroke="none" 
	d="
M200.628052,55.832062 
	C198.895203,57.667576 196.844971,59.367203 194.449829,61.119167 
	C195.568848,58.661095 195.761414,54.709698 200.628052,55.832062 
z"/>
<path fill="none" opacity="1.000000" stroke="none" 
	d="
M220.878021,44.107262 
	C218.740265,45.708752 216.197128,47.259285 213.303604,48.810139 
	C213.516769,44.152744 217.629669,45.108822 220.878021,44.107262 
z"/>
<path fill="#D9E2FD" opacity="1.000000" stroke="none" 
	d="
M193.227737,65.944290 
	C194.829529,67.802261 196.341553,70.069176 197.867554,72.684303 
	C194.597824,72.015198 192.724976,69.995903 193.227737,65.944290 
z"/>
<path fill="#7881D7" opacity="1.000000" stroke="none" 
	d="
M131.362823,178.037628 
	C129.317688,177.263519 127.633186,176.514740 125.704910,175.503052 
	C128.932648,176.227646 132.404175,177.215149 135.992310,178.545090 
	C136.108902,178.887527 135.941071,179.066528 135.672272,179.173187 
	C135.403473,179.279846 135.060974,179.426804 135.060974,179.426788 
	C133.948471,178.972183 132.835968,178.517578 131.362823,178.037628 
z"/>
<path fill="none" opacity="1.000000" stroke="none" 
	d="
M184.037933,195.471497 
	C185.888977,195.553528 187.791031,195.983704 189.982468,196.642502 
	C188.138062,196.948822 185.555084,199.667740 184.037933,195.471497 
z"/>
<path fill="#D9E2FD" opacity="1.000000" stroke="none" 
	d="
M207.953369,51.164650 
	C206.857697,52.202576 205.368668,53.176929 203.537598,54.182472 
	C204.650391,53.176140 206.105225,52.138611 207.953369,51.164650 
z"/>
<path fill="none" opacity="1.000000" stroke="none" 
	d="
M83.173401,180.185730 
	C84.739738,179.303818 86.515137,178.700912 88.651932,178.129517 
	C87.136375,178.928940 85.259415,179.696838 83.173401,180.185730 
z"/>
<path fill="none" opacity="1.000000" stroke="none" 
	d="
M20.715279,171.036102 
	C20.676981,171.945984 20.242889,172.838821 19.559238,173.895752 
	C18.606899,173.538071 17.904121,173.016281 17.201342,172.494507 
	C18.240721,172.002670 19.280104,171.510849 20.715279,171.036102 
z"/>
<path fill="none" opacity="1.000000" stroke="none" 
	d="
M27.488842,211.621948 
	C26.834579,212.095413 26.244810,212.574615 25.404232,213.200912 
	C25.816420,211.898590 26.479412,210.449188 27.529139,208.953934 
	C27.915873,208.908081 28.074356,209.052933 28.075302,209.439606 
	C27.936365,210.452805 27.796480,211.079315 27.656593,211.705841 
	C27.656595,211.705841 27.553331,211.627701 27.488842,211.621948 
z"/>
<path fill="none" opacity="1.000000" stroke="none" 
	d="
M254.482056,162.803192 
	C254.301361,161.510300 254.404739,160.038879 254.722534,158.273132 
	C254.880005,159.527420 254.823074,161.076019 254.482056,162.803192 
z"/>
<path fill="none" opacity="1.000000" stroke="none" 
	d="
M237.027069,154.917725 
	C237.719559,153.833694 238.602234,153.072968 239.765015,152.224319 
	C239.523178,153.554443 241.132004,156.913284 237.027069,154.917725 
z"/>
<path fill="none" opacity="1.000000" stroke="none" 
	d="
M242.112549,149.920944 
	C242.221268,149.010620 242.690781,148.131241 243.393875,147.063217 
	C244.201599,147.510361 244.775757,148.146133 245.349915,148.781906 
	C244.391052,149.171890 243.432205,149.561890 242.112549,149.920944 
z"/>
<path fill="none" opacity="1.000000" stroke="none" 
	d="
M249.175858,164.414795 
	C250.392319,164.100342 251.767929,164.072205 253.551758,163.977783 
	C252.787888,166.339340 251.250198,166.625656 249.175858,164.414795 
z"/>
<path fill="#D9E2FD" opacity="1.000000" stroke="none" 
	d="
M198.140610,74.082153 
	C199.058838,74.939575 199.939301,76.156433 200.824570,77.708298 
	C199.920547,76.842743 199.011688,75.642166 198.140610,74.082153 
z"/>
<path fill="none" opacity="1.000000" stroke="none" 
	d="
M249.811569,27.683590 
	C249.204208,28.238890 248.425537,28.572472 247.321381,28.874916 
	C247.877365,28.383142 248.758804,27.922506 249.811569,27.683590 
z"/>
<path fill="none" opacity="1.000000" stroke="none" 
	d="
M34.584583,163.290527 
	C34.165981,163.979019 33.484844,164.525467 32.479050,165.127808 
	C32.876949,164.505310 33.599499,163.826904 34.584583,163.290527 
z"/>
<path fill="none" opacity="1.000000" stroke="none" 
	d="
M79.536224,186.389175 
	C79.651772,185.941620 79.933678,185.667252 80.233482,185.414124 
	C80.241188,185.407623 80.445267,185.633743 80.557755,185.751389 
	C80.273476,186.022644 79.989204,186.293915 79.536224,186.389175 
z"/>
<path fill="none" opacity="1.000000" stroke="none" 
	d="
M223.887451,42.168442 
	C223.669159,42.753792 223.123215,43.293816 222.270355,43.834118 
	C222.495544,43.263973 223.027679,42.693546 223.887451,42.168442 
z"/>
<path fill="none" opacity="1.000000" stroke="none" 
	d="
M29.042431,184.294861 
	C29.449736,183.996887 29.894438,183.997437 30.672815,184.002045 
	C30.769676,184.522186 30.532858,185.038269 30.296040,185.554352 
	C29.890633,185.234039 29.485229,184.913727 29.042431,184.294861 
z"/>
<path fill="#D9E2FD" opacity="1.000000" stroke="none" 
	d="
M201.122131,79.077858 
	C201.693542,79.318420 202.229446,79.886192 202.761993,80.757957 
	C202.201294,80.509659 201.643951,79.957359 201.122131,79.077858 
z"/>
<path fill="none" opacity="1.000000" stroke="none" 
	d="
M72.205261,182.962784 
	C72.411957,182.704926 72.893829,182.466568 73.650772,182.287354 
	C73.444038,182.558411 72.962234,182.770355 72.205261,182.962784 
z"/>
<path fill="none" opacity="1.000000" stroke="none" 
	d="
M224.521774,150.714142 
	C224.379211,150.356171 224.433929,149.782700 224.687836,148.986816 
	C224.831039,149.342468 224.775040,149.920578 224.521774,150.714142 
z"/>
<path fill="none" opacity="1.000000" stroke="none" 
	d="
M181.281830,194.541977 
	C181.627380,194.412170 182.177170,194.468811 182.923584,194.734222 
	C182.575500,194.871475 182.030792,194.799942 181.281830,194.541977 
z"/>
<path fill="none" opacity="1.000000" stroke="none" 
	d="
M267.491455,153.064636 
	C267.647308,152.791153 268.064148,152.489670 268.756378,152.200806 
	C268.605347,152.487823 268.178894,152.762222 267.491455,153.064636 
z"/>
<path fill="none" opacity="1.000000" stroke="none" 
	d="
M39.509174,222.870331 
	C39.367573,222.960098 39.267338,222.599640 39.254608,222.413361 
	C39.241882,222.227081 39.641243,222.182465 39.840286,222.210495 
	C39.951675,222.449219 39.822155,222.629898 39.509174,222.870331 
z"/>
<path fill="none" opacity="1.000000" stroke="none" 
	d="
M23.409273,218.233414 
	C23.484623,218.105179 23.789650,218.495667 23.811127,218.742279 
	C23.493263,218.901428 23.327036,218.692337 23.409273,218.233414 
z"/>
<path fill="none" opacity="1.000000" stroke="none" 
	d="
M38.517090,193.883240 
	C38.751278,194.214569 38.664494,194.506180 38.201996,194.864227 
	C37.998459,194.797989 38.001911,194.615051 38.032608,194.157516 
	C38.059845,193.882935 38.364853,193.893753 38.517090,193.883240 
z"/>
<path fill="none" opacity="1.000000" stroke="none" 
	d="
M245.972763,29.126175 
	C245.983902,29.336281 245.744308,29.562977 245.251114,29.793798 
	C245.239014,29.579536 245.480530,29.361151 245.972763,29.126175 
z"/>
<path fill="none" opacity="1.000000" stroke="none" 
	d="
M39.368210,193.116089 
	C39.612377,193.303711 39.547310,193.503220 39.106567,193.627045 
	C39.017220,193.458160 39.126583,193.317032 39.368210,193.116089 
z"/>
<path fill="none" opacity="1.000000" stroke="none" 
	d="
M256.794891,28.494846 
	C256.641327,28.656691 256.298431,28.637817 255.766998,28.425306 
	C255.920822,28.259155 256.263184,28.286642 256.794891,28.494846 
z"/>
<path fill="#D9E2FD" opacity="1.000000" stroke="none" 
	d="
M209.981842,50.167126 
	C210.011185,50.398403 209.769135,50.650040 209.262085,50.933628 
	C209.234879,50.706215 209.472672,50.446850 209.981842,50.167126 
z"/>
<path fill="none" opacity="1.000000" stroke="none" 
	d="
M223.575729,154.770630 
	C223.318588,154.617538 223.362305,154.324554 223.724915,153.897644 
	C223.946045,154.051208 223.890320,154.340210 223.575729,154.770630 
z"/>
<path fill="none" opacity="1.000000" stroke="none" 
	d="
M273.941254,124.921211 
	C273.559814,125.020714 273.403564,124.751373 273.433716,124.168663 
	C273.485199,123.933495 273.827423,123.970001 273.997925,124.003731 
	C274.122803,124.235168 274.077209,124.432877 273.941254,124.921211 
z"/>
<path fill="#D9E2FD" opacity="1.000000" stroke="none" 
	d="
M211.962128,49.148960 
	C211.981415,49.369492 211.742874,49.606041 211.246429,49.855606 
	C211.227127,49.634079 211.465714,49.399529 211.962128,49.148960 
z"/>
<path fill="none" opacity="1.000000" stroke="none" 
	d="
M248.495667,160.216888 
	C248.794968,160.395691 248.740204,160.709579 248.315277,161.154892 
	C248.069199,160.980591 248.134705,160.669144 248.495667,160.216888 
z"/>
<path fill="#D9E2FD" opacity="1.000000" stroke="none" 
	d="
M202.914642,54.197098 
	C202.956131,54.423306 202.736954,54.670898 202.264191,54.958824 
	C202.225052,54.738930 202.439514,54.478706 202.914642,54.197098 
z"/>
<path fill="none" opacity="1.000000" stroke="none" 
	d="
M135.178802,179.566727 
	C135.060974,179.426804 135.403473,179.279846 135.588791,179.263092 
	C135.774109,179.246323 135.881851,179.625275 135.918945,179.818741 
	C135.708191,179.970825 135.488388,179.868973 135.178802,179.566727 
z"/>
<path fill="none" opacity="1.000000" stroke="none" 
	d="
M79.996277,180.899231 
	C79.916321,180.606506 80.153305,180.417557 80.713287,180.363129 
	C80.769379,180.645035 80.528351,180.813477 79.996277,180.899231 
z"/>
<path fill="none" opacity="1.000000" stroke="none" 
	d="
M76.876228,181.853790 
	C76.889320,181.649445 77.162933,181.443497 77.697327,181.252899 
	C77.684319,181.462891 77.410538,181.657532 76.876228,181.853790 
z"/>
<path fill="none" opacity="1.000000" stroke="none" 
	d="
M336.103455,57.741497 
	C334.112671,57.140015 332.070160,56.669487 330.142456,55.908283 
	C326.710358,54.553028 326.634247,52.587650 329.706879,50.279430 
	C329.652740,53.492123 330.851685,55.092636 334.372620,55.123276 
	C335.449249,55.132641 336.512512,56.676765 337.088196,57.696892 
	C336.430847,57.830990 336.267151,57.786243 336.103455,57.741497 
z"/>
<path fill="#6F79DB" opacity="1.000000" stroke="none" 
	d="
M336.075867,58.175468 
	C336.267151,57.786243 336.430847,57.830990 336.844025,57.927261 
	C336.642700,60.647232 336.191925,63.315670 335.370178,65.959930 
	C335.348877,63.493645 335.698578,61.051540 336.075867,58.175468 
z"/>
<path fill="none" opacity="1.000000" stroke="none" 
	d="
M331.043701,49.793999 
	C330.946381,49.566906 331.152039,49.227016 331.601440,48.707230 
	C331.679047,48.911957 331.512878,49.296581 331.043701,49.793999 
z"/>
<path fill="none" opacity="1.000000" stroke="none" 
	d="
M175.964539,138.360382 
	C177.047638,138.240952 178.130722,138.121536 179.835266,138.291565 
	C181.964417,138.123627 183.472122,137.666229 184.979843,137.208832 
	C185.391830,137.103653 185.803818,136.998489 186.932465,136.950378 
	C188.703949,137.016235 189.758774,137.025040 190.813583,137.033844 
	C190.879044,146.042480 190.944504,155.051117 190.691650,164.540039 
	C190.237289,165.639145 190.101257,166.257965 189.965210,166.876770 
	C189.247955,167.603424 188.530701,168.330078 187.081009,169.040222 
	C185.541702,169.030075 184.734848,169.036453 183.927979,169.042816 
	C182.466858,168.417068 181.005722,167.791336 179.049011,166.746246 
	C177.960907,166.263428 177.368393,166.199951 176.775864,166.136490 
	C176.775864,166.136490 176.359940,166.108826 175.874542,165.732300 
	C166.441513,164.984695 157.493896,164.613602 148.546280,164.242523 
	C147.267990,164.106903 145.989716,163.971298 144.151825,163.468353 
	C141.828079,160.406952 140.063934,157.712875 138.299774,155.018814 
	C138.015640,153.434814 137.731506,151.850800 137.110352,149.578995 
	C133.031235,147.752411 129.276672,146.491455 126.006561,149.987640 
	C126.006561,149.987640 125.746552,150.187454 125.286865,150.200226 
	C124.553528,150.474564 124.279892,150.736145 124.006241,150.997742 
	C124.006241,150.997726 123.729378,151.184418 123.268784,151.196991 
	C122.543274,151.476013 122.278366,151.742447 122.013458,152.008881 
	C121.328072,152.379120 120.642693,152.749374 119.372169,153.153412 
	C118.520309,153.437256 118.253593,153.687286 117.986877,153.937332 
	C117.501930,154.255463 117.016991,154.573593 115.871017,154.927643 
	C113.475426,155.952393 111.740852,156.941223 110.006279,157.930054 
	C110.006279,157.930054 109.725479,158.142731 109.263855,158.169281 
	C108.537186,158.449417 108.272133,158.702988 108.007080,158.956573 
	C108.007080,158.956573 107.712837,159.153702 107.253250,159.173645 
	C106.531364,159.444046 106.269073,159.694534 106.006775,159.945007 
	C105.311226,160.319778 104.615685,160.694534 103.353249,161.116241 
	C102.526169,161.393372 102.265976,161.623566 102.005783,161.853760 
	C101.296722,162.242813 100.587669,162.631882 99.314323,163.093048 
	C98.501816,163.398270 98.253586,163.631378 98.005363,163.864487 
	C98.005363,163.864487 97.658417,164.076523 97.191742,164.117493 
	C96.469284,164.387726 96.213509,164.617004 95.957733,164.846268 
	C95.957733,164.846268 95.919266,164.956055 95.609047,164.946899 
	C94.874977,165.198502 94.451126,165.459274 94.027275,165.720047 
	C86.286461,170.129776 77.673782,169.873962 68.994377,170.417908 
	C76.496864,159.762924 84.205963,149.669312 98.606636,146.873520 
	C99.886116,146.266052 100.448303,145.658707 101.010490,145.051376 
	C101.010490,145.051376 101.361549,144.862930 101.866112,144.913239 
	C102.906097,144.731125 103.441513,144.498688 103.976936,144.266266 
	C104.447052,144.183304 104.917160,144.100357 106.054413,144.044189 
	C107.468887,143.816971 108.216232,143.562958 108.963577,143.308929 
	C109.697594,143.185944 110.431602,143.062943 111.930847,142.978729 
	C114.483620,142.623901 116.271172,142.230255 118.058723,141.836609 
	C119.431831,141.572678 120.804932,141.308716 122.777229,141.290466 
	C124.569946,141.150497 125.763481,140.764801 126.957016,140.379120 
	C128.253815,140.180130 129.550613,139.981125 131.497086,139.822235 
	C132.425720,139.688995 132.704681,139.515671 132.983658,139.342346 
	C134.598389,139.136673 136.213120,138.931000 138.687683,138.841461 
	C140.459991,138.916306 141.372452,138.875031 142.284927,138.833740 
	C143.286865,138.885391 144.288803,138.937057 145.861526,139.315811 
	C147.237808,139.782730 148.043304,139.922577 148.848801,140.062424 
	C148.848801,140.062424 148.948425,140.008514 149.240219,140.320114 
	C151.676773,140.492569 153.821548,140.353439 155.966309,140.214310 
	C161.907410,139.742371 167.848511,139.270447 174.450195,138.829498 
	C175.395386,138.693771 175.679962,138.527084 175.964539,138.360382 
z"/>
<path fill="#D8E5FD" opacity="1.000000" stroke="none" 
	d="
M292.686035,95.260117 
	C294.539307,95.421959 296.138184,95.562027 298.011047,95.857605 
	C298.213074,96.434433 298.141083,96.855759 297.686890,97.724197 
	C293.886322,99.423363 290.468018,100.675407 287.049683,101.927460 
	C286.993042,101.764427 286.936401,101.601387 286.954590,100.941757 
	C287.747925,99.359909 288.466400,98.274643 289.184875,97.189369 
	C289.184875,97.189369 289.094666,97.048180 289.444489,97.059647 
	C290.333008,96.450798 290.871704,95.830475 291.410431,95.210159 
	C291.750824,95.219551 292.091248,95.228943 292.686035,95.260117 
z"/>
<path fill="#6F79DB" opacity="1.000000" stroke="none" 
	d="
M289.034760,111.428505 
	C285.665070,111.265739 282.295380,111.102974 278.090790,110.955261 
	C276.494232,110.906479 275.732544,110.842644 274.970886,110.778809 
	C275.736145,110.004166 276.540588,108.529701 277.260254,108.569969 
	C281.499359,108.807175 285.764923,109.169762 289.915253,110.013321 
	C291.088257,110.251740 291.904755,112.244080 292.850037,113.824333 
	C291.938995,113.627197 291.062683,113.037727 289.932129,112.040001 
	C289.519043,111.388741 289.304688,111.320992 289.034760,111.428505 
z"/>
<path fill="#CFDBFC" opacity="1.000000" stroke="none" 
	d="
M275.734070,40.715675 
	C274.004303,39.872334 272.640350,38.980965 271.276398,38.089592 
	C273.780762,37.181637 276.285126,36.273685 278.789490,35.365734 
	C279.164124,36.028835 279.538757,36.691933 279.913391,37.355034 
	C278.642212,38.459240 277.371063,39.563442 275.734070,40.715675 
z"/>
<path fill="none" opacity="1.000000" stroke="none" 
	d="
M148.793671,164.560730 
	C157.493896,164.613602 166.441513,164.984695 175.684631,165.646408 
	C168.574249,165.922958 161.167435,165.966034 153.763153,165.849091 
	C152.184418,165.824173 150.614868,165.217545 148.793671,164.560730 
z"/>
<path fill="#6F79DB" opacity="1.000000" stroke="none" 
	d="
M287.097717,102.298401 
	C290.468018,100.675407 293.886322,99.423363 297.637634,98.040848 
	C295.842773,102.979828 291.376556,104.943314 287.097717,102.298401 
z"/>
<path fill="none" opacity="1.000000" stroke="none" 
	d="
M138.226807,155.453552 
	C140.063934,157.712875 141.828079,160.406952 143.781067,163.361877 
	C142.105103,163.402344 140.240295,163.181931 138.153839,162.935318 
	C138.153839,160.339294 138.153839,158.113800 138.226807,155.453552 
z"/>
<path fill="none" opacity="1.000000" stroke="none" 
	d="
M126.402176,149.975006 
	C129.276672,146.491455 133.031235,147.752411 136.904785,149.233124 
	C133.623428,149.704163 130.210602,149.833267 126.402176,149.975006 
z"/>
<path fill="#707ADA" opacity="1.000000" stroke="none" 
	d="
M223.281891,86.949104 
	C224.465240,85.159004 226.023483,83.397530 227.696030,81.331871 
	C228.944672,84.390709 228.299133,85.315460 223.281891,86.949104 
z"/>
<path fill="#717AD8" opacity="1.000000" stroke="none" 
	d="
M40.067566,166.246429 
	C42.359951,166.998230 44.681488,168.111496 47.102455,169.558838 
	C44.833500,168.797897 42.465111,167.702911 40.067566,166.246429 
z"/>
<path fill="#8489C7" opacity="1.000000" stroke="none" 
	d="
M272.993317,26.023106 
	C272.105652,22.023033 273.684021,20.775518 278.116150,22.376774 
	C276.849854,23.547722 275.451355,24.420492 273.760284,25.670856 
	C273.467712,26.048449 272.993317,26.023106 272.993317,26.023106 
z"/>
<path fill="#7881D7" opacity="1.000000" stroke="none" 
	d="
M246.523148,124.929459 
	C245.615784,126.123360 244.319901,127.339722 242.738785,128.793610 
	C242.453552,129.031128 242.192062,129.019012 242.087463,128.665161 
	C241.995712,127.881714 242.008560,127.452126 242.021393,127.022530 
	C242.341949,126.553131 242.662506,126.083733 242.991531,125.307159 
	C243.000000,125.000000 243.019165,125.019737 243.019165,125.019737 
	C244.057648,124.997139 245.096146,124.974533 246.523148,124.929459 
z"/>
<path fill="#717AD8" opacity="1.000000" stroke="none" 
	d="
M28.018440,211.690674 
	C27.796480,211.079315 27.936365,210.452805 28.156765,209.509506 
	C29.187614,208.078552 30.137947,206.964386 31.391663,205.787521 
	C30.590126,207.708389 29.485205,209.691940 28.018440,211.690674 
z"/>
<path fill="#6F79DB" opacity="1.000000" stroke="none" 
	d="
M288.805725,97.129990 
	C288.466400,98.274643 287.747925,99.359909 286.825867,100.717133 
	C284.389923,98.616577 284.664612,98.020058 288.805725,97.129990 
z"/>
<path fill="#7881D7" opacity="1.000000" stroke="none" 
	d="
M214.907471,177.255981 
	C214.424805,179.378006 213.580093,181.579132 212.430603,183.951218 
	C212.932373,181.859818 213.738892,179.597443 214.907471,177.255981 
z"/>
<path fill="none" opacity="1.000000" stroke="none" 
	d="
M274.729797,110.936752 
	C275.732544,110.842644 276.494232,110.906479 277.635498,111.024521 
	C277.602722,112.257347 277.190369,113.435966 276.506744,114.786880 
	C275.582306,114.114799 274.929138,113.270416 274.028046,112.206192 
	C274.016327,111.689117 274.252502,111.391907 274.729797,110.936752 
z"/>
<path fill="none" opacity="1.000000" stroke="none" 
	d="
M110.355759,157.933075 
	C111.740852,156.941223 113.475426,155.952393 115.576660,154.968323 
	C114.197289,155.960754 112.451263,156.948425 110.355759,157.933075 
z"/>
<path fill="none" opacity="1.000000" stroke="none" 
	d="
M184.605652,137.155243 
	C183.472122,137.666229 181.964417,138.123627 180.243866,138.330048 
	C181.431183,137.753265 182.831329,137.427475 184.605652,137.155243 
z"/>
<path fill="#DFE5FD" opacity="1.000000" stroke="none" 
	d="
M117.730698,141.685226 
	C116.271172,142.230255 114.483620,142.623901 112.304565,142.977936 
	C113.742943,142.470184 115.572807,142.002014 117.730698,141.685226 
z"/>
<path fill="#DFE5FD" opacity="1.000000" stroke="none" 
	d="
M155.538483,140.131744 
	C153.821548,140.353439 151.676773,140.492569 149.268890,140.368958 
	C151.040726,140.087204 153.075684,140.068192 155.538483,140.131744 
z"/>
<path fill="#DFE5FD" opacity="1.000000" stroke="none" 
	d="
M126.615082,140.293701 
	C125.763481,140.764801 124.569946,141.150497 123.201904,141.313599 
	C124.109314,140.796783 125.191223,140.502548 126.615082,140.293701 
z"/>
<path fill="none" opacity="1.000000" stroke="none" 
	d="
M184.080811,169.287521 
	C184.734848,169.036453 185.541702,169.030075 186.750458,169.060913 
	C186.179459,169.242828 185.206558,169.387527 184.080811,169.287521 
z"/>
<path fill="#6F79DB" opacity="1.000000" stroke="none" 
	d="
M291.040649,95.179886 
	C290.871704,95.830475 290.333008,96.450798 289.484253,97.127586 
	C289.673126,96.505905 290.171997,95.827766 291.040649,95.179886 
z"/>
<path fill="none" opacity="1.000000" stroke="none" 
	d="
M190.711731,136.713547 
	C189.758774,137.025040 188.703949,137.016235 187.252991,136.962891 
	C188.107864,136.743301 189.358856,136.568268 190.711731,136.713547 
z"/>
<path fill="#DFE5FD" opacity="1.000000" stroke="none" 
	d="
M100.693390,145.058990 
	C100.448303,145.658707 99.886116,146.266052 98.971703,146.827362 
	C99.205078,146.209763 99.790680,145.638168 100.693390,145.058990 
z"/>
<path fill="none" opacity="1.000000" stroke="none" 
	d="
M190.277374,166.821167 
	C190.101257,166.257965 190.237289,165.639145 190.620056,165.002960 
	C190.774368,165.578918 190.681946,166.172241 190.277374,166.821167 
z"/>
<path fill="#707ADA" opacity="1.000000" stroke="none" 
	d="
M221.324951,88.962791 
	C221.459854,88.382576 221.923111,87.765404 222.658203,87.037155 
	C222.504486,87.592659 222.078903,88.259254 221.324951,88.962791 
z"/>
<path fill="#DFE5FD" opacity="1.000000" stroke="none" 
	d="
M148.639267,139.832123 
	C148.043304,139.922577 147.237808,139.782730 146.226822,139.409927 
	C146.824127,139.318573 147.626938,139.460190 148.639267,139.832123 
z"/>
<path fill="none" opacity="1.000000" stroke="none" 
	d="
M235.374207,33.807190 
	C235.845963,33.515347 236.644241,33.252522 237.778198,33.022167 
	C237.309494,33.315159 236.505112,33.575687 235.374207,33.807190 
z"/>
<path fill="#DFE5FD" opacity="1.000000" stroke="none" 
	d="
M142.022934,138.628113 
	C141.372452,138.875031 140.459991,138.916306 139.093735,138.875000 
	C139.680283,138.669098 140.720612,138.545807 142.022934,138.628113 
z"/>
<path fill="none" opacity="1.000000" stroke="none" 
	d="
M272.985413,26.292704 
	C272.993317,26.023106 273.467712,26.048449 273.704712,26.043026 
	C273.754761,26.570173 273.567841,27.102743 273.163940,27.636587 
	C272.957184,27.279343 272.967377,26.920822 272.985413,26.292704 
z"/>
<path fill="#DFE5FD" opacity="1.000000" stroke="none" 
	d="
M108.656693,143.245621 
	C108.216232,143.562958 107.468887,143.816971 106.413300,144.049164 
	C106.853302,143.745667 107.601555,143.463989 108.656693,143.245621 
z"/>
<path fill="#707ADA" opacity="1.000000" stroke="none" 
	d="
M190.210464,102.893448 
	C190.398804,102.324432 190.923935,101.761246 191.722595,101.089951 
	C191.513184,101.620979 191.030228,102.260117 190.210464,102.893448 
z"/>
<path fill="#DFE5FD" opacity="1.000000" stroke="none" 
	d="
M103.678841,144.193024 
	C103.441513,144.498688 102.906097,144.731125 102.065308,144.910248 
	C102.300209,144.611237 102.840477,144.365524 103.678841,144.193024 
z"/>
<path fill="none" opacity="1.000000" stroke="none" 
	d="
M176.979645,166.365875 
	C177.368393,166.199951 177.960907,166.263428 178.759521,166.548370 
	C178.371536,166.711655 177.777481,166.653442 176.979645,166.365875 
z"/>
<path fill="#6B76DD" opacity="1.000000" stroke="none" 
	d="
M241.792068,127.153503 
	C242.008560,127.452126 241.995712,127.881714 241.960846,128.632004 
	C241.813461,128.396622 241.688110,127.840546 241.792068,127.153503 
z"/>
<path fill="none" opacity="1.000000" stroke="none" 
	d="
M94.293030,165.755798 
	C94.451126,165.459274 94.874977,165.198502 95.556999,164.920929 
	C95.396370,165.199921 94.977570,165.495728 94.293030,165.755798 
z"/>
<path fill="none" opacity="1.000000" stroke="none" 
	d="
M318.050842,27.280029 
	C318.410950,27.170141 318.982422,27.262445 319.749817,27.572880 
	C319.384552,27.688082 318.823395,27.585150 318.050842,27.280029 
z"/>
<path fill="#717AD8" opacity="1.000000" stroke="none" 
	d="
M43.895416,185.773529 
	C43.966930,186.002090 43.523102,185.995819 43.310226,185.730865 
	C43.097351,185.465927 43.015945,184.981583 43.015945,184.981583 
	C43.015945,184.981583 43.080151,184.931641 43.112370,184.906052 
	C43.430813,185.040863 43.657249,185.262360 43.895416,185.773529 
z"/>
<path fill="#DFE5FD" opacity="1.000000" stroke="none" 
	d="
M132.731613,139.300385 
	C132.704681,139.515671 132.425720,139.688995 131.891937,139.830688 
	C131.917923,139.618835 132.198746,139.438629 132.731613,139.300385 
z"/>
<path fill="none" opacity="1.000000" stroke="none" 
	d="
M263.733093,30.391769 
	C263.810089,30.169823 264.082184,30.122528 264.769287,30.054466 
	C264.765564,30.211271 264.346924,30.388847 263.733093,30.391769 
z"/>
<path fill="none" opacity="1.000000" stroke="none" 
	d="
M313.719788,26.353533 
	C313.877991,26.217178 314.223938,26.275480 314.756561,26.520874 
	C314.597992,26.654709 314.252747,26.601448 313.719788,26.353533 
z"/>
<path fill="none" opacity="1.000000" stroke="none" 
	d="
M243.257416,30.891840 
	C243.121292,30.593977 243.337036,30.352720 243.897217,30.153000 
	C243.931122,30.356665 243.720322,30.607967 243.257416,30.891840 
z"/>
<path fill="none" opacity="1.000000" stroke="none" 
	d="
M271.315308,28.434914 
	C271.319794,28.184546 271.517029,28.090889 271.903503,28.036497 
	C271.975433,28.313875 271.780548,28.485830 271.315308,28.434914 
z"/>
<path fill="none" opacity="1.000000" stroke="none" 
	d="
M102.270935,161.842560 
	C102.265976,161.623566 102.526169,161.393372 103.058083,161.158752 
	C103.065231,161.380020 102.800659,161.605682 102.270935,161.842560 
z"/>
<path fill="none" opacity="1.000000" stroke="none" 
	d="
M124.290306,150.967804 
	C124.279892,150.736145 124.553528,150.474564 125.122986,150.205353 
	C125.137321,150.444443 124.855843,150.691147 124.290306,150.967804 
z"/>
<path fill="none" opacity="1.000000" stroke="none" 
	d="
M122.291168,151.966705 
	C122.278366,151.742447 122.543274,151.476013 123.101822,151.197754 
	C123.119942,151.432129 122.844414,151.678345 122.291168,151.966705 
z"/>
<path fill="none" opacity="1.000000" stroke="none" 
	d="
M118.261589,153.909622 
	C118.253593,153.687286 118.520309,153.437256 119.071945,153.177719 
	C119.083336,153.406113 118.809822,153.644012 118.261589,153.909622 
z"/>
<path fill="none" opacity="1.000000" stroke="none" 
	d="
M108.284271,158.931213 
	C108.272133,158.702988 108.537186,158.449417 109.088516,158.185822 
	C109.103683,158.419174 108.832573,158.662521 108.284271,158.931213 
z"/>
<path fill="none" opacity="1.000000" stroke="none" 
	d="
M106.279976,159.918427 
	C106.269073,159.694534 106.531364,159.444046 107.076416,159.183167 
	C107.090515,159.412445 106.821838,159.652130 106.279976,159.918427 
z"/>
<path fill="none" opacity="1.000000" stroke="none" 
	d="
M241.275391,31.882290 
	C241.266556,31.673120 241.524612,31.426580 242.059525,31.154797 
	C242.071671,31.368011 241.806976,31.606466 241.275391,31.882290 
z"/>
<path fill="#6B76DD" opacity="1.000000" stroke="none" 
	d="
M243.009903,125.009453 
	C242.898712,124.878975 242.777618,124.739052 242.656525,124.599129 
	C242.738159,124.649643 242.819778,124.700150 242.960297,124.885201 
	C243.019165,125.019737 243.000000,125.000000 243.009903,125.009453 
z"/>
<path fill="none" opacity="1.000000" stroke="none" 
	d="
M98.268661,163.850479 
	C98.253586,163.631378 98.501816,163.398270 99.013763,163.147003 
	C99.028976,163.364731 98.780464,163.600601 98.268661,163.850479 
z"/>
<path fill="none" opacity="1.000000" stroke="none" 
	d="
M96.224243,164.841492 
	C96.213509,164.617004 96.469284,164.387726 96.989624,164.139435 
	C96.999702,164.359177 96.745224,164.597946 96.224243,164.841492 
z"/>
<path fill="#707ADA" opacity="1.000000" stroke="none" 
	d="
M52.161030,169.866913 
	C52.075085,169.665970 52.229698,169.354568 52.643330,168.947739 
	C52.735428,169.153702 52.568508,169.455078 52.161030,169.866913 
z"/>
<path fill="none" opacity="1.000000" stroke="none" 
	d="
M233.268921,34.902397 
	C233.246841,34.692818 233.489639,34.439293 234.000671,34.144520 
	C234.023880,34.355000 233.778839,34.606728 233.268921,34.902397 
z"/>
<path fill="none" opacity="1.000000" stroke="none" 
	d="
M175.711273,138.314133 
	C175.679962,138.527084 175.395386,138.693771 174.854431,138.830139 
	C174.884720,138.622528 175.171371,138.445206 175.711273,138.314133 
z"/>
<path fill="none" opacity="1.000000" stroke="none" 
	d="
M295.328369,116.545616 
	C295.957245,116.371513 296.842255,116.406837 297.987488,116.660751 
	C297.359955,116.837914 296.472260,116.796471 295.328369,116.545616 
z"/>
<path fill="none" opacity="1.000000" stroke="none" 
	d="
M289.120605,111.552658 
	C289.304688,111.320992 289.519043,111.388741 289.694641,111.813065 
	C289.514435,111.934074 289.346130,111.828217 289.120605,111.552658 
z"/>
<path fill="#6872E5" opacity="1.000000" stroke="none" 
	d="
M267.404358,140.136261 
	C267.874908,141.838562 268.643158,143.291351 268.818634,144.812515 
	C269.006226,146.438934 269.224731,148.641159 268.347107,149.653671 
	C267.404694,150.740967 264.953278,151.457031 263.625336,150.995926 
	C262.425018,150.579147 261.132263,148.342743 261.158020,146.932037 
	C261.205811,144.311340 262.184113,141.707611 262.874329,138.764648 
	C263.107269,138.327332 263.240875,138.222198 263.612610,138.026306 
	C264.749329,138.223221 265.647980,138.510864 266.885010,138.924713 
	C267.351654,139.325592 267.424225,139.614227 267.404358,140.136261 
z"/>
<path fill="#7980C6" opacity="1.000000" stroke="none" 
	d="
M253.919159,140.540619 
	C253.077118,140.649902 252.279343,140.322449 251.156372,139.955536 
	C250.623734,135.535614 250.416260,131.155136 250.383987,126.370941 
	C251.160492,126.231171 251.761780,126.495117 252.584213,126.876366 
	C253.191360,131.363739 253.577377,135.733810 253.919159,140.540619 
z"/>
<path fill="none" opacity="1.000000" stroke="none" 
	d="
M267.790924,131.147324 
	C267.951874,131.351349 267.833771,131.573349 267.495972,131.870850 
	C267.211456,131.657806 267.290009,131.397446 267.790924,131.147324 
z"/>
<path fill="none" opacity="1.000000" stroke="none" 
	d="
M267.235657,134.256470 
	C267.615967,134.186325 267.714752,134.437286 267.471466,134.867661 
	C267.298767,134.814255 267.240326,134.657761 267.235657,134.256470 
z"/>
<path fill="none" opacity="1.000000" stroke="none" 
	d="
M42.685707,185.001114 
	C43.015945,184.981583 43.097351,185.465927 43.089172,185.711105 
	C42.528259,185.845306 41.975521,185.734344 41.235275,185.408829 
	C41.483669,185.136398 41.919571,185.078522 42.685707,185.001114 
z"/>
<path fill="none" opacity="1.000000" stroke="none" 
	d="
M38.921005,184.755600 
	C38.584797,184.866638 38.037266,184.789368 37.285271,184.523407 
	C37.623772,184.412247 38.166729,184.489761 38.921005,184.755600 
z"/>
</svg>