<svg version="1.1" id="Layer_1" xmlns="http://www.w3.org/2000/svg" xmlns:xlink="http://www.w3.org/1999/xlink" x="0px" y="0px"
	 width="100%" viewBox="0 0 334 314" enable-background="new 0 0 334 314" xml:space="preserve">
<path fill="none" opacity="1.000000" stroke="none" 
	d="
M335.000000,120.000000 
	C335.000000,185.333328 335.000000,250.166641 335.000000,315.000000 
	C223.666702,315.000000 112.333397,315.000000 1.000071,315.000000 
	C1.000047,210.333389 1.000047,105.666771 1.000024,1.000113 
	C112.333260,1.000075 223.666519,1.000075 334.999878,1.000038 
	C335.000000,40.500000 335.000000,80.000000 335.000000,120.000000 
M294.007812,126.012192 
	C294.007812,126.012192 294.041504,126.079346 294.597504,125.841873 
	C295.109283,125.231346 295.621033,124.620827 296.545532,123.846230 
	C296.800812,123.663223 296.953003,123.416595 297.547516,122.838181 
	C297.821350,122.324348 298.095215,121.810516 298.404266,121.345123 
	C298.404266,121.345123 298.463348,121.355042 299.073669,121.167252 
	C301.812897,118.516708 304.654236,115.962517 307.266907,113.192635 
	C311.007050,109.227425 312.224518,104.800072 308.982452,99.441566 
	C308.982452,99.441566 308.871826,99.037613 309.002625,98.347160 
	C308.676086,97.547546 308.349518,96.747940 307.998566,95.998856 
	C307.998566,95.998856 308.054474,95.994057 308.056946,95.176758 
	C307.366547,92.472374 307.148376,89.524155 305.900604,87.107567 
	C301.483154,78.552383 296.713806,70.178925 292.056824,61.389721 
	C292.056824,61.389721 291.933014,61.065018 291.978912,60.420017 
	C291.341278,59.909775 290.703644,59.399532 290.028503,58.982609 
	C290.028503,58.982609 290.115814,58.932663 290.036652,58.230476 
	C288.876373,56.495193 287.716125,54.759911 286.334900,52.483192 
	C285.524323,51.436867 284.713715,50.390541 283.761017,49.042263 
	C283.761017,49.042263 283.470947,48.877251 283.222870,48.197250 
	C279.833771,42.752090 276.444672,37.306931 273.013550,31.129480 
	C271.291901,30.110699 269.570251,29.091917 267.435913,27.951715 
	C267.152130,27.842085 266.949219,27.647928 266.921600,26.550346 
	C266.563873,22.552042 264.389984,21.338749 260.610016,22.411415 
	C260.610016,22.411415 260.514404,22.387728 260.774170,21.572491 
	C258.816437,13.000445 258.816437,12.999660 249.914047,13.000271 
	C249.250946,13.000317 248.587860,13.023040 247.111160,12.939117 
	C242.682098,11.981238 237.599594,9.708828 234.553452,14.654848 
	C231.844894,19.052731 230.236786,24.197989 228.598358,29.163630 
	C227.249527,33.251534 229.014389,35.313725 234.064529,35.856907 
	C234.351288,35.684631 234.638031,35.512352 235.680099,35.154873 
	C236.452286,35.196468 237.224457,35.238060 238.106369,35.849537 
	C238.773987,35.805279 239.441620,35.761021 240.751770,35.738766 
	C241.559113,35.999142 242.366470,36.259518 243.072906,37.403568 
	C243.976990,40.139339 244.881073,42.875107 245.824203,45.729015 
	C244.757217,45.600079 243.220840,45.414425 240.022156,45.027897 
	C241.519531,47.339138 242.133224,49.446781 243.183487,49.693111 
	C246.530258,50.478073 250.146484,51.250999 253.454025,50.729874 
	C256.448456,50.258076 257.843079,50.898029 258.737091,53.464478 
	C260.264282,57.848545 263.609406,59.990440 268.227570,61.777611 
	C268.642487,65.722473 269.086426,69.664543 269.465973,73.612808 
	C270.163147,80.864906 270.612488,88.148445 271.567780,95.365570 
	C272.258728,100.585472 269.001831,104.127472 263.863403,102.414291 
	C255.019958,99.465851 247.406326,102.325027 241.371902,108.019684 
	C236.147430,112.949989 230.767044,114.871460 223.151184,114.020714 
	C221.190201,113.881142 219.165329,113.359840 217.280472,113.675217 
	C212.102234,114.541603 206.982773,115.759094 201.948578,116.797279 
	C201.948578,116.797279 201.833435,116.784966 201.133545,116.856171 
	C198.853790,118.485451 195.776550,119.631165 194.441345,121.833176 
	C190.152817,128.905746 184.266571,130.080826 176.966354,127.980064 
	C173.941864,127.109718 170.842560,126.487961 167.847351,125.533249 
	C166.745087,125.181915 165.844757,124.197121 165.370316,123.864464 
	C166.925461,120.775833 169.621307,117.987007 169.172867,115.861565 
	C167.374222,107.336426 165.566498,98.562851 161.896240,90.758636 
	C158.705933,83.974976 153.056229,78.331711 148.381088,72.271088 
	C146.660706,70.040878 144.840027,67.783585 142.665680,66.035431 
	C140.153641,64.015778 137.409485,61.804245 134.404907,60.956947 
	C116.920265,56.026222 98.999725,67.272484 95.070328,85.311020 
	C92.647079,96.435371 97.200966,105.874817 107.095505,111.168953 
	C111.000221,113.258202 114.492477,116.118317 118.130264,119.426193 
	C119.795929,120.263542 121.461594,121.100891 123.567009,122.120232 
	C123.848785,122.312538 124.005852,122.578506 124.004379,123.812729 
	C124.251099,126.713036 123.406303,129.531357 126.501228,132.095184 
	C128.340073,133.618454 129.874481,137.288849 126.475380,140.261047 
	C125.066826,141.492691 124.749580,143.972397 123.955208,145.963318 
	C123.955208,145.963318 123.874367,145.956924 123.478424,146.168076 
	C123.231850,146.354691 123.059113,146.594513 122.971519,146.967056 
	C122.971519,146.967056 122.895264,146.941727 122.116714,146.968201 
	C120.380714,147.930832 118.668274,148.939606 116.901405,149.841782 
	C115.436493,150.589767 113.945175,151.679443 112.399879,151.804199 
	C107.391563,152.208527 102.290016,151.836395 97.356911,152.609299 
	C95.364990,152.921371 93.715927,155.421844 91.492203,157.144669 
	C91.229652,157.330582 91.020760,157.564423 90.084953,157.926163 
	C87.399719,158.233551 84.578163,158.388947 84.796913,162.882507 
	C78.570412,170.169891 73.580925,178.045990 72.955276,187.962158 
	C72.955276,187.962158 72.919785,187.877960 72.245598,188.050629 
	C64.200027,192.412079 58.024544,198.374649 56.192760,208.063950 
	C54.469269,205.937653 53.255566,204.440277 52.000446,202.999039 
	C52.000446,202.999039 52.056499,202.957611 51.773617,202.327835 
	C49.535904,199.191452 47.298195,196.055069 45.020088,193.003418 
	C45.020088,193.003418 45.093056,192.944305 45.030781,192.357269 
	C44.728191,191.887512 44.425606,191.417755 44.037457,190.461456 
	C44.037457,190.461456 43.878242,189.993820 43.874901,189.249359 
	C43.652527,188.817474 43.430157,188.385574 43.242218,187.218994 
	C42.775208,184.285156 42.306683,181.351547 41.841476,178.417419 
	C40.541920,170.220978 43.443966,164.346436 51.040649,160.583435 
	C53.616219,159.307617 55.623417,156.884399 58.650482,155.010590 
	C61.112396,155.722198 63.311928,157.999496 66.157455,155.341217 
	C69.296867,152.408386 68.010605,142.147369 63.973186,140.377151 
	C63.771717,140.288834 63.257011,140.914948 62.395405,140.744034 
	C60.913895,139.543167 59.432388,138.342316 58.019489,136.969727 
	C58.019489,136.969727 58.049442,136.787231 57.716625,136.398285 
	C57.395885,136.300964 57.075146,136.203644 56.362419,136.098434 
	C56.362419,136.098434 56.005058,135.937164 55.924679,135.348938 
	C55.267300,135.282654 54.609917,135.216370 53.296768,135.029495 
	C52.525967,134.611313 51.755165,134.193130 50.717228,133.388550 
	C50.474373,133.160889 50.186523,133.051636 49.396832,133.012665 
	C49.396832,133.012665 48.983204,132.812820 48.752403,132.452087 
	C48.238903,132.389786 47.725403,132.327469 46.504910,132.367569 
	C46.266804,132.370438 46.028698,132.373322 45.212528,132.115433 
	C42.392735,134.270493 39.565567,136.415970 36.755215,138.583267 
	C33.919525,140.770111 34.523033,142.586319 37.212963,144.697266 
	C36.883102,145.175888 36.553242,145.654526 35.523617,145.813110 
	C32.531059,144.346649 30.427145,144.933121 29.315256,148.302048 
	C31.021561,148.893372 32.475803,149.397339 33.713482,150.553757 
	C27.522175,157.650665 25.129480,166.251724 24.076706,175.324265 
	C23.356003,181.535110 22.896238,187.776215 22.024452,194.796844 
	C21.756853,195.929840 21.322104,197.051834 21.246571,198.197495 
	C19.985025,217.332458 22.254065,235.777435 32.618855,252.427399 
	C33.657272,254.095505 36.311306,254.757858 38.821354,256.408752 
	C47.271851,257.633362 55.645538,258.523346 62.027275,251.023331 
	C62.027275,251.023331 62.031086,251.108780 62.743450,251.081223 
	C63.984818,250.441757 65.226181,249.802277 66.746826,249.179993 
	C66.746826,249.179993 66.973587,249.016068 67.716362,248.990448 
	C70.492859,247.666580 73.269356,246.342728 76.005615,244.993866 
	C76.005615,244.993866 76.004448,245.041214 76.544060,244.980927 
	C76.773521,244.724533 77.002983,244.468155 77.108276,244.248093 
	C77.108276,244.248093 77.213783,244.322952 77.929169,244.262497 
	C83.054367,240.285370 88.179565,236.308243 93.311478,232.262985 
	C93.311478,232.262985 93.246117,232.283340 93.773697,232.145966 
	C93.941429,231.839172 94.109161,231.532379 94.239914,231.301102 
	C94.239914,231.301102 94.323837,231.295792 94.946167,231.086777 
	C96.655128,229.067566 98.364082,227.048340 100.676643,224.725937 
	C104.690079,217.920883 106.002266,217.763687 110.475372,223.868317 
	C112.611572,226.783676 114.653572,229.803268 116.394379,232.964966 
	C119.077332,237.837814 122.976585,242.666199 123.691132,247.879257 
	C125.757149,262.952148 121.415077,277.496552 117.536026,291.909027 
	C116.191963,296.902832 113.824211,301.621094 111.822502,306.724060 
	C147.754471,306.724060 182.816986,306.724060 218.745544,306.724060 
	C217.695084,304.098663 216.862701,302.018311 215.997559,299.990814 
	C215.997559,299.990814 216.059692,299.993347 216.037262,299.217987 
	C213.364517,286.999481 210.857025,274.741608 207.958115,262.577026 
	C206.169281,255.070633 205.247665,247.647675 207.607910,239.576996 
	C216.145691,216.767944 225.931030,194.353271 229.747192,170.044861 
	C231.025665,161.901199 235.648163,156.855835 243.594650,154.910782 
	C248.107712,153.806152 252.694946,153.007431 257.218567,151.942596 
	C271.397156,148.604950 282.378632,140.501663 291.015564,129.009277 
	C291.015564,129.009277 291.025787,129.087021 291.571503,128.945831 
	C291.777100,128.640778 291.982697,128.335709 292.584076,127.868530 
	C292.833069,127.695206 292.980225,127.458534 293.532043,126.942345 
	C293.715454,126.635811 293.898834,126.329277 294.007812,126.012192 
M274.517456,30.406208 
	C274.517456,30.406208 274.589142,30.523903 274.517456,30.406208 
z"/>
<path fill="#5C6BF5" opacity="1.000000" stroke="none" 
	d="
M293.025574,127.158524 
	C292.980225,127.458534 292.833069,127.695206 292.120392,128.034790 
	C291.446381,128.496353 291.236084,128.791687 291.025787,129.087021 
	C291.025787,129.087021 291.015564,129.009277 290.696838,129.037140 
	C288.491486,130.640900 286.665955,132.297714 284.706116,133.776566 
	C279.984833,137.339127 275.231842,140.861526 270.434998,144.321594 
	C262.339203,150.161285 252.517059,150.616898 243.299149,153.005981 
	C235.834900,154.940521 230.325623,158.842072 228.668900,167.248230 
	C226.836121,176.547745 224.456406,185.765442 221.805969,194.870636 
	C219.105957,204.146179 215.882736,213.274872 212.704712,222.403839 
	C210.642685,228.327011 208.251053,234.135406 205.722687,240.267731 
	C205.202255,244.906235 204.221954,249.388199 204.880402,253.614868 
	C206.394363,263.333038 209.052368,272.872864 210.568237,282.590851 
	C211.529755,288.755035 211.313065,295.097046 216.059692,299.993347 
	C216.059692,299.993347 215.997559,299.990814 216.000183,300.402893 
	C216.681503,305.220978 213.828934,305.053497 210.780975,305.048828 
	C180.796478,305.002777 150.811859,305.028839 120.827278,305.021973 
	C114.805695,305.020599 114.367691,304.264221 116.626122,298.720215 
	C118.499947,294.120361 120.694748,289.567413 121.843048,284.776917 
	C123.299973,278.698944 123.666153,272.368774 124.818802,266.206482 
	C126.868935,255.246078 126.587799,244.747635 120.061272,235.103210 
	C118.684868,233.069260 118.039665,230.530472 116.615112,228.541138 
	C113.447380,224.117493 109.999603,219.894363 105.756897,214.415573 
	C102.897232,218.814575 100.901482,221.884613 98.565979,225.004242 
	C96.925423,227.134491 95.624626,229.215149 94.323837,231.295792 
	C94.323837,231.295792 94.239914,231.301102 93.969894,231.297729 
	C93.548622,231.624008 93.397369,231.953674 93.246117,232.283340 
	C93.246117,232.283340 93.311478,232.262985 92.935623,232.213715 
	C87.444443,236.217285 82.329109,240.270111 77.213783,244.322952 
	C77.213783,244.322952 77.108276,244.248093 76.898941,244.248718 
	C76.461220,244.513306 76.232826,244.777252 76.004440,245.041199 
	C76.004448,245.041214 76.005615,244.993866 75.625900,244.990967 
	C72.488655,246.330734 69.731125,247.673401 66.973587,249.016083 
	C66.973587,249.016068 66.746826,249.179993 66.214279,249.120850 
	C64.464844,249.744064 63.247967,250.426422 62.031086,251.108780 
	C62.031086,251.108780 62.027275,251.023331 61.687920,251.050415 
	C53.877960,254.477371 46.327576,257.252991 37.707485,253.897018 
	C33.596607,247.149292 28.585863,240.962784 26.251678,233.892609 
	C22.014517,221.058380 22.781130,207.450455 23.402441,193.840485 
	C24.472719,189.830399 25.344803,186.045761 25.953859,182.219269 
	C26.853319,176.568253 26.362999,170.347992 28.612299,165.333542 
	C33.066952,155.402649 38.929688,146.095367 44.409218,136.645599 
	C44.912678,135.777359 46.945553,135.203613 48.098091,135.416077 
	C51.441715,136.032532 54.698669,137.119080 58.136734,138.337830 
	C59.721020,141.160278 61.158207,143.666046 62.392986,145.818939 
	C58.169773,150.315506 54.179253,154.850418 49.858250,159.044891 
	C47.681084,161.158295 43.967258,162.116501 42.580631,164.533539 
	C38.925392,170.904999 39.341591,177.999786 41.022388,185.393143 
	C41.672924,187.192734 42.333637,188.598068 42.998283,190.250275 
	C43.002220,190.497116 43.018681,190.990829 43.060135,191.317978 
	C43.765411,192.078186 44.429237,192.511246 45.093060,192.944305 
	C45.093056,192.944305 45.020088,193.003418 45.018909,193.350845 
	C46.949638,197.099701 45.451107,203.108871 52.056499,202.957611 
	C52.056499,202.957611 52.000446,202.999039 51.998886,203.367218 
	C53.172554,205.465927 54.347786,207.196457 55.523018,208.926987 
	C56.865753,207.572052 58.328804,206.315186 59.528313,204.843506 
	C62.904400,200.701431 66.173729,196.472275 69.481552,192.274628 
	C70.633049,190.813339 71.774017,189.343750 72.919785,187.877960 
	C72.919785,187.877960 72.955276,187.962158 73.253662,187.819183 
	C74.003777,187.011505 74.691551,186.404663 74.870949,185.673157 
	C76.795120,177.827606 79.861755,170.683350 86.147034,165.187775 
	C87.359383,164.127747 87.732948,162.108398 88.557579,160.546478 
	C88.621704,160.561371 88.730309,160.635788 89.115494,160.756714 
	C94.335396,158.640717 99.170120,156.403793 104.463577,154.108704 
	C109.527603,153.643753 114.132904,153.236984 119.097107,152.849335 
	C122.074135,150.636673 124.801651,148.519531 127.286507,146.148117 
	C131.799301,141.841324 132.628540,136.759216 131.150711,130.659317 
	C128.365036,119.161186 118.226593,115.290138 109.794563,110.272766 
	C103.151878,106.320122 94.618698,95.730118 96.243248,88.966904 
	C98.138130,81.078270 100.165031,73.290482 107.928589,68.437790 
	C116.691719,62.960293 125.486763,58.374439 135.550171,64.404442 
	C139.656250,66.864815 143.287338,70.418251 146.464417,74.059158 
	C151.390900,79.704880 155.756317,85.841583 160.316010,91.803474 
	C160.693558,92.297134 160.752502,93.040718 160.937180,93.674675 
	C162.691681,99.697693 163.691299,106.096558 166.447952,111.618576 
	C168.385941,115.500618 167.419479,117.240814 164.938202,119.636642 
	C162.404083,122.083481 161.404663,125.696297 165.251953,126.834709 
	C171.895920,128.800659 178.924988,129.551300 185.835129,130.501770 
	C190.568573,131.152832 192.525604,126.984833 195.188751,124.247871 
	C197.509293,121.863037 199.626434,119.280281 201.833435,116.784973 
	C201.833435,116.784966 201.948578,116.797279 202.320847,116.872498 
	C209.784927,116.321014 216.876740,115.694305 224.271881,115.339775 
	C231.142563,116.695084 236.293579,115.195824 241.668182,110.389008 
	C247.247742,105.398911 253.882248,100.390915 263.061615,104.598457 
	C268.587646,107.131416 273.812927,101.678841 273.162933,95.639549 
	C272.226196,86.936035 271.423981,78.196289 271.148132,69.453575 
	C271.029633,65.698700 271.607758,62.240917 269.569611,58.571594 
	C266.957092,53.868259 265.254822,48.639061 263.362549,43.561092 
	C260.999908,37.220909 259.493286,36.548203 252.986786,35.864059 
	C247.896301,35.328804 242.960144,33.366558 237.937698,32.109108 
	C236.919312,31.854137 235.821045,31.841850 234.760666,31.850437 
	C233.440765,31.861124 232.122009,32.009579 230.802734,32.098545 
	C230.763870,30.380220 230.192444,28.440838 230.795166,26.988834 
	C232.116562,23.805563 234.278107,20.975342 235.648697,17.807188 
	C237.707748,13.047675 241.067322,13.410343 244.969757,14.821812 
	C247.259537,15.650002 249.602356,16.331621 251.985382,17.414181 
	C253.741394,19.517172 255.264694,21.494734 257.155212,23.015886 
	C264.314484,28.776409 272.682312,33.133980 276.902557,42.114471 
	C278.166351,44.803745 281.231201,46.646614 283.470947,48.877251 
	C283.470947,48.877251 283.761017,49.042263 283.848083,49.513840 
	C284.288605,50.986855 284.642090,51.988293 285.032959,53.340939 
	C286.752167,55.438988 288.433990,57.185829 290.115814,58.932667 
	C290.115814,58.932663 290.028503,58.982609 290.053772,59.266312 
	C290.697021,60.055019 291.315002,60.560020 291.933014,61.065018 
	C291.933014,61.065018 292.056824,61.389721 292.065247,61.946117 
	C292.146362,62.825680 292.178070,63.164925 292.297699,63.469681 
	C296.258148,73.561760 303.828125,82.064171 305.371765,93.258530 
	C305.511810,94.274368 307.125275,95.087036 308.054474,95.994057 
	C308.054474,95.994057 307.998566,95.998856 307.994629,96.311722 
	C308.284393,97.428932 308.578125,98.233269 308.871826,99.037613 
	C308.871826,99.037613 308.982452,99.441566 308.984039,100.098175 
	C309.876312,106.347427 307.311981,110.395432 303.490387,114.167656 
	C301.443878,116.187752 300.115692,118.935600 298.463348,121.355042 
	C298.463348,121.355042 298.404266,121.345123 298.056061,121.356110 
	C297.472595,121.946846 297.237335,122.526596 297.002075,123.106354 
	C296.953003,123.416595 296.800812,123.663223 295.996277,123.954987 
	C294.978516,124.735611 294.510010,125.407478 294.041504,126.079346 
	C294.041504,126.079346 294.007812,126.012192 293.792084,126.124428 
	C293.392761,126.543953 293.209167,126.851242 293.025574,127.158524 
z"/>
<path fill="#6D76D5" opacity="1.000000" stroke="none" 
	d="
M201.483490,116.820572 
	C199.626434,119.280281 197.509293,121.863037 195.188751,124.247871 
	C192.525604,126.984833 190.568573,131.152832 185.835129,130.501770 
	C178.924988,129.551300 171.895920,128.800659 165.251953,126.834709 
	C161.404663,125.696297 162.404083,122.083481 164.938202,119.636642 
	C167.419479,117.240814 168.385941,115.500618 166.447952,111.618576 
	C163.691299,106.096558 162.691681,99.697693 160.937180,93.674675 
	C160.752502,93.040718 160.693558,92.297134 160.316010,91.803474 
	C155.756317,85.841583 151.390900,79.704880 146.464417,74.059158 
	C143.287338,70.418251 139.656250,66.864815 135.550171,64.404442 
	C125.486763,58.374439 116.691719,62.960293 107.928589,68.437790 
	C100.165031,73.290482 98.138130,81.078270 96.243248,88.966904 
	C94.618698,95.730118 103.151878,106.320122 109.794563,110.272766 
	C118.226593,115.290138 128.365036,119.161186 131.150711,130.659317 
	C132.628540,136.759216 131.799301,141.841324 127.286507,146.148117 
	C124.801651,148.519531 122.074135,150.636673 119.138313,152.512222 
	C120.178825,150.417892 121.537048,148.679810 122.895264,146.941727 
	C122.895264,146.941727 122.971519,146.967056 123.196548,146.865036 
	C123.712967,146.573242 123.863899,146.304535 123.874367,145.956924 
	C123.874367,145.956924 123.955208,145.963318 124.259132,145.799271 
	C130.495316,139.982208 131.656540,136.687103 129.043320,130.828918 
	C127.785347,128.008911 125.731590,125.543892 124.038200,122.918121 
	C124.005852,122.578506 123.848785,122.312538 123.187881,121.733307 
	C121.263359,120.440063 119.717949,119.533737 118.172546,118.627411 
	C114.492477,116.118317 111.000221,113.258202 107.095505,111.168953 
	C97.200966,105.874817 92.647079,96.435371 95.070328,85.311020 
	C98.999725,67.272484 116.920265,56.026222 134.404907,60.956947 
	C137.409485,61.804245 140.153641,64.015778 142.665680,66.035431 
	C144.840027,67.783585 146.660706,70.040878 148.381088,72.271088 
	C153.056229,78.331711 158.705933,83.974976 161.896240,90.758636 
	C165.566498,98.562851 167.374222,107.336426 169.172867,115.861565 
	C169.621307,117.987007 166.925461,120.775833 165.370316,123.864464 
	C165.844757,124.197121 166.745087,125.181915 167.847351,125.533249 
	C170.842560,126.487961 173.941864,127.109718 176.966354,127.980064 
	C184.266571,130.080826 190.152817,128.905746 194.441345,121.833176 
	C195.776550,119.631165 198.853790,118.485451 201.483490,116.820572 
z"/>
<path fill="#6973C2" opacity="1.000000" stroke="none" 
	d="
M98.905739,224.954651 
	C100.901482,221.884613 102.897232,218.814575 105.756897,214.415573 
	C109.999603,219.894363 113.447380,224.117493 116.615112,228.541138 
	C118.039665,230.530472 118.684868,233.069260 120.061272,235.103210 
	C126.587799,244.747635 126.868935,255.246078 124.818802,266.206482 
	C123.666153,272.368774 123.299973,278.698944 121.843048,284.776917 
	C120.694748,289.567413 118.499947,294.120361 116.626122,298.720215 
	C114.367691,304.264221 114.805695,305.020599 120.827278,305.021973 
	C150.811859,305.028839 180.796478,305.002777 210.780975,305.048828 
	C213.828934,305.053497 216.681503,305.220978 216.016571,300.376465 
	C216.862701,302.018311 217.695084,304.098663 218.745544,306.724060 
	C182.816986,306.724060 147.754471,306.724060 111.822502,306.724060 
	C113.824211,301.621094 116.191963,296.902832 117.536026,291.909027 
	C121.415077,277.496552 125.757149,262.952148 123.691132,247.879257 
	C122.976585,242.666199 119.077332,237.837814 116.394379,232.964966 
	C114.653572,229.803268 112.611572,226.783676 110.475372,223.868317 
	C106.002266,217.763687 104.690079,217.920883 100.082947,224.859253 
	C99.294746,224.979919 99.100243,224.967285 98.905739,224.954651 
z"/>
<path fill="#7079D2" opacity="1.000000" stroke="none" 
	d="
M251.921310,17.079174 
	C249.602356,16.331621 247.259537,15.650002 244.969757,14.821812 
	C241.067322,13.410343 237.707748,13.047675 235.648697,17.807188 
	C234.278107,20.975342 232.116562,23.805563 230.795166,26.988834 
	C230.192444,28.440838 230.763870,30.380220 230.802734,32.098545 
	C232.122009,32.009579 233.440765,31.861124 234.760666,31.850437 
	C235.821045,31.841850 236.919312,31.854137 237.937698,32.109108 
	C242.960144,33.366558 247.896301,35.328804 252.986786,35.864059 
	C259.493286,36.548203 260.999908,37.220909 263.362549,43.561092 
	C265.254822,48.639061 266.957092,53.868259 269.569611,58.571594 
	C271.607758,62.240917 271.029633,65.698700 271.148132,69.453575 
	C271.423981,78.196289 272.226196,86.936035 273.162933,95.639549 
	C273.812927,101.678841 268.587646,107.131416 263.061615,104.598457 
	C253.882248,100.390915 247.247742,105.398911 241.668182,110.389008 
	C236.293579,115.195824 231.142563,116.695084 224.283051,115.122940 
	C223.990906,114.633942 224.000809,114.201363 224.000809,114.201363 
	C230.767044,114.871460 236.147430,112.949989 241.371902,108.019684 
	C247.406326,102.325027 255.019958,99.465851 263.863403,102.414291 
	C269.001831,104.127472 272.258728,100.585472 271.567780,95.365570 
	C270.612488,88.148445 270.163147,80.864906 269.465973,73.612808 
	C269.086426,69.664543 268.642487,65.722473 268.084290,61.007721 
	C265.589050,55.240154 263.242493,50.239929 260.879242,45.247616 
	C260.537170,44.525009 259.694122,43.771389 259.796112,43.148998 
	C260.646545,37.959465 257.445099,38.052197 253.755936,37.955898 
	C250.218475,37.863564 246.700409,37.028534 243.173813,36.519897 
	C242.366470,36.259518 241.559113,35.999142 240.211670,35.547470 
	C239.113266,35.330669 238.554962,35.305164 237.996643,35.279655 
	C237.224457,35.238060 236.452286,35.196468 235.041595,35.220650 
	C234.117645,35.476818 233.832199,35.667206 233.546753,35.857594 
	C229.014389,35.313725 227.249527,33.251534 228.598358,29.163630 
	C230.236786,24.197989 231.844894,19.052731 234.553452,14.654848 
	C237.599594,9.708828 242.682098,11.981238 247.723267,13.230604 
	C249.626923,14.601592 250.918472,15.681091 252.138306,16.840641 
	C252.066574,16.920691 251.921310,17.079176 251.921310,17.079174 
z"/>
<path fill="#6C75D0" opacity="1.000000" stroke="none" 
	d="
M206.007095,239.995239 
	C208.251053,234.135406 210.642685,228.327011 212.704712,222.403839 
	C215.882736,213.274872 219.105957,204.146179 221.805969,194.870636 
	C224.456406,185.765442 226.836121,176.547745 228.668900,167.248230 
	C230.325623,158.842072 235.834900,154.940521 243.299149,153.005981 
	C252.517059,150.616898 262.339203,150.161285 270.434998,144.321594 
	C275.231842,140.861526 279.984833,137.339127 284.706116,133.776566 
	C286.665955,132.297714 288.491486,130.640900 290.730774,129.056763 
	C282.378632,140.501663 271.397156,148.604950 257.218567,151.942596 
	C252.694946,153.007431 248.107712,153.806152 243.594650,154.910782 
	C235.648163,156.855835 231.025665,161.901199 229.747192,170.044861 
	C225.931030,194.353271 216.145691,216.767944 207.084930,239.798462 
	C206.376984,240.011703 206.192032,240.003464 206.007095,239.995239 
z"/>
<path fill="none" opacity="1.000000" stroke="none" 
	d="
M243.123352,36.961731 
	C246.700409,37.028534 250.218475,37.863564 253.755936,37.955898 
	C257.445099,38.052197 260.646545,37.959465 259.796112,43.148998 
	C259.694122,43.771389 260.537170,44.525009 260.879242,45.247616 
	C263.242493,50.239929 265.589050,55.240154 267.919525,60.619518 
	C263.609406,59.990440 260.264282,57.848545 258.737091,53.464478 
	C257.843079,50.898029 256.448456,50.258076 253.454025,50.729874 
	C250.146484,51.250999 246.530258,50.478073 243.183487,49.693111 
	C242.133224,49.446781 241.519531,47.339138 240.022156,45.027897 
	C243.220840,45.414425 244.757217,45.600079 245.824203,45.729015 
	C244.881073,42.875107 243.976990,40.139339 243.123352,36.961731 
z"/>
<path fill="#7079D7" opacity="1.000000" stroke="none" 
	d="
M57.989635,138.021164 
	C54.698669,137.119080 51.441715,136.032532 48.098091,135.416077 
	C46.945553,135.203613 44.912678,135.777359 44.409218,136.645599 
	C38.929688,146.095367 33.066952,155.402649 28.612299,165.333542 
	C26.362999,170.347992 26.853319,176.568253 25.953859,182.219269 
	C25.344803,186.045761 24.472719,189.830399 23.210430,193.826294 
	C22.702583,194.018845 22.319822,194.003799 22.319822,194.003799 
	C22.896238,187.776215 23.356003,181.535110 24.076706,175.324265 
	C25.129480,166.251724 27.522175,157.650665 34.094566,150.058395 
	C35.058224,148.419739 35.640800,147.276443 36.223377,146.133148 
	C36.553242,145.654526 36.883102,145.175888 37.543388,144.200241 
	C40.512733,139.927551 43.151657,136.151886 45.790588,132.376221 
	C46.028698,132.373322 46.266804,132.370438 47.113503,132.510956 
	C48.142464,132.707169 48.562832,132.759995 48.983204,132.812820 
	C48.983204,132.812820 49.396832,133.012665 49.758484,133.234848 
	C50.353416,133.712067 50.641491,133.818039 50.984367,133.774948 
	C51.755165,134.193130 52.525967,134.611313 53.802803,135.322540 
	C54.874245,135.722794 55.439651,135.829987 56.005058,135.937164 
	C56.005058,135.937164 56.362419,136.098434 56.713005,136.314667 
	C57.392208,136.616333 57.720825,136.701782 58.049442,136.787231 
	C58.049442,136.787231 58.019489,136.969727 57.999046,137.275299 
	C57.978603,137.580856 57.989635,138.021164 57.989635,138.021164 
z"/>
<path fill="#747CD5" opacity="1.000000" stroke="none" 
	d="
M58.136734,138.337830 
	C57.989635,138.021164 57.978603,137.580856 57.964745,137.361160 
	C59.432388,138.342316 60.913895,139.543167 62.684330,141.331436 
	C65.942917,145.442291 65.157608,148.106827 61.406506,150.581879 
	C59.915180,151.565872 59.043907,153.489594 57.890347,154.985504 
	C55.623417,156.884399 53.616219,159.307617 51.040649,160.583435 
	C43.443966,164.346436 40.541920,170.220978 41.841476,178.417419 
	C42.306683,181.351547 42.775208,184.285156 42.978996,187.485077 
	C42.154701,186.833755 41.593632,185.916321 41.032562,184.998901 
	C39.341591,177.999786 38.925392,170.904999 42.580631,164.533539 
	C43.967258,162.116501 47.681084,161.158295 49.858250,159.044891 
	C54.179253,154.850418 58.169773,150.315506 62.392986,145.818939 
	C61.158207,143.666046 59.721020,141.160278 58.136734,138.337830 
z"/>
<path fill="#7077CD" opacity="1.000000" stroke="none" 
	d="
M22.172138,194.400330 
	C22.319822,194.003799 22.702583,194.018845 22.894594,194.033020 
	C22.781130,207.450455 22.014517,221.058380 26.251678,233.892609 
	C28.585863,240.962784 33.596607,247.149292 37.783012,254.094681 
	C38.182091,254.932434 38.198811,255.409714 38.215530,255.886978 
	C36.311306,254.757858 33.657272,254.095505 32.618855,252.427399 
	C22.254065,235.777435 19.985025,217.332458 21.246571,198.197495 
	C21.322104,197.051834 21.756853,195.929840 22.172138,194.400330 
z"/>
<path fill="#6973C2" opacity="1.000000" stroke="none" 
	d="
M205.722687,240.267731 
	C206.192032,240.003464 206.376984,240.011703 206.838928,240.039810 
	C205.247665,247.647675 206.169281,255.070633 207.958115,262.577026 
	C210.857025,274.741608 213.364517,286.999481 216.048477,299.605652 
	C211.313065,295.097046 211.529755,288.755035 210.568237,282.590851 
	C209.052368,272.872864 206.394363,263.333038 204.880402,253.614868 
	C204.221954,249.388199 205.202255,244.906235 205.722687,240.267731 
z"/>
<path fill="#7079D2" opacity="1.000000" stroke="none" 
	d="
M283.346924,48.537251 
	C281.231201,46.646614 278.166351,44.803745 276.902557,42.114471 
	C272.682312,33.133980 264.314484,28.776409 257.155212,23.015886 
	C255.264694,21.494734 253.741394,19.517172 251.985382,17.414181 
	C251.921310,17.079176 252.066574,16.920691 252.449539,16.966419 
	C255.393143,18.804007 257.953766,20.595867 260.514404,22.387730 
	C260.514404,22.387728 260.610016,22.411415 260.748352,22.737080 
	C262.866852,24.498243 264.847015,25.933743 266.827179,27.369244 
	C266.949219,27.647928 267.152130,27.842085 267.797058,28.303019 
	C269.790680,29.723471 271.423126,30.792620 273.055573,31.861769 
	C276.444672,37.306931 279.833771,42.752090 283.346924,48.537251 
z"/>
<path fill="#6C75D0" opacity="1.000000" stroke="none" 
	d="
M308.055725,95.585403 
	C307.125275,95.087036 305.511810,94.274368 305.371765,93.258530 
	C303.828125,82.064171 296.258148,73.561760 292.297699,63.469681 
	C292.178070,63.164925 292.146362,62.825680 292.075745,62.119553 
	C296.713806,70.178925 301.483154,78.552383 305.900604,87.107567 
	C307.148376,89.524155 307.366547,92.472374 308.055725,95.585403 
z"/>
<path fill="none" opacity="1.000000" stroke="none" 
	d="
M58.270416,154.998047 
	C59.043907,153.489594 59.915180,151.565872 61.406506,150.581879 
	C65.157608,148.106827 65.942917,145.442291 62.930702,141.563629 
	C63.257011,140.914948 63.771717,140.288834 63.973186,140.377151 
	C68.010605,142.147369 69.296867,152.408386 66.157455,155.341217 
	C63.311928,157.999496 61.112396,155.722198 58.270416,154.998047 
z"/>
<path fill="none" opacity="1.000000" stroke="none" 
	d="
M122.505989,146.954956 
	C121.537048,148.679810 120.178825,150.417892 118.779404,152.493103 
	C114.132904,153.236984 109.527603,153.643753 104.054840,154.044250 
	C99.507385,155.084442 95.827400,156.130936 92.089935,157.113098 
	C92.032448,157.048782 91.910835,156.926422 91.910828,156.926422 
	C93.715927,155.421844 95.364990,152.921371 97.356911,152.609299 
	C102.290016,151.836395 107.391563,152.208527 112.399879,151.804199 
	C113.945175,151.679443 115.436493,150.589767 116.901405,149.841782 
	C118.668274,148.939606 120.380714,147.930832 122.505989,146.954956 
z"/>
<path fill="#6C76D7" opacity="1.000000" stroke="none" 
	d="
M72.582687,187.964294 
	C71.774017,189.343750 70.633049,190.813339 69.481552,192.274628 
	C66.173729,196.472275 62.904400,200.701431 59.528313,204.843506 
	C58.328804,206.315186 56.865753,207.572052 55.523018,208.926987 
	C54.347786,207.196457 53.172554,205.465927 52.019592,203.339157 
	C53.255566,204.440277 54.469269,205.937653 56.192760,208.063950 
	C58.024544,198.374649 64.200027,192.412079 72.582687,187.964294 
z"/>
<path fill="#6F77D1" opacity="1.000000" stroke="none" 
	d="
M88.493454,160.531601 
	C87.732948,162.108398 87.359383,164.127747 86.147034,165.187775 
	C79.861755,170.683350 76.795120,177.827606 74.870949,185.673157 
	C74.691551,186.404663 74.003777,187.011505 73.208099,187.815887 
	C73.580925,178.045990 78.570412,170.169891 85.279030,162.497147 
	C86.671913,161.585052 87.582687,161.058319 88.493454,160.531601 
z"/>
<path fill="none" opacity="1.000000" stroke="none" 
	d="
M124.021286,123.365425 
	C125.731590,125.543892 127.785347,128.008911 129.043320,130.828918 
	C131.656540,136.687103 130.495316,139.982208 124.249542,145.759872 
	C124.749580,143.972397 125.066826,141.492691 126.475380,140.261047 
	C129.874481,137.288849 128.340073,133.618454 126.501228,132.095184 
	C123.406303,129.531357 124.251099,126.713036 124.021286,123.365425 
z"/>
<path fill="none" opacity="1.000000" stroke="none" 
	d="
M260.644287,21.980110 
	C257.953766,20.595867 255.393143,18.804007 252.521271,16.886368 
	C250.918472,15.681091 249.626923,14.601592 248.130066,13.278656 
	C248.587860,13.023040 249.250946,13.000317 249.914047,13.000271 
	C258.816437,12.999660 258.816437,13.000445 260.644287,21.980110 
z"/>
<path fill="#6D77CC" opacity="1.000000" stroke="none" 
	d="
M38.518444,256.147858 
	C38.198811,255.409714 38.182091,254.932434 38.089844,254.257507 
	C46.327576,257.252991 53.877960,254.477371 61.725517,251.070801 
	C55.645538,258.523346 47.271851,257.633362 38.518444,256.147858 
z"/>
<path fill="#6C75D0" opacity="1.000000" stroke="none" 
	d="
M298.768494,121.261139 
	C300.115692,118.935600 301.443878,116.187752 303.490387,114.167656 
	C307.311981,110.395432 309.876312,106.347427 309.001862,100.306824 
	C312.224518,104.800072 311.007050,109.227425 307.266907,113.192635 
	C304.654236,115.962517 301.812897,118.516708 298.768494,121.261139 
z"/>
<path fill="none" opacity="1.000000" stroke="none" 
	d="
M45.501556,132.245819 
	C43.151657,136.151886 40.512733,139.927551 37.631653,143.918030 
	C34.523033,142.586319 33.919525,140.770111 36.755215,138.583267 
	C39.565567,136.415970 42.392735,134.270493 45.501556,132.245819 
z"/>
<path fill="#6D77CC" opacity="1.000000" stroke="none" 
	d="
M77.571472,244.292725 
	C82.329109,240.270111 87.444443,236.217285 92.932266,232.247787 
	C88.179565,236.308243 83.054367,240.285370 77.571472,244.292725 
z"/>
<path fill="#6E79D0" opacity="1.000000" stroke="none" 
	d="
M223.575989,114.111038 
	C224.000809,114.201363 223.990906,114.633942 223.979736,114.850769 
	C216.876740,115.694305 209.784927,116.321014 202.266571,116.892685 
	C206.982773,115.759094 212.102234,114.541603 217.280472,113.675217 
	C219.165329,113.359840 221.190201,113.881142 223.575989,114.111038 
z"/>
<path fill="#6C76D7" opacity="1.000000" stroke="none" 
	d="
M51.915058,202.642731 
	C45.451107,203.108871 46.949638,197.099701 45.039108,193.308472 
	C47.298195,196.055069 49.535904,199.191452 51.915058,202.642731 
z"/>
<path fill="none" opacity="1.000000" stroke="none" 
	d="
M35.873497,145.973129 
	C35.640800,147.276443 35.058224,148.419739 34.202847,149.732178 
	C32.475803,149.397339 31.021561,148.893372 29.315256,148.302048 
	C30.427145,144.933121 32.531059,144.346649 35.873497,145.973129 
z"/>
<path fill="none" opacity="1.000000" stroke="none" 
	d="
M266.874390,26.959793 
	C264.847015,25.933743 262.866852,24.498243 260.783569,22.771542 
	C264.389984,21.338749 266.563873,22.552042 266.874390,26.959793 
z"/>
<path fill="#6D77CC" opacity="1.000000" stroke="none" 
	d="
M67.344978,249.003265 
	C69.731125,247.673401 72.488655,246.330734 75.646019,245.003479 
	C73.269356,246.342728 70.492859,247.666580 67.344978,249.003265 
z"/>
<path fill="#6D77CC" opacity="1.000000" stroke="none" 
	d="
M98.565979,225.004242 
	C99.100243,224.967285 99.294746,224.979919 99.781143,225.010834 
	C98.364082,227.048340 96.655128,229.067566 94.635002,231.191284 
	C95.624626,229.215149 96.925423,227.134491 98.565979,225.004242 
z"/>
<path fill="#6C75D0" opacity="1.000000" stroke="none" 
	d="
M290.076233,58.581573 
	C288.433990,57.185829 286.752167,55.438988 285.293671,53.344971 
	C285.863251,53.006741 286.209564,53.015686 286.555847,53.024632 
	C287.716125,54.759911 288.876373,56.495193 290.076233,58.581573 
z"/>
<path fill="none" opacity="1.000000" stroke="none" 
	d="
M88.557587,160.546478 
	C87.582687,161.058319 86.671913,161.585052 85.461411,162.226532 
	C84.578163,158.388947 87.399719,158.233551 90.503731,157.920273 
	C90.922508,157.914383 90.983459,157.979050 90.808655,158.229248 
	C89.999336,159.198242 89.364822,159.917023 88.730309,160.635788 
	C88.730309,160.635788 88.621704,160.561371 88.557587,160.546478 
z"/>
<path fill="none" opacity="1.000000" stroke="none" 
	d="
M118.151405,119.026802 
	C119.717949,119.533737 121.263359,120.440063 122.968018,121.642319 
	C121.461594,121.100891 119.795929,120.263542 118.151405,119.026802 
z"/>
<path fill="none" opacity="1.000000" stroke="none" 
	d="
M273.034546,31.495625 
	C271.423126,30.792620 269.790680,29.723471 268.003418,28.363728 
	C269.570251,29.091917 271.291901,30.110699 273.034546,31.495625 
z"/>
<path fill="#6C76D7" opacity="1.000000" stroke="none" 
	d="
M41.022385,185.393143 
	C41.593632,185.916321 42.154701,186.833755 42.961777,187.852432 
	C43.430157,188.385574 43.652527,188.817474 43.656300,189.624603 
	C43.437698,189.999832 42.994350,190.003418 42.994350,190.003418 
	C42.333637,188.598068 41.672924,187.192734 41.022385,185.393143 
z"/>
<path fill="#7079D2" opacity="1.000000" stroke="none" 
	d="
M286.445374,52.753914 
	C286.209564,53.015686 285.863251,53.006741 285.256256,52.993759 
	C284.642090,51.988293 284.288605,50.986855 283.919128,49.664818 
	C284.713715,50.390541 285.524323,51.436867 286.445374,52.753914 
z"/>
<path fill="#6D77CC" opacity="1.000000" stroke="none" 
	d="
M62.387268,251.095001 
	C63.247967,250.426422 64.464844,249.744064 66.074638,249.112244 
	C65.226181,249.802277 63.984818,250.441757 62.387268,251.095001 
z"/>
<path fill="#6C76D7" opacity="1.000000" stroke="none" 
	d="
M45.061920,192.650787 
	C44.429237,192.511246 43.765411,192.078186 43.336243,191.315338 
	C43.754936,190.973053 43.938976,190.960526 44.123016,190.947983 
	C44.425606,191.417755 44.728191,191.887512 45.061920,192.650787 
z"/>
<path fill="#6C75D0" opacity="1.000000" stroke="none" 
	d="
M291.955963,60.742519 
	C291.315002,60.560020 290.697021,60.055019 290.072510,59.219650 
	C290.703644,59.399532 291.341278,59.909775 291.955963,60.742519 
z"/>
<path fill="none" opacity="1.000000" stroke="none" 
	d="
M238.051514,35.564598 
	C238.554962,35.305164 239.113266,35.330669 239.890411,35.536469 
	C239.441620,35.761021 238.773987,35.805279 238.051514,35.564598 
z"/>
<path fill="none" opacity="1.000000" stroke="none" 
	d="
M55.964867,135.643066 
	C55.439651,135.829987 54.874245,135.722794 54.130692,135.382843 
	C54.609917,135.216370 55.267300,135.282654 55.964867,135.643066 
z"/>
<path fill="#6C75D0" opacity="1.000000" stroke="none" 
	d="
M308.937256,98.692383 
	C308.578125,98.233269 308.284393,97.428932 308.006836,96.286461 
	C308.349518,96.747940 308.676086,97.547546 308.937256,98.692383 
z"/>
<path fill="#6C75D0" opacity="1.000000" stroke="none" 
	d="
M294.319519,125.960617 
	C294.510010,125.407478 294.978516,124.735611 295.789917,124.037018 
	C295.621033,124.620827 295.109283,125.231346 294.319519,125.960617 
z"/>
<path fill="none" opacity="1.000000" stroke="none" 
	d="
M48.867805,132.632446 
	C48.562832,132.759995 48.142464,132.707169 47.466995,132.459747 
	C47.725403,132.327469 48.238903,132.389786 48.867805,132.632446 
z"/>
<path fill="#6C75D0" opacity="1.000000" stroke="none" 
	d="
M297.274780,122.972267 
	C297.237335,122.526596 297.472595,121.946846 298.038452,121.331894 
	C298.095215,121.810516 297.821350,122.324348 297.274780,122.972267 
z"/>
<path fill="none" opacity="1.000000" stroke="none" 
	d="
M90.894012,157.880295 
	C91.020760,157.564423 91.229652,157.330582 91.701523,157.035553 
	C91.910835,156.926422 92.032448,157.048782 91.945396,157.309906 
	C91.609627,157.799057 91.318001,157.935059 90.983459,157.979050 
	C90.983459,157.979050 90.922508,157.914383 90.894012,157.880295 
z"/>
<path fill="#747CD5" opacity="1.000000" stroke="none" 
	d="
M44.080238,190.704712 
	C43.938976,190.960526 43.754936,190.973053 43.294792,190.988190 
	C43.018681,190.990829 43.002220,190.497116 42.998283,190.250275 
	C42.994350,190.003418 43.437698,189.999832 43.657970,189.996826 
	C43.878242,189.993820 44.037457,190.461456 44.080238,190.704712 
z"/>
<path fill="none" opacity="1.000000" stroke="none" 
	d="
M123.676392,146.062500 
	C123.863899,146.304535 123.712967,146.573242 123.190895,146.825256 
	C123.059113,146.594513 123.231850,146.354691 123.676392,146.062500 
z"/>
<path fill="none" opacity="1.000000" stroke="none" 
	d="
M274.553284,30.465055 
	C274.589142,30.523903 274.517456,30.406208 274.553284,30.465055 
z"/>
<path fill="none" opacity="1.000000" stroke="none" 
	d="
M57.883034,136.592758 
	C57.720825,136.701782 57.392208,136.616333 56.909000,136.318604 
	C57.075146,136.203644 57.395885,136.300964 57.883034,136.592758 
z"/>
<path fill="none" opacity="1.000000" stroke="none" 
	d="
M50.850800,133.581757 
	C50.641491,133.818039 50.353416,133.712067 49.986908,133.258911 
	C50.186523,133.051636 50.474373,133.160889 50.850800,133.581757 
z"/>
<path fill="#6D77CC" opacity="1.000000" stroke="none" 
	d="
M93.509903,232.214661 
	C93.397369,231.953674 93.548622,231.624008 93.988388,231.259964 
	C94.109161,231.532379 93.941429,231.839172 93.509903,232.214661 
z"/>
<path fill="none" opacity="1.000000" stroke="none" 
	d="
M233.805634,35.857250 
	C233.832199,35.667206 234.117645,35.476818 234.663940,35.313251 
	C234.638031,35.512352 234.351288,35.684631 233.805634,35.857250 
z"/>
<path fill="#6D77CC" opacity="1.000000" stroke="none" 
	d="
M76.274246,245.011063 
	C76.232826,244.777252 76.461220,244.513306 76.961029,244.230560 
	C77.002983,244.468155 76.773521,244.724533 76.274246,245.011063 
z"/>
<path fill="#6C75D0" opacity="1.000000" stroke="none" 
	d="
M291.298645,129.016418 
	C291.236084,128.791687 291.446381,128.496353 291.922516,128.115845 
	C291.982697,128.335709 291.777100,128.640778 291.298645,129.016418 
z"/>
<path fill="#6C75D0" opacity="1.000000" stroke="none" 
	d="
M293.278809,127.050430 
	C293.209167,126.851242 293.392761,126.543953 293.829285,126.129700 
	C293.898834,126.329277 293.715454,126.635811 293.278809,127.050430 
z"/>
<path fill="#6F77D1" opacity="1.000000" stroke="none" 
	d="
M90.808655,158.229248 
	C91.318001,157.935059 91.609627,157.799057 92.002884,157.374222 
	C95.827400,156.130936 99.507385,155.084442 103.596100,154.102417 
	C99.170120,156.403793 94.335396,158.640717 89.115494,160.756714 
	C89.364822,159.917023 89.999336,159.198242 90.808655,158.229248 
z"/>
</svg>