<svg version="1.1" id="Layer_1" xmlns="http://www.w3.org/2000/svg" xmlns:xlink="http://www.w3.org/1999/xlink" x="0px" y="0px"
	 width="100%" viewBox="0 0 384 288" enable-background="new 0 0 384 288" xml:space="preserve">
<path fill="#877EFF" opacity="1.000000" stroke="none" 
	d="
M385.000000,144.555832 
	C382.046875,148.471313 380.785400,152.878876 378.507172,156.737610 
	C369.151123,172.584518 356.315094,184.694611 339.425415,191.904785 
	C321.159851,199.702286 304.128540,209.866455 286.291473,218.462723 
	C263.790039,229.306915 241.326599,240.229797 218.828201,251.080246 
	C217.583649,251.680496 216.214951,252.752487 214.079117,250.714966 
	C245.597290,233.259583 277.415039,217.050812 309.151917,200.419586 
	C304.084198,200.017776 299.008881,199.693741 293.950378,199.197998 
	C283.381287,198.162231 273.383240,195.044952 264.105804,189.976852 
	C260.561157,188.040497 257.738617,188.278488 254.298645,189.914566 
	C228.590744,202.141586 202.813858,214.223480 177.068161,226.371124 
	C135.502808,245.983017 93.940834,265.602020 52.397396,285.260223 
	C50.619549,286.101532 49.042068,287.366302 47.185623,288.716919 
	C44.629444,289.000000 42.258884,289.000000 39.444164,289.000000 
	C39.995319,286.948029 42.176872,286.706055 43.919296,285.832184 
	C94.535843,260.446503 145.161179,235.078369 195.788574,209.714340 
	C212.466248,201.358948 229.156906,193.029419 245.830383,184.665665 
	C247.290741,183.933121 248.921387,183.404465 249.835098,182.041168 
	C245.841095,177.828094 241.919174,173.619171 237.908661,169.496429 
	C236.336304,167.880066 234.889526,169.170303 233.427979,169.959869 
	C208.215347,183.580368 182.680344,196.573959 156.895462,209.072144 
	C143.706085,215.465179 130.418777,221.656876 117.145172,227.874313 
	C115.855194,228.478531 114.610443,229.526077 112.623970,229.071182 
	C112.906799,226.631424 115.096375,226.144028 116.615807,225.327774 
	C152.856888,205.858551 189.348511,186.879456 226.636078,169.470078 
	C227.541290,169.047424 228.526184,168.711975 229.302597,168.113556 
	C231.122818,166.710587 235.082245,166.729431 232.885071,162.562576 
	C230.934464,158.863327 228.658173,157.569717 224.486847,159.574265 
	C207.971268,167.510910 191.336349,175.198990 174.758011,183.005402 
	C145.520264,196.772888 116.289619,210.555450 87.061592,224.343567 
	C83.603127,225.975082 80.187607,227.697495 76.733864,229.339249 
	C75.954933,229.709503 75.130211,229.786240 74.388901,228.504364 
	C76.939720,225.373428 80.929100,224.376968 84.358765,222.723831 
	C129.527420,200.951828 174.103867,177.997375 218.908234,155.498642 
	C227.138672,151.365692 227.308105,150.496475 221.360901,142.202362 
	C185.560303,160.540192 149.540680,178.704437 112.401169,195.492477 
	C112.010117,192.648392 113.808868,192.401993 114.947723,191.784622 
	C147.894913,173.924103 181.203674,156.769608 214.989456,140.543823 
	C217.426651,139.373352 220.438416,138.523010 220.187531,134.704865 
	C219.709641,127.432251 217.874817,126.492218 211.249908,129.607452 
	C180.050003,144.278564 148.766129,158.771194 117.568764,173.447662 
	C85.927521,188.332947 54.359684,203.374237 22.725418,218.274414 
	C21.266693,218.961517 19.768972,220.683823 16.966864,218.643906 
	C21.539848,216.256378 25.648716,213.985809 29.862400,211.930069 
	C90.781258,182.209488 151.116486,151.322144 211.775330,121.082458 
	C216.336731,118.808510 218.438843,116.173882 217.650879,111.085060 
	C217.328445,109.002686 217.757217,106.778641 218.016220,104.639862 
	C218.211838,103.024551 219.267502,101.258461 217.714554,99.953255 
	C216.109375,98.604141 214.533005,99.990334 213.107880,100.673843 
	C198.239594,107.804779 183.405029,115.005966 168.543396,122.150833 
	C162.541473,125.036301 156.498764,127.837036 150.467224,130.660568 
	C149.613266,131.060333 148.740952,131.801392 147.501846,130.546555 
	C150.485916,127.272644 154.649948,125.856956 158.329681,123.884323 
	C176.531876,114.126541 194.646301,104.159943 213.247070,95.213821 
	C220.301743,91.820847 222.182495,86.610794 223.867508,78.385796 
	C197.387009,88.883926 172.535934,100.309792 146.684555,111.236000 
	C147.215271,108.273300 148.981979,108.058250 150.335068,107.379448 
	C176.228134,94.389717 202.112976,81.383545 228.022629,68.426979 
	C230.371475,67.252403 231.894424,65.409592 233.350601,63.330353 
	C267.130280,15.097616 339.150299,14.591415 373.616516,62.316944 
	C378.133423,68.571487 381.122711,75.646065 384.773834,82.744110 
	C385.000000,93.020897 385.000000,103.041786 384.715057,113.721069 
	C383.619507,115.621727 382.493134,116.760811 382.048157,118.122543 
	C378.444092,129.151917 374.763824,140.164734 371.574249,151.316284 
	C370.590057,154.757294 369.451111,158.533035 370.803406,162.760406 
	C374.029297,159.461227 375.854218,155.769638 377.962372,152.226501 
	C380.847412,147.377716 381.751495,141.652039 385.000000,137.000000 
	C385.000000,139.370560 385.000000,141.741104 385.000000,144.555832 
M305.265839,85.251495 
	C313.142975,90.545891 321.045227,95.803535 328.881470,101.157776 
	C331.138885,102.700195 333.285370,103.006332 335.915314,102.084213 
	C341.723145,100.047867 347.586578,98.146332 353.500244,96.442986 
	C358.328705,95.052223 360.741882,92.219902 360.619904,87.080772 
	C360.485565,81.421883 360.534363,75.752464 360.719208,70.094681 
	C360.817108,67.098106 359.714325,65.114876 357.229431,63.471165 
	C348.901184,57.962196 340.647125,52.339569 332.423126,46.675571 
	C330.568848,45.398476 328.846649,45.324902 326.803528,46.068382 
	C320.396545,48.399807 313.984070,50.727676 307.500641,52.831779 
	C304.712189,53.736721 304.112366,55.483318 304.102997,58.105080 
	C304.075012,65.929504 303.888885,73.753784 303.707245,81.576797 
	C303.678619,82.810295 303.826111,83.888199 305.265839,85.251495 
M248.854584,124.965248 
	C251.314072,126.754471 248.758148,127.241043 247.951477,127.710861 
	C244.359222,129.803055 240.692215,131.778137 236.972870,133.636749 
	C234.715546,134.764771 234.260895,136.138412 235.306503,138.442581 
	C237.575729,143.443176 239.828918,148.465775 241.738251,153.609482 
	C242.897034,156.731201 244.866364,158.487137 247.912292,159.531357 
	C253.416550,161.418304 258.910065,163.361954 264.296387,165.556152 
	C266.730103,166.547562 268.262177,166.357224 269.728607,164.063583 
	C274.300873,156.911972 278.958893,149.813461 283.697449,142.770920 
	C285.153534,140.606873 285.294220,138.557327 284.386749,136.194473 
	C281.108124,127.657715 277.857239,119.109573 274.697571,110.528267 
	C273.808472,108.113495 272.309723,106.669144 269.826416,106.033546 
	C262.742188,104.220322 255.681931,102.313530 248.604431,100.473579 
	C245.525558,99.673149 243.192444,100.423889 241.487900,103.402184 
	C238.512833,108.600418 235.576004,113.867607 232.060089,118.695877 
	C228.614822,123.427094 229.970474,127.248497 232.987473,131.418945 
	C238.555847,130.288971 243.061035,126.900787 248.854584,124.965248 
M377.736450,123.366707 
	C379.569641,119.576691 378.699677,116.488594 375.796234,113.460701 
	C371.661346,109.148567 367.802643,104.564217 363.950775,99.990990 
	C361.861694,97.510635 359.707581,96.829826 356.519958,98.006500 
	C350.294464,100.304573 343.979858,102.416336 337.584045,104.176086 
	C334.057007,105.146523 332.306885,107.104126 331.465881,110.494339 
	C329.428314,118.708549 327.417236,126.938675 325.006683,135.046799 
	C323.931274,138.664047 324.385284,141.446030 326.879547,144.182037 
	C330.796051,148.478134 334.796661,152.730057 338.329010,157.332687 
	C340.776611,160.521820 343.178833,161.327072 346.850342,159.693039 
	C352.767944,157.059387 358.777466,154.617615 364.828033,152.303604 
	C367.920593,151.120880 369.642395,149.051804 370.587708,145.979126 
	C372.833954,138.678024 375.205078,131.415359 377.736450,123.366707 
M279.457520,179.060089 
	C280.652405,180.448669 282.015656,181.726974 283.010956,183.246323 
	C286.125519,188.000763 290.554993,189.549118 295.905670,188.564133 
	C302.345978,187.378540 308.851410,187.906189 315.311462,187.459244 
	C318.729584,187.222748 322.241669,186.951065 324.627319,183.618927 
	C328.697449,177.933960 332.984009,172.402145 337.247681,166.858368 
	C339.163239,164.367691 339.275330,162.116226 337.059937,159.731567 
	C334.681030,157.170929 332.020233,154.737152 330.224152,151.795212 
	C324.671783,142.700607 316.528870,141.636856 306.542725,140.889297 
	C292.350464,139.826889 283.787415,144.393097 277.269531,156.907867 
	C270.125092,170.625687 268.521545,166.332993 279.457520,179.060089 
M281.428040,48.284599 
	C276.493744,45.934170 272.466278,46.955597 268.402710,50.711155 
	C263.897552,54.874832 258.708618,58.293739 253.869308,62.102879 
	C251.385544,64.057915 248.842911,65.988091 246.639648,68.236038 
	C244.266296,70.657539 244.250397,74.128586 245.753265,76.609161 
	C247.423233,79.365562 249.927048,76.817924 251.863708,75.924217 
	C261.988464,71.252007 272.050568,66.444160 282.159332,61.736980 
	C283.504761,61.110493 284.942841,59.889175 287.420654,61.892494 
	C281.995392,64.834564 277.108459,67.496452 272.210571,70.138100 
	C264.154541,74.483109 256.095215,78.822098 248.029800,83.149673 
	C243.521957,85.568382 244.358093,89.803421 244.452698,93.742325 
	C244.538483,97.313965 247.559799,97.778305 250.038940,98.460030 
	C256.770782,100.311211 263.586365,101.858620 270.314178,103.723267 
	C272.855957,104.427734 274.839722,103.803452 276.824768,102.349846 
	C283.943848,97.136726 291.094849,91.967262 298.217621,86.759224 
	C300.142090,85.352097 301.628540,83.803177 301.583344,81.044922 
	C301.460693,73.558945 301.416260,66.063095 301.680328,58.583138 
	C301.805908,55.026646 300.306885,53.504200 297.091980,52.691505 
	C292.092987,51.427814 287.165741,49.880447 281.428040,48.284599 
M239.009796,60.508739 
	C237.045105,63.604988 234.068542,66.088593 233.487686,70.267113 
	C251.914581,61.967819 267.135559,49.698006 279.924377,34.319515 
	C268.064423,35.434788 250.904266,46.660862 239.009796,60.508739 
M360.490173,62.116310 
	C363.534180,63.538280 366.488098,65.438042 370.204498,64.217987 
	C365.053680,51.556629 337.630432,33.002693 324.385590,33.364689 
	C327.027100,37.446735 329.593109,41.197895 333.485504,43.840313 
	C342.274048,49.806553 351.080353,55.746674 360.490173,62.116310 
M323.483948,189.293594 
	C309.367706,190.105667 295.145142,189.883499 281.270569,193.046661 
	C293.534973,199.253571 321.545410,198.929733 328.962372,191.344498 
	C327.961823,189.321304 325.990601,189.596390 323.483948,189.293594 
M225.892090,143.776077 
	C228.016083,149.758926 231.146515,155.225388 234.622086,160.494751 
	C235.759537,162.219223 236.918900,164.666626 239.640030,163.157394 
	C242.065369,161.812241 241.510544,159.557953 240.607986,157.452225 
	C238.255920,151.964645 235.930939,146.464600 233.494217,141.014648 
	C232.806885,139.477356 232.501205,136.817551 230.044998,137.665009 
	C227.746078,138.458237 224.661270,139.330704 225.892090,143.776077 
M225.720825,123.041527 
	C224.845383,122.247726 225.168182,120.303764 223.011459,120.453156 
	C221.792587,124.357239 220.461349,128.203201 222.176041,132.405930 
	C222.973648,134.360931 223.455551,136.268555 226.309082,135.138245 
	C228.808731,134.148102 230.416824,132.986160 228.895065,129.991943 
	C227.846130,127.928017 227.017273,125.752243 225.720825,123.041527 
z"/>
</svg>