<svg version="1.1" id="Layer_1" xmlns="http://www.w3.org/2000/svg" xmlns:xlink="http://www.w3.org/1999/xlink" x="0px" y="0px"
	 width="100%" viewBox="0 0 216 285" enable-background="new 0 0 216 285" xml:space="preserve">
<path fill="none" opacity="1.000000" stroke="none" 
	d="
M217.000000,85.000000 
	C217.000000,152.299973 217.000000,219.099960 217.000000,285.949951 
	C145.069321,285.949951 73.138603,285.949951 1.103944,285.949951 
	C1.103944,191.116821 1.103944,96.233475 1.103944,1.175070 
	C72.999649,1.175070 144.999786,1.175070 217.000000,1.175070 
	C217.000000,28.861200 217.000000,56.680599 217.000000,85.000000 
M113.035011,111.589073 
	C113.023239,112.059586 113.011467,112.530098 112.280594,113.079163 
	C111.213257,114.557465 109.029907,116.345757 109.334671,117.442947 
	C109.817009,119.179466 112.040077,120.388145 113.393097,121.936783 
	C115.872398,124.774582 120.212921,127.727371 120.169350,130.577042 
	C120.117653,133.958023 120.559204,139.154938 115.128487,141.446365 
	C113.199707,142.260178 112.093399,146.503983 111.762047,149.317459 
	C111.053207,155.336365 116.267082,157.915329 119.892769,161.966980 
	C119.781792,162.975220 119.670815,163.983444 118.926262,165.191544 
	C117.346626,166.737244 115.020676,168.004639 114.321846,169.878784 
	C111.838188,176.539505 109.440247,183.036621 105.883362,189.392471 
	C101.307549,197.569077 102.386040,198.158081 96.770355,203.810501 
	C95.885262,204.701385 95.352837,206.004288 94.850487,207.197968 
	C94.239265,208.650375 93.832596,210.188843 93.200706,212.104645 
	C89.137077,208.806946 88.004433,210.546906 87.953156,214.487808 
	C87.936882,215.738480 87.762817,217.429169 86.965988,218.146332 
	C84.371437,220.481552 81.698700,223.724197 78.613792,224.317307 
	C71.781960,225.630768 73.366539,232.035339 70.093185,235.129028 
	C71.593376,236.707779 73.555962,237.805145 73.665260,239.063492 
	C74.044746,243.432388 74.115166,247.890518 73.679916,252.252518 
	C73.091782,258.146637 71.816132,263.968811 71.050102,269.849762 
	C70.568436,273.547638 71.999084,275.523376 76.157173,276.187988 
	C79.427757,276.710693 84.055984,275.123474 85.762787,280.251160 
	C85.925194,280.739075 89.559067,280.955933 90.559692,280.101837 
	C92.854935,278.142609 94.475060,275.407043 96.451454,273.055695 
	C98.394142,270.744476 100.438293,268.518524 103.039886,265.573822 
	C101.752243,261.424835 104.772026,254.329880 109.408661,251.445694 
	C110.484238,254.707657 111.211060,258.473877 112.968307,261.674316 
	C114.079834,263.698761 116.655701,264.984741 118.711952,266.403015 
	C120.210617,267.436707 121.846680,268.533203 123.573990,268.919098 
	C127.210640,269.731506 130.947479,270.095520 134.643188,270.643555 
	C134.623108,271.087799 134.603027,271.532013 134.582947,271.976257 
	C136.725266,270.740814 138.867569,269.505402 141.610580,268.094208 
	C142.323288,267.717346 143.035980,267.340454 144.536728,267.048981 
	C146.275543,267.095032 148.377258,267.772675 149.664642,267.032990 
	C151.414581,266.027527 152.542023,263.938629 153.936417,262.314362 
	C152.561661,261.193909 151.186905,260.073456 149.807556,258.153076 
	C149.971756,257.104095 150.135971,256.055115 150.984848,254.896027 
	C155.058228,252.958649 161.406631,253.009857 159.155624,245.518799 
	C159.064377,245.215164 159.511932,244.511459 159.869873,244.348343 
	C162.962204,242.939209 164.553070,241.491760 162.611481,237.553070 
	C161.334885,234.963425 161.449966,231.769791 157.914825,230.133713 
	C158.400391,227.399368 158.885956,224.665024 159.676147,221.652740 
	C159.848541,221.420197 159.924545,221.159515 159.839325,220.868500 
	C159.839325,220.868500 159.809052,220.811142 160.677002,220.920166 
	C165.817627,220.935318 168.689407,217.990997 166.702438,212.720459 
	C164.305832,206.363403 166.084473,200.710556 167.023041,194.737595 
	C167.508865,191.645920 167.402374,188.442245 168.083405,185.405792 
	C168.695297,182.677689 169.591858,179.821793 171.130051,177.539322 
	C173.278702,174.351013 175.937149,171.671143 174.767517,167.252365 
	C174.550507,166.432541 176.046982,164.377701 177.043472,164.146530 
	C182.943680,162.777817 183.864868,161.464920 182.704803,155.455734 
	C182.336319,153.547012 181.877350,151.397659 182.389999,149.627884 
	C183.659515,145.245163 182.598526,142.377396 178.515121,140.139374 
	C175.103424,138.269501 172.949509,135.462814 175.704437,131.384247 
	C180.035690,131.995255 182.808456,130.726883 182.764114,127.953323 
	C182.699265,123.898895 179.377838,125.332100 177.163651,124.988449 
	C173.289948,124.387230 168.489471,118.878647 167.945267,114.802330 
	C167.499390,111.462486 167.432220,108.052116 163.578140,105.966591 
	C162.126205,105.180923 161.773544,102.042068 161.363770,99.891373 
	C161.268127,99.389435 162.980240,98.543053 164.383438,97.446617 
	C164.872040,100.160812 165.183167,101.889076 165.617828,104.303596 
	C166.906296,103.516037 168.207916,103.187569 168.566376,102.419136 
	C169.993774,99.359184 163.602936,91.045555 160.510773,92.217117 
	C155.622665,94.069138 153.439774,90.780067 152.775482,87.724876 
	C151.917770,83.779999 151.427307,78.485016 153.406693,75.534363 
	C155.586334,72.285217 160.639771,70.799530 164.640137,68.983772 
	C168.415665,67.270058 169.318649,60.974823 166.016327,57.369408 
	C165.891998,56.767685 165.767670,56.165962 165.997498,54.861858 
	C167.039948,48.733532 163.935837,45.338573 155.943161,43.266319 
	C156.456589,42.082233 156.867157,40.838310 157.511642,39.730465 
	C158.190079,38.564285 159.330338,37.614574 159.774109,36.390877 
	C159.941360,35.929749 158.607300,34.287865 158.157303,34.364025 
	C157.017456,34.556931 155.984131,35.406601 154.921432,36.016418 
	C154.388748,36.322090 153.885132,36.678375 153.043533,37.221348 
	C149.931824,31.525091 145.965393,27.477394 139.016693,27.673126 
	C138.057129,27.700153 136.521881,25.549244 136.122452,24.157177 
	C133.967148,16.646002 129.424652,14.881000 125.097832,18.681555 
	C121.557266,18.395720 117.537376,17.137478 116.825142,18.167156 
	C112.605171,24.267981 102.738411,24.833021 101.615982,33.777950 
	C101.575134,34.103443 100.849426,34.343002 101.331306,34.011570 
	C96.251152,33.085243 91.996544,32.309452 88.008247,31.582218 
	C82.611855,33.287884 78.226433,35.704247 76.842224,41.935226 
	C75.743034,46.883163 69.759254,51.307171 75.709618,56.799675 
	C77.676758,55.743744 79.387871,54.825241 81.098984,53.906742 
	C81.475632,54.561031 81.852272,55.215321 82.228920,55.869606 
	C80.074814,57.113968 77.982727,58.486130 75.750412,59.569313 
	C73.148743,60.831715 70.511009,61.811470 73.883080,65.090302 
	C74.487160,65.677681 75.105362,67.142960 74.801147,67.625641 
	C72.973976,70.524765 71.422012,74.166451 68.716713,75.777687 
	C66.179420,77.288849 62.990540,81.297836 59.027328,77.373680 
	C58.615379,76.965790 57.081348,77.691162 56.067947,77.890709 
	C56.082516,78.297600 56.097080,78.704491 56.111645,79.111382 
	C57.356804,79.677643 58.601967,80.243896 59.761166,80.771065 
	C58.811974,89.461739 51.025185,91.278725 46.419212,95.327209 
	C44.306072,94.560417 42.597195,93.940323 40.888321,93.320229 
	C40.500805,95.417397 39.553413,97.592812 39.833443,99.596695 
	C40.595352,105.048935 38.861446,108.025146 33.670643,108.992432 
	C27.185419,110.200928 23.320562,114.680740 22.965130,121.324707 
	C22.923405,122.104668 22.597881,122.869446 22.728518,122.349609 
	C19.547169,124.101189 15.432576,125.316368 15.422678,126.564110 
	C15.389742,130.715897 16.791456,134.888596 17.755194,139.027176 
	C17.880749,139.566345 18.608767,140.272018 19.145744,140.359360 
	C22.957928,140.979294 26.783779,141.574829 30.628939,141.880173 
	C31.365692,141.938660 32.207169,140.678436 33.023384,139.640091 
	C33.023384,139.640091 33.026524,139.253571 33.534531,139.019913 
	C33.897522,138.950241 34.260513,138.880569 35.330547,139.115372 
	C36.668594,139.414505 38.006638,139.713638 39.738663,140.100845 
	C39.529621,138.546707 39.065434,137.557480 39.373245,136.979050 
	C41.183342,133.577362 41.831841,130.470245 39.475487,126.827461 
	C38.778629,125.750153 39.861465,122.881119 40.942448,121.446068 
	C42.521656,119.349625 44.991348,117.950172 46.796520,115.991058 
	C49.015274,113.583107 50.904854,110.874985 53.006840,108.355095 
	C54.214035,106.907898 55.462250,105.466568 56.865688,104.217804 
	C59.192116,102.147789 61.681698,100.262375 64.056503,98.244987 
	C65.259216,97.223297 66.363060,96.084991 67.508247,94.995880 
	C68.653862,93.906372 69.785797,92.802299 70.940979,91.723076 
	C72.365639,90.392075 73.823448,89.096367 75.239586,87.756493 
	C77.822273,85.312874 80.378242,82.841026 82.958847,80.395203 
	C84.068695,79.343315 85.212242,78.326973 86.340469,77.294487 
	C86.659386,78.712578 87.430870,80.200775 87.223831,81.537392 
	C85.871773,90.266052 93.561287,99.993332 101.990959,100.732758 
	C101.895584,102.152290 101.209175,104.447655 101.801834,104.847595 
	C105.345833,107.239174 107.305191,112.813873 113.002335,110.960991 
	C113.002335,110.960991 113.101753,110.884285 113.035011,111.589073 
M101.225479,276.205872 
	C101.967430,276.588226 102.709389,276.970581 103.451347,277.352966 
	C103.577728,275.768280 103.704117,274.183563 103.830505,272.598877 
	C103.432358,272.507477 103.034210,272.416046 102.636063,272.324646 
	C102.128159,273.377594 101.620262,274.430542 101.225479,276.205872 
z"/>
<path fill="none" opacity="1.000000" stroke="none" 
	d="
M141.009888,268.269958 
	C138.867569,269.505402 136.725266,270.740814 134.582947,271.976257 
	C134.603027,271.532013 134.623108,271.087799 134.643188,270.643555 
	C130.947479,270.095520 127.210640,269.731506 123.573990,268.919098 
	C121.846680,268.533203 120.210617,267.436707 118.711952,266.403015 
	C116.655701,264.984741 114.079834,263.698761 112.968307,261.674316 
	C111.211060,258.473877 110.484238,254.707657 109.408661,251.445694 
	C104.772026,254.329880 101.752243,261.424835 103.039886,265.573822 
	C100.438293,268.518524 98.394142,270.744476 96.451454,273.055695 
	C94.475060,275.407043 92.854935,278.142609 90.559692,280.101837 
	C89.559067,280.955933 85.925194,280.739075 85.762787,280.251160 
	C84.055984,275.123474 79.427757,276.710693 76.157173,276.187988 
	C71.999084,275.523376 70.568436,273.547638 71.050102,269.849762 
	C71.816132,263.968811 73.091782,258.146637 73.679916,252.252518 
	C74.115166,247.890518 74.044746,243.432388 73.665260,239.063492 
	C73.555962,237.805145 71.593376,236.707779 70.093185,235.129028 
	C73.366539,232.035339 71.781960,225.630768 78.613792,224.317307 
	C81.698700,223.724197 84.371437,220.481552 86.965988,218.146332 
	C87.762817,217.429169 87.936882,215.738480 87.953156,214.487808 
	C88.004433,210.546906 89.137077,208.806946 93.200706,212.104645 
	C93.832596,210.188843 94.239265,208.650375 94.850487,207.197968 
	C95.352837,206.004288 95.885262,204.701385 96.770355,203.810501 
	C102.386040,198.158081 101.307549,197.569077 105.883362,189.392471 
	C109.440247,183.036621 111.838188,176.539505 114.321846,169.878784 
	C115.020676,168.004639 117.346626,166.737244 119.331650,165.519501 
	C119.022507,170.731598 117.530312,175.661240 117.812653,180.487045 
	C118.093796,185.292511 115.324730,188.129333 113.199074,191.467422 
	C107.179909,200.919800 100.975784,210.254395 94.586731,219.837860 
	C94.135429,220.649826 93.941902,221.259308 93.829453,221.913971 
	C93.910538,221.959167 93.783226,221.824036 93.484474,221.998627 
	C90.996468,223.753510 88.990417,226.271454 86.584259,226.741577 
	C78.780251,228.266342 76.396004,230.937119 76.242371,238.887970 
	C76.137665,244.306671 75.208267,249.704437 74.877472,255.125595 
	C74.668060,258.557526 74.656052,262.035309 74.960991,265.456360 
	C75.355789,269.885529 77.420883,272.643158 82.441498,273.141724 
	C87.669250,273.660828 89.868164,270.762787 90.968727,266.679291 
	C93.198586,258.405701 96.569016,250.879700 103.094391,245.059235 
	C103.060204,245.024368 103.067604,245.121750 103.323547,245.040359 
	C103.760475,244.661713 103.941467,244.364456 104.074509,244.065582 
	C104.026573,244.063950 104.095108,244.131088 104.414146,244.060791 
	C105.525139,243.018723 106.317093,242.046936 107.069557,241.038712 
	C107.030075,241.002258 107.074699,241.100037 107.356247,240.998535 
	C108.119316,240.282211 108.600838,239.667374 109.045509,239.028992 
	C109.008667,239.005432 109.054970,239.079636 109.332855,238.960251 
	C109.852867,238.313309 110.094978,237.785767 110.305290,237.297913 
	C110.273491,237.337601 110.372231,237.313171 110.690697,237.232819 
	C113.132614,234.238449 115.256065,231.324432 117.427658,228.395386 
	C117.475807,228.380341 117.575134,228.362671 117.738098,228.322876 
	C117.901062,228.283096 118.059258,227.987244 118.270203,227.839188 
	C118.688988,227.226776 118.896820,226.762421 119.371490,226.117538 
	C119.855835,225.351288 120.073364,224.765564 120.214203,224.144913 
	C120.137505,224.109985 120.245972,224.238983 120.563492,224.135895 
	C122.952202,220.374741 125.023392,216.716660 127.073166,213.057770 
	C127.051743,213.056976 127.084099,213.095535 127.369476,212.909821 
	C131.190933,206.366516 134.727005,200.008942 138.263092,193.651367 
	C138.853012,193.810120 139.442947,193.968872 140.032867,194.127640 
	C140.282883,196.278122 141.019211,198.502747 140.704437,200.567123 
	C138.573120,214.545471 136.405334,228.524673 133.805511,242.420578 
	C133.167236,245.832062 131.322037,249.289764 129.132690,251.999969 
	C128.301697,253.028610 124.935097,252.048279 122.728119,251.917526 
	C118.461555,251.664734 117.082260,253.464905 118.911407,257.397919 
	C121.254082,262.435120 124.751442,266.278229 130.672333,267.032227 
	C134.114883,267.470673 137.563828,267.859039 141.009888,268.269958 
z"/>
<path fill="none" opacity="1.000000" stroke="none" 
	d="
M33.000332,140.026581 
	C32.207169,140.678436 31.365692,141.938660 30.628939,141.880173 
	C26.783779,141.574829 22.957928,140.979294 19.145744,140.359360 
	C18.608767,140.272018 17.880749,139.566345 17.755194,139.027176 
	C16.791456,134.888596 15.389742,130.715897 15.422678,126.564110 
	C15.432576,125.316368 19.547169,124.101189 22.728518,122.349609 
	C22.597881,122.869446 22.923405,122.104668 22.965130,121.324707 
	C23.320562,114.680740 27.185419,110.200928 33.670643,108.992432 
	C38.861446,108.025146 40.595352,105.048935 39.833443,99.596695 
	C39.553413,97.592812 40.500805,95.417397 40.888321,93.320229 
	C42.597195,93.940323 44.306072,94.560417 46.419212,95.327209 
	C51.025185,91.278725 58.811974,89.461739 59.761166,80.771065 
	C58.601967,80.243896 57.356804,79.677643 56.111645,79.111382 
	C56.097080,78.704491 56.082516,78.297600 56.067947,77.890709 
	C57.081348,77.691162 58.615379,76.965790 59.027328,77.373680 
	C62.990540,81.297836 66.179420,77.288849 68.716713,75.777687 
	C71.422012,74.166451 72.973976,70.524765 74.801147,67.625641 
	C75.105362,67.142960 74.487160,65.677681 73.883080,65.090302 
	C70.511009,61.811470 73.148743,60.831715 75.750412,59.569313 
	C77.982727,58.486130 80.074814,57.113968 82.228920,55.869606 
	C81.852272,55.215321 81.475632,54.561031 81.098984,53.906742 
	C79.387871,54.825241 77.676758,55.743744 75.709618,56.799675 
	C69.759254,51.307171 75.743034,46.883163 76.842224,41.935226 
	C78.226433,35.704247 82.611855,33.287884 88.008247,31.582218 
	C91.996544,32.309452 96.251152,33.085243 101.331306,34.011570 
	C100.849426,34.343002 101.575134,34.103443 101.615982,33.777950 
	C102.738411,24.833021 112.605171,24.267981 116.825142,18.167156 
	C117.537376,17.137478 121.557266,18.395720 125.097832,18.681555 
	C129.424652,14.881000 133.967148,16.646002 136.122452,24.157177 
	C136.521881,25.549244 138.057129,27.700153 139.016693,27.673126 
	C145.965393,27.477394 149.931824,31.525091 153.043533,37.221348 
	C153.885132,36.678375 154.388748,36.322090 154.921432,36.016418 
	C155.984131,35.406601 157.017456,34.556931 158.157303,34.364025 
	C158.607300,34.287865 159.941360,35.929749 159.774109,36.390877 
	C159.330338,37.614574 158.190079,38.564285 157.511642,39.730465 
	C156.867157,40.838310 156.456589,42.082233 155.904480,43.711685 
	C155.865784,44.157047 155.698349,44.348305 155.408081,44.214008 
	C153.749908,43.041870 152.381989,42.004028 151.006866,40.984192 
	C150.999664,41.002190 151.034256,40.984543 150.914459,40.708679 
	C150.272461,40.188229 149.750229,39.943638 149.264832,39.725033 
	C149.301666,39.751022 149.277481,39.664181 149.192490,39.345695 
	C147.516388,37.899345 145.925293,36.771484 144.280914,35.631527 
	C144.227661,35.619431 144.322845,35.565838 144.251984,35.293728 
	C143.731094,34.410667 143.281052,33.799717 143.128967,33.101627 
	C143.769608,32.602139 144.114838,32.191730 144.439529,31.765657 
	C144.447250,31.755520 144.224838,31.569998 144.109756,31.466282 
	C143.677109,32.033806 143.244461,32.601330 142.460693,33.146530 
	C140.384521,32.451775 138.659470,31.779339 136.942230,31.058926 
	C136.950043,31.010952 136.882812,31.081167 136.720490,30.817421 
	C135.677811,30.085758 134.797470,29.617842 133.937683,29.107464 
	C133.958252,29.065002 133.866287,29.086115 133.774490,28.797682 
	C133.131378,28.309383 132.580048,28.109518 132.019043,27.948046 
	C132.009369,27.986439 132.074493,27.941376 131.874695,27.669903 
	C130.823669,27.114302 129.972473,26.830172 128.934219,26.344929 
	C128.324814,25.793736 127.902435,25.443653 127.436279,24.802055 
	C126.615211,24.018064 125.837929,23.525589 124.721191,23.019136 
	C123.266312,23.584511 122.150887,24.163862 120.786781,24.836689 
	C120.363029,24.956881 120.187950,24.983599 119.816925,25.065075 
	C119.365852,25.237906 119.173668,25.421743 118.819580,25.799274 
	C118.425568,25.960537 118.256378,25.993872 117.846481,26.106623 
	C117.400864,26.446341 117.195953,26.706642 116.996666,26.984734 
	C117.002296,27.002527 116.967072,26.990221 116.755859,27.081116 
	C116.279785,27.346807 116.089104,27.581808 115.768440,28.145611 
	C114.294998,29.617535 113.025711,30.820856 111.581917,32.132778 
	C111.195618,32.429840 111.054245,32.661327 110.856155,33.204075 
	C110.132141,33.976131 109.535255,34.479942 108.732040,35.080612 
	C108.267609,35.357098 108.083855,35.594326 107.863754,36.190437 
	C107.670799,36.689270 107.588554,36.886822 107.372818,37.227913 
	C107.092468,37.602345 107.030556,37.854160 106.936768,38.429283 
	C106.376030,39.469181 105.932121,40.206692 105.426010,40.941841 
	C105.363800,40.939480 105.239937,40.952061 104.926956,40.844177 
	C104.061157,40.374767 103.508347,40.013241 102.852249,39.498955 
	C102.572144,39.164024 102.361031,39.040314 101.764755,38.867229 
	C99.024567,38.204895 96.635239,37.650391 94.008072,37.114246 
	C93.449554,37.225597 93.206253,37.416885 92.702171,37.805244 
	C91.900490,37.853947 91.436943,37.803890 90.877296,37.623100 
	C90.445557,37.326694 90.192688,37.425282 89.775620,37.980736 
	C89.226959,38.462154 88.925262,38.750965 88.491013,39.116879 
	C88.197403,39.324100 88.064285,39.478333 87.824593,39.947701 
	C87.066673,40.814934 86.443253,41.391144 85.626625,42.098026 
	C85.196198,42.451767 85.056656,42.724781 84.985641,43.307442 
	C84.888206,43.727413 84.819939,43.887699 84.539719,44.255478 
	C84.250519,45.044491 84.173286,45.626003 84.124222,46.561901 
	C84.133942,47.863258 84.115486,48.810230 84.101608,49.979221 
	C84.169189,50.503300 84.324890,50.745758 84.700226,51.260254 
	C84.922295,52.292866 85.017448,52.993828 85.140526,53.960892 
	C85.404488,54.479023 85.640518,54.731052 86.083298,55.236320 
	C86.593330,56.299145 86.896614,57.108734 86.942337,58.070076 
	C87.097160,58.825558 87.509544,59.429287 88.014603,60.015465 
	C88.107277,59.997913 88.294899,60.017521 88.194908,60.356956 
	C79.581581,69.462982 71.087784,78.248642 62.549965,86.991310 
	C51.911758,97.884743 41.237247,108.742714 30.316521,119.819824 
	C28.019325,121.678871 25.984022,123.334091 23.721308,125.132423 
	C23.356403,125.599396 23.218908,125.923256 23.085930,126.657227 
	C24.075718,130.129761 25.060991,133.192184 26.154240,136.427521 
	C26.453943,136.807098 26.687017,136.942871 27.246597,137.090942 
	C28.030262,137.495804 28.528767,137.817413 29.178051,138.353119 
	C29.654619,138.678192 29.980404,138.789169 30.602428,138.885132 
	C31.275469,138.983780 31.652269,139.097443 32.145386,139.394913 
	C32.466904,139.795624 32.713116,139.944901 33.000332,140.026581 
z"/>
<path fill="none" opacity="1.000000" stroke="none" 
	d="
M165.927521,57.981571 
	C169.318649,60.974823 168.415665,67.270058 164.640137,68.983772 
	C160.639771,70.799530 155.586334,72.285217 153.406693,75.534363 
	C151.427307,78.485016 151.917770,83.779999 152.775482,87.724876 
	C153.439774,90.780067 155.622665,94.069138 160.510773,92.217117 
	C163.602936,91.045555 169.993774,99.359184 168.566376,102.419136 
	C168.207916,103.187569 166.906296,103.516037 165.617828,104.303596 
	C165.183167,101.889076 164.872040,100.160812 164.383438,97.446617 
	C162.980240,98.543053 161.268127,99.389435 161.363770,99.891373 
	C161.773544,102.042068 162.126205,105.180923 163.578140,105.966591 
	C167.432220,108.052116 167.499390,111.462486 167.945267,114.802330 
	C168.489471,118.878647 173.289948,124.387230 177.163651,124.988449 
	C179.377838,125.332100 182.699265,123.898895 182.764114,127.953323 
	C182.808456,130.726883 180.035690,131.995255 175.704437,131.384247 
	C172.949509,135.462814 175.103424,138.269501 178.515121,140.139374 
	C182.598526,142.377396 183.659515,145.245163 182.389999,149.627884 
	C181.877350,151.397659 182.336319,153.547012 182.704803,155.455734 
	C183.864868,161.464920 182.943680,162.777817 177.043472,164.146530 
	C176.046982,164.377701 174.550507,166.432541 174.767517,167.252365 
	C175.937149,171.671143 173.278702,174.351013 171.130051,177.539322 
	C169.591858,179.821793 168.695297,182.677689 168.083405,185.405792 
	C167.402374,188.442245 167.508865,191.645920 167.023041,194.737595 
	C166.084473,200.710556 164.305832,206.363403 166.702438,212.720459 
	C168.689407,217.990997 165.817627,220.935318 160.257019,220.447632 
	C163.060547,202.882355 165.827026,185.685852 169.675735,168.735077 
	C172.056763,158.248459 174.425095,148.019638 171.538895,137.348328 
	C170.457397,133.349548 169.232788,129.389603 168.086533,125.408188 
	C164.560104,113.159470 157.784073,102.560120 151.049332,91.540268 
	C148.960541,86.855164 146.921356,82.543922 144.923462,77.772659 
	C144.909760,75.467232 144.854721,73.621826 144.831482,71.780357 
	C144.863297,71.784286 144.843903,71.845383 145.081512,71.827400 
	C145.634689,71.693413 145.859634,71.481323 146.280212,70.994392 
	C147.635147,70.510361 148.703781,70.205086 150.009766,69.886673 
	C150.567825,69.784164 150.811234,69.595238 151.217850,69.197144 
	C151.631882,69.056381 151.805344,69.025269 152.175720,68.951828 
	C152.629944,68.804169 152.830261,68.632393 153.327576,68.253906 
	C159.217789,66.493904 163.610138,63.491669 165.927521,57.981571 
z"/>
<path fill="none" opacity="1.000000" stroke="none" 
	d="
M101.999084,100.000916 
	C93.561287,99.993332 85.871773,90.266052 87.223831,81.537392 
	C87.430870,80.200775 86.659386,78.712578 86.340469,77.294487 
	C85.212242,78.326973 84.068695,79.343315 82.958847,80.395203 
	C80.378242,82.841026 77.822273,85.312874 75.239586,87.756493 
	C73.823448,89.096367 72.365639,90.392075 70.940979,91.723076 
	C69.785797,92.802299 68.653862,93.906372 67.508247,94.995880 
	C66.363060,96.084991 65.259216,97.223297 64.056503,98.244987 
	C61.681698,100.262375 59.192116,102.147789 56.865688,104.217804 
	C55.462250,105.466568 54.214035,106.907898 53.006840,108.355095 
	C50.904854,110.874985 49.015274,113.583107 46.796520,115.991058 
	C44.991348,117.950172 42.521656,119.349625 40.942448,121.446068 
	C39.861465,122.881119 38.778629,125.750153 39.475487,126.827461 
	C41.831841,130.470245 41.183342,133.577362 39.373245,136.979050 
	C39.065434,137.557480 39.529621,138.546707 39.738663,140.100845 
	C38.006638,139.713638 36.668594,139.414505 35.109562,138.656494 
	C35.356327,137.438614 35.824078,136.679596 36.512909,135.705261 
	C36.120708,134.035934 42.213333,131.863586 36.091927,130.685760 
	C35.593773,129.326492 35.254829,128.264038 34.945190,126.771126 
	C34.557480,124.365517 34.140469,122.390388 33.714596,120.155823 
	C33.857433,119.588844 34.009136,119.281303 34.343548,118.879883 
	C34.749817,118.615807 34.918186,118.402100 35.038231,118.095039 
	C35.045086,118.045181 35.144764,118.031204 35.326756,117.922943 
	C35.736427,117.638008 35.910210,117.418633 36.035770,117.104485 
	C36.041447,117.052406 36.143372,117.028168 36.328651,116.913834 
	C36.745060,116.611221 36.912510,116.377342 37.153236,115.810005 
	C38.242805,114.689789 39.195427,113.857437 40.330376,112.917450 
	C40.739796,112.632431 40.913189,112.412682 41.040890,112.099464 
	C41.048889,112.048370 41.151115,112.032570 41.328178,111.923233 
	C41.729355,111.636826 41.886635,111.412827 42.171974,110.947952 
	C42.626026,110.494743 42.885189,110.235481 43.332672,109.877686 
	C43.751507,109.600487 43.919708,109.375259 44.023758,109.062706 
	C44.021919,109.021942 44.103451,109.025528 44.294846,108.920258 
	C44.725964,108.636703 44.904537,108.410217 45.179977,107.858109 
	C46.276970,106.728455 47.215954,105.876198 48.334366,104.918541 
	C48.737682,104.639984 48.909256,104.425056 49.042458,104.111931 
	C49.056396,104.055489 49.169353,104.027901 49.343452,103.918190 
	C49.737003,103.630829 49.890926,103.407928 50.218670,102.906181 
	C52.019348,101.131851 53.580677,99.591103 55.523994,98.026588 
	C59.492195,97.673241 61.763760,96.197754 61.176022,91.824539 
	C62.248787,90.698051 63.186207,89.859047 64.315651,88.906601 
	C64.746094,88.601250 64.915794,88.360832 65.011711,88.038643 
	C65.006630,88.005386 65.072937,88.016838 65.268311,87.915871 
	C65.710152,87.638351 65.882660,87.406723 66.207466,86.875885 
	C68.318993,84.765625 70.204247,82.899483 72.458679,81.023453 
	C75.701324,80.627289 78.924461,80.540176 77.217796,75.849251 
	C77.952393,75.079048 78.512772,74.545792 79.274170,73.908478 
	C79.725533,73.620384 79.907066,73.383583 80.018250,73.055176 
	C80.016724,73.016319 80.094414,73.019791 80.291473,72.909988 
	C80.734207,72.611351 80.909851,72.371284 81.012665,72.044563 
	C81.009872,72.009155 81.080635,72.015396 81.280861,71.907860 
	C81.730804,71.611633 81.907059,71.369476 82.166107,70.783295 
	C84.385674,68.592102 86.448990,66.691467 88.932922,64.880615 
	C90.269348,67.062759 91.185150,69.155121 91.895515,71.524841 
	C88.904655,73.522430 89.728317,74.987381 92.075340,76.476074 
	C92.248940,76.763123 92.391258,76.885559 92.738518,77.332451 
	C92.988327,79.021759 93.065582,80.348991 93.138283,81.922905 
	C93.199501,82.509628 93.376686,82.775269 93.768433,83.337326 
	C94.259102,85.443970 94.646622,87.179794 95.066299,89.121017 
	C95.193306,89.598358 95.364235,89.808372 95.785248,90.259521 
	C96.957634,92.108238 97.956009,93.653870 99.041451,95.364632 
	C99.275497,95.739632 99.468506,95.890739 99.940231,96.186508 
	C100.825508,97.157570 101.478081,97.925201 102.088860,99.018158 
	C102.032646,99.561119 102.018227,99.778732 102.002060,99.998016 
	C102.000305,99.999695 101.999084,100.000916 101.999084,100.000916 
z"/>
<path fill="#6F79DC" opacity="1.000000" stroke="none" 
	d="
M95.034142,88.915627 
	C94.646622,87.179794 94.259102,85.443970 93.792137,83.088638 
	C93.522743,82.204842 93.332787,81.940529 93.142830,81.676224 
	C93.065582,80.348991 92.988327,79.021759 92.755081,77.157600 
	C92.479408,76.365852 92.283607,76.275314 92.011688,76.349075 
	C89.728317,74.987381 88.904655,73.522430 92.199753,71.431274 
	C93.731041,70.313416 94.752647,69.566490 95.849358,68.878113 
	C95.924461,68.936668 96.077377,69.050224 96.051147,69.433563 
	C95.362373,71.481041 94.060524,73.178467 94.145126,74.803711 
	C94.569511,82.956863 97.678154,90.021927 103.572792,95.799522 
	C108.109589,100.246216 113.257423,104.274994 116.912949,109.366035 
	C122.095291,116.583473 124.067375,125.319191 125.443291,134.058502 
	C125.584938,134.958176 125.126137,135.939041 125.035309,136.890762 
	C124.335709,144.221359 118.091652,151.176971 123.524666,158.950790 
	C123.717720,159.227020 123.351662,159.877426 123.279030,160.358414 
	C122.174698,167.670776 121.391258,175.051468 119.845848,182.269119 
	C119.043831,186.014832 117.777359,190.373901 115.196449,192.896286 
	C106.391136,201.501953 100.542664,211.738495 96.042984,222.980774 
	C95.450378,224.461349 94.005676,225.600876 92.970520,226.530914 
	C93.251350,224.716995 93.517288,223.270523 93.783226,221.824036 
	C93.783226,221.824036 93.910538,221.959167 94.150986,221.775970 
	C94.542458,220.940323 94.693481,220.287842 94.844498,219.635376 
	C100.975784,210.254395 107.179909,200.919800 113.199074,191.467422 
	C115.324730,188.129333 118.093796,185.292511 117.812653,180.487045 
	C117.530312,175.661240 119.022507,170.731598 119.648430,165.419586 
	C119.670815,163.983444 119.781792,162.975220 120.114212,161.469543 
	C118.140862,152.862381 119.763062,145.015076 122.243980,137.322891 
	C124.926041,129.007050 118.892097,122.957726 116.957047,115.521660 
	C115.592209,113.776703 114.346977,112.330498 113.101753,110.884285 
	C113.101753,110.884285 113.002335,110.960991 113.022263,110.609894 
	C112.621872,109.494492 112.201569,108.730186 111.764587,107.711800 
	C111.489220,107.252205 111.230537,107.046700 110.832321,106.556473 
	C109.713379,105.192108 108.733963,104.112465 107.725899,102.850739 
	C107.558327,102.418724 107.349541,102.325867 106.846664,102.145416 
	C105.728577,101.274597 104.834724,100.648422 103.805603,99.759933 
	C103.157104,99.229347 102.643875,98.961082 102.130646,98.692825 
	C101.478081,97.925201 100.825508,97.157570 99.909943,95.983170 
	C99.493637,95.308479 99.262787,95.182846 98.954391,95.199509 
	C97.956009,93.653870 96.957634,92.108238 95.790985,90.044983 
	C95.504387,89.248611 95.308197,89.044701 95.034142,88.915627 
z"/>
<path fill="#707BDB" opacity="1.000000" stroke="none" 
	d="
M141.310242,268.182068 
	C137.563828,267.859039 134.114883,267.470673 130.672333,267.032227 
	C124.751442,266.278229 121.254082,262.435120 118.911407,257.397919 
	C117.082260,253.464905 118.461555,251.664734 122.728119,251.917526 
	C124.935097,252.048279 128.301697,253.028610 129.132690,251.999969 
	C131.322037,249.289764 133.167236,245.832062 133.805511,242.420578 
	C136.405334,228.524673 138.573120,214.545471 140.704437,200.567123 
	C141.019211,198.502747 140.282883,196.278122 140.032867,194.127640 
	C139.442947,193.968872 138.853012,193.810120 138.263092,193.651367 
	C134.727005,200.008942 131.190933,206.366516 127.337189,212.519501 
	C130.902054,203.792786 134.708435,195.233963 138.775162,186.800690 
	C139.222656,185.872696 141.136581,185.396332 142.424606,185.271912 
	C142.858185,185.230042 143.877258,186.914825 143.911453,187.837051 
	C144.046768,191.485855 144.379028,195.227661 143.769485,198.786163 
	C141.320328,213.084167 138.739166,227.366730 135.776535,241.565216 
	C134.886551,245.830551 133.226578,250.276825 130.655014,253.686707 
	C129.580185,255.111923 125.209564,254.038483 122.339012,254.143677 
	C122.064766,254.153732 121.801682,254.468079 121.535828,254.644897 
	C124.334015,262.670013 127.794304,266.509796 140.627411,265.500854 
	C141.545303,261.401001 142.087662,256.815399 147.422470,256.466644 
	C148.008682,254.049789 148.500473,252.022202 148.999115,250.367523 
	C149.037506,251.237045 149.069046,251.733688 149.270874,252.487961 
	C149.727509,253.499115 150.013840,254.252625 150.300171,255.006119 
	C150.135971,256.055115 149.971756,257.104095 149.516342,258.761871 
	C147.446793,260.047150 145.668457,260.723633 143.748688,261.453918 
	C143.748688,263.401794 143.748688,265.182709 143.748688,266.963593 
	C143.035980,267.340454 142.323288,267.717346 141.310242,268.182068 
z"/>
<path fill="#757ED8" opacity="1.000000" stroke="none" 
	d="
M151.098923,91.914139 
	C157.784073,102.560120 164.560104,113.159470 168.086533,125.408188 
	C169.232788,129.389603 170.457397,133.349548 171.538895,137.348328 
	C174.425095,148.019638 172.056763,158.248459 169.675735,168.735077 
	C165.827026,185.685852 163.060547,202.882355 159.823029,220.393112 
	C159.809052,220.811142 159.839325,220.868500 159.673706,220.973251 
	C159.314896,221.338593 159.269379,221.622818 159.371521,221.930679 
	C158.885956,224.665024 158.400391,227.399368 157.628113,230.780472 
	C155.392151,236.374908 153.442917,241.322571 151.350067,245.869507 
	C151.302994,244.658005 151.309402,243.824173 151.510132,243.040085 
	C153.330063,235.931488 155.497238,228.895172 156.954117,221.714188 
	C159.115707,211.059601 160.902908,200.323944 162.629486,189.587402 
	C165.252075,173.279007 173.605316,157.813721 169.979736,140.594727 
	C169.277603,137.259995 167.684464,134.083633 167.217285,130.734482 
	C166.083481,122.606636 162.730850,115.538155 158.525131,108.588982 
	C155.406036,103.435242 153.366150,97.628357 150.909210,92.063278 
	C150.972900,92.014137 151.098923,91.914139 151.098923,91.914139 
z"/>
<path fill="none" opacity="1.000000" stroke="none" 
	d="
M117.076668,115.820404 
	C118.892097,122.957726 124.926041,129.007050 122.243980,137.322891 
	C119.763062,145.015076 118.140862,152.862381 120.093735,161.165955 
	C116.267082,157.915329 111.053207,155.336365 111.762047,149.317459 
	C112.093399,146.503983 113.199707,142.260178 115.128487,141.446365 
	C120.559204,139.154938 120.117653,133.958023 120.169350,130.577042 
	C120.212921,127.727371 115.872398,124.774582 113.393097,121.936783 
	C112.040077,120.388145 109.817009,119.179466 109.334671,117.442947 
	C109.029907,116.345757 111.213257,114.557465 112.674393,113.378700 
	C114.404343,114.392296 115.740509,115.106354 117.076668,115.820404 
z"/>
<path fill="#6570E4" opacity="1.000000" stroke="none" 
	d="
M36.291832,135.920593 
	C35.824078,136.679596 35.356327,137.438614 34.756042,138.504257 
	C34.260513,138.880569 33.897522,138.950241 33.033550,139.068268 
	C32.364738,139.148102 32.196907,139.179596 32.029072,139.211090 
	C31.652269,139.097443 31.275469,138.983780 30.449055,138.667938 
	C29.675386,138.356827 29.351328,138.247925 29.027271,138.139023 
	C28.528767,137.817413 28.030262,137.495804 27.171305,136.885010 
	C26.623796,136.330093 26.368935,136.216354 26.046265,136.254608 
	C25.060991,133.192184 24.075718,130.129761 23.296215,126.498734 
	C23.650896,125.616531 23.799809,125.302925 23.948719,124.989311 
	C25.984022,123.334091 28.019325,121.678871 30.580853,119.996880 
	C31.384275,120.278854 31.661472,120.587601 31.944710,120.927475 
	C31.950747,120.958618 31.887766,120.954025 31.639387,121.132828 
	C31.502337,122.195389 31.613665,123.079155 31.930288,124.235481 
	C33.062355,125.405899 33.989120,126.303749 34.915886,127.201599 
	C35.254829,128.264038 35.593773,129.326492 36.026184,131.095673 
	C36.177048,133.175140 36.234440,134.547867 36.291832,135.920593 
z"/>
<path fill="none" opacity="1.000000" stroke="none" 
	d="
M151.493683,246.270233 
	C153.442917,241.322571 155.392151,236.374908 157.599274,231.187576 
	C161.449966,231.769791 161.334885,234.963425 162.611481,237.553070 
	C164.553070,241.491760 162.962204,242.939209 159.869873,244.348343 
	C159.511932,244.511459 159.064377,245.215164 159.155624,245.518799 
	C161.406631,253.009857 155.058228,252.958649 150.642502,254.951080 
	C150.013840,254.252625 149.727509,253.499115 149.598083,252.316376 
	C150.255630,250.571594 150.756256,249.256058 151.351837,247.671509 
	C151.434875,247.029984 151.422958,246.657516 151.430664,246.276245 
	C151.450302,246.267471 151.493668,246.270233 151.493683,246.270233 
z"/>
<path fill="#757ED8" opacity="1.000000" stroke="none" 
	d="
M149.772415,69.899803 
	C148.703781,70.205086 147.635147,70.510361 146.035934,70.999496 
	C145.150009,71.269264 144.929535,71.489937 144.843903,71.845383 
	C144.843903,71.845383 144.863297,71.784286 144.477188,71.793404 
	C139.096146,74.592857 144.686661,76.080910 144.882156,78.232689 
	C146.921356,82.543922 148.960541,86.855164 151.049332,91.540268 
	C151.098923,91.914139 150.972900,92.014137 150.641479,91.859406 
	C147.571365,87.011429 145.019745,82.195488 142.043518,77.658035 
	C138.797272,72.708893 139.374542,71.049095 144.727692,69.141266 
	C149.807816,67.330750 154.818588,65.161674 159.547852,62.578934 
	C163.880676,60.212681 163.967056,57.259789 160.886765,53.263866 
	C159.960632,52.062439 159.647614,50.388390 159.368576,49.045158 
	C161.670074,51.294392 163.656708,53.429314 165.643356,55.564240 
	C165.767670,56.165962 165.891998,56.767685 165.971924,57.675491 
	C163.610138,63.491669 159.217789,66.493904 153.110092,68.239716 
	C152.234787,68.470741 152.048187,68.680199 151.978806,68.994156 
	C151.805344,69.025269 151.631882,69.056381 150.979309,69.195511 
	C150.177399,69.404320 149.934814,69.603081 149.772415,69.899803 
z"/>
<path fill="none" opacity="1.000000" stroke="none" 
	d="
M144.142700,267.006287 
	C143.748688,265.182709 143.748688,263.401794 143.748688,261.453918 
	C145.668457,260.723633 147.446793,260.047150 149.518646,259.161835 
	C151.186905,260.073456 152.561661,261.193909 153.936432,262.314362 
	C152.542023,263.938629 151.414581,266.027527 149.664642,267.032990 
	C148.377258,267.772675 146.275543,267.095032 144.142700,267.006287 
z"/>
<path fill="none" opacity="1.000000" stroke="none" 
	d="
M103.940880,100.022247 
	C104.834724,100.648422 105.728577,101.274597 106.933205,102.276505 
	C107.389336,102.812401 107.559525,102.939262 107.754547,103.032822 
	C108.733963,104.112465 109.713379,105.192108 110.905991,106.786018 
	C111.262680,107.598999 111.483368,107.820862 111.781265,107.965889 
	C112.201569,108.730186 112.621872,109.494492 113.081238,110.588394 
	C107.305191,112.813873 105.345833,107.239174 101.801834,104.847595 
	C101.209175,104.447655 101.895584,102.152290 101.995026,100.366837 
	C101.999084,100.000916 102.000305,99.999695 102.324936,100.001709 
	C103.080009,100.009888 103.510445,100.016068 103.940880,100.022247 
z"/>
<path fill="none" opacity="1.000000" stroke="none" 
	d="
M165.820435,55.213051 
	C163.656708,53.429314 161.670074,51.294392 159.359528,49.065323 
	C159.035629,48.971176 159.070648,48.958351 159.001465,48.644012 
	C157.854309,47.002548 156.776321,45.675426 155.698349,44.348305 
	C155.698349,44.348305 155.865784,44.157047 155.950577,44.061668 
	C163.935837,45.338573 167.039948,48.733532 165.820435,55.213051 
z"/>
<path fill="none" opacity="1.000000" stroke="none" 
	d="
M101.168915,275.844666 
	C101.620262,274.430542 102.128159,273.377594 102.636063,272.324646 
	C103.034210,272.416046 103.432358,272.507477 103.830505,272.598877 
	C103.704117,274.183563 103.577728,275.768280 103.451347,277.352966 
	C102.709389,276.970581 101.967430,276.588226 101.168915,275.844666 
z"/>
<path fill="none" opacity="1.000000" stroke="none" 
	d="
M116.957047,115.521660 
	C115.740509,115.106354 114.404343,114.392296 113.033936,113.339424 
	C113.011467,112.530098 113.023239,112.059586 113.068382,111.236679 
	C114.346977,112.330498 115.592209,113.776703 116.957047,115.521660 
z"/>
<path fill="none" opacity="1.000000" stroke="none" 
	d="
M32.145386,139.394913 
	C32.196907,139.179596 32.364738,139.148102 32.779549,139.185089 
	C33.026524,139.253571 33.023384,139.640091 33.011856,139.833344 
	C32.713116,139.944901 32.466904,139.795624 32.145386,139.394913 
z"/>
<path fill="none" opacity="1.000000" stroke="none" 
	d="
M159.523834,221.791718 
	C159.269379,221.622818 159.314896,221.338593 159.706116,220.974350 
	C159.924545,221.159515 159.848541,221.420197 159.523834,221.791718 
z"/>
<path fill="#5C6BF4" opacity="1.000000" stroke="none" 
	d="
M159.044678,48.951015 
	C159.647614,50.388390 159.960632,52.062439 160.886765,53.263866 
	C163.967056,57.259789 163.880676,60.212681 159.547852,62.578934 
	C154.818588,65.161674 149.807816,67.330750 144.727692,69.141266 
	C139.374542,71.049095 138.797272,72.708893 142.043518,77.658035 
	C145.019745,82.195488 147.571365,87.011429 150.577805,91.908539 
	C153.366150,97.628357 155.406036,103.435242 158.525131,108.588982 
	C162.730850,115.538155 166.083481,122.606636 167.217285,130.734482 
	C167.684464,134.083633 169.277603,137.259995 169.979736,140.594727 
	C173.605316,157.813721 165.252075,173.279007 162.629486,189.587402 
	C160.902908,200.323944 159.115707,211.059601 156.954117,221.714188 
	C155.497238,228.895172 153.330063,235.931488 151.510132,243.040085 
	C151.309402,243.824173 151.302994,244.658005 151.350067,245.869507 
	C151.493668,246.270233 151.450302,246.267471 151.055038,246.291840 
	C150.104843,247.542252 149.549911,248.768295 148.997375,249.997101 
	C148.999786,249.999893 148.992264,249.994629 148.992249,249.994629 
	C148.500473,252.022202 148.008682,254.049789 147.422470,256.466644 
	C142.087662,256.815399 141.545303,261.401001 140.627411,265.500854 
	C127.794304,266.509796 124.334015,262.670013 121.535828,254.644897 
	C121.801682,254.468079 122.064766,254.153732 122.339012,254.143677 
	C125.209564,254.038483 129.580185,255.111923 130.655014,253.686707 
	C133.226578,250.276825 134.886551,245.830551 135.776535,241.565216 
	C138.739166,227.366730 141.320328,213.084167 143.769485,198.786163 
	C144.379028,195.227661 144.046768,191.485855 143.911453,187.837051 
	C143.877258,186.914825 142.858185,185.230042 142.424606,185.271912 
	C141.136581,185.396332 139.222656,185.872696 138.775162,186.800690 
	C134.708435,195.233963 130.902054,203.792786 127.051811,212.705200 
	C127.084099,213.095535 127.051743,213.056976 126.714523,213.066681 
	C122.999840,216.064713 119.723190,219.108383 120.245972,224.238983 
	C120.245972,224.238983 120.137505,224.109985 119.881683,224.247345 
	C119.452126,225.022507 119.278397,225.660278 119.104660,226.298065 
	C118.896820,226.762421 118.688988,227.226776 118.273987,227.582031 
	C118.053688,227.301422 118.040535,227.129913 117.932861,226.793472 
	C117.569580,226.756088 117.300827,226.883636 117.112839,227.371155 
	C117.320770,227.941650 117.447952,228.152161 117.575134,228.362671 
	C117.575134,228.362671 117.475807,228.380341 117.066666,228.363251 
	C114.562424,231.335175 112.467331,234.324173 110.372238,237.313171 
	C110.372231,237.313171 110.273491,237.337601 109.981476,237.347229 
	C109.477959,237.931107 109.266457,238.505371 109.054962,239.079636 
	C109.054970,239.079636 109.008667,239.005432 108.706169,239.040833 
	C107.960678,239.750839 107.517693,240.425430 107.074699,241.100037 
	C107.074699,241.100037 107.030075,241.002258 106.712631,241.039001 
	C105.628494,242.094177 104.861801,243.112640 104.095108,244.131088 
	C104.095108,244.131088 104.026573,244.063950 103.814758,244.142487 
	C103.424500,244.521271 103.246056,244.821518 103.067612,245.121750 
	C103.067604,245.121750 103.060204,245.024368 102.728210,245.049896 
	C99.862686,247.480148 96.665680,249.493103 94.957756,252.385376 
	C92.642471,256.306183 91.324722,260.852295 89.848564,265.221222 
	C88.603615,268.905853 85.869820,270.781677 82.417229,270.753906 
	C80.718361,270.740265 78.066803,268.961426 77.548737,267.412109 
	C76.475273,264.201782 76.085678,260.591003 76.235733,257.181030 
	C76.503899,251.086960 77.584335,245.031799 77.945953,238.937866 
	C78.335556,232.372589 80.521065,229.806610 86.846756,228.894806 
	C88.935570,228.593719 90.922249,227.584045 92.955627,226.898361 
	C94.005676,225.600876 95.450378,224.461349 96.042984,222.980774 
	C100.542664,211.738495 106.391136,201.501953 115.196449,192.896286 
	C117.777359,190.373901 119.043831,186.014832 119.845848,182.269119 
	C121.391258,175.051468 122.174698,167.670776 123.279030,160.358414 
	C123.351662,159.877426 123.717720,159.227020 123.524666,158.950790 
	C118.091652,151.176971 124.335709,144.221359 125.035309,136.890762 
	C125.126137,135.939041 125.584938,134.958176 125.443291,134.058502 
	C124.067375,125.319191 122.095291,116.583473 116.912949,109.366035 
	C113.257423,104.274994 108.109589,100.246216 103.572792,95.799522 
	C97.678154,90.021927 94.569511,82.956863 94.145126,74.803711 
	C94.060524,73.178467 95.362373,71.481041 96.306717,69.168793 
	C95.964783,66.508247 95.760353,63.049747 94.646690,62.726807 
	C88.994995,61.087944 88.597404,56.031910 87.304909,51.978123 
	C85.405952,46.022232 89.922020,38.777649 95.559441,39.426037 
	C99.254166,39.851002 103.310852,43.165699 105.794540,46.303085 
	C108.058815,49.163307 108.282578,53.583664 109.711639,57.195328 
	C110.118492,58.223557 111.593475,58.829151 112.861305,59.749153 
	C113.757378,59.923256 114.370773,59.976765 115.035812,60.357071 
	C119.283852,60.153648 123.481949,59.635151 127.668121,59.033688 
	C127.787415,59.016552 127.779900,58.116875 127.850723,57.463898 
	C127.869942,57.299095 128.057144,57.025097 128.428497,56.938858 
	C130.984619,52.182011 129.807434,48.196289 125.729660,46.290058 
	C125.791008,46.330353 125.646744,46.303173 125.737671,45.997639 
	C125.228943,45.450878 124.629288,45.209652 123.703171,45.004913 
	C122.947113,45.125381 122.517517,45.209358 121.865448,44.962978 
	C118.908180,44.061249 116.166267,43.521671 113.440163,42.911499 
	C108.628845,41.834614 107.695450,39.465427 111.337563,36.293861 
	C115.983040,32.248554 121.138329,28.788692 126.308060,25.072792 
	C126.854706,25.082716 127.167313,25.090874 127.480064,25.093571 
	C127.902435,25.443653 128.324814,25.793736 129.045624,26.698763 
	C130.254196,27.482929 131.164352,27.712152 132.074493,27.941376 
	C132.074493,27.941376 132.009369,27.986439 132.141663,28.216785 
	C132.804733,28.660126 133.335510,28.873121 133.866287,29.086117 
	C133.866287,29.086115 133.958252,29.065002 134.005219,29.435455 
	C134.995728,30.230997 135.939270,30.656082 136.882812,31.081167 
	C136.882812,31.081167 136.950043,31.010952 136.962585,31.423752 
	C139.424362,33.079647 141.873611,34.322742 144.322845,35.565838 
	C144.322845,35.565838 144.227661,35.619431 144.277557,35.993893 
	C145.977463,37.466961 147.627472,38.565571 149.277481,39.664181 
	C149.277481,39.664181 149.301666,39.751022 149.322968,40.041092 
	C149.907608,40.548954 150.470932,40.766750 151.034256,40.984543 
	C151.034256,40.984543 150.999664,41.002190 151.021011,41.333801 
	C153.718460,44.096390 156.394562,46.527370 159.070648,48.958351 
	C159.070648,48.958351 159.035629,48.971176 159.044678,48.951015 
M142.271408,182.888870 
	C142.182922,182.927429 142.094452,182.965988 141.726959,183.110031 
	C141.816422,183.071350 141.905899,183.032669 142.271408,182.888870 
M131.574356,37.470451 
	C131.574356,37.470451 131.402374,37.504696 131.665176,36.782574 
	C130.476135,36.062729 129.287094,35.342880 128.098053,34.623035 
	C127.877762,36.663040 126.702591,39.398891 127.597168,40.626484 
	C132.272781,47.042660 137.473740,53.075993 142.982132,59.844738 
	C143.680161,58.324486 144.230392,57.126129 144.834686,55.331341 
	C144.806946,54.932819 144.779190,54.534298 145.377838,53.676788 
	C144.535339,51.109234 144.322205,48.017143 142.714111,46.087635 
	C139.729431,42.506382 137.030746,38.179104 131.574356,37.470451 
z"/>
<path fill="#7981D1" opacity="1.000000" stroke="none" 
	d="
M92.970520,226.530914 
	C90.922249,227.584045 88.935570,228.593719 86.846756,228.894806 
	C80.521065,229.806610 78.335556,232.372589 77.945953,238.937866 
	C77.584335,245.031799 76.503899,251.086960 76.235733,257.181030 
	C76.085678,260.591003 76.475273,264.201782 77.548737,267.412109 
	C78.066803,268.961426 80.718361,270.740265 82.417229,270.753906 
	C85.869820,270.781677 88.603615,268.905853 89.848564,265.221222 
	C91.324722,260.852295 92.642471,256.306183 94.957756,252.385376 
	C96.665680,249.493103 99.862686,247.480148 102.762390,245.084747 
	C96.569016,250.879700 93.198586,258.405701 90.968727,266.679291 
	C89.868164,270.762787 87.669250,273.660828 82.441498,273.141724 
	C77.420883,272.643158 75.355789,269.885529 74.960991,265.456360 
	C74.656052,262.035309 74.668060,258.557526 74.877472,255.125595 
	C75.208267,249.704437 76.137665,244.306671 76.242371,238.887970 
	C76.396004,230.937119 78.780251,228.266342 86.584259,226.741577 
	C88.990417,226.271454 90.996468,223.753510 93.484474,221.998627 
	C93.517288,223.270523 93.251350,224.716995 92.970520,226.530914 
z"/>
<path fill="#707BDB" opacity="1.000000" stroke="none" 
	d="
M120.563492,224.135895 
	C119.723190,219.108383 122.999840,216.064713 126.735939,213.067474 
	C125.023392,216.716660 122.952202,220.374741 120.563492,224.135895 
z"/>
<path fill="#7981D1" opacity="1.000000" stroke="none" 
	d="
M110.690704,237.232819 
	C112.467331,234.324173 114.562424,231.335175 117.018517,228.378296 
	C115.256065,231.324432 113.132614,234.238449 110.690704,237.232819 
z"/>
<path fill="#7981D1" opacity="1.000000" stroke="none" 
	d="
M104.414146,244.060791 
	C104.861801,243.112640 105.628494,242.094177 106.752106,241.075439 
	C106.317093,242.046936 105.525139,243.018723 104.414146,244.060791 
z"/>
<path fill="#7981D1" opacity="1.000000" stroke="none" 
	d="
M107.356247,240.998535 
	C107.517693,240.425430 107.960678,239.750839 108.743011,239.064392 
	C108.600838,239.667374 108.119316,240.282211 107.356247,240.998535 
z"/>
<path fill="#7981D1" opacity="1.000000" stroke="none" 
	d="
M119.371490,226.117538 
	C119.278397,225.660278 119.452126,225.022507 119.958374,224.282288 
	C120.073364,224.765564 119.855835,225.351288 119.371490,226.117538 
z"/>
<path fill="#7981D1" opacity="1.000000" stroke="none" 
	d="
M109.332855,238.960251 
	C109.266457,238.505371 109.477959,237.931107 110.013275,237.307541 
	C110.094978,237.785767 109.852867,238.313309 109.332855,238.960251 
z"/>
<path fill="#7981D1" opacity="1.000000" stroke="none" 
	d="
M94.586731,219.837860 
	C94.693481,220.287842 94.542458,220.940323 94.069901,221.730774 
	C93.941902,221.259308 94.135429,220.649826 94.586731,219.837860 
z"/>
<path fill="#7981D1" opacity="1.000000" stroke="none" 
	d="
M117.738098,228.322876 
	C117.447952,228.152161 117.320770,227.941650 117.361755,227.363129 
	C117.529907,226.995102 118.027390,226.958405 118.027390,226.958405 
	C118.040535,227.129913 118.053688,227.301422 118.063049,227.730087 
	C118.059258,227.987244 117.901062,228.283096 117.738098,228.322876 
z"/>
<path fill="#7981D1" opacity="1.000000" stroke="none" 
	d="
M103.323547,245.040359 
	C103.246056,244.821518 103.424500,244.521271 103.862701,244.144119 
	C103.941467,244.364456 103.760475,244.661713 103.323547,245.040359 
z"/>
<path fill="#6F79DC" opacity="1.000000" stroke="none" 
	d="
M112.578636,59.628555 
	C111.593475,58.829151 110.118492,58.223557 109.711639,57.195328 
	C108.282578,53.583664 108.058815,49.163307 105.794540,46.303085 
	C103.310852,43.165699 99.254166,39.851002 95.559441,39.426037 
	C89.922020,38.777649 85.405952,46.022232 87.304909,51.978123 
	C88.597404,56.031910 88.994995,61.087944 94.646690,62.726807 
	C95.760353,63.049747 95.964783,66.508247 96.332954,68.785454 
	C96.077377,69.050224 95.924461,68.936668 95.851074,68.544785 
	C93.538200,66.513763 91.298714,64.874634 89.045631,62.890297 
	C88.786324,61.702568 88.540611,60.860046 88.294899,60.017521 
	C88.294899,60.017521 88.107277,59.997913 88.033302,59.719688 
	C87.706184,58.933746 87.453041,58.426033 87.199898,57.918324 
	C86.896614,57.108734 86.593330,56.299145 86.047424,54.977722 
	C85.574074,54.208858 85.343338,53.951824 85.112595,53.694790 
	C85.017448,52.993828 84.922295,52.292866 84.735962,51.033569 
	C84.567818,50.155396 84.385239,49.916050 84.097023,49.757206 
	C84.115486,48.810230 84.133942,47.863258 84.336014,46.348415 
	C84.596985,45.203026 84.674324,44.625504 84.751671,44.047981 
	C84.819939,43.887699 84.888206,43.727413 85.199020,43.194923 
	C85.707558,42.599461 85.833641,42.314339 85.819824,41.967354 
	C86.443253,41.391144 87.066673,40.814934 88.008667,39.948616 
	C88.582916,39.527489 88.681694,39.321247 88.623566,39.039776 
	C88.925262,38.750965 89.226959,38.462154 90.014969,38.019485 
	C90.501282,37.865631 90.973396,37.753830 90.973396,37.753830 
	C91.436943,37.803890 91.900490,37.853947 92.944626,37.812634 
	C93.854774,37.615826 94.095009,37.407364 94.245918,37.095882 
	C96.635239,37.650391 99.024567,38.204895 101.822647,39.067291 
	C102.403038,39.650059 102.644409,39.742233 102.955536,39.651711 
	C103.508347,40.013241 104.061157,40.374767 104.916977,40.990456 
	C105.219986,41.244610 105.518265,41.321022 105.518265,41.321022 
	C105.518265,41.321022 105.488220,40.944202 105.488220,40.944202 
	C105.932121,40.206692 106.376030,39.469181 107.120132,38.313686 
	C107.634056,37.644821 107.662720,37.374382 107.506302,37.084377 
	C107.588554,36.886822 107.670799,36.689270 108.093613,36.123558 
	C108.746239,35.592285 108.914307,35.335075 108.938377,34.983757 
	C109.535255,34.479942 110.132141,33.976131 111.082535,33.153145 
	C111.739105,32.641701 111.845901,32.371769 111.756432,32.024178 
	C113.025711,30.820856 114.294998,29.617535 116.005363,28.093084 
	C116.756081,27.602032 116.929626,27.341454 116.967072,26.990221 
	C116.967072,26.990221 117.002296,27.002527 117.238251,26.907738 
	C117.678535,26.551035 117.882858,26.289120 118.087189,26.027205 
	C118.256378,25.993872 118.425568,25.960537 119.033676,25.793606 
	C119.738541,25.514914 119.918633,25.298347 120.012871,25.010315 
	C120.187950,24.983599 120.363029,24.956881 121.125801,24.904537 
	C122.790314,24.556217 123.867126,24.233528 125.070427,24.158199 
	C125.489227,24.629200 125.781548,24.852844 126.073875,25.076485 
	C121.138329,28.788692 115.983040,32.248554 111.337563,36.293861 
	C107.695450,39.465427 108.628845,41.834614 113.440163,42.911499 
	C116.166267,43.521671 118.908180,44.061249 121.562714,45.207489 
	C118.147018,45.211391 114.792381,44.731785 111.483261,44.035763 
	C109.444679,43.606979 106.680122,44.392960 108.294441,46.052677 
	C112.239670,50.108887 110.641045,55.321182 112.578636,59.628555 
z"/>
<path fill="#9596CD" opacity="1.000000" stroke="none" 
	d="
M88.194908,60.356956 
	C88.540611,60.860046 88.786324,61.702568 88.998695,63.162033 
	C88.814331,64.116257 88.663322,64.453545 88.512306,64.790833 
	C86.448990,66.691467 84.385674,68.592102 81.944702,70.862930 
	C81.294693,71.425339 81.132553,71.686096 81.080635,72.015396 
	C81.080635,72.015396 81.009872,72.009155 80.793526,72.125923 
	C80.305664,72.432999 80.144745,72.692032 80.094414,73.019791 
	C80.094414,73.019791 80.016724,73.016319 79.796371,73.132980 
	C79.283989,73.421906 79.116364,73.676208 79.073151,74.012535 
	C78.512772,74.545792 77.952393,75.079048 76.923523,75.980782 
	C74.999855,77.910622 73.544678,79.471985 72.089508,81.033340 
	C70.204247,82.899483 68.318993,84.765625 65.991493,86.947044 
	C65.282112,87.445374 65.123344,87.696877 65.072937,88.016838 
	C65.072937,88.016838 65.006630,88.005386 64.794327,88.120811 
	C64.314209,88.430222 64.161407,88.691490 64.123627,89.020042 
	C63.186207,89.859047 62.248787,90.698051 60.875786,91.947479 
	C58.674137,94.255379 56.908070,96.152863 55.142006,98.050354 
	C53.580677,99.591103 52.019348,101.131851 50.014526,102.978241 
	C49.319363,103.468246 49.185467,103.716255 49.169353,104.027901 
	C49.169353,104.027901 49.056396,104.055489 48.830780,104.173576 
	C48.340309,104.465141 48.190235,104.709236 48.154938,105.023941 
	C47.215954,105.876198 46.276970,106.728455 44.963741,107.930855 
	C44.311977,108.453743 44.149963,108.701920 44.103451,109.025528 
	C44.103451,109.025528 44.021919,109.021942 43.813438,109.134674 
	C43.333652,109.415909 43.180119,109.658844 43.144356,109.976212 
	C42.885189,110.235481 42.626026,110.494743 41.965820,111.019653 
	C41.311512,111.470459 41.173626,111.719551 41.151115,112.032570 
	C41.151115,112.032570 41.048889,112.048370 40.827408,112.165848 
	C40.338680,112.459778 40.186054,112.707031 40.148048,113.025078 
	C39.195427,113.857437 38.242805,114.689789 36.936043,115.886688 
	C36.302826,116.435173 36.156651,116.694153 36.143372,117.028168 
	C36.143372,117.028168 36.041447,117.052406 35.825043,117.175743 
	C35.338779,117.470070 35.184155,117.714111 35.144764,118.031204 
	C35.144764,118.031204 35.045086,118.045181 34.833290,118.160561 
	C34.359436,118.436905 34.205887,118.669518 34.160835,118.973763 
	C34.009136,119.281303 33.857433,119.588844 33.421822,120.250977 
	C32.738167,120.702492 32.338421,120.799416 31.938671,120.896339 
	C31.661472,120.587601 31.384275,120.278854 30.842743,119.793053 
	C41.237247,108.742714 51.911758,97.884743 62.549965,86.991310 
	C71.087784,78.248642 79.581581,69.462982 88.194908,60.356956 
z"/>
<path fill="#757ED8" opacity="1.000000" stroke="none" 
	d="
M159.001465,48.644009 
	C156.394562,46.527370 153.718460,44.096390 151.028214,41.315804 
	C152.381989,42.004028 153.749908,43.041870 155.408081,44.214008 
	C156.776321,45.675426 157.854309,47.002548 159.001465,48.644009 
z"/>
<path fill="#757ED8" opacity="1.000000" stroke="none" 
	d="
M144.251984,35.293728 
	C141.873611,34.322742 139.424362,33.079647 136.954773,31.471725 
	C138.659470,31.779339 140.384521,32.451775 142.553421,33.064743 
	C142.997269,33.005276 142.831009,33.188766 142.831009,33.188766 
	C143.281052,33.799717 143.731094,34.410667 144.251984,35.293728 
z"/>
<path fill="#757ED8" opacity="1.000000" stroke="none" 
	d="
M149.192490,39.345695 
	C147.627472,38.565571 145.977463,37.466961 144.330811,36.005989 
	C145.925293,36.771484 147.516388,37.899345 149.192490,39.345695 
z"/>
<path fill="none" opacity="1.000000" stroke="none" 
	d="
M124.943947,23.910837 
	C123.867126,24.233528 122.790314,24.556217 121.374474,24.811062 
	C122.150887,24.163862 123.266312,23.584511 124.676193,23.236404 
	C124.970642,23.467653 124.943947,23.910835 124.943947,23.910837 
z"/>
<path fill="#757ED8" opacity="1.000000" stroke="none" 
	d="
M125.070427,24.158195 
	C124.943947,23.910835 124.970642,23.467653 125.015640,23.250385 
	C125.837929,23.525589 126.615211,24.018064 127.436279,24.802055 
	C127.167313,25.090874 126.854706,25.082716 126.308060,25.072794 
	C125.781548,24.852844 125.489227,24.629200 125.070427,24.158195 
z"/>
<path fill="#757ED8" opacity="1.000000" stroke="none" 
	d="
M136.720490,30.817421 
	C135.939270,30.656082 134.995728,30.230997 133.984650,29.477917 
	C134.797470,29.617842 135.677811,30.085758 136.720490,30.817421 
z"/>
<path fill="none" opacity="1.000000" stroke="none" 
	d="
M142.904541,33.087063 
	C143.244461,32.601330 143.677109,32.033806 144.109756,31.466282 
	C144.224838,31.569998 144.447250,31.755520 144.439529,31.765657 
	C144.114838,32.191730 143.769608,32.602139 143.128967,33.101631 
	C142.831009,33.188766 142.997269,33.005276 142.904541,33.087063 
z"/>
<path fill="none" opacity="1.000000" stroke="none" 
	d="
M86.942337,58.070076 
	C87.453041,58.426033 87.706184,58.933746 87.940628,59.737236 
	C87.509544,59.429287 87.097160,58.825558 86.942337,58.070076 
z"/>
<path fill="#757ED8" opacity="1.000000" stroke="none" 
	d="
M131.874695,27.669903 
	C131.164352,27.712152 130.254196,27.482929 129.232666,26.899876 
	C129.972473,26.830172 130.823669,27.114302 131.874695,27.669903 
z"/>
<path fill="none" opacity="1.000000" stroke="none" 
	d="
M84.539719,44.255478 
	C84.674324,44.625504 84.596985,45.203026 84.307846,45.994034 
	C84.173286,45.626003 84.250519,45.044491 84.539719,44.255478 
z"/>
<path fill="#757ED8" opacity="1.000000" stroke="none" 
	d="
M150.914459,40.708683 
	C150.470932,40.766750 149.907608,40.548954 149.286148,40.015099 
	C149.750229,39.943638 150.272461,40.188229 150.914459,40.708683 
z"/>
<path fill="#757ED8" opacity="1.000000" stroke="none" 
	d="
M133.774490,28.797684 
	C133.335510,28.873121 132.804733,28.660126 132.151337,28.178392 
	C132.580048,28.109518 133.131378,28.309383 133.774490,28.797684 
z"/>
<path fill="none" opacity="1.000000" stroke="none" 
	d="
M23.721308,125.132423 
	C23.799809,125.302925 23.650896,125.616531 23.291698,126.088631 
	C23.218908,125.923256 23.356403,125.599396 23.721308,125.132423 
z"/>
<path fill="none" opacity="1.000000" stroke="none" 
	d="
M26.154240,136.427521 
	C26.368935,136.216354 26.623796,136.330093 26.886143,136.801758 
	C26.687017,136.942871 26.453943,136.807098 26.154240,136.427521 
z"/>
<path fill="none" opacity="1.000000" stroke="none" 
	d="
M29.178051,138.353119 
	C29.351328,138.247925 29.675386,138.356827 30.152817,138.682938 
	C29.980404,138.789169 29.654619,138.678192 29.178051,138.353119 
z"/>
<path fill="none" opacity="1.000000" stroke="none" 
	d="
M116.755859,27.081116 
	C116.929626,27.341454 116.756081,27.602032 116.209526,27.824482 
	C116.089104,27.581808 116.279785,27.346807 116.755859,27.081116 
z"/>
<path fill="none" opacity="1.000000" stroke="none" 
	d="
M117.846481,26.106623 
	C117.882858,26.289120 117.678535,26.551035 117.232620,26.889946 
	C117.195953,26.706642 117.400864,26.446341 117.846481,26.106623 
z"/>
<path fill="none" opacity="1.000000" stroke="none" 
	d="
M119.816925,25.065075 
	C119.918633,25.298347 119.738541,25.514914 119.258492,25.665680 
	C119.173668,25.421743 119.365852,25.237906 119.816925,25.065075 
z"/>
<path fill="none" opacity="1.000000" stroke="none" 
	d="
M84.101608,49.979221 
	C84.385239,49.916050 84.567818,50.155396 84.609039,50.701920 
	C84.324890,50.745758 84.169189,50.503300 84.101608,49.979221 
z"/>
<path fill="none" opacity="1.000000" stroke="none" 
	d="
M85.140518,53.960892 
	C85.343338,53.951824 85.574074,54.208858 85.840683,54.724487 
	C85.640518,54.731052 85.404488,54.479023 85.140518,53.960892 
z"/>
<path fill="none" opacity="1.000000" stroke="none" 
	d="
M85.626625,42.098026 
	C85.833641,42.314339 85.707558,42.599461 85.228195,42.935234 
	C85.056656,42.724781 85.196198,42.451767 85.626625,42.098026 
z"/>
<path fill="none" opacity="1.000000" stroke="none" 
	d="
M105.426010,40.941841 
	C105.488220,40.944202 105.518265,41.321022 105.518265,41.321022 
	C105.518265,41.321022 105.219986,41.244610 105.229965,41.098335 
	C105.239937,40.952061 105.363800,40.939480 105.426010,40.941841 
z"/>
<path fill="none" opacity="1.000000" stroke="none" 
	d="
M102.852249,39.498955 
	C102.644409,39.742233 102.403038,39.650059 102.173523,39.175121 
	C102.361031,39.040314 102.572144,39.164024 102.852249,39.498955 
z"/>
<path fill="none" opacity="1.000000" stroke="none" 
	d="
M88.491013,39.116879 
	C88.681694,39.321247 88.582916,39.527489 88.143158,39.657589 
	C88.064285,39.478333 88.197403,39.324100 88.491013,39.116879 
z"/>
<path fill="none" opacity="1.000000" stroke="none" 
	d="
M107.372818,37.227913 
	C107.662720,37.374382 107.634056,37.644821 107.236961,38.011299 
	C107.030556,37.854160 107.092468,37.602345 107.372818,37.227913 
z"/>
<path fill="none" opacity="1.000000" stroke="none" 
	d="
M111.581917,32.132778 
	C111.845901,32.371769 111.739105,32.641701 111.209663,32.884903 
	C111.054245,32.661327 111.195618,32.429840 111.581917,32.132778 
z"/>
<path fill="none" opacity="1.000000" stroke="none" 
	d="
M94.008072,37.114246 
	C94.095009,37.407364 93.854774,37.615826 93.282761,37.713875 
	C93.206253,37.416885 93.449554,37.225597 94.008072,37.114246 
z"/>
<path fill="none" opacity="1.000000" stroke="none" 
	d="
M90.877296,37.623100 
	C90.973396,37.753830 90.501282,37.865631 90.261932,37.826881 
	C90.192688,37.425282 90.445557,37.326694 90.877296,37.623100 
z"/>
<path fill="none" opacity="1.000000" stroke="none" 
	d="
M108.732040,35.080612 
	C108.914307,35.335075 108.746239,35.592285 108.204315,35.822273 
	C108.083855,35.594326 108.267609,35.357098 108.732040,35.080612 
z"/>
<path fill="none" opacity="1.000000" stroke="none" 
	d="
M144.923462,77.772659 
	C144.686661,76.080910 139.096146,74.592857 144.445374,71.789474 
	C144.854721,73.621826 144.909760,75.467232 144.923462,77.772659 
z"/>
<path fill="none" opacity="1.000000" stroke="none" 
	d="
M152.175720,68.951828 
	C152.048187,68.680199 152.234787,68.470741 152.756073,68.379959 
	C152.830261,68.632393 152.629944,68.804169 152.175720,68.951828 
z"/>
<path fill="none" opacity="1.000000" stroke="none" 
	d="
M150.009766,69.886673 
	C149.934814,69.603081 150.177399,69.404320 150.738739,69.305153 
	C150.811234,69.595238 150.567825,69.784164 150.009766,69.886673 
z"/>
<path fill="none" opacity="1.000000" stroke="none" 
	d="
M145.081512,71.827400 
	C144.929535,71.489937 145.150009,71.269264 145.749634,71.178253 
	C145.859634,71.481323 145.634689,71.693413 145.081512,71.827400 
z"/>
<path fill="none" opacity="1.000000" stroke="none" 
	d="
M88.932922,64.880615 
	C88.663322,64.453545 88.814331,64.116257 89.012283,63.507233 
	C91.298714,64.874634 93.538200,66.513763 95.775970,68.486237 
	C94.752647,69.566490 93.731041,70.313416 92.405197,71.153915 
	C91.185150,69.155121 90.269348,67.062759 88.932922,64.880615 
z"/>
<path fill="none" opacity="1.000000" stroke="none" 
	d="
M55.523994,98.026581 
	C56.908070,96.152863 58.674137,94.255379 60.740440,92.234955 
	C61.763760,96.197754 59.492195,97.673241 55.523994,98.026581 
z"/>
<path fill="none" opacity="1.000000" stroke="none" 
	d="
M72.458679,81.023460 
	C73.544678,79.471985 74.999855,77.910622 76.749298,76.217728 
	C78.924461,80.540176 75.701324,80.627289 72.458679,81.023460 
z"/>
<path fill="none" opacity="1.000000" stroke="none" 
	d="
M31.944710,120.927475 
	C32.338421,120.799416 32.738167,120.702492 33.430687,120.510406 
	C34.140469,122.390388 34.557480,124.365517 34.945190,126.771126 
	C33.989120,126.303749 33.062355,125.405899 31.946976,123.860771 
	C31.801498,122.460335 31.844631,121.707184 31.887764,120.954025 
	C31.887766,120.954025 31.950747,120.958618 31.944710,120.927475 
z"/>
<path fill="none" opacity="1.000000" stroke="none" 
	d="
M36.512909,135.705261 
	C36.234440,134.547867 36.177048,133.175140 36.185402,131.392502 
	C42.213333,131.863586 36.120708,134.035934 36.512909,135.705261 
z"/>
<path fill="none" opacity="1.000000" stroke="none" 
	d="
M103.805603,99.759933 
	C103.510445,100.016068 103.080009,100.009888 102.326691,100.000031 
	C102.018227,99.778732 102.032646,99.561119 102.088860,99.018158 
	C102.643875,98.961082 103.157104,99.229347 103.805603,99.759933 
z"/>
<path fill="none" opacity="1.000000" stroke="none" 
	d="
M41.328178,111.923233 
	C41.173626,111.719551 41.311512,111.470459 41.770927,111.213593 
	C41.886635,111.412827 41.729355,111.636826 41.328178,111.923233 
z"/>
<path fill="none" opacity="1.000000" stroke="none" 
	d="
M34.343552,118.879883 
	C34.205887,118.669518 34.359436,118.436905 34.826431,118.210419 
	C34.918186,118.402100 34.749817,118.615807 34.343552,118.879883 
z"/>
<path fill="none" opacity="1.000000" stroke="none" 
	d="
M35.326756,117.922943 
	C35.184155,117.714111 35.338779,117.470070 35.819366,117.227821 
	C35.910210,117.418633 35.736427,117.638008 35.326756,117.922943 
z"/>
<path fill="none" opacity="1.000000" stroke="none" 
	d="
M65.268311,87.915871 
	C65.123344,87.696877 65.282112,87.445374 65.765228,87.191162 
	C65.882660,87.406723 65.710152,87.638351 65.268311,87.915871 
z"/>
<path fill="none" opacity="1.000000" stroke="none" 
	d="
M81.280861,71.907860 
	C81.132553,71.686096 81.294693,71.425339 81.788460,71.153488 
	C81.907059,71.369476 81.730804,71.611633 81.280861,71.907860 
z"/>
<path fill="none" opacity="1.000000" stroke="none" 
	d="
M80.291473,72.909988 
	C80.144745,72.692032 80.305664,72.432999 80.796326,72.161331 
	C80.909851,72.371284 80.734207,72.611351 80.291473,72.909988 
z"/>
<path fill="none" opacity="1.000000" stroke="none" 
	d="
M79.274170,73.908478 
	C79.116364,73.676208 79.283989,73.421906 79.797905,73.171829 
	C79.907066,73.383583 79.725533,73.620384 79.274170,73.908478 
z"/>
<path fill="none" opacity="1.000000" stroke="none" 
	d="
M92.075340,76.476074 
	C92.283607,76.275314 92.479408,76.365852 92.582527,76.795525 
	C92.391258,76.885559 92.248940,76.763123 92.075340,76.476074 
z"/>
<path fill="none" opacity="1.000000" stroke="none" 
	d="
M93.138283,81.922905 
	C93.332787,81.940529 93.522743,82.204842 93.688988,82.717827 
	C93.376686,82.775269 93.199501,82.509628 93.138283,81.922905 
z"/>
<path fill="none" opacity="1.000000" stroke="none" 
	d="
M64.315651,88.906601 
	C64.161407,88.691490 64.314209,88.430222 64.799408,88.154068 
	C64.915794,88.360832 64.746094,88.601250 64.315651,88.906601 
z"/>
<path fill="none" opacity="1.000000" stroke="none" 
	d="
M95.066299,89.121017 
	C95.308197,89.044701 95.504387,89.248611 95.616974,89.741913 
	C95.364235,89.808372 95.193306,89.598358 95.066299,89.121017 
z"/>
<path fill="none" opacity="1.000000" stroke="none" 
	d="
M99.041451,95.364632 
	C99.262787,95.182846 99.493637,95.308479 99.677231,95.779739 
	C99.468506,95.890739 99.275497,95.739632 99.041451,95.364632 
z"/>
<path fill="none" opacity="1.000000" stroke="none" 
	d="
M49.343452,103.918190 
	C49.185467,103.716255 49.319363,103.468246 49.775181,103.211823 
	C49.890926,103.407928 49.737003,103.630829 49.343452,103.918190 
z"/>
<path fill="none" opacity="1.000000" stroke="none" 
	d="
M48.334366,104.918541 
	C48.190235,104.709236 48.340309,104.465141 48.816841,104.230019 
	C48.909256,104.425056 48.737682,104.639984 48.334366,104.918541 
z"/>
<path fill="none" opacity="1.000000" stroke="none" 
	d="
M44.294846,108.920258 
	C44.149963,108.701920 44.311977,108.453743 44.805733,108.208252 
	C44.904537,108.410217 44.725964,108.636703 44.294846,108.920258 
z"/>
<path fill="none" opacity="1.000000" stroke="none" 
	d="
M43.332672,109.877686 
	C43.180119,109.658844 43.333652,109.415909 43.815277,109.175438 
	C43.919708,109.375259 43.751507,109.600487 43.332672,109.877686 
z"/>
<path fill="none" opacity="1.000000" stroke="none" 
	d="
M40.330376,112.917450 
	C40.186054,112.707031 40.338680,112.459778 40.819412,112.216934 
	C40.913189,112.412682 40.739796,112.632431 40.330376,112.917450 
z"/>
<path fill="none" opacity="1.000000" stroke="none" 
	d="
M36.328651,116.913834 
	C36.156651,116.694153 36.302826,116.435173 36.799088,116.174545 
	C36.912510,116.377342 36.745060,116.611221 36.328651,116.913834 
z"/>
<path fill="none" opacity="1.000000" stroke="none" 
	d="
M107.725899,102.850739 
	C107.559525,102.939262 107.389336,102.812401 107.157440,102.521156 
	C107.349541,102.325867 107.558327,102.418724 107.725899,102.850739 
z"/>
<path fill="none" opacity="1.000000" stroke="none" 
	d="
M111.764587,107.711800 
	C111.483368,107.820862 111.262680,107.598999 111.045525,107.070740 
	C111.230537,107.046700 111.489220,107.252205 111.764587,107.711800 
z"/>
<path fill="#757ED8" opacity="1.000000" stroke="none" 
	d="
M151.256897,247.940536 
	C150.756256,249.256058 150.255630,250.571594 149.427795,252.058716 
	C149.069046,251.733688 149.037506,251.237045 148.999115,250.367523 
	C148.992264,249.994629 148.999786,249.999893 149.257965,249.829498 
	C150.096405,249.086258 150.676651,248.513397 151.256897,247.940536 
z"/>
<path fill="#9596CD" opacity="1.000000" stroke="none" 
	d="
M31.639385,121.132828 
	C31.844631,121.707184 31.801498,122.460335 31.741678,123.588203 
	C31.613665,123.079155 31.502337,122.195389 31.639385,121.132828 
z"/>
<path fill="#707BDB" opacity="1.000000" stroke="none" 
	d="
M151.351837,247.671509 
	C150.676651,248.513397 150.096405,249.086258 149.255554,249.826721 
	C149.549911,248.768295 150.104843,247.542252 151.035400,246.300629 
	C151.422958,246.657516 151.434875,247.029984 151.351837,247.671509 
z"/>
<path fill="none" opacity="1.000000" stroke="none" 
	d="
M112.861305,59.749153 
	C110.641045,55.321182 112.239670,50.108887 108.294441,46.052677 
	C106.680122,44.392960 109.444679,43.606979 111.483261,44.035763 
	C114.792381,44.731785 118.147018,45.211391 121.785187,45.537849 
	C122.517517,45.209358 122.947113,45.125381 123.831917,45.249901 
	C124.740341,45.739990 125.193542,46.021580 125.646744,46.303169 
	C125.646744,46.303173 125.791008,46.330353 125.744675,46.664585 
	C126.484604,50.340912 127.270874,53.683002 128.057144,57.025097 
	C128.057144,57.025097 127.869942,57.299095 127.415192,57.518990 
	C122.968353,58.502682 118.976265,59.266479 114.984177,60.030281 
	C114.370773,59.976765 113.757378,59.923256 112.861305,59.749153 
z"/>
<path fill="#6A74DF" opacity="1.000000" stroke="none" 
	d="
M144.780640,55.927773 
	C144.230392,57.126129 143.680161,58.324486 142.982132,59.844738 
	C137.473740,53.075993 132.272781,47.042660 127.597168,40.626484 
	C126.702591,39.398891 127.877762,36.663040 128.098053,34.623035 
	C129.287094,35.342880 130.476135,36.062729 131.257812,37.102249 
	C126.929123,37.669899 129.045654,39.199570 130.155975,40.584621 
	C133.316895,44.527653 137.048904,48.176952 139.370407,52.568645 
	C140.813980,55.299538 142.014313,56.316753 144.780640,55.927773 
z"/>
<path fill="#D6E1FE" opacity="1.000000" stroke="none" 
	d="
M144.807663,55.629559 
	C142.014313,56.316753 140.813980,55.299538 139.370407,52.568645 
	C137.048904,48.176952 133.316895,44.527653 130.155975,40.584621 
	C129.045654,39.199570 126.929123,37.669899 131.126404,37.463310 
	C131.402374,37.504696 131.574356,37.470451 131.663696,37.748466 
	C136.085831,43.396248 140.418640,48.766014 144.751450,54.135780 
	C144.779190,54.534298 144.806946,54.932819 144.807663,55.629559 
z"/>
<path fill="#6A74DF" opacity="1.000000" stroke="none" 
	d="
M145.064636,53.906284 
	C140.418640,48.766014 136.085831,43.396248 131.739532,37.704472 
	C137.030746,38.179104 139.729431,42.506382 142.714111,46.087635 
	C144.322205,48.017143 144.535339,51.109234 145.064636,53.906284 
z"/>
<path fill="#6F79DC" opacity="1.000000" stroke="none" 
	d="
M115.035812,60.357071 
	C118.976265,59.266479 122.968353,58.502682 127.395981,57.683792 
	C127.779900,58.116875 127.787415,59.016552 127.668121,59.033688 
	C123.481949,59.635151 119.283852,60.153648 115.035812,60.357071 
z"/>
<path fill="#6F79DC" opacity="1.000000" stroke="none" 
	d="
M128.428497,56.938858 
	C127.270874,53.683002 126.484604,50.340912 125.683319,46.624290 
	C129.807434,48.196289 130.984619,52.182011 128.428497,56.938858 
z"/>
<path fill="#6F79DC" opacity="1.000000" stroke="none" 
	d="
M125.737671,45.997635 
	C125.193542,46.021580 124.740341,45.739990 124.158386,45.213413 
	C124.629288,45.209652 125.228943,45.450878 125.737671,45.997635 
z"/>
<path fill="#707BDB" opacity="1.000000" stroke="none" 
	d="
M142.005966,183.004547 
	C142.094452,182.965988 142.182922,182.927429 142.135712,182.944427 
	C142.000000,183.000000 142.005966,183.004547 142.005966,183.004547 
z"/>
<path fill="#707BDB" opacity="1.000000" stroke="none" 
	d="
M141.997681,182.997009 
	C141.905899,183.032669 141.816422,183.071350 141.866455,183.057281 
	C142.005966,183.004547 142.000000,183.000000 141.997681,182.997009 
z"/>
<path fill="#707BDB" opacity="1.000000" stroke="none" 
	d="
M117.932861,226.793472 
	C118.027390,226.958405 117.529907,226.995102 117.280991,227.003143 
	C117.300827,226.883636 117.569580,226.756088 117.932861,226.793472 
z"/>
</svg>