<svg version="1.1" id="Layer_1" xmlns="http://www.w3.org/2000/svg" xmlns:xlink="http://www.w3.org/1999/xlink" x="0px" y="0px"
	 width="100%" viewBox="0 0 287 285" enable-background="new 0 0 287 285" xml:space="preserve">
<path fill="none" opacity="1.000000" stroke="none" 
	d="
M162.000000,286.000000 
	C161.250000,286.000000 160.500000,286.000000 159.336456,285.701477 
	C158.515564,285.084106 158.108215,284.765289 157.700867,284.446442 
	C157.467255,284.964294 157.233627,285.482147 157.000000,286.000000 
	C105.020042,286.000000 53.040081,286.000000 1.030061,286.000000 
	C1.030061,191.056656 1.030061,96.113312 1.030061,1.084981 
	C96.573074,1.084981 192.146240,1.084981 287.859711,1.084981 
	C287.859711,95.999863 287.859711,190.999893 287.859711,286.000000 
	C247.572830,286.000000 207.255081,286.000000 166.472412,285.632996 
	C167.261673,283.421753 168.132339,280.549591 169.837265,279.913513 
	C176.740189,277.338196 178.177048,273.150787 174.947937,266.505371 
	C177.053040,262.143066 179.150665,258.144592 181.178009,254.129990 
	C181.107727,254.113861 181.212326,254.213150 181.552856,254.046356 
	C184.307343,252.931000 186.721313,251.982437 189.129379,251.036194 
	C190.832275,246.559402 192.641037,241.767075 194.477432,236.985352 
	C197.090012,230.182480 199.929596,223.458023 202.283585,216.567291 
	C204.270248,210.751831 204.796143,204.272064 207.590881,198.936020 
	C211.964996,190.584488 212.238770,182.114456 211.285599,173.243393 
	C210.980606,170.404724 211.695892,168.159500 214.947815,167.875244 
	C218.593262,167.556595 219.524536,165.132080 219.916473,162.100494 
	C220.912720,154.394775 221.936478,146.692612 222.976608,138.979706 
	C223.003998,138.970383 222.976913,138.919662 223.107773,138.850235 
	C223.238632,138.780807 223.369995,138.521957 223.369995,138.521957 
	C223.369995,138.521957 223.193985,138.291718 223.383926,137.938019 
	C223.648636,137.058685 223.723389,136.533035 223.973785,135.668839 
	C226.222168,128.362961 228.031693,121.393478 224.434265,114.181244 
	C224.595367,113.663918 224.517776,113.378273 224.433136,112.806900 
	C224.273270,110.342400 223.994827,108.197800 223.764832,105.696777 
	C223.661041,104.892723 223.508850,104.445099 223.469818,103.697647 
	C223.419617,102.592468 223.256256,101.787109 223.149170,100.679108 
	C223.169022,99.969398 223.132614,99.562340 223.418701,99.004288 
	C226.147614,97.565552 228.554001,96.277802 231.364258,94.978912 
	C234.483200,94.228607 237.209152,93.526718 239.910645,92.740860 
	C243.292953,91.756950 246.986084,89.285736 249.956589,89.978783 
	C255.978561,91.383766 259.140625,88.639435 261.008514,84.149269 
	C264.162903,76.566460 266.798767,68.742432 269.201141,60.881840 
	C270.647491,56.149456 271.942871,51.944275 278.185364,52.887646 
	C278.306091,52.905891 278.501587,52.429356 279.136230,51.458584 
	C277.134369,50.632637 275.348206,49.475704 273.441010,49.219227 
	C271.247986,48.924316 270.409149,48.266945 271.258484,45.955055 
	C271.671356,45.566315 271.866364,45.308857 272.015869,45.016216 
	C272.001221,45.004391 272.032379,45.033287 272.368774,44.990166 
	C273.465729,44.310230 274.542175,43.820461 274.921234,43.006088 
	C275.717041,41.296364 276.146301,39.416027 276.726074,37.605736 
	C274.922852,38.422062 273.109192,39.216961 271.330444,40.083504 
	C271.122345,40.184895 271.106689,40.681412 270.890442,41.095840 
	C270.779083,41.196926 270.704681,41.488380 270.476685,41.634686 
	C270.076965,42.088860 269.905243,42.396725 269.709045,42.716415 
	C269.684509,42.728245 269.666412,42.676876 269.402161,42.744995 
	C268.807800,43.227173 268.477692,43.641228 267.873230,44.200672 
	C267.065948,44.965870 266.532990,45.585674 265.627747,46.202469 
	C264.524139,46.096680 263.792816,45.993904 263.076904,45.663712 
	C263.092377,45.436295 262.983246,44.993675 263.048553,44.747154 
	C263.092224,44.332001 263.070557,44.163368 263.175446,43.679939 
	C263.427826,42.931717 263.553680,42.498287 263.822754,41.792351 
	C264.015198,40.697056 264.064453,39.874260 264.064819,39.036175 
	C264.015961,39.020885 264.088409,39.093239 264.237610,38.964211 
	C264.586945,38.595699 264.588409,38.355129 264.538269,37.749828 
	C264.667480,35.825111 264.649628,34.264050 264.732361,32.407822 
	C264.325134,31.094044 263.817291,30.075426 263.309479,29.056810 
	C262.673065,30.394699 262.036621,31.732588 261.273499,33.439846 
	C261.106537,34.585827 261.066284,35.362438 260.914581,36.195591 
	C260.803131,36.252132 260.896545,36.631176 260.686096,36.999630 
	C260.320312,37.911381 260.165039,38.454674 259.698364,39.138901 
	C259.210907,40.156597 259.034882,41.033360 258.910645,41.911751 
	C258.962402,41.913376 258.886322,41.843060 258.565063,41.630703 
	C257.912842,40.164177 257.581879,38.910007 257.381226,37.409782 
	C257.335266,36.460430 257.159027,35.757137 256.878662,34.684193 
	C255.846741,34.197186 254.918961,34.079834 253.790497,34.033295 
	C253.357117,34.340672 253.324829,34.601944 253.390274,35.287033 
	C253.390335,36.224930 253.493042,36.763714 253.485306,37.697433 
	C253.374863,42.324047 253.374863,46.555725 253.374863,51.040268 
	C251.669403,50.392517 250.138321,49.810997 247.677322,48.876289 
	C248.313797,51.210327 248.681290,52.557991 249.069443,54.121712 
	C249.179794,54.625549 249.352203,54.849640 249.726868,55.372749 
	C249.939667,56.749039 250.032974,57.762619 250.121704,59.012943 
	C250.190125,59.572281 250.363541,59.826298 250.726868,60.274796 
	C250.868469,60.715660 250.920517,60.893456 251.053375,61.273773 
	C251.293076,61.732639 251.512589,61.916706 252.001343,62.360260 
	C252.350983,64.422600 252.491959,66.153183 252.288788,67.926300 
	C251.028656,69.088905 250.112686,70.208977 249.078583,71.511887 
	C248.768051,71.926003 248.526459,72.080254 247.859711,72.079514 
	C245.309723,71.705933 243.135681,71.410309 240.516861,71.038109 
	C237.068970,71.042114 234.065872,71.122696 230.851273,70.899353 
	C229.084259,70.747360 227.528763,70.899300 225.643631,71.027267 
	C224.883545,70.910095 224.453064,70.816902 223.925156,70.594818 
	C223.515198,70.271599 223.237564,70.322273 222.621979,70.652916 
	C221.501617,70.666924 220.754089,70.645966 219.889648,70.512939 
	C219.428680,70.283371 219.163315,70.391487 218.534164,70.793457 
	C215.409821,70.833778 212.727966,70.805885 210.031815,70.396729 
	C209.693390,68.042717 209.369278,66.069969 209.097427,63.824966 
	C209.229736,63.386135 209.309784,63.219559 209.709869,62.947800 
	C213.893402,58.024364 213.434448,51.981098 214.524002,46.400883 
	C214.647385,45.768978 213.005829,44.792461 212.134872,43.643929 
	C212.152298,42.872086 212.217514,42.432053 212.410858,41.910027 
	C212.745346,41.545845 212.713181,41.285168 212.380157,40.680553 
	C212.194778,39.584351 212.071762,38.853611 211.898285,37.880787 
	C211.701614,37.325539 211.469879,37.100422 210.921051,36.820992 
	C210.473709,36.391029 210.257919,36.103432 209.912628,35.620983 
	C209.557724,35.189178 209.282471,35.052620 208.699799,34.950928 
	C208.285934,34.801884 208.129654,34.718357 207.841370,34.472004 
	C207.483475,34.121216 207.223587,34.027973 206.679260,33.997307 
	C206.274048,33.899017 206.119263,33.832870 205.714020,33.508930 
	C201.321899,33.432896 197.180237,33.614647 192.719147,33.944782 
	C191.289459,34.463322 190.179199,34.833477 188.874466,34.906467 
	C185.972244,33.477547 185.195862,34.903576 184.969391,37.608624 
	C181.644531,42.113865 184.252960,48.511086 179.353653,52.108219 
	C178.911041,52.433189 179.004837,54.260830 179.484177,54.947739 
	C183.430435,60.602581 181.835236,66.699791 181.182999,72.756371 
	C180.737137,76.896873 176.558029,81.134155 172.371567,81.166939 
	C164.319992,81.229996 157.165802,83.643997 150.502823,88.203598 
	C145.306122,91.759804 139.839706,95.016693 134.179169,97.758324 
	C131.543381,99.034943 127.983238,99.639160 125.153755,99.050400 
	C116.300583,97.208229 107.595802,94.652931 98.912231,92.010666 
	C100.815712,91.211151 102.640472,90.774940 105.438332,90.106110 
	C103.793091,88.849106 102.762772,87.590691 101.454857,87.142708 
	C95.175003,84.991699 88.835373,85.510124 82.183121,87.181702 
	C78.310287,85.834427 74.571892,83.009529 71.301971,83.475082 
	C64.027771,84.510750 57.017185,86.811157 52.815186,94.217041 
	C49.044422,100.862885 48.813557,109.144150 53.454567,115.241859 
	C57.813152,120.968498 65.585197,123.132576 72.783508,120.623878 
	C79.244972,118.371994 83.897354,111.073471 83.884850,103.761726 
	C83.881607,101.865501 84.868614,99.967590 85.400772,98.070450 
	C87.354057,98.638290 89.567993,98.794640 91.218643,99.840240 
	C102.592064,107.044640 113.734291,114.379990 127.085144,118.032166 
	C130.998108,119.102554 134.508194,120.587112 138.584961,119.968414 
	C143.974564,119.150482 149.343353,118.167068 154.752274,117.512558 
	C160.431259,116.825386 162.153946,119.007149 160.749557,124.663849 
	C160.474243,125.772697 160.239670,126.891655 159.797333,128.319626 
	C157.233643,136.937653 156.285568,145.772522 150.303696,153.004852 
	C148.042114,155.889664 146.509064,159.128372 144.013504,161.217087 
	C140.742340,163.954956 136.711731,165.785431 132.646515,167.934845 
	C130.430298,167.190933 128.575348,166.518402 125.944778,165.564667 
	C126.500053,168.673492 126.809212,170.404358 127.087044,172.130676 
	C127.055717,172.126129 127.109589,172.115219 126.728531,172.079437 
	C125.269363,173.119370 124.191261,174.195099 122.854004,175.484970 
	C119.630692,179.367294 116.666542,183.035477 113.857391,186.834259 
	C114.012405,186.964844 113.706329,186.695740 113.357964,186.748169 
	C105.715088,190.888489 98.420578,194.976395 90.745094,199.042892 
	C85.431175,200.137512 81.945427,202.756775 80.909119,208.253525 
	C80.598808,208.765091 80.320229,208.932877 79.642021,208.979919 
	C78.872856,208.988464 78.433296,209.001434 77.936188,208.669678 
	C76.095001,206.101120 74.378662,206.592148 73.754639,208.998856 
	C73.278275,210.836090 73.858772,212.947342 73.860550,215.210510 
	C73.161140,215.969498 72.570297,216.454712 71.832581,216.643005 
	C70.475525,215.226852 69.265350,214.107605 68.055176,212.988358 
	C67.650627,213.322113 67.246086,213.655869 66.841545,213.989624 
	C67.872185,215.614914 68.902817,217.240219 69.890442,219.105347 
	C69.847427,219.345154 69.794601,219.829575 69.857269,219.896271 
	C69.919930,219.962967 69.837296,219.799652 69.518600,219.850830 
	C67.907654,220.645020 66.615417,221.388046 64.928909,222.123734 
	C62.835381,222.584732 61.136120,223.053085 59.436855,223.521423 
	C59.771523,223.793045 60.106186,224.064667 60.440853,224.336288 
	C59.411102,226.273880 58.267933,228.161667 57.388447,230.165207 
	C56.717392,231.693954 56.380489,233.369354 55.849545,235.241547 
	C55.737614,235.844193 55.671074,236.184845 55.624977,236.542755 
	C55.645428,236.560028 55.628201,236.610718 55.304638,236.625443 
	C54.376938,236.889633 53.772800,237.139099 52.998375,237.068710 
	C51.221798,234.927109 49.628307,233.585236 47.215015,235.765198 
	C44.060631,238.614639 37.726665,238.765869 39.058559,245.608215 
	C38.751896,245.987610 38.507885,246.091660 37.798630,246.062088 
	C35.112076,245.737732 32.847275,245.444992 30.399706,245.128632 
	C31.061964,247.598404 31.547623,249.409561 31.774845,251.408875 
	C30.742233,251.939667 29.968056,252.282303 29.027357,252.265900 
	C26.302425,250.181625 24.725807,250.939316 23.582682,253.916473 
	C20.487812,254.669571 17.803495,255.337784 14.768778,256.045105 
	C13.109937,257.944366 11.801497,259.804504 10.493057,261.664673 
	C12.732488,261.713074 14.971916,261.761475 17.208309,261.827576 
	C17.205275,261.845276 17.169336,261.846649 17.111555,262.246887 
	C16.236874,264.849487 15.419972,267.051880 14.358821,269.912781 
	C17.427011,269.912781 20.312407,269.912781 23.447865,270.035767 
	C24.150812,270.727966 24.603697,271.297150 25.039146,272.262451 
	C25.513609,273.728577 26.005507,274.798676 26.497406,275.868744 
	C27.331705,275.324860 28.166000,274.780975 29.317604,274.154663 
	C30.064495,273.993408 30.494081,273.914581 31.164265,274.141479 
	C32.942459,275.321594 34.484375,276.188507 36.016090,277.073059 
	C36.988094,277.634369 38.223774,278.896454 38.843449,278.640259 
	C39.780796,278.252777 40.736832,276.876160 40.878529,275.812469 
	C41.178680,273.559235 40.957932,271.236603 40.967026,268.975159 
	C40.983257,269.007843 40.934238,268.951843 41.328346,268.963074 
	C44.434166,268.724365 46.459423,267.843903 45.858387,264.362000 
	C45.898163,264.209351 46.142437,264.009644 46.521591,264.001251 
	C49.458233,263.063873 52.015724,262.134888 54.800869,261.123230 
	C55.120785,258.653625 55.454273,256.079254 55.931786,253.314331 
	C56.343281,252.737473 56.610748,252.351181 57.127354,251.951355 
	C57.376492,251.937851 57.875465,251.943848 58.259510,251.962860 
	C60.087902,251.734589 61.546146,251.217728 62.973953,251.291351 
	C67.001366,251.498962 67.702835,249.353104 67.442413,246.082489 
	C72.615028,248.164490 75.396111,244.845703 79.340233,243.067856 
	C85.968269,240.080231 85.663429,234.515442 88.059158,229.538940 
	C89.009613,228.811401 89.810448,228.328033 91.013741,227.888107 
	C93.647530,226.545105 95.949944,225.259033 98.089798,223.743423 
	C100.147125,222.286255 102.036217,220.591553 104.106529,219.220917 
	C104.413078,219.714706 104.674652,219.901520 105.010384,220.387299 
	C107.629913,225.610825 110.060150,221.105438 112.580070,221.321655 
	C112.551422,220.695160 112.522774,220.068665 112.494125,219.442184 
	C109.996437,219.627716 107.498749,219.813232 104.893600,219.779083 
	C104.586777,219.285294 104.325050,219.098587 103.997025,218.573563 
	C103.835236,217.306885 103.677376,216.465927 103.562500,215.622314 
	C103.605476,215.619659 103.637146,215.539581 104.019669,215.664444 
	C106.860420,214.997269 109.418396,213.323532 111.757111,213.588074 
	C117.457397,214.232880 119.017181,213.599579 120.431885,206.686264 
	C121.807472,208.683029 122.421883,210.458206 123.632469,211.088745 
	C124.893806,211.745728 126.814613,211.017960 128.278000,211.457993 
	C128.962128,211.663712 129.876953,213.466019 129.611542,214.078751 
	C127.996178,217.807892 128.862091,223.256012 122.949493,224.241867 
	C122.571510,224.304901 122.403580,225.627701 121.984444,226.536377 
	C121.563080,226.872513 121.272331,226.964310 120.614670,226.948547 
	C118.451035,225.659317 116.631447,224.405167 114.346558,222.830307 
	C112.991364,227.746536 111.377380,231.900070 106.526749,228.855972 
	C106.087540,232.560547 105.070969,236.291138 105.376457,239.910141 
	C105.686668,243.585007 102.991356,248.437729 108.315659,250.733643 
	C109.994423,251.457565 111.956467,251.504974 113.673973,252.162231 
	C119.059464,254.223114 120.784492,253.118210 121.326279,247.103607 
	C122.531242,246.855682 123.428780,246.762009 124.695023,246.749054 
	C125.711037,246.265961 126.358337,245.702164 127.332031,245.057892 
	C128.105621,244.986282 128.552826,244.995163 129.151947,245.309219 
	C131.695602,247.778091 134.421951,249.679688 136.381607,252.181793 
	C138.212952,254.520035 139.444138,256.961853 142.923447,254.077469 
	C143.384705,255.452667 143.883926,256.333679 143.954422,257.247772 
	C144.498093,264.297302 142.925980,271.854431 148.947342,277.548340 
	C150.197266,278.730286 151.710342,280.925964 152.751282,280.735596 
	C154.332611,280.446472 155.607162,278.479523 157.420441,277.165955 
	C159.196304,276.962524 160.563736,276.818390 162.099289,276.996338 
	C165.888123,280.326538 161.790421,283.096954 162.000000,286.000000 
M118.850838,219.667694 
	C120.200928,218.762451 121.551025,217.857208 122.901123,216.951965 
	C122.289665,216.333633 121.678207,215.715302 121.066742,215.096970 
	C120.149437,216.438660 119.232132,217.780365 118.850838,219.667694 
M127.889191,248.694534 
	C126.776230,248.652237 125.644623,248.476547 124.558815,248.628387 
	C124.073647,248.696213 123.450424,249.358856 123.311264,249.866959 
	C123.176453,250.359192 123.484306,251.435623 123.767654,251.499283 
	C124.990990,251.774155 126.436996,252.159622 127.481270,251.728333 
	C128.137161,251.457428 128.224167,249.809128 127.889191,248.694534 
M100.665894,229.356125 
	C100.136711,228.720917 99.607529,228.085709 99.078339,227.450500 
	C98.778084,228.225769 98.477837,229.001053 98.177589,229.776337 
	C98.907265,229.829132 99.636948,229.881912 100.665894,229.356125 
M212.748428,61.827816 
	C212.585159,61.882149 212.421906,61.936478 212.258636,61.990803 
	C212.422836,62.043938 212.587051,62.097069 212.748428,61.827816 
z"/>
<path fill="none" opacity="1.000000" stroke="none" 
	d="
M174.940460,266.869171 
	C178.177048,273.150787 176.740189,277.338196 169.837265,279.913513 
	C168.132339,280.549591 167.261673,283.421753 166.003754,285.632996 
	C164.933334,286.000000 163.866653,286.000000 162.399994,286.000000 
	C161.790421,283.096954 165.888123,280.326538 162.373871,276.790039 
	C166.415192,274.834320 170.747894,273.928162 172.000763,268.994873 
	C171.997543,268.998108 171.990906,269.004944 172.234924,268.923492 
	C172.627258,268.548157 172.775604,268.254242 172.963348,267.960571 
	C173.002762,267.960815 172.929214,267.931335 173.183731,267.801697 
	C173.938980,267.404449 174.439728,267.136810 174.940460,266.869171 
z"/>
<path fill="none" opacity="1.000000" stroke="none" 
	d="
M157.333328,286.000000 
	C157.233627,285.482147 157.467255,284.964294 157.700867,284.446442 
	C158.108215,284.765289 158.515564,285.084106 158.961456,285.701477 
	C158.555557,286.000000 158.111099,286.000000 157.333328,286.000000 
z"/>
<path fill="#5C6BF5" opacity="1.000000" stroke="none" 
	d="
M224.314545,113.126801 
	C224.517776,113.378273 224.595367,113.663918 224.330856,114.629677 
	C224.089844,116.184570 224.065292,117.093536 224.131104,118.224487 
	C224.403824,118.719536 224.642624,118.927994 224.944275,119.514641 
	C224.945251,122.614365 224.939789,125.271301 224.733414,128.059998 
	C224.276505,128.404572 224.111496,128.673294 224.021484,129.243408 
	C224.005463,129.488937 223.982758,129.980499 223.662491,130.034805 
	C223.235519,131.058868 223.128815,132.028625 223.009949,133.371307 
	C222.971680,134.489944 222.945572,135.235687 222.676270,136.202667 
	C222.285522,137.280884 222.137955,138.137848 221.723663,139.229477 
	C218.399261,145.197571 217.792831,151.328537 217.850830,157.744110 
	C217.871170,159.994110 216.429825,163.616699 214.739059,164.281799 
	C208.255157,166.832458 208.416550,171.894043 209.149872,177.016861 
	C210.182114,184.227966 209.989685,190.993134 205.502029,197.159698 
	C204.672791,198.299164 204.432449,199.902130 204.050186,201.326019 
	C202.217209,208.153595 200.700272,215.080261 198.543442,221.802444 
	C196.631668,227.760818 194.559006,233.790527 191.555191,239.235916 
	C189.231445,243.448502 188.759735,250.137848 181.212326,249.402374 
	C181.212326,251.287079 181.212326,252.750107 181.212326,254.213150 
	C181.212326,254.213150 181.107727,254.113861 180.831818,254.201492 
	C176.893509,258.210297 172.660049,261.812225 172.929214,267.931335 
	C172.929214,267.931335 173.002762,267.960815 172.742157,268.067932 
	C172.206772,268.385895 172.043213,268.662537 171.990906,269.004944 
	C171.990906,269.004944 171.997543,268.998108 171.645279,269.022095 
	C170.368393,269.685638 169.509064,270.461365 168.507980,270.941437 
	C163.919449,273.141815 159.611649,276.793213 153.970398,273.627869 
	C152.969589,270.825287 151.964981,268.399567 150.973541,265.576569 
	C150.978622,264.116669 150.970505,263.054016 151.212585,261.800537 
	C149.302628,257.252228 147.483582,252.671448 144.838501,248.631470 
	C143.514832,246.609726 140.874420,245.025375 138.497421,244.201935 
	C132.645950,242.174911 126.687706,241.356216 120.740265,244.489929 
	C119.264275,245.267624 117.159798,245.028015 115.354126,244.966217 
	C112.091087,244.854584 110.967545,242.515594 112.560410,240.243973 
	C115.258713,236.395844 118.368370,232.643555 121.985313,229.681595 
	C126.374077,226.087601 131.534470,223.451248 136.236038,220.218796 
	C139.789612,217.775635 143.819153,215.215637 147.651550,217.756256 
	C151.279205,220.161118 150.142731,224.706421 148.586990,228.244995 
	C147.058670,231.721207 146.608200,234.630508 149.690460,237.481934 
	C151.697525,239.338654 153.421005,241.501907 155.377518,243.643875 
	C157.003723,242.190002 158.948730,241.305542 159.264877,240.020386 
	C160.624680,234.492722 161.971130,228.885849 162.438828,223.234711 
	C162.970673,216.808548 162.561737,210.304535 162.561737,202.933044 
	C162.096375,202.851532 160.376892,202.183273 158.736023,202.339706 
	C155.366135,202.660950 152.048889,203.840057 148.691238,203.925049 
	C139.455673,204.158798 130.207413,203.880981 120.970970,204.096573 
	C118.422897,204.156036 115.707329,204.830612 113.399345,205.922211 
	C106.513268,209.179123 100.747284,213.721512 95.407623,219.420334 
	C89.400307,225.831726 81.584167,230.521103 74.772064,236.219208 
	C72.118439,238.438873 70.057068,241.366562 67.617546,244.197052 
	C67.217697,244.574356 66.926216,244.726364 66.321625,244.903564 
	C65.384811,245.369064 64.761108,245.809387 64.146477,246.194031 
	C64.155540,246.138382 64.226654,246.225906 63.876793,246.178253 
	C63.018578,246.779968 62.510223,247.429321 61.870987,248.292297 
	C61.297974,248.722778 60.855835,248.939651 60.033348,249.105286 
	C58.775322,249.383713 57.897640,249.713348 56.699905,250.076050 
	C55.915939,250.735641 55.452026,251.362183 54.654453,252.043823 
	C53.860092,253.017807 53.399395,253.936691 52.819977,254.976334 
	C52.701252,255.097107 52.381268,255.208160 52.015297,255.165253 
	C49.648056,256.965851 47.338165,258.570953 45.698410,260.693726 
	C38.213257,270.383820 29.848648,272.339935 21.967974,265.635284 
	C20.565279,262.931519 19.209253,260.580902 17.631226,257.845490 
	C19.890261,257.147644 21.574783,256.661224 23.236788,256.107300 
	C27.659239,254.633316 32.266167,253.532471 36.431961,251.521408 
	C40.311272,249.648636 43.862083,246.981247 47.287151,244.316193 
	C50.263824,242.000015 52.862484,239.198029 55.628204,236.610718 
	C55.628201,236.610718 55.645428,236.560028 56.003559,236.673508 
	C57.075935,235.737457 57.790180,234.687943 58.538170,233.647141 
	C58.571907,233.655853 58.627071,233.613281 58.985252,233.636505 
	C62.841389,229.039719 66.339340,224.419678 69.837296,219.799652 
	C69.837296,219.799652 69.919930,219.962967 70.236908,219.954041 
	C76.737717,213.998962 82.921555,208.052826 89.468613,202.073364 
	C97.113007,198.071854 104.433540,194.172485 111.630135,190.056442 
	C112.634407,189.482086 113.029335,187.842331 113.706329,186.695740 
	C113.706329,186.695740 114.012405,186.964844 114.225479,186.908691 
	C117.332138,184.025253 120.253036,181.225250 123.110069,178.361511 
	C125.149429,176.317383 127.103020,174.187668 129.471985,172.069229 
	C133.230637,170.197296 136.568527,168.266052 140.003525,166.526535 
	C145.805023,163.588577 151.273514,160.421524 152.294464,152.850586 
	C159.319595,146.939896 159.802979,139.038803 160.246277,130.929123 
	C160.712921,130.595276 160.879074,130.327026 160.965576,129.668442 
	C160.978256,128.893341 160.976593,128.450333 161.251923,127.786110 
	C161.818771,126.790314 161.975525,125.927330 162.421249,125.256287 
	C164.463028,122.182243 164.319702,118.665527 161.754593,116.706917 
	C159.813232,115.224556 156.349915,115.116135 153.654480,115.367477 
	C147.752090,115.917854 141.917877,117.166862 136.030182,117.933868 
	C134.813736,118.092346 133.460617,117.473831 132.214172,117.076401 
	C129.102997,116.084396 125.993324,115.078346 122.926704,113.958374 
	C118.916420,112.493736 114.722847,111.326469 111.008919,109.297600 
	C103.375076,105.127319 96.083290,100.334915 88.499046,96.068176 
	C84.609024,93.879730 82.435524,95.167900 81.885857,99.899155 
	C81.111229,106.566811 80.730980,113.346916 73.460403,117.322929 
	C69.039635,119.740501 64.587990,120.978760 60.743252,118.089104 
	C55.848831,114.410492 51.338577,109.471161 52.418770,103.298416 
	C53.627941,96.388634 57.046883,89.898323 64.997871,87.589378 
	C69.692825,86.225967 73.999077,84.990143 78.712570,88.153488 
	C81.938553,90.318527 85.885818,91.645813 89.693512,92.663078 
	C101.607025,95.845932 113.569489,98.874054 125.604515,101.550583 
	C128.141098,102.114708 131.392761,101.587906 133.752350,100.423622 
	C140.726547,96.982376 147.505402,93.115562 154.196548,89.139053 
	C160.401733,85.451340 166.662308,82.503403 174.186325,83.779724 
	C175.087814,83.932648 176.339172,83.239159 177.138794,82.584373 
	C183.539246,77.343216 186.270599,65.359528 182.945969,56.976776 
	C181.893188,54.322315 181.193344,51.969360 183.924500,49.825134 
	C184.565857,49.321606 184.820679,48.123165 184.949951,47.201847 
	C186.055542,39.323734 189.596710,35.878696 197.335510,36.030151 
	C209.876923,36.275597 208.470947,35.766052 209.652130,45.838394 
	C210.456161,52.694473 209.700180,59.669956 204.693375,65.335602 
	C202.408340,67.921310 202.090958,70.362549 206.143967,72.309418 
	C217.963028,72.742912 229.436539,72.916893 241.030365,73.455643 
	C245.988571,76.029655 252.630676,74.245316 254.347260,69.574715 
	C255.399307,66.712181 256.874054,62.717014 252.078506,60.499397 
	C252.698929,58.373589 253.355408,56.632858 254.297348,54.889812 
	C254.710739,54.273239 254.838669,53.658978 254.977676,52.606087 
	C255.000626,50.122021 255.012482,48.076584 255.422363,46.015396 
	C256.884918,45.977676 257.949463,45.955704 259.387726,45.956833 
	C262.919067,48.033047 266.076660,50.086159 269.005737,51.990677 
	C267.369110,59.249027 266.242798,67.095627 263.707153,74.456779 
	C262.098175,79.127846 258.437164,83.107094 255.567291,87.308418 
	C255.235275,87.794456 253.941574,88.074997 253.319870,87.843513 
	C245.019852,84.753136 238.819809,91.489616 231.411438,92.527878 
	C230.813019,92.611755 230.407349,94.070938 229.593048,94.925148 
	C228.846359,94.987015 228.418762,95.014755 227.656647,95.032501 
	C226.560257,95.351242 225.798340,95.679985 224.867813,96.244080 
	C224.113968,96.967941 223.528732,97.456459 222.628876,98.011414 
	C222.206345,99.054276 222.098465,100.030685 221.987976,101.380424 
	C221.995422,102.500542 222.005493,103.247330 222.009003,104.333435 
	C222.312439,105.471001 222.622421,106.269257 222.939606,107.481430 
	C223.402740,109.639168 223.858643,111.382980 224.314545,113.126801 
z"/>
<path fill="#717ADC" opacity="1.000000" stroke="none" 
	d="
M205.798401,72.049911 
	C202.090958,70.362549 202.408340,67.921310 204.693375,65.335602 
	C209.700180,59.669956 210.456161,52.694473 209.652130,45.838394 
	C208.470947,35.766052 209.876923,36.275597 197.335510,36.030151 
	C189.596710,35.878696 186.055542,39.323734 184.949951,47.201847 
	C184.820679,48.123165 184.565857,49.321606 183.924500,49.825134 
	C181.193344,51.969360 181.893188,54.322315 182.945969,56.976776 
	C186.270599,65.359528 183.539246,77.343216 177.138794,82.584373 
	C176.339172,83.239159 175.087814,83.932648 174.186325,83.779724 
	C166.662308,82.503403 160.401733,85.451340 154.196548,89.139053 
	C147.505402,93.115562 140.726547,96.982376 133.752350,100.423622 
	C131.392761,101.587906 128.141098,102.114708 125.604515,101.550583 
	C113.569489,98.874054 101.607025,95.845932 89.693512,92.663078 
	C85.885818,91.645813 81.938553,90.318527 78.712570,88.153488 
	C73.999077,84.990143 69.692825,86.225967 64.997871,87.589378 
	C57.046883,89.898323 53.627941,96.388634 52.418770,103.298416 
	C51.338577,109.471161 55.848831,114.410492 60.743252,118.089104 
	C64.587990,120.978760 69.039635,119.740501 73.460403,117.322929 
	C80.730980,113.346916 81.111229,106.566811 81.885857,99.899155 
	C82.435524,95.167900 84.609024,93.879730 88.499046,96.068176 
	C96.083290,100.334915 103.375076,105.127319 111.008919,109.297600 
	C114.722847,111.326469 118.916420,112.493736 122.926704,113.958374 
	C125.993324,115.078346 129.102997,116.084396 132.214172,117.076401 
	C133.460617,117.473831 134.813736,118.092346 136.030182,117.933868 
	C141.917877,117.166862 147.752090,115.917854 153.654480,115.367477 
	C156.349915,115.116135 159.813232,115.224556 161.754593,116.706917 
	C164.319702,118.665527 164.463028,122.182243 162.421249,125.256287 
	C161.975525,125.927330 161.818771,126.790314 161.004913,127.785843 
	C160.480927,128.006790 159.986313,128.005951 159.986298,128.005951 
	C160.239670,126.891655 160.474243,125.772697 160.749557,124.663849 
	C162.153946,119.007149 160.431259,116.825386 154.752274,117.512558 
	C149.343353,118.167068 143.974564,119.150482 138.584961,119.968414 
	C134.508194,120.587112 130.998108,119.102554 127.085144,118.032166 
	C113.734291,114.379990 102.592064,107.044640 91.218643,99.840240 
	C89.567993,98.794640 87.354057,98.638290 85.400772,98.070450 
	C84.868614,99.967590 83.881607,101.865501 83.884850,103.761726 
	C83.897354,111.073471 79.244972,118.371994 72.783508,120.623878 
	C65.585197,123.132576 57.813152,120.968498 53.454567,115.241859 
	C48.813557,109.144150 49.044422,100.862885 52.815186,94.217041 
	C57.017185,86.811157 64.027771,84.510750 71.301971,83.475082 
	C74.571892,83.009529 78.310287,85.834427 82.430649,87.466537 
	C88.294632,89.302528 93.564072,90.838257 98.833511,92.373978 
	C107.595802,94.652931 116.300583,97.208229 125.153755,99.050400 
	C127.983238,99.639160 131.543381,99.034943 134.179169,97.758324 
	C139.839706,95.016693 145.306122,91.759804 150.502823,88.203598 
	C157.165802,83.643997 164.319992,81.229996 172.371567,81.166939 
	C176.558029,81.134155 180.737137,76.896873 181.182999,72.756371 
	C181.835236,66.699791 183.430435,60.602581 179.484177,54.947739 
	C179.004837,54.260830 178.911041,52.433189 179.353653,52.108219 
	C184.252960,48.511086 181.644531,42.113865 185.281769,37.522041 
	C186.865677,36.474339 187.967316,35.838985 189.068954,35.203632 
	C190.179199,34.833477 191.289459,34.463322 193.175446,33.995899 
	C197.955612,33.854664 201.960037,33.810692 205.964478,33.766720 
	C206.119263,33.832870 206.274048,33.899017 206.789780,34.191612 
	C207.150742,34.418056 207.528488,34.653931 207.528488,34.653931 
	C207.528488,34.653931 207.973373,34.634827 207.973373,34.634827 
	C208.129654,34.718357 208.285934,34.801884 208.808929,35.168922 
	C209.398560,35.730736 209.687378,35.851868 210.042114,35.815838 
	C210.257919,36.103432 210.473709,36.391029 210.963058,37.067924 
	C211.473984,37.679108 211.711349,37.900990 211.948730,38.122868 
	C212.071762,38.853611 212.194778,39.584351 212.266876,40.904682 
	C212.238235,41.660187 212.260483,41.826103 212.282745,41.992016 
	C212.217514,42.432053 212.152298,42.872086 212.073395,44.093346 
	C211.169769,50.934040 210.279800,56.993515 209.389832,63.052986 
	C209.309784,63.219559 209.229736,63.386135 208.799072,64.018692 
	C207.625198,66.831764 206.801941,69.178864 205.942627,71.660042 
	C205.906555,71.794128 205.798401,72.049911 205.798401,72.049911 
z"/>
<path fill="#717ADB" opacity="1.000000" stroke="none" 
	d="
M67.725922,243.971756 
	C70.057068,241.366562 72.118439,238.438873 74.772064,236.219208 
	C81.584167,230.521103 89.400307,225.831726 95.407623,219.420334 
	C100.747284,213.721512 106.513268,209.179123 113.399345,205.922211 
	C115.707329,204.830612 118.422897,204.156036 120.970970,204.096573 
	C130.207413,203.880981 139.455673,204.158798 148.691238,203.925049 
	C152.048889,203.840057 155.366135,202.660950 158.736023,202.339706 
	C160.376892,202.183273 162.096375,202.851532 162.561737,202.933044 
	C162.561737,210.304535 162.970673,216.808548 162.438828,223.234711 
	C161.971130,228.885849 160.624680,234.492722 159.264877,240.020386 
	C158.948730,241.305542 157.003723,242.190002 155.377518,243.643875 
	C153.421005,241.501907 151.697525,239.338654 149.690460,237.481934 
	C146.608200,234.630508 147.058670,231.721207 148.586990,228.244995 
	C150.142731,224.706421 151.279205,220.161118 147.651550,217.756256 
	C143.819153,215.215637 139.789612,217.775635 136.236038,220.218796 
	C131.534470,223.451248 126.374077,226.087601 121.985313,229.681595 
	C118.368370,232.643555 115.258713,236.395844 112.560410,240.243973 
	C110.967545,242.515594 112.091087,244.854584 115.354126,244.966217 
	C117.159798,245.028015 119.264275,245.267624 120.740265,244.489929 
	C126.687706,241.356216 132.645950,242.174911 138.497421,244.201935 
	C140.874420,245.025375 143.514832,246.609726 144.838501,248.631470 
	C147.483582,252.671448 149.302628,257.252228 150.965363,261.632294 
	C149.898987,261.129639 149.330048,260.604431 148.496490,259.874023 
	C146.926117,257.365540 145.529251,255.108261 144.335617,252.748184 
	C142.490067,249.099152 134.174927,243.955292 130.188217,244.201340 
	C129.777191,244.226700 129.395386,244.725128 129.000015,245.004044 
	C128.552826,244.995163 128.105621,244.986282 126.990723,245.026291 
	C125.657448,245.606232 124.991875,246.137283 124.326309,246.668335 
	C123.428780,246.762009 122.531242,246.855682 120.936630,247.145416 
	C116.299255,248.855179 112.520279,248.604279 109.950195,245.056580 
	C107.253868,241.334610 110.154274,238.519485 112.439651,235.935593 
	C115.166855,232.852127 118.109428,229.959137 120.958710,226.983643 
	C121.272331,226.964310 121.563080,226.872513 122.347321,226.457581 
	C127.827652,223.000854 132.845840,219.874908 137.737579,216.562241 
	C141.333237,214.127274 145.223190,212.872009 148.831131,215.609650 
	C152.359909,218.287231 152.799637,222.557220 151.185898,226.493591 
	C148.647400,232.685776 151.562546,236.752960 155.533234,240.738419 
	C162.712402,229.265701 159.017593,216.629288 160.653824,205.656021 
	C156.966034,205.817307 153.345032,206.693451 150.086090,205.960220 
	C144.323135,204.663620 138.927887,204.848846 133.510681,207.042847 
	C132.476105,207.461868 130.676453,208.218323 130.362473,207.850967 
	C126.570129,203.413940 121.549507,205.521896 117.986656,206.756363 
	C112.810478,208.549850 108.383583,212.505829 103.637146,215.539581 
	C103.637146,215.539581 103.605476,215.619659 103.248802,215.660690 
	C98.798515,219.749374 94.704903,223.797028 90.611282,227.844666 
	C89.810448,228.328033 89.009613,228.811401 87.719475,229.630981 
	C86.651283,230.282135 86.027596,230.535782 85.500343,230.921295 
	C79.566978,235.259735 73.648445,239.618484 67.725922,243.971756 
z"/>
<path fill="none" opacity="1.000000" stroke="none" 
	d="
M104.019669,215.664444 
	C108.383583,212.505829 112.810478,208.549850 117.986656,206.756363 
	C121.549507,205.521896 126.570129,203.413940 130.362473,207.850967 
	C130.676453,208.218323 132.476105,207.461868 133.510681,207.042847 
	C138.927887,204.848846 144.323135,204.663620 150.086090,205.960220 
	C153.345032,206.693451 156.966034,205.817307 160.653824,205.656021 
	C159.017593,216.629288 162.712402,229.265701 155.533234,240.738419 
	C151.562546,236.752960 148.647400,232.685776 151.185898,226.493591 
	C152.799637,222.557220 152.359909,218.287231 148.831131,215.609650 
	C145.223190,212.872009 141.333237,214.127274 137.737579,216.562241 
	C132.845840,219.874908 127.827652,223.000854 122.500809,226.285675 
	C122.403580,225.627701 122.571510,224.304901 122.949493,224.241867 
	C128.862091,223.256012 127.996178,217.807892 129.611542,214.078751 
	C129.876953,213.466019 128.962128,211.663712 128.278000,211.457993 
	C126.814613,211.017960 124.893806,211.745728 123.632469,211.088745 
	C122.421883,210.458206 121.807472,208.683029 120.431885,206.686264 
	C119.017181,213.599579 117.457397,214.232880 111.757111,213.588074 
	C109.418396,213.323532 106.860420,214.997269 104.019669,215.664444 
z"/>
<path fill="#747ED8" opacity="1.000000" stroke="none" 
	d="
M181.552856,254.046356 
	C181.212326,252.750107 181.212326,251.287079 181.212326,249.402374 
	C188.759735,250.137848 189.231445,243.448502 191.555191,239.235916 
	C194.559006,233.790527 196.631668,227.760818 198.543442,221.802444 
	C200.700272,215.080261 202.217209,208.153595 204.050186,201.326019 
	C204.432449,199.902130 204.672791,198.299164 205.502029,197.159698 
	C209.989685,190.993134 210.182114,184.227966 209.149872,177.016861 
	C208.416550,171.894043 208.255157,166.832458 214.739059,164.281799 
	C216.429825,163.616699 217.871170,159.994110 217.850830,157.744110 
	C217.792831,151.328537 218.399261,145.197571 221.963440,139.228928 
	C222.469925,138.993713 222.949219,138.989014 222.949219,138.989014 
	C221.936478,146.692612 220.912720,154.394775 219.916473,162.100494 
	C219.524536,165.132080 218.593262,167.556595 214.947815,167.875244 
	C211.695892,168.159500 210.980606,170.404724 211.285599,173.243393 
	C212.238770,182.114456 211.964996,190.584488 207.590881,198.936020 
	C204.796143,204.272064 204.270248,210.751831 202.283585,216.567291 
	C199.929596,223.458023 197.090012,230.182480 194.477432,236.985352 
	C192.641037,241.767075 190.832275,246.559402 189.129379,251.036194 
	C186.721313,251.982437 184.307343,252.931000 181.552856,254.046356 
z"/>
<path fill="#7179DB" opacity="1.000000" stroke="none" 
	d="
M229.912109,94.891029 
	C230.407349,94.070938 230.813019,92.611755 231.411438,92.527878 
	C238.819809,91.489616 245.019852,84.753136 253.319870,87.843513 
	C253.941574,88.074997 255.235275,87.794456 255.567291,87.308418 
	C258.437164,83.107094 262.098175,79.127846 263.707153,74.456779 
	C266.242798,67.095627 267.369110,59.249027 269.005737,51.990677 
	C266.076660,50.086159 262.919067,48.033047 259.513367,45.670540 
	C259.138916,44.188450 259.012604,43.015755 258.886322,41.843060 
	C258.886322,41.843060 258.962402,41.913376 259.247498,41.900383 
	C259.691681,40.924252 259.850739,39.961117 260.009766,38.997974 
	C260.165039,38.454674 260.320312,37.911381 260.702087,36.919777 
	C260.928589,36.471470 261.026062,36.139050 261.026062,36.139050 
	C261.066284,35.362438 261.106537,34.585827 261.673126,33.407326 
	C263.010223,32.904617 263.820984,32.803802 264.631744,32.702988 
	C264.649628,34.264050 264.667480,35.825111 264.432648,37.889282 
	C264.066833,38.615147 264.036346,38.848763 264.088409,39.093239 
	C264.088409,39.093239 264.015961,39.020885 263.800171,39.186966 
	C263.616119,40.256985 263.647858,41.160923 263.679565,42.064857 
	C263.553680,42.498287 263.427826,42.931717 263.001434,43.760433 
	C262.629211,44.259632 262.474426,44.421513 262.499725,44.457794 
	C262.636261,44.653606 262.817444,44.818272 262.983246,44.993675 
	C262.983246,44.993675 263.092377,45.436295 263.195068,45.957287 
	C264.198486,46.387344 265.099274,46.296413 266.000031,46.205479 
	C266.532990,45.585674 267.065948,44.965870 268.163269,44.155846 
	C269.040558,43.536041 269.353485,43.106461 269.666412,42.676880 
	C269.666412,42.676876 269.684509,42.728245 270.005981,42.653511 
	C270.453186,42.215309 270.578918,41.851841 270.704681,41.488380 
	C270.704681,41.488380 270.779083,41.196926 271.216888,41.140572 
	C271.780579,42.400578 271.906464,43.716930 272.032379,45.033287 
	C272.032379,45.033287 272.001221,45.004391 271.766907,45.102180 
	C271.378906,45.503204 271.225189,45.806442 271.071472,46.109680 
	C270.409149,48.266945 271.247986,48.924316 273.441010,49.219227 
	C275.348206,49.475704 277.134369,50.632637 279.136230,51.458584 
	C278.501587,52.429356 278.306091,52.905891 278.185364,52.887646 
	C271.942871,51.944275 270.647491,56.149456 269.201141,60.881840 
	C266.798767,68.742432 264.162903,76.566460 261.008514,84.149269 
	C259.140625,88.639435 255.978561,91.383766 249.956589,89.978783 
	C246.986084,89.285736 243.292953,91.756950 239.910645,92.740860 
	C237.209152,93.526718 234.483200,94.228607 231.101410,94.963326 
	C230.260513,94.936264 230.086319,94.913651 229.912109,94.891029 
z"/>
<path fill="none" opacity="1.000000" stroke="none" 
	d="
M129.151947,245.309219 
	C129.395386,244.725128 129.777191,244.226700 130.188217,244.201340 
	C134.174927,243.955292 142.490067,249.099152 144.335617,252.748184 
	C145.529251,255.108261 146.926117,257.365540 148.550201,260.303345 
	C149.124924,262.361938 149.381348,263.786072 149.548279,265.534546 
	C149.905136,267.592041 150.351471,269.325165 150.831909,271.399597 
	C151.495483,272.571625 152.124939,273.402405 152.738281,274.272430 
	C152.722137,274.311707 152.729523,274.396301 152.749847,274.756409 
	C154.184128,275.819427 155.598068,276.522339 157.012024,277.225250 
	C155.607162,278.479523 154.332611,280.446472 152.751282,280.735596 
	C151.710342,280.925964 150.197266,278.730286 148.947342,277.548340 
	C142.925980,271.854431 144.498093,264.297302 143.954422,257.247772 
	C143.883926,256.333679 143.384705,255.452667 142.923447,254.077469 
	C139.444138,256.961853 138.212952,254.520035 136.381607,252.181793 
	C134.421951,249.679688 131.695602,247.778091 129.151947,245.309219 
z"/>
<path fill="none" opacity="1.000000" stroke="none" 
	d="
M120.614670,226.948563 
	C118.109428,229.959137 115.166855,232.852127 112.439651,235.935593 
	C110.154274,238.519485 107.253868,241.334610 109.950195,245.056580 
	C112.520279,248.604279 116.299255,248.855179 120.629196,247.299667 
	C120.784492,253.118210 119.059464,254.223114 113.673973,252.162231 
	C111.956467,251.504974 109.994423,251.457565 108.315659,250.733643 
	C102.991356,248.437729 105.686668,243.585007 105.376457,239.910141 
	C105.070969,236.291138 106.087540,232.560547 106.526749,228.855972 
	C111.377380,231.900070 112.991364,227.746536 114.346558,222.830307 
	C116.631447,224.405167 118.451035,225.659317 120.614670,226.948563 
z"/>
<path fill="#747DD8" opacity="1.000000" stroke="none" 
	d="
M55.304642,236.625443 
	C52.862484,239.198029 50.263824,242.000015 47.287151,244.316193 
	C43.862083,246.981247 40.311272,249.648636 36.431961,251.521408 
	C32.266167,253.532471 27.659239,254.633316 23.236788,256.107300 
	C21.574783,256.661224 19.890261,257.147644 17.631226,257.845490 
	C19.209253,260.580902 20.565279,262.931519 21.807529,265.789917 
	C21.693754,266.297729 21.373489,266.607697 21.131031,266.402710 
	C19.648825,264.747375 18.409075,263.297028 17.169331,261.846649 
	C17.169336,261.846649 17.205275,261.845276 17.155579,261.491058 
	C16.443647,259.426544 15.781414,257.716278 15.119179,256.005981 
	C17.803495,255.337784 20.487812,254.669571 23.924629,253.984024 
	C26.182713,253.519424 27.688293,253.072174 29.193874,252.624924 
	C29.968056,252.282303 30.742233,251.939667 32.117672,251.357635 
	C34.552753,249.443390 36.386574,247.768555 38.220387,246.093719 
	C38.507885,246.091660 38.751896,245.987610 39.430443,245.520065 
	C44.328533,242.635239 48.748600,240.011887 53.168663,237.388550 
	C53.772800,237.139099 54.376938,236.889633 55.304642,236.625443 
z"/>
<path fill="none" opacity="1.000000" stroke="none" 
	d="
M67.617546,244.197052 
	C73.648445,239.618484 79.566978,235.259735 85.500343,230.921295 
	C86.027596,230.535782 86.651283,230.282135 87.569855,229.875168 
	C85.663429,234.515442 85.968269,240.080231 79.340233,243.067856 
	C75.396111,244.845703 72.615028,248.164490 67.344963,245.989288 
	C66.852234,245.858093 66.658859,245.672226 66.674606,245.473099 
	C66.690361,245.273972 66.634743,244.878372 66.634735,244.878357 
	C66.926216,244.726364 67.217697,244.574356 67.617546,244.197052 
z"/>
<path fill="#747DD8" opacity="1.000000" stroke="none" 
	d="
M21.854198,266.143066 
	C29.848648,272.339935 38.213257,270.383820 45.698410,260.693726 
	C47.338165,258.570953 49.648056,256.965851 51.798119,255.436981 
	C50.012089,258.504303 48.077263,261.256958 46.142437,264.009644 
	C46.142437,264.009644 45.898163,264.209351 45.532997,264.498230 
	C43.756634,266.175354 42.345432,267.563599 40.934235,268.951843 
	C40.934238,268.951843 40.983257,269.007843 40.658611,269.158447 
	C38.576542,270.164642 36.821812,271.025787 35.060825,271.873993 
	C33.685799,272.536255 32.303009,273.182404 30.923664,273.835724 
	C30.494081,273.914581 30.064495,273.993408 29.046869,273.964783 
	C27.324745,273.193695 26.190664,272.530029 25.056581,271.866364 
	C24.603697,271.297150 24.150812,270.727966 23.325859,269.742188 
	C22.427023,268.419647 21.900253,267.513672 21.373486,266.607697 
	C21.373489,266.607697 21.693754,266.297729 21.854198,266.143066 
z"/>
<path fill="none" opacity="1.000000" stroke="none" 
	d="
M98.912231,92.010674 
	C93.564072,90.838257 88.294632,89.302528 82.777664,87.481964 
	C88.835373,85.510124 95.175003,84.991699 101.454857,87.142708 
	C102.762772,87.590691 103.793091,88.849106 105.438332,90.106110 
	C102.640472,90.774940 100.815712,91.211151 98.912231,92.010674 
z"/>
<path fill="none" opacity="1.000000" stroke="none" 
	d="
M52.998375,237.068710 
	C48.748600,240.011887 44.328533,242.635239 39.536587,245.346725 
	C37.726665,238.765869 44.060631,238.614639 47.215015,235.765198 
	C49.628307,233.585236 51.221798,234.927109 52.998375,237.068710 
z"/>
<path fill="#747DD8" opacity="1.000000" stroke="none" 
	d="
M151.990234,153.004639 
	C151.273514,160.421524 145.805023,163.588577 140.003525,166.526535 
	C136.568527,168.266052 133.230637,170.197296 129.403931,171.993301 
	C128.958771,171.944290 128.825500,171.789932 129.006805,171.528625 
	C130.461319,170.180267 131.734543,169.093231 133.007782,168.006195 
	C136.711731,165.785431 140.742340,163.954956 144.013504,161.217087 
	C146.509064,159.128372 148.042114,155.889664 150.649872,153.052582 
	C151.527664,152.963272 151.758957,152.983948 151.990234,153.004639 
z"/>
<path fill="#747DD8" opacity="1.000000" stroke="none" 
	d="
M113.357964,186.748169 
	C113.029335,187.842331 112.634407,189.482086 111.630135,190.056442 
	C104.433540,194.172485 97.113007,198.071854 89.389603,201.987152 
	C88.947357,201.934296 88.791832,201.759613 88.948578,201.503479 
	C89.778900,200.519653 90.452484,199.791977 91.126068,199.064301 
	C98.420578,194.976395 105.715088,190.888489 113.357964,186.748169 
z"/>
<path fill="#8189D2" opacity="1.000000" stroke="none" 
	d="
M206.143967,72.309418 
	C205.798401,72.049911 205.906555,71.794128 206.341736,71.552322 
	C207.866669,71.133011 208.956390,70.955505 210.046127,70.778000 
	C212.727966,70.805885 215.409821,70.833778 218.797577,70.829262 
	C219.671173,70.739571 219.838852,70.682289 220.006546,70.625000 
	C220.754089,70.645966 221.501617,70.666924 222.872559,70.741661 
	C223.671509,70.771530 223.847046,70.747620 224.022598,70.723709 
	C224.453064,70.816902 224.883545,70.910095 225.892517,71.268234 
	C228.001602,71.423218 229.532181,71.313248 231.062775,71.203278 
	C234.065872,71.122696 237.068970,71.042114 240.541779,71.312111 
	C241.099411,72.018730 241.187302,72.374771 241.183731,72.820648 
	C241.092270,72.910492 240.910034,73.090874 240.910034,73.090874 
	C229.436539,72.916893 217.963028,72.742912 206.143967,72.309418 
z"/>
<path fill="#7780D3" opacity="1.000000" stroke="none" 
	d="
M152.294464,152.850586 
	C151.758957,152.983948 151.527664,152.963272 150.950211,152.894897 
	C156.285568,145.772522 157.233643,136.937653 159.797333,128.319626 
	C159.986313,128.005951 160.480927,128.006790 160.727921,128.007050 
	C160.976593,128.450333 160.978256,128.893341 160.753799,129.784637 
	C160.264648,130.446503 160.102036,130.719849 160.039841,131.052948 
	C159.802979,139.038803 159.319595,146.939896 152.294464,152.850586 
z"/>
<path fill="#8189D2" opacity="1.000000" stroke="none" 
	d="
M254.011871,54.892128 
	C253.355408,56.632858 252.698929,58.373589 252.005020,60.572727 
	C251.967590,61.031139 251.820190,61.177376 251.610077,61.136475 
	C251.399963,61.095570 250.972549,61.071255 250.972549,61.071255 
	C250.920517,60.893456 250.868469,60.715660 250.754364,60.034569 
	C250.625351,59.188408 250.436676,58.936718 250.126282,58.776203 
	C250.032974,57.762619 249.939667,56.749039 249.739319,55.149590 
	C249.528320,54.264168 249.333817,54.044807 249.048782,53.905651 
	C248.681290,52.557991 248.313797,51.210327 247.677322,48.876289 
	C250.138321,49.810997 251.669403,50.392517 253.374863,51.040268 
	C253.374863,46.555725 253.374863,42.324047 253.635223,37.991447 
	C254.271835,40.604069 254.648087,43.317612 255.024338,46.031151 
	C255.012482,48.076584 255.000626,50.122021 254.879166,52.847538 
	C254.516998,53.982456 254.264435,54.437290 254.011871,54.892128 
z"/>
<path fill="#747DD8" opacity="1.000000" stroke="none" 
	d="
M89.026375,202.020493 
	C82.921555,208.052826 76.737717,213.998962 70.174240,219.887329 
	C69.794601,219.829575 69.847427,219.345154 70.176117,219.029236 
	C70.996353,218.122192 71.487907,217.531052 71.979462,216.939926 
	C72.570297,216.454712 73.161140,215.969498 74.150436,215.107819 
	C75.366829,213.824310 76.184769,212.917267 77.285553,211.883484 
	C78.369476,210.832626 79.170547,209.908508 79.971619,208.984375 
	C80.320229,208.932877 80.598808,208.765091 81.215492,208.121643 
	C84.013039,205.761383 86.402435,203.760498 88.791832,201.759613 
	C88.791832,201.759613 88.947357,201.934296 89.026375,202.020493 
z"/>
<path fill="none" opacity="1.000000" stroke="none" 
	d="
M31.164265,274.141479 
	C32.303009,273.182404 33.685799,272.536255 35.060825,271.873993 
	C36.821812,271.025787 38.576542,270.164642 40.642380,269.125732 
	C40.957932,271.236603 41.178680,273.559235 40.878529,275.812469 
	C40.736832,276.876160 39.780796,278.252777 38.843449,278.640259 
	C38.223774,278.896454 36.988094,277.634369 36.016090,277.073059 
	C34.484375,276.188507 32.942459,275.321594 31.164265,274.141479 
z"/>
<path fill="#747DD8" opacity="1.000000" stroke="none" 
	d="
M129.026825,172.020218 
	C127.103020,174.187668 125.149429,176.317383 123.110069,178.361511 
	C120.253036,181.225250 117.332138,184.025253 114.070465,186.778091 
	C116.666542,183.035477 119.630692,179.367294 123.170654,175.403076 
	C124.867500,174.109756 125.988548,173.112488 127.109589,172.115219 
	C127.109589,172.115219 127.055717,172.126129 127.375732,172.099091 
	C128.072342,171.978012 128.448914,171.883972 128.825500,171.789932 
	C128.825500,171.789932 128.958771,171.944290 129.026825,172.020218 
z"/>
<path fill="#767FD2" opacity="1.000000" stroke="none" 
	d="
M157.420441,277.165955 
	C155.598068,276.522339 154.184128,275.819427 153.053574,274.638916 
	C153.546860,274.109100 153.756729,274.056915 153.966614,274.004730 
	C159.611649,276.793213 163.919449,273.141815 168.507980,270.941437 
	C169.509064,270.461365 170.368393,269.685638 171.648499,269.018860 
	C170.747894,273.928162 166.415192,274.834320 162.205750,276.467957 
	C160.563736,276.818390 159.196304,276.962524 157.420441,277.165955 
z"/>
<path fill="#767FD7" opacity="1.000000" stroke="none" 
	d="
M255.422363,46.015396 
	C254.648087,43.317612 254.271835,40.604069 253.745667,37.596512 
	C253.493042,36.763714 253.390335,36.224930 253.515778,35.161133 
	C253.886597,34.433731 253.969025,34.209187 253.991196,33.962482 
	C254.918961,34.079834 255.846741,34.197186 256.871948,34.953701 
	C257.063232,36.280521 257.157074,36.968178 257.250916,37.655838 
	C257.581879,38.910007 257.912842,40.164177 258.565063,41.630703 
	C259.012604,43.015755 259.138916,44.188450 259.139587,45.647438 
	C257.949463,45.955704 256.884918,45.977676 255.422363,46.015396 
z"/>
<path fill="none" opacity="1.000000" stroke="none" 
	d="
M46.521591,264.001251 
	C48.077263,261.256958 50.012089,258.504303 52.164093,255.479889 
	C52.381268,255.208160 52.701252,255.097107 53.130749,254.908813 
	C54.302750,254.315292 55.045254,253.910095 55.787758,253.504883 
	C55.454273,256.079254 55.120785,258.653625 54.800869,261.123230 
	C52.015724,262.134888 49.458233,263.063873 46.521591,264.001251 
z"/>
<path fill="#8189D2" opacity="1.000000" stroke="none" 
	d="
M252.041077,60.957809 
	C256.874054,62.717014 255.399307,66.712181 254.347260,69.574715 
	C252.630676,74.245316 245.988571,76.029655 241.030365,73.455643 
	C240.910034,73.090874 241.092270,72.910492 241.508408,72.961609 
	C244.028259,72.727638 246.131973,72.442558 248.235687,72.157471 
	C248.526459,72.080254 248.768051,71.926003 249.387268,71.407944 
	C250.753693,70.042030 251.693314,68.962898 252.632935,67.883759 
	C252.491959,66.153183 252.350983,64.422600 252.036316,62.148304 
	C251.862640,61.604584 251.820190,61.177376 251.820190,61.177376 
	C251.820190,61.177376 251.967590,61.031139 252.041077,60.957809 
z"/>
<path fill="none" opacity="1.000000" stroke="none" 
	d="
M55.894928,234.979523 
	C56.380489,233.369354 56.717392,231.693954 57.388447,230.165207 
	C58.267933,228.161667 59.411102,226.273880 60.440853,224.336288 
	C60.106186,224.064667 59.771523,223.793045 59.436855,223.521423 
	C61.136120,223.053085 62.835381,222.584732 64.841698,222.469193 
	C62.974861,226.419098 60.800972,230.016190 58.627075,233.613281 
	C58.627071,233.613281 58.571907,233.655853 58.253212,233.696167 
	C57.254654,234.150848 56.574791,234.565186 55.894928,234.979523 
z"/>
<path fill="none" opacity="1.000000" stroke="none" 
	d="
M209.709869,62.947800 
	C210.279800,56.993515 211.169769,50.934040 212.121216,44.425152 
	C213.005829,44.792461 214.647385,45.768978 214.524002,46.400883 
	C213.434448,51.981098 213.893402,58.024364 209.709869,62.947800 
z"/>
<path fill="#747DD8" opacity="1.000000" stroke="none" 
	d="
M58.985260,233.636505 
	C60.800972,230.016190 62.974861,226.419098 65.235962,222.476532 
	C66.615417,221.388046 67.907654,220.645020 69.518600,219.850830 
	C66.339340,224.419678 62.841389,229.039719 58.985260,233.636505 
z"/>
<path fill="none" opacity="1.000000" stroke="none" 
	d="
M91.013748,227.888123 
	C94.704903,223.797028 98.798515,219.749374 103.205826,215.663345 
	C103.677376,216.465927 103.835236,217.306885 103.996544,218.573914 
	C104.000000,219.000000 103.999237,219.001221 103.999237,219.001221 
	C102.036217,220.591553 100.147125,222.286255 98.089798,223.743423 
	C95.949944,225.259033 93.647530,226.545105 91.013748,227.888123 
z"/>
<path fill="none" opacity="1.000000" stroke="none" 
	d="
M21.131027,266.402710 
	C21.900253,267.513672 22.427023,268.419647 23.075798,269.619202 
	C20.312407,269.912781 17.427011,269.912781 14.358821,269.912781 
	C15.419972,267.051880 16.236874,264.849487 17.111549,262.246887 
	C18.409075,263.297028 19.648825,264.747375 21.131027,266.402710 
z"/>
<path fill="#747ED8" opacity="1.000000" stroke="none" 
	d="
M173.183731,267.801697 
	C172.660049,261.812225 176.893509,258.210297 180.902100,254.217621 
	C179.150665,258.144592 177.053040,262.143066 174.947937,266.505371 
	C174.439728,267.136810 173.938980,267.404449 173.183731,267.801697 
z"/>
<path fill="#8C8FD9" opacity="1.000000" stroke="none" 
	d="
M272.368774,44.990166 
	C271.906464,43.716930 271.780579,42.400578 271.328247,41.039486 
	C271.106689,40.681412 271.122345,40.184895 271.330444,40.083504 
	C273.109192,39.216961 274.922852,38.422062 276.726074,37.605736 
	C276.146301,39.416027 275.717041,41.296364 274.921234,43.006088 
	C274.542175,43.820461 273.465729,44.310230 272.368774,44.990166 
z"/>
<path fill="#747ED8" opacity="1.000000" stroke="none" 
	d="
M224.040756,118.002495 
	C224.065292,117.093536 224.089844,116.184570 224.217773,114.827179 
	C228.031693,121.393478 226.222168,128.362961 223.754211,135.664490 
	C223.358978,135.998703 222.919464,135.981415 222.919464,135.981415 
	C222.945572,135.235687 222.971680,134.489944 223.268707,133.161942 
	C223.687332,131.713272 223.835037,130.846893 223.982758,129.980499 
	C223.982758,129.980499 224.005463,129.488937 224.234726,129.126190 
	C224.729874,128.546524 224.886658,128.268127 224.934326,127.928246 
	C224.939789,125.271301 224.945251,122.614365 224.867126,119.282501 
	C224.609436,118.315643 224.361847,118.113953 224.040756,118.002495 
z"/>
<path fill="none" opacity="1.000000" stroke="none" 
	d="
M60.413700,249.156525 
	C60.855835,248.939651 61.297974,248.722778 62.176975,248.233490 
	C63.151443,247.382675 63.689045,246.804291 64.226654,246.225906 
	C64.226654,246.225906 64.155540,246.138382 64.472061,246.182098 
	C65.412003,246.041290 66.035431,245.856766 66.658859,245.672226 
	C66.658859,245.672226 66.852234,245.858093 66.949677,245.951294 
	C67.702835,249.353104 67.001366,251.498962 62.973953,251.291351 
	C61.546146,251.217728 60.087902,251.734589 58.327065,251.742691 
	C58.010571,251.503494 58.131550,251.058929 58.428673,250.978806 
	C59.288433,250.317963 59.851070,249.737244 60.413700,249.156525 
z"/>
<path fill="none" opacity="1.000000" stroke="none" 
	d="
M14.768778,256.045105 
	C15.781414,257.716278 16.443647,259.426544 17.158613,261.473328 
	C14.971916,261.761475 12.732488,261.713074 10.493057,261.664673 
	C11.801497,259.804504 13.109937,257.944366 14.768778,256.045105 
z"/>
<path fill="none" opacity="1.000000" stroke="none" 
	d="
M37.798634,246.062103 
	C36.386574,247.768555 34.552753,249.443390 32.376106,251.169479 
	C31.547623,249.409561 31.061964,247.598404 30.399706,245.128632 
	C32.847275,245.444992 35.112076,245.737732 37.798634,246.062103 
z"/>
<path fill="none" opacity="1.000000" stroke="none" 
	d="
M129.006805,171.528625 
	C128.448914,171.883972 128.072342,171.978012 127.407059,172.103638 
	C126.809212,170.404358 126.500053,168.673492 125.944778,165.564667 
	C128.575348,166.518402 130.430298,167.190933 132.646515,167.934830 
	C131.734543,169.093231 130.461319,170.180267 129.006805,171.528625 
z"/>
<path fill="none" opacity="1.000000" stroke="none" 
	d="
M77.002708,212.010223 
	C76.184769,212.917267 75.366829,213.824310 74.259010,214.834030 
	C73.858772,212.947342 73.278275,210.836090 73.754639,208.998856 
	C74.378662,206.592148 76.095001,206.101120 77.675568,208.875275 
	C77.315895,210.287125 77.159302,211.148682 77.002708,212.010223 
z"/>
<path fill="none" opacity="1.000000" stroke="none" 
	d="
M88.948578,201.503479 
	C86.402435,203.760498 84.013039,205.761383 81.317261,207.894150 
	C81.945427,202.756775 85.431175,200.137512 90.745087,199.042877 
	C90.452484,199.791977 89.778900,200.519653 88.948578,201.503479 
z"/>
<path fill="none" opacity="1.000000" stroke="none" 
	d="
M105.001068,219.998779 
	C107.498749,219.813232 109.996437,219.627716 112.494125,219.442184 
	C112.522774,220.068665 112.551422,220.695160 112.580070,221.321655 
	C110.060150,221.105438 107.629913,225.610825 105.011108,220.386749 
	C105.000000,220.000000 105.001068,219.998779 105.001068,219.998779 
z"/>
<path fill="none" opacity="1.000000" stroke="none" 
	d="
M118.582840,219.394867 
	C119.232132,217.780365 120.149437,216.438660 121.066742,215.096970 
	C121.678207,215.715302 122.289665,216.333633 122.901123,216.951965 
	C121.551025,217.857208 120.200928,218.762451 118.582840,219.394867 
z"/>
<path fill="none" opacity="1.000000" stroke="none" 
	d="
M210.031815,70.396729 
	C208.956390,70.955505 207.866669,71.133011 206.377808,71.418236 
	C206.801941,69.178864 207.625198,66.831764 208.746796,64.290939 
	C209.369278,66.069969 209.693390,68.042717 210.031815,70.396729 
z"/>
<path fill="none" opacity="1.000000" stroke="none" 
	d="
M128.227798,248.736664 
	C128.224167,249.809128 128.137161,251.457428 127.481270,251.728333 
	C126.436996,252.159622 124.990990,251.774155 123.767654,251.499283 
	C123.484306,251.435623 123.176453,250.359192 123.311264,249.866959 
	C123.450424,249.358856 124.073647,248.696213 124.558815,248.628387 
	C125.644623,248.476547 126.776230,248.652237 128.227798,248.736664 
z"/>
<path fill="none" opacity="1.000000" stroke="none" 
	d="
M205.714020,33.508930 
	C201.960037,33.810692 197.955612,33.854664 193.494873,33.847519 
	C197.180237,33.614647 201.321899,33.432896 205.714020,33.508930 
z"/>
<path fill="#DEE6FD" opacity="1.000000" stroke="none" 
	d="
M247.859711,72.079514 
	C246.131973,72.442558 244.028259,72.727638 241.599869,72.871765 
	C241.187302,72.374771 241.099411,72.018730 240.986572,71.388687 
	C243.135681,71.410309 245.309723,71.705933 247.859711,72.079514 
z"/>
<path fill="none" opacity="1.000000" stroke="none" 
	d="
M71.832581,216.643005 
	C71.487907,217.531052 70.996353,218.122192 70.219124,218.789429 
	C68.902817,217.240219 67.872185,215.614914 66.841545,213.989624 
	C67.246086,213.655869 67.650627,213.322113 68.055176,212.988358 
	C69.265350,214.107605 70.475525,215.226852 71.832581,216.643005 
z"/>
<path fill="#8C8FD9" opacity="1.000000" stroke="none" 
	d="
M264.732361,32.407822 
	C263.820984,32.803802 263.010223,32.904617 261.799805,33.037956 
	C262.036621,31.732588 262.673065,30.394699 263.309479,29.056810 
	C263.817291,30.075426 264.325134,31.094044 264.732361,32.407822 
z"/>
<path fill="#747ED8" opacity="1.000000" stroke="none" 
	d="
M229.593048,94.925148 
	C230.086319,94.913651 230.260513,94.936264 230.697571,94.974472 
	C228.554001,96.277802 226.147614,97.565552 223.375519,98.702118 
	C222.987701,98.348953 222.965591,98.146957 222.943512,97.944977 
	C223.528732,97.456459 224.113968,96.967941 225.198700,96.240593 
	C226.462524,95.682014 227.226837,95.362251 227.991150,95.042496 
	C228.418762,95.014755 228.846359,94.987015 229.593048,94.925148 
z"/>
<path fill="none" opacity="1.000000" stroke="none" 
	d="
M41.328342,268.963074 
	C42.345432,267.563599 43.756634,266.175354 45.493225,264.650879 
	C46.459423,267.843903 44.434166,268.724365 41.328342,268.963074 
z"/>
<path fill="none" opacity="1.000000" stroke="none" 
	d="
M25.039146,272.262451 
	C26.190664,272.530029 27.324745,273.193695 28.729561,274.047211 
	C28.166000,274.780975 27.331705,275.324860 26.497406,275.868744 
	C26.005507,274.798676 25.513609,273.728577 25.039146,272.262451 
z"/>
<path fill="none" opacity="1.000000" stroke="none" 
	d="
M29.027355,252.265900 
	C27.688293,253.072174 26.182713,253.519424 24.335182,253.899139 
	C24.725807,250.939316 26.302425,250.181625 29.027355,252.265900 
z"/>
<path fill="#747ED8" opacity="1.000000" stroke="none" 
	d="
M224.433136,112.806900 
	C223.858643,111.382980 223.402740,109.639168 223.027039,107.279449 
	C223.246994,106.396889 223.450043,106.193443 223.716400,106.053207 
	C223.994827,108.197800 224.273270,110.342400 224.433136,112.806900 
z"/>
<path fill="none" opacity="1.000000" stroke="none" 
	d="
M100.516258,229.645416 
	C99.636948,229.881912 98.907265,229.829132 98.177582,229.776337 
	C98.477837,229.001053 98.778084,228.225769 99.078339,227.450500 
	C99.607529,228.085709 100.136711,228.720917 100.516258,229.645416 
z"/>
<path fill="#DEE6FD" opacity="1.000000" stroke="none" 
	d="
M230.851273,70.899353 
	C229.532181,71.313248 228.001602,71.423218 226.222137,71.292206 
	C227.528763,70.899300 229.084259,70.747360 230.851273,70.899353 
z"/>
<path fill="none" opacity="1.000000" stroke="none" 
	d="
M188.874466,34.906467 
	C187.967316,35.838985 186.865677,36.474339 185.451645,37.196270 
	C185.195862,34.903576 185.972244,33.477547 188.874466,34.906467 
z"/>
<path fill="none" opacity="1.000000" stroke="none" 
	d="
M126.728531,172.079437 
	C125.988548,173.112488 124.867500,174.109756 123.429810,175.188934 
	C124.191261,174.195099 125.269363,173.119370 126.728531,172.079437 
z"/>
<path fill="#747DD8" opacity="1.000000" stroke="none" 
	d="
M55.931786,253.314331 
	C55.045254,253.910095 54.302750,254.315292 53.249474,254.788025 
	C53.399395,253.936691 53.860092,253.017807 54.969780,252.045898 
	C56.038586,251.983521 56.458397,251.974197 56.878212,251.964874 
	C56.610748,252.351181 56.343281,252.737473 55.931786,253.314331 
z"/>
<path fill="#DEE6FD" opacity="1.000000" stroke="none" 
	d="
M252.288788,67.926300 
	C251.693314,68.962898 250.753693,70.042030 249.505402,71.225105 
	C250.112686,70.208977 251.028656,69.088905 252.288788,67.926300 
z"/>
<path fill="#747DD8" opacity="1.000000" stroke="none" 
	d="
M55.849541,235.241547 
	C56.574791,234.565186 57.254654,234.150848 58.219475,233.687469 
	C57.790180,234.687943 57.075935,235.737457 55.983109,236.656235 
	C55.671074,236.184845 55.737614,235.844193 55.849541,235.241547 
z"/>
<path fill="none" opacity="1.000000" stroke="none" 
	d="
M77.285553,211.883484 
	C77.159302,211.148682 77.315895,210.287125 77.733109,209.220001 
	C78.433296,209.001434 78.872856,208.988464 79.642021,208.979919 
	C79.170547,209.908508 78.369476,210.832626 77.285553,211.883484 
z"/>
<path fill="#767FD7" opacity="1.000000" stroke="none" 
	d="
M259.698364,39.138905 
	C259.850739,39.961117 259.691681,40.924252 259.195740,41.898758 
	C259.034882,41.033360 259.210907,40.156597 259.698364,39.138905 
z"/>
<path fill="#7179DB" opacity="1.000000" stroke="none" 
	d="
M222.628860,98.011414 
	C222.965591,98.146957 222.987701,98.348953 223.053009,98.853111 
	C223.132614,99.562340 223.169022,99.969398 222.873520,100.685379 
	C222.357956,100.998566 222.174286,101.002838 221.990601,101.007103 
	C222.098465,100.030685 222.206345,99.054276 222.628860,98.011414 
z"/>
<path fill="#747ED8" opacity="1.000000" stroke="none" 
	d="
M221.987976,101.380424 
	C222.174286,101.002838 222.357956,100.998566 222.817261,100.988029 
	C223.256256,101.787109 223.419617,102.592468 223.247711,103.700768 
	C222.613510,103.999252 222.314545,103.996056 222.015564,103.994125 
	C222.005493,103.247330 221.995422,102.500542 221.987976,101.380424 
z"/>
<path fill="#717ADB" opacity="1.000000" stroke="none" 
	d="
M57.127350,251.951355 
	C56.458397,251.974197 56.038586,251.983521 55.303444,251.990784 
	C55.452026,251.362183 55.915939,250.735641 56.825974,250.301987 
	C57.558586,250.682877 57.845070,250.870895 58.131554,251.058929 
	C58.131550,251.058929 58.010571,251.503494 57.943016,251.723663 
	C57.875465,251.943848 57.376492,251.937851 57.127350,251.951355 
z"/>
<path fill="#7179DB" opacity="1.000000" stroke="none" 
	d="
M222.009003,104.333435 
	C222.314545,103.996056 222.613510,103.999252 223.134552,104.000595 
	C223.508850,104.445099 223.661041,104.892723 223.764832,105.696777 
	C223.450043,106.193443 223.246994,106.396889 223.019821,106.865524 
	C222.622421,106.269257 222.312439,105.471001 222.009003,104.333435 
z"/>
<path fill="#7179DB" opacity="1.000000" stroke="none" 
	d="
M222.676270,136.202667 
	C222.919464,135.981415 223.358978,135.998703 223.578568,136.003052 
	C223.723389,136.533035 223.648636,137.058685 223.343414,138.037872 
	C223.112961,138.491394 222.976913,138.919662 222.976913,138.919662 
	C222.976913,138.919662 223.003998,138.970383 222.976608,138.979706 
	C222.949219,138.989014 222.469925,138.993713 222.230164,138.994263 
	C222.137955,138.137848 222.285522,137.280884 222.676270,136.202667 
z"/>
<path fill="none" opacity="1.000000" stroke="none" 
	d="
M124.695023,246.749039 
	C124.991875,246.137283 125.657448,245.606232 126.664322,245.106781 
	C126.358337,245.702164 125.711037,246.265961 124.695023,246.749039 
z"/>
<path fill="#8C8FD9" opacity="1.000000" stroke="none" 
	d="
M263.822754,41.792355 
	C263.647858,41.160923 263.616119,40.256985 263.849060,39.202255 
	C264.064453,39.874260 264.015198,40.697056 263.822754,41.792355 
z"/>
<path fill="#8189D2" opacity="1.000000" stroke="none" 
	d="
M257.381226,37.409782 
	C257.157074,36.968178 257.063232,36.280521 256.976105,35.323353 
	C257.159027,35.757137 257.335266,36.460430 257.381226,37.409782 
z"/>
<path fill="#8C8FD9" opacity="1.000000" stroke="none" 
	d="
M265.627747,46.202469 
	C265.099274,46.296413 264.198486,46.387344 263.179596,46.184700 
	C263.792816,45.993904 264.524139,46.096680 265.627747,46.202469 
z"/>
<path fill="#8C8FD9" opacity="1.000000" stroke="none" 
	d="
M269.402161,42.744995 
	C269.353485,43.106461 269.040558,43.536041 268.437622,44.010452 
	C268.477692,43.641228 268.807800,43.227173 269.402161,42.744995 
z"/>
<path fill="none" opacity="1.000000" stroke="none" 
	d="
M212.749847,61.989010 
	C212.587051,62.097069 212.422836,62.043938 212.258636,61.990807 
	C212.421906,61.936478 212.585159,61.882149 212.749847,61.989010 
z"/>
<path fill="#8C8FD9" opacity="1.000000" stroke="none" 
	d="
M270.476685,41.634682 
	C270.578918,41.851841 270.453186,42.215309 270.030518,42.641685 
	C269.905243,42.396725 270.076965,42.088860 270.476685,41.634682 
z"/>
<path fill="none" opacity="1.000000" stroke="none" 
	d="
M212.410858,41.910027 
	C212.260483,41.826103 212.238235,41.660187 212.329239,41.270142 
	C212.713181,41.285168 212.745346,41.545845 212.410858,41.910027 
z"/>
<path fill="#8C8FD9" opacity="1.000000" stroke="none" 
	d="
M264.237610,38.964211 
	C264.036346,38.848763 264.066833,38.615147 264.285553,38.252937 
	C264.588409,38.355129 264.586945,38.595699 264.237610,38.964211 
z"/>
<path fill="none" opacity="1.000000" stroke="none" 
	d="
M207.841370,34.472004 
	C207.973373,34.634827 207.528488,34.653931 207.528488,34.653931 
	C207.528488,34.653931 207.150742,34.418056 207.040222,34.223755 
	C207.223587,34.027973 207.483475,34.121216 207.841370,34.472004 
z"/>
<path fill="none" opacity="1.000000" stroke="none" 
	d="
M211.898285,37.880787 
	C211.711349,37.900990 211.473984,37.679108 211.194611,37.210293 
	C211.469879,37.100422 211.701614,37.325539 211.898285,37.880787 
z"/>
<path fill="#767FD7" opacity="1.000000" stroke="none" 
	d="
M260.914612,36.195591 
	C261.026062,36.139050 260.928589,36.471470 260.912567,36.551323 
	C260.896545,36.631176 260.803131,36.252132 260.914612,36.195591 
z"/>
<path fill="none" opacity="1.000000" stroke="none" 
	d="
M209.912628,35.620983 
	C209.687378,35.851868 209.398560,35.730736 209.066528,35.234444 
	C209.282471,35.052620 209.557724,35.189178 209.912628,35.620983 
z"/>
<path fill="#8189D2" opacity="1.000000" stroke="none" 
	d="
M253.790497,34.033295 
	C253.969025,34.209187 253.886597,34.433731 253.618439,34.762020 
	C253.324829,34.601944 253.357117,34.340672 253.790497,34.033295 
z"/>
<path fill="none" opacity="1.000000" stroke="none" 
	d="
M104.000473,218.999634 
	C104.325050,219.098587 104.586777,219.285294 104.893600,219.779099 
	C105.001068,219.998779 105.000000,220.000000 104.999275,220.000549 
	C104.674652,219.901520 104.413078,219.714706 104.106537,219.220917 
	C103.999237,219.001221 104.000000,219.000000 104.000473,218.999634 
z"/>
<path fill="#767FD7" opacity="1.000000" stroke="none" 
	d="
M263.048553,44.747154 
	C262.817444,44.818272 262.636261,44.653606 262.499725,44.457794 
	C262.474426,44.421513 262.629211,44.259632 262.874908,44.075226 
	C263.070557,44.163368 263.092224,44.332001 263.048553,44.747154 
z"/>
<path fill="#8C8FD9" opacity="1.000000" stroke="none" 
	d="
M271.258484,45.955051 
	C271.225189,45.806442 271.378906,45.503204 271.781555,45.114006 
	C271.866364,45.308857 271.671356,45.566315 271.258484,45.955051 
z"/>
<path fill="#DEE6FD" opacity="1.000000" stroke="none" 
	d="
M249.069443,54.121712 
	C249.333817,54.044807 249.528320,54.264168 249.619812,54.786884 
	C249.352203,54.849640 249.179794,54.625549 249.069443,54.121712 
z"/>
<path fill="#DEE6FD" opacity="1.000000" stroke="none" 
	d="
M250.121689,59.012943 
	C250.436676,58.936718 250.625351,59.188408 250.664810,59.771503 
	C250.363541,59.826298 250.190125,59.572281 250.121689,59.012943 
z"/>
<path fill="#DEE6FD" opacity="1.000000" stroke="none" 
	d="
M251.610077,61.136475 
	C251.820190,61.177376 251.862640,61.604584 251.827667,61.816540 
	C251.512589,61.916706 251.293076,61.732639 251.053375,61.273773 
	C250.972549,61.071255 251.399963,61.095570 251.610077,61.136475 
z"/>
<path fill="#DEE6FD" opacity="1.000000" stroke="none" 
	d="
M219.889648,70.512947 
	C219.838852,70.682289 219.671173,70.739571 219.240082,70.761047 
	C219.163315,70.391487 219.428680,70.283371 219.889648,70.512947 
z"/>
<path fill="#DEE6FD" opacity="1.000000" stroke="none" 
	d="
M223.925156,70.594818 
	C223.847046,70.747620 223.671509,70.771530 223.245377,70.706696 
	C223.237564,70.322273 223.515198,70.271599 223.925156,70.594818 
z"/>
<path fill="#747ED8" opacity="1.000000" stroke="none" 
	d="
M223.107773,138.850235 
	C222.976913,138.919662 223.112961,138.491394 223.153473,138.391556 
	C223.193985,138.291718 223.369995,138.521957 223.369995,138.521957 
	C223.369995,138.521957 223.238632,138.780807 223.107773,138.850235 
z"/>
<path fill="#767FD2" opacity="1.000000" stroke="none" 
	d="
M172.234924,268.923492 
	C172.043213,268.662537 172.206772,268.385895 172.702744,268.067688 
	C172.775604,268.254242 172.627258,268.548157 172.234924,268.923492 
z"/>
<path fill="#717ADB" opacity="1.000000" stroke="none" 
	d="
M153.970398,273.627869 
	C153.756729,274.056915 153.546860,274.109100 153.033249,274.278809 
	C152.729523,274.396301 152.722137,274.311707 152.713226,273.939545 
	C152.068802,272.731018 151.433289,271.894653 150.797791,271.058289 
	C150.351471,269.325165 149.905136,267.592041 149.700897,265.645203 
	C150.282120,265.612274 150.621246,265.793060 150.960373,265.973846 
	C151.964981,268.399567 152.969589,270.825287 153.970398,273.627869 
z"/>
<path fill="#767FD2" opacity="1.000000" stroke="none" 
	d="
M150.973541,265.576569 
	C150.621246,265.793060 150.282120,265.612274 149.790375,265.320831 
	C149.381348,263.786072 149.124924,262.361938 148.814804,260.508514 
	C149.330048,260.604431 149.898987,261.129639 150.715164,261.823120 
	C150.970505,263.054016 150.978622,264.116669 150.973541,265.576569 
z"/>
<path fill="#747DD8" opacity="1.000000" stroke="none" 
	d="
M58.428677,250.978806 
	C57.845070,250.870895 57.558586,250.682877 57.146034,250.268921 
	C57.897640,249.713348 58.775322,249.383713 60.033352,249.105286 
	C59.851070,249.737244 59.288433,250.317963 58.428677,250.978806 
z"/>
<path fill="#7179DB" opacity="1.000000" stroke="none" 
	d="
M223.662491,130.034805 
	C223.835037,130.846893 223.687332,131.713272 223.280853,132.789032 
	C223.128815,132.028625 223.235519,131.058868 223.662491,130.034805 
z"/>
<path fill="#747DD8" opacity="1.000000" stroke="none" 
	d="
M63.876785,246.178253 
	C63.689045,246.804291 63.151443,247.382675 62.307854,248.019867 
	C62.510223,247.429321 63.018578,246.779968 63.876785,246.178253 
z"/>
<path fill="#747DD8" opacity="1.000000" stroke="none" 
	d="
M66.674606,245.473099 
	C66.035431,245.856766 65.412003,246.041290 64.462997,246.237762 
	C64.761108,245.809387 65.384811,245.369064 66.321625,244.903564 
	C66.634743,244.878372 66.690361,245.273972 66.674606,245.473099 
z"/>
<path fill="#7179DB" opacity="1.000000" stroke="none" 
	d="
M227.656647,95.032494 
	C227.226837,95.362251 226.462524,95.682014 225.367310,96.005249 
	C225.798340,95.679985 226.560257,95.351242 227.656647,95.032494 
z"/>
<path fill="#767FD7" opacity="1.000000" stroke="none" 
	d="
M254.297348,54.889812 
	C254.264435,54.437290 254.516998,53.982456 254.868073,53.286171 
	C254.838669,53.658978 254.710739,54.273239 254.297348,54.889812 
z"/>
<path fill="#7179DB" opacity="1.000000" stroke="none" 
	d="
M224.131104,118.224487 
	C224.361847,118.113953 224.609436,118.315643 224.860672,118.839722 
	C224.642624,118.927994 224.403824,118.719536 224.131104,118.224487 
z"/>
<path fill="#7179DB" opacity="1.000000" stroke="none" 
	d="
M224.733414,128.059998 
	C224.886658,128.268127 224.729874,128.546524 224.250732,128.880661 
	C224.111496,128.673294 224.276505,128.404572 224.733414,128.059998 
z"/>
<path fill="#717ADC" opacity="1.000000" stroke="none" 
	d="
M160.246277,130.929123 
	C160.102036,130.719849 160.264648,130.446503 160.739441,130.116730 
	C160.879074,130.327026 160.712921,130.595276 160.246277,130.929123 
z"/>
<path fill="#767FD2" opacity="1.000000" stroke="none" 
	d="
M150.831909,271.399597 
	C151.433289,271.894653 152.068802,272.731018 152.729370,273.900269 
	C152.124939,273.402405 151.495483,272.571625 150.831909,271.399597 
z"/>
</svg>