<svg version="1.1" id="Layer_1" xmlns="http://www.w3.org/2000/svg" xmlns:xlink="http://www.w3.org/1999/xlink" x="0px" y="0px"
	 width="100%" viewBox="0 0 302 294" enable-background="new 0 0 302 294" xml:space="preserve">
<path fill="none" opacity="1.000000" stroke="none" 
	d="
M88.000000,295.000000 
	C59.010872,295.000000 30.021742,295.000000 1.016306,295.000000 
	C1.016306,197.047607 1.016306,99.095215 1.016306,1.071410 
	C101.581284,1.071410 202.162643,1.071410 302.872009,1.071410 
	C302.872009,98.877769 302.872009,196.755768 302.872009,295.000000 
	C239.979584,295.000000 176.958450,295.000000 113.526611,294.645325 
	C117.151314,291.511383 118.821785,287.329956 120.022049,282.563538 
	C120.636536,281.830841 121.151428,281.345276 122.038345,280.881287 
	C126.547646,276.980682 131.406967,273.546997 134.526352,268.936157 
	C136.156662,266.526367 140.564285,263.145874 136.808655,258.576752 
	C136.950974,257.842133 137.035370,257.422943 137.441650,256.944458 
	C138.015411,256.695038 138.515244,256.424469 138.483429,256.326508 
	C137.205154,252.389343 136.551041,248.550812 139.610886,245.007660 
	C139.690903,244.915024 138.436996,243.670425 137.825974,242.627319 
	C137.985184,241.866974 138.123596,241.442383 138.596695,240.960373 
	C141.871857,238.535477 143.017090,235.971588 139.772079,232.605835 
	C139.801743,231.851227 139.862823,231.421677 140.325012,230.989655 
	C142.921158,230.329559 145.096741,229.195969 147.314987,229.105240 
	C153.512283,228.851746 155.450256,223.464935 159.004486,220.010681 
	C159.000778,219.996750 159.026230,220.010880 159.420197,220.013550 
	C161.844849,218.967194 163.875519,217.918152 165.949677,216.896301 
	C165.993164,216.923523 165.890640,216.919296 166.103256,216.889999 
	C166.597809,216.760101 166.809265,216.577789 167.240860,216.091690 
	C169.900131,214.730881 172.332291,213.705597 174.621140,212.424332 
	C177.404968,210.865967 179.286194,210.819687 181.755005,213.608536 
	C183.211838,215.254227 186.751892,215.763840 189.270264,215.585617 
	C192.548660,215.353653 195.742889,213.932220 198.999268,213.450012 
	C198.502579,216.547729 198.699387,219.689316 197.318497,221.797546 
	C193.610016,227.459412 189.226913,232.679428 185.059113,238.056686 
	C185.006516,238.038467 185.081665,238.120575 184.780533,238.220795 
	C184.126877,239.604324 183.774353,240.887619 183.381012,242.434631 
	C183.329620,243.052917 183.319031,243.407486 183.083588,244.002319 
	C180.424988,252.261475 178.285324,260.386505 175.444733,268.258575 
	C173.800262,272.815918 173.604019,276.850616 176.068710,281.305176 
	C176.053802,282.090912 176.094894,282.541199 176.059311,283.368835 
	C176.256927,284.446289 176.491913,285.736420 176.811432,285.757690 
	C181.335480,286.059082 190.470657,279.037445 192.028763,274.672485 
	C193.963272,269.253082 195.322784,263.200714 198.754669,258.865784 
	C202.078171,254.667740 207.488327,251.886398 212.381104,249.213364 
	C223.710739,243.023666 229.567703,232.361649 236.160492,221.864197 
	C236.993362,220.120239 237.425049,218.404572 237.885269,216.400482 
	C238.064240,215.757706 238.214645,215.403351 238.709686,215.025360 
	C243.510330,211.983368 244.365997,207.806274 242.962341,202.563751 
	C243.105286,201.805756 243.235626,201.382019 243.526627,200.826935 
	C243.873932,200.473373 243.969391,200.217133 243.985336,199.690491 
	C243.996994,199.454117 244.183868,199.019241 244.506973,198.954254 
	C246.533569,197.680817 248.237061,196.472366 249.940552,195.263916 
	C252.706512,190.316650 247.376389,184.076202 250.847870,179.488678 
	C254.304077,180.064697 256.769531,180.475586 259.620697,180.904205 
	C261.968140,180.600510 263.929871,180.279099 266.141418,179.886871 
	C266.594208,179.545807 266.797211,179.275574 267.000122,179.002686 
	C267.000000,179.000000 267.005005,179.001190 267.381378,179.005630 
	C268.831238,178.328918 269.904724,177.647781 270.989105,176.983307 
	C271.000000,177.000000 270.971466,176.972641 271.233826,176.998474 
	C271.970581,176.845444 272.444977,176.666550 273.318909,176.375519 
	C274.823029,176.211456 275.927643,176.159561 277.278534,176.363281 
	C279.922882,175.742584 284.361206,177.938614 283.758057,172.135727 
	C284.599121,169.193909 285.411041,166.615295 286.574615,163.936615 
	C287.271851,159.867813 287.617493,155.899063 288.043427,151.676453 
	C288.220306,151.273682 288.316895,151.124756 288.564331,150.859482 
	C288.893066,150.546295 288.993958,150.315750 289.044067,149.779053 
	C289.128479,149.333725 289.186676,149.160812 289.437805,148.821442 
	C289.699707,148.328445 289.768646,148.001907 289.826782,147.363708 
	C289.206390,145.614365 288.596863,144.176682 287.818665,142.549805 
	C287.324371,142.294952 286.998749,142.229324 286.310730,142.152222 
	C284.301727,141.753098 282.655151,141.365448 280.985046,140.600647 
	C280.892242,139.472000 280.822937,138.720505 280.919006,137.635040 
	C285.439636,126.502228 286.109772,115.177475 284.039642,104.003883 
	C281.728210,91.527824 274.105042,82.606384 262.296265,77.500122 
	C256.520630,75.002655 250.773636,72.438972 245.011459,69.512573 
	C244.490906,67.678337 244.401642,65.612518 243.376694,64.908035 
	C239.781525,62.436974 231.412689,63.635670 227.485428,66.692169 
	C227.278152,66.638222 226.998306,66.313889 226.904236,65.996002 
	C225.867645,65.470787 224.925110,65.263458 223.609283,65.042915 
	C222.500900,64.904533 221.765823,64.779366 220.957779,64.313301 
	C219.208618,63.337471 217.532410,62.702530 215.508591,61.916733 
	C212.172607,62.093445 209.166641,62.309093 206.200104,62.775517 
	C202.029404,63.431267 197.887955,64.273178 193.747467,64.587677 
	C194.361023,60.243584 195.002655,56.352943 195.534882,52.447399 
	C195.686646,51.333668 195.961700,49.875011 195.425339,49.090969 
	C192.918045,45.425941 190.312576,41.800179 187.433884,38.423203 
	C182.187057,32.268177 175.278351,35.236656 168.838074,35.191601 
	C162.438705,35.146828 158.538391,38.814114 156.133301,43.737858 
	C153.996445,48.112453 150.519501,52.564499 152.726227,58.126534 
	C154.806229,63.369114 156.927902,68.596024 158.931213,73.867836 
	C160.179291,77.152191 159.438736,79.888496 156.786682,82.411308 
	C153.175735,85.846306 149.548798,89.361626 146.529144,93.302567 
	C138.107193,104.294083 132.586884,116.029831 138.376877,130.298141 
	C139.868668,133.974411 140.354065,138.052704 141.771133,141.767258 
	C143.533142,146.385941 142.567627,150.390808 140.538834,154.659515 
	C134.124847,168.155075 128.053482,181.813202 121.676643,195.326843 
	C119.222672,200.527237 115.452789,205.248047 113.800964,210.651566 
	C111.484207,218.230255 110.684036,226.263794 108.995102,234.050690 
	C108.663826,235.578003 107.567535,237.510925 106.271202,238.171036 
	C88.930969,247.001022 71.650894,255.978470 54.014553,264.185852 
	C44.516808,268.605804 35.164196,267.390869 27.392363,259.456818 
	C25.651615,257.679749 23.702997,256.091827 21.748444,254.545273 
	C20.872860,253.852432 19.024137,252.844986 18.843140,253.052048 
	C16.400173,255.846985 13.704406,258.602997 12.114359,261.875488 
	C11.439406,263.264587 12.574730,266.793304 13.961250,267.691132 
	C18.369989,270.546051 23.283831,272.620972 28.267414,275.266998 
	C34.600597,277.782410 40.425278,277.313782 46.354507,273.925049 
	C62.714981,266.192352 78.712898,258.504578 95.085266,250.995178 
	C98.817963,252.602997 101.467552,252.870667 100.937531,247.884552 
	C100.979073,247.911560 100.880249,247.918777 101.102890,247.880890 
	C101.618629,247.725662 101.832054,247.524033 102.284225,247.039825 
	C103.307083,246.598190 104.011505,246.354843 104.795212,246.534363 
	C105.210243,249.239883 105.926208,251.547455 105.778748,253.798462 
	C105.619652,256.227020 104.448517,258.571503 104.076355,261.007263 
	C102.948631,268.388184 102.148018,268.950134 95.366356,266.381500 
	C92.286301,269.112000 91.519791,275.090454 86.408653,273.695129 
	C85.975555,279.744690 85.561913,285.522430 85.382729,291.492859 
	C86.407692,291.852692 87.198196,292.019806 87.992485,292.538544 
	C87.997505,293.593445 87.998749,294.296722 88.000000,295.000000 
z"/>
<path fill="none" opacity="1.000000" stroke="none" 
	d="
M88.466110,295.000000 
	C87.998749,294.296722 87.997505,293.593445 88.431282,292.477051 
	C99.808174,290.959137 110.430634,288.782257 119.922440,282.810669 
	C118.821785,287.329956 117.151314,291.511383 113.057953,294.645325 
	C112.555557,295.000000 112.111107,295.000000 111.252975,294.619141 
	C108.025055,292.422150 105.314842,291.676483 103.000000,295.000000 
	C98.310745,295.000000 93.621490,295.000000 88.466110,295.000000 
z"/>
<path fill="none" opacity="1.000000" stroke="none" 
	d="
M103.444168,295.000000 
	C105.314842,291.676483 108.025055,292.422150 110.919640,294.619141 
	C108.629440,295.000000 106.258888,295.000000 103.444168,295.000000 
z"/>
<path fill="#5B6BF5" opacity="1.000000" stroke="none" 
	d="
M280.753632,137.969025 
	C280.822937,138.720505 280.892242,139.472000 281.012573,140.961792 
	C282.169434,142.553406 283.446075,143.260529 284.335144,144.299377 
	C285.307831,145.435928 286.808350,147.813751 286.560364,148.048874 
	C282.624268,151.780380 284.172882,156.517487 284.061462,160.844833 
	C283.855103,168.859695 281.064545,172.305542 273.149719,174.194382 
	C269.369598,175.096497 265.709381,176.501297 262.896942,177.392532 
	C259.177734,175.066528 255.914291,173.025558 252.580093,170.940338 
	C256.567719,161.517349 260.900299,151.279282 265.616943,140.133606 
	C266.812256,142.477570 267.339539,143.511505 267.866791,144.545441 
	C268.771912,142.918823 268.971588,141.431641 268.503265,140.198059 
	C265.766266,132.988815 262.773712,125.876175 260.061890,118.657883 
	C257.656464,112.255119 243.783539,107.334114 238.036865,111.083298 
	C237.169586,111.649109 236.289322,112.761215 236.123764,113.740448 
	C235.318268,118.504295 232.962952,123.101578 235.731491,128.195877 
	C237.168869,130.840759 237.309692,134.233337 237.835358,137.322327 
	C239.230835,145.522598 240.516922,153.741486 241.847443,161.952805 
	C241.900681,162.281357 241.891922,162.643723 242.033234,162.930664 
	C244.017456,166.959900 246.022797,170.978760 247.695038,175.173553 
	C246.581665,177.448593 245.566757,179.496185 245.056473,181.662628 
	C243.821915,186.903854 243.349670,192.380920 241.618469,197.437073 
	C238.063095,207.820892 235.729141,218.569580 229.384857,228.064941 
	C223.534393,236.821198 217.054718,244.170166 207.622971,249.082748 
	C199.065399,253.540009 191.935211,259.201691 190.727997,270.171539 
	C190.219788,274.789703 187.879257,279.829376 181.651917,281.045654 
	C178.183456,282.448242 178.111603,279.482727 176.853821,277.700592 
	C176.477478,276.249237 176.237930,275.121552 176.291016,273.962341 
	C176.699860,273.291809 176.816086,272.652802 176.948303,271.638184 
	C176.979507,270.510773 176.994736,269.759003 177.310440,268.966309 
	C177.737152,267.950470 177.863388,266.975616 178.018158,265.702881 
	C178.361908,264.929138 178.677124,264.453186 179.333160,263.926941 
	C179.777771,262.584991 179.881546,261.293335 179.993591,259.606262 
	C180.016907,258.156189 180.031921,257.101532 180.253143,255.923004 
	C180.719543,255.590317 180.889084,255.323837 180.979980,254.635284 
	C181.326401,253.176208 181.660797,252.081558 182.221771,250.845215 
	C182.317307,250.120331 182.186279,249.537125 182.189026,248.680359 
	C183.210754,247.587723 184.098709,246.768646 185.234314,245.946442 
	C185.744720,245.793488 186.007477,245.643661 186.270233,245.493835 
	C185.842056,245.342239 185.413895,245.190643 184.978302,244.781158 
	C184.965317,244.351349 184.959763,244.179443 185.148193,243.877472 
	C185.222107,243.163315 185.102036,242.579193 184.992477,241.607208 
	C185.029221,240.186432 185.055435,239.153503 185.081665,238.120575 
	C185.081665,238.120575 185.006516,238.038467 185.418793,238.050842 
	C186.550964,238.041718 187.270844,238.020203 188.138321,238.158722 
	C188.513885,237.878784 188.741852,237.438782 188.984375,236.651550 
	C189.667389,235.205032 190.335846,234.105759 191.089218,233.171219 
	C191.428345,233.218079 191.682571,233.100204 191.957916,232.627136 
	C192.658279,230.851044 193.337479,229.430130 194.230896,227.900528 
	C194.713287,227.595322 194.896606,227.338318 195.302612,226.877960 
	C197.717880,224.484818 199.825623,222.234482 202.190247,219.826584 
	C202.603790,219.106766 202.760452,218.544525 202.929825,217.615051 
	C202.610001,215.831451 202.277466,214.415085 201.945435,212.605469 
	C200.584732,211.541245 199.186554,210.254105 197.870361,210.333099 
	C195.448959,210.478439 192.976929,211.182861 190.706497,212.100739 
	C187.571762,213.368011 185.051804,212.755096 182.458145,210.782043 
	C180.940765,209.627747 179.036362,208.982254 177.872757,208.394257 
	C177.338837,204.705368 177.107285,201.328964 176.276978,198.106857 
	C175.851898,196.457260 174.391174,195.057938 173.333389,193.592529 
	C172.223221,192.054550 171.035141,190.572830 169.881104,189.066528 
	C168.242233,190.699158 166.603363,192.331787 164.601807,193.984497 
	C163.598083,194.151901 162.653610,194.077911 162.360840,194.479279 
	C156.551605,202.443710 145.328308,205.589859 142.809677,216.356720 
	C142.570480,217.379318 144.168350,218.831635 144.939209,220.466583 
	C143.959686,222.085266 142.998016,223.360764 141.938751,224.549286 
	C140.348984,226.333023 137.842957,227.802460 137.229752,229.854691 
	C135.734543,234.858734 134.867401,240.090820 134.205475,245.289413 
	C133.757919,248.804398 134.088791,252.418488 134.049438,256.366486 
	C128.722748,274.878387 105.196526,292.523499 90.476074,289.324860 
	C90.902512,287.807068 92.078171,286.006561 91.628799,284.823120 
	C89.263786,278.594849 93.436455,277.139954 97.813179,276.063477 
	C101.973061,275.040314 104.820076,273.000183 106.610359,268.937347 
	C109.847298,261.591522 110.030380,253.930740 109.781364,246.165512 
	C109.769028,245.780655 109.202545,245.413574 108.748177,244.796585 
	C108.066750,244.415970 107.531235,244.277008 106.839951,243.869598 
	C105.994545,243.206085 105.304916,242.811005 105.639297,243.002563 
	C107.743340,239.589081 110.454086,236.486633 111.660324,232.880890 
	C112.942581,229.047913 112.145103,224.518326 113.431534,220.687805 
	C115.343445,214.994843 118.235954,209.624054 120.806686,204.161133 
	C124.765671,195.748093 126.257355,186.441177 132.450256,178.714905 
	C136.652115,173.472641 137.369034,165.584793 140.900604,159.624359 
	C146.791824,149.681366 144.325012,140.411087 140.978760,130.621902 
	C139.301819,125.716064 137.304047,119.901680 138.459625,115.244659 
	C141.433762,103.258904 147.449646,92.590820 157.843674,85.044479 
	C162.286591,81.818787 163.360748,76.273872 160.949554,71.401909 
	C158.623932,66.702881 156.623184,61.840527 154.570190,57.011463 
	C154.201111,56.143284 153.993515,55.030872 154.180939,54.128792 
	C156.097061,44.906628 163.312897,38.326199 172.733612,37.050285 
	C178.085678,36.325417 183.383606,36.900299 186.667038,41.428757 
	C189.813309,45.768047 194.463928,50.005489 191.406448,56.648247 
	C190.571259,58.462814 191.095413,60.903030 190.830994,63.127392 
	C190.776230,63.447254 190.886185,63.695850 191.112579,64.174179 
	C191.504395,64.601593 191.779785,64.799271 192.110886,65.358093 
	C195.272186,66.119049 198.613251,67.447075 201.435684,66.730942 
	C207.871704,65.097908 213.954666,62.665760 220.038956,67.743942 
	C221.274612,68.775261 223.502808,68.722748 225.301208,68.953773 
	C229.880600,69.542053 234.780518,69.166107 239.002380,70.694618 
	C248.408401,74.100060 257.986816,77.578331 266.526123,82.656250 
	C273.445648,86.770966 279.573273,93.329399 280.814636,101.732521 
	C282.082336,110.313934 281.387268,119.188118 281.484436,127.934875 
	C281.493195,128.721603 281.219910,129.694260 280.720764,130.272491 
	C278.454742,132.897491 279.194702,135.413223 280.753632,137.969025 
M189.747803,169.938553 
	C189.529175,170.110764 189.310547,170.282974 188.786163,170.713394 
	C188.786163,170.713394 188.441986,170.917679 188.190353,170.321243 
	C184.029510,171.554962 183.190582,173.935120 186.048309,176.888077 
	C189.018768,179.957550 192.137726,182.887115 195.268967,185.794678 
	C196.131927,186.595978 197.800201,187.862549 198.183105,187.596664 
	C199.300156,186.821045 200.929901,184.961304 200.632111,184.265244 
	C198.641327,179.612061 196.331085,175.074524 193.760956,170.713760 
	C193.391266,170.086517 191.066360,170.611618 189.651230,170.495575 
	C189.651230,170.495575 189.693909,170.396423 189.747803,169.938553 
z"/>
<path fill="#727BDA" opacity="1.000000" stroke="none" 
	d="
M192.055161,64.996956 
	C191.779785,64.799271 191.504395,64.601593 191.114883,63.952446 
	C191.000748,63.500980 190.995728,63.056126 190.995728,63.056126 
	C191.095413,60.903030 190.571259,58.462814 191.406448,56.648247 
	C194.463928,50.005489 189.813309,45.768047 186.667038,41.428757 
	C183.383606,36.900299 178.085678,36.325417 172.733612,37.050285 
	C163.312897,38.326199 156.097061,44.906628 154.180939,54.128792 
	C153.993515,55.030872 154.201111,56.143284 154.570190,57.011463 
	C156.623184,61.840527 158.623932,66.702881 160.949554,71.401909 
	C163.360748,76.273872 162.286591,81.818787 157.843674,85.044479 
	C147.449646,92.590820 141.433762,103.258904 138.459625,115.244659 
	C137.304047,119.901680 139.301819,125.716064 140.978760,130.621902 
	C144.325012,140.411087 146.791824,149.681366 140.900604,159.624359 
	C137.369034,165.584793 136.652115,173.472641 132.450256,178.714905 
	C126.257355,186.441177 124.765671,195.748093 120.806686,204.161133 
	C118.235954,209.624054 115.343445,214.994843 113.431534,220.687805 
	C112.145103,224.518326 112.942581,229.047913 111.660324,232.880890 
	C110.454086,236.486633 107.743340,239.589081 105.639297,243.002563 
	C105.304916,242.811005 105.994545,243.206085 106.695724,244.090729 
	C106.043488,245.090714 105.379715,245.601105 104.715935,246.111511 
	C104.011505,246.354843 103.307083,246.598190 102.048569,247.044510 
	C101.161133,247.353516 100.956390,247.577271 100.880249,247.918777 
	C100.880249,247.918777 100.979073,247.911560 100.590714,247.905701 
	C98.371841,248.872177 96.541336,249.844498 94.710815,250.816803 
	C78.712898,258.504578 62.714981,266.192352 46.354500,273.667328 
	C45.989639,273.282715 45.987350,273.110901 46.152702,272.646790 
	C48.263615,271.063812 50.206882,269.773163 51.648273,268.815826 
	C45.708599,268.194611 39.138306,268.744843 33.633400,266.582672 
	C28.160522,264.433044 23.758480,259.557068 18.337191,255.461380 
	C17.895992,256.091644 17.417313,257.005676 16.730282,257.719147 
	C12.486394,262.126434 13.073259,265.739716 18.515755,268.688660 
	C21.698454,270.413208 24.838867,272.215790 27.999226,274.236755 
	C28.000929,274.659271 28.001707,274.828278 28.002485,274.997284 
	C23.283831,272.620972 18.369989,270.546051 13.961250,267.691132 
	C12.574730,266.793304 11.439406,263.264587 12.114359,261.875488 
	C13.704406,258.602997 16.400173,255.846985 18.843140,253.052048 
	C19.024137,252.844986 20.872860,253.852432 21.748444,254.545273 
	C23.702997,256.091827 25.651615,257.679749 27.392363,259.456818 
	C35.164196,267.390869 44.516808,268.605804 54.014553,264.185852 
	C71.650894,255.978470 88.930969,247.001022 106.271202,238.171036 
	C107.567535,237.510925 108.663826,235.578003 108.995102,234.050690 
	C110.684036,226.263794 111.484207,218.230255 113.800964,210.651566 
	C115.452789,205.248047 119.222672,200.527237 121.676643,195.326843 
	C128.053482,181.813202 134.124847,168.155075 140.538834,154.659515 
	C142.567627,150.390808 143.533142,146.385941 141.771133,141.767258 
	C140.354065,138.052704 139.868668,133.974411 138.376877,130.298141 
	C132.586884,116.029831 138.107193,104.294083 146.529144,93.302567 
	C149.548798,89.361626 153.175735,85.846306 156.786682,82.411308 
	C159.438736,79.888496 160.179291,77.152191 158.931213,73.867836 
	C156.927902,68.596024 154.806229,63.369114 152.726227,58.126534 
	C150.519501,52.564499 153.996445,48.112453 156.133301,43.737858 
	C158.538391,38.814114 162.438705,35.146828 168.838074,35.191601 
	C175.278351,35.236656 182.187057,32.268177 187.433884,38.423203 
	C190.312576,41.800179 192.918045,45.425941 195.425339,49.090969 
	C195.961700,49.875011 195.686646,51.333668 195.534882,52.447399 
	C195.002655,56.352943 194.361023,60.243584 193.468353,64.576538 
	C192.802246,65.007782 192.428696,65.002373 192.055161,64.996956 
z"/>
<path fill="#6F78DE" opacity="1.000000" stroke="none" 
	d="
M248.022995,175.000122 
	C246.022797,170.978760 244.017456,166.959900 242.033234,162.930664 
	C241.891922,162.643723 241.900681,162.281357 241.847443,161.952805 
	C240.516922,153.741486 239.230835,145.522598 237.835358,137.322327 
	C237.309692,134.233337 237.168869,130.840759 235.731491,128.195877 
	C232.962952,123.101578 235.318268,118.504295 236.123764,113.740448 
	C236.289322,112.761215 237.169586,111.649109 238.036865,111.083298 
	C243.783539,107.334114 257.656464,112.255119 260.061890,118.657883 
	C262.773712,125.876175 265.766266,132.988815 268.503265,140.198059 
	C268.971588,141.431641 268.771912,142.918823 267.866791,144.545441 
	C267.339539,143.511505 266.812256,142.477570 265.616943,140.133606 
	C260.900299,151.279282 256.567719,161.517349 252.580093,170.940338 
	C255.914291,173.025558 259.177734,175.066528 262.896942,177.392532 
	C265.709381,176.501297 269.369598,175.096497 273.149719,174.194382 
	C281.064545,172.305542 283.855103,168.859695 284.061462,160.844833 
	C284.172882,156.517487 282.624268,151.780380 286.560364,148.048874 
	C286.808350,147.813751 285.307831,145.435928 284.335144,144.299377 
	C283.446075,143.260529 282.169434,142.553406 281.036072,141.338943 
	C282.655151,141.365448 284.301727,141.753098 286.479309,142.346558 
	C287.335938,142.614578 287.661621,142.676804 287.987305,142.739014 
	C288.596863,144.176682 289.206390,145.614365 289.624329,147.527176 
	C289.370087,148.330841 289.307465,148.659363 289.244843,148.987900 
	C289.186676,149.160812 289.128479,149.333725 288.850342,149.862885 
	C288.369965,150.417435 288.297668,150.669678 288.413513,150.975830 
	C288.316895,151.124756 288.220306,151.273682 287.712708,151.883621 
	C286.942108,156.241974 286.582550,160.139328 286.222992,164.036667 
	C285.411041,166.615295 284.599121,169.193909 283.435089,172.283722 
	C281.066071,173.899170 279.049164,175.003403 277.032257,176.107635 
	C275.927643,176.159561 274.823029,176.211456 273.060669,176.280640 
	C271.925751,176.522827 271.448608,176.747726 270.971466,176.972626 
	C270.971466,176.972641 271.000000,177.000000 270.641785,176.941116 
	C269.190735,177.588562 268.097870,178.294876 267.005005,179.001190 
	C267.005005,179.001190 267.000000,179.000000 266.753143,179.078674 
	C266.301392,179.424118 266.096497,179.690887 265.891602,179.957672 
	C263.929871,180.279099 261.968140,180.600510 259.536194,180.549026 
	C257.161316,178.161209 255.256638,176.146301 252.991699,174.112259 
	C252.065475,174.462173 251.499496,174.831223 250.843414,175.274033 
	C250.753311,175.347809 250.520859,175.333496 250.109283,175.245239 
	C249.139465,175.104706 248.581223,175.052414 248.022995,175.000122 
M245.031326,157.034119 
	C245.031326,157.034119 245.058075,156.990128 244.989304,157.664383 
	C245.071655,158.106613 245.154007,158.548859 245.088913,159.682907 
	C244.627228,163.353607 244.686462,166.821533 249.081863,168.951218 
	C251.081436,165.787994 253.144958,162.523605 255.590256,158.691238 
	C255.684586,157.794342 255.778915,156.897430 256.225769,155.463959 
	C256.835327,154.337662 257.444885,153.211349 258.645477,151.640106 
	C259.081299,149.427338 259.517151,147.214569 260.130188,144.668564 
	C260.130188,144.668564 260.199036,144.297455 260.620850,143.978500 
	C260.723724,143.650177 260.826599,143.321854 261.282043,142.403625 
	C262.342712,141.393814 263.585938,140.510849 264.404572,139.332855 
	C265.025330,138.439636 265.680054,136.924271 265.330933,136.109390 
	C263.324188,131.425613 260.342255,127.059708 258.980713,122.222946 
	C256.949127,115.005745 252.494522,112.819870 245.541214,112.794617 
	C237.894119,112.766853 236.443176,113.117340 237.122116,120.909943 
	C237.981628,130.774872 238.170715,140.972122 243.246918,150.527878 
	C243.448730,150.792664 243.650543,151.057449 243.874191,152.018539 
	C244.028091,152.696594 244.182007,153.374634 244.205658,154.683258 
	C244.464203,155.462769 244.722763,156.242279 245.031326,157.034119 
z"/>
<path fill="#6C77DE" opacity="1.000000" stroke="none" 
	d="
M134.071487,255.988251 
	C134.088791,252.418488 133.757919,248.804398 134.205475,245.289413 
	C134.867401,240.090820 135.734543,234.858734 137.229752,229.854691 
	C137.842957,227.802460 140.348984,226.333023 141.938751,224.549286 
	C142.998016,223.360764 143.959686,222.085266 144.986572,220.416321 
	C145.008118,219.983932 145.100449,219.881195 145.428864,219.787598 
	C155.723236,214.882034 165.689163,210.070084 176.216904,204.986862 
	C174.097046,200.178680 172.158829,195.782455 170.093872,191.098770 
	C168.397263,192.375748 166.966354,193.452759 165.392685,194.388458 
	C165.249924,194.247147 164.964508,193.964417 164.964508,193.964417 
	C166.603363,192.331787 168.242233,190.699158 169.881104,189.066528 
	C171.035141,190.572830 172.223221,192.054550 173.333389,193.592529 
	C174.391174,195.057938 175.851898,196.457260 176.276978,198.106857 
	C177.107285,201.328964 177.338837,204.705368 177.872757,208.394257 
	C179.036362,208.982254 180.940765,209.627747 182.458145,210.782043 
	C185.051804,212.755096 187.571762,213.368011 190.706497,212.100739 
	C192.976929,211.182861 195.448959,210.478439 197.870361,210.333099 
	C199.186554,210.254105 200.584732,211.541245 201.699860,212.505722 
	C200.626968,212.873718 199.800156,212.948196 198.973343,213.022675 
	C195.742889,213.932220 192.548660,215.353653 189.270264,215.585617 
	C186.751892,215.763840 183.211838,215.254227 181.755005,213.608536 
	C179.286194,210.819687 177.404968,210.865967 174.621140,212.424332 
	C172.332291,213.705597 169.900131,214.730881 167.014252,216.084900 
	C166.162079,216.376373 165.959961,216.582733 165.890640,216.919296 
	C165.890640,216.919296 165.993164,216.923523 165.594818,216.925659 
	C163.139740,217.955490 161.082993,218.983185 159.026230,220.010895 
	C159.026230,220.010880 159.000778,219.996750 158.645279,220.049805 
	C153.058548,222.576828 147.772034,224.944122 142.637894,227.605408 
	C141.463577,228.214111 140.814636,229.836349 139.923920,230.992126 
	C139.862823,231.421677 139.801743,231.851227 139.555542,232.905029 
	C139.000961,236.025452 138.631470,238.521622 138.261993,241.017776 
	C138.123596,241.442383 137.985184,241.866974 137.584381,242.898987 
	C136.609207,246.897903 135.896393,250.289398 135.123199,254.009506 
	C134.732391,254.888153 134.401947,255.438202 134.071487,255.988251 
z"/>
<path fill="#6F78DE" opacity="1.000000" stroke="none" 
	d="
M192.110886,65.358093 
	C192.428696,65.002373 192.802246,65.007782 193.454895,65.024338 
	C197.887955,64.273178 202.029404,63.431267 206.200104,62.775517 
	C209.166641,62.309093 212.172607,62.093445 215.664001,62.229828 
	C217.788254,63.347256 219.409485,64.000725 221.030731,64.654190 
	C221.765823,64.779366 222.500900,64.904533 223.838394,65.287003 
	C225.293304,65.800842 226.145798,66.057365 226.998306,66.313889 
	C226.998306,66.313889 227.278152,66.638222 227.709290,66.989197 
	C233.764847,68.195190 239.389252,69.050224 245.013672,69.905258 
	C250.773636,72.438972 256.520630,75.002655 262.296265,77.500122 
	C274.105042,82.606384 281.728210,91.527824 284.039642,104.003883 
	C286.109772,115.177475 285.439636,126.502228 280.919006,137.635040 
	C279.194702,135.413223 278.454742,132.897491 280.720764,130.272491 
	C281.219910,129.694260 281.493195,128.721603 281.484436,127.934875 
	C281.387268,119.188118 282.082336,110.313934 280.814636,101.732521 
	C279.573273,93.329399 273.445648,86.770966 266.526123,82.656250 
	C257.986816,77.578331 248.408401,74.100060 239.002380,70.694618 
	C234.780518,69.166107 229.880600,69.542053 225.301208,68.953773 
	C223.502808,68.722748 221.274612,68.775261 220.038956,67.743942 
	C213.954666,62.665760 207.871704,65.097908 201.435684,66.730942 
	C198.613251,67.447075 195.272186,66.119049 192.110886,65.358093 
z"/>
<path fill="#727BD9" opacity="1.000000" stroke="none" 
	d="
M247.695038,175.173538 
	C248.581223,175.052414 249.139465,175.104706 249.822571,175.495544 
	C249.058899,177.708542 247.777237,179.499069 247.355804,181.473236 
	C246.115555,187.282852 245.216492,193.165298 244.183868,199.019241 
	C244.183868,199.019241 243.996994,199.454117 243.791351,199.797272 
	C243.352646,200.370102 243.279388,200.642731 243.365967,200.958282 
	C243.235626,201.382019 243.105286,201.805756 242.696503,202.809387 
	C241.067062,207.275848 239.716064,211.162415 238.365051,215.048996 
	C238.214645,215.403351 238.064240,215.757706 237.628326,216.651520 
	C236.814987,218.758148 236.287140,220.325302 235.759293,221.892471 
	C229.567703,232.361649 223.710739,243.023666 212.381104,249.213364 
	C207.488327,251.886398 202.078171,254.667740 198.754669,258.865784 
	C195.322784,263.200714 193.963272,269.253082 192.028763,274.672485 
	C190.470657,279.037445 181.335480,286.059082 176.811432,285.757690 
	C176.491913,285.736420 176.256927,284.446289 176.437378,283.371521 
	C178.593552,282.351898 180.294998,281.706909 181.996429,281.061951 
	C187.879257,279.829376 190.219788,274.789703 190.727997,270.171539 
	C191.935211,259.201691 199.065399,253.540009 207.622971,249.082748 
	C217.054718,244.170166 223.534393,236.821198 229.384857,228.064941 
	C235.729141,218.569580 238.063095,207.820892 241.618469,197.437073 
	C243.349670,192.380920 243.821915,186.903854 245.056473,181.662628 
	C245.566757,179.496185 246.581665,177.448593 247.695038,175.173538 
z"/>
<path fill="#727AD6" opacity="1.000000" stroke="none" 
	d="
M134.049438,256.366486 
	C134.401947,255.438202 134.732391,254.888153 135.345398,254.244125 
	C136.125244,255.101364 136.622513,256.052582 137.119781,257.003784 
	C137.035370,257.422943 136.950974,257.842133 136.527039,258.749512 
	C131.347107,266.445038 126.506706,273.652374 121.666313,280.859711 
	C121.151428,281.345276 120.636536,281.830841 120.022049,282.563538 
	C110.430634,288.782257 99.808174,290.959137 88.427505,292.125427 
	C87.198196,292.019806 86.407692,291.852692 85.660965,291.286804 
	C87.014420,288.842163 89.848625,286.306976 89.375656,284.833221 
	C87.056854,277.608124 91.616982,275.409637 96.736671,273.874939 
	C103.940559,271.715546 106.467560,266.665192 107.016541,259.765137 
	C107.408592,254.837555 108.252060,249.945908 108.894096,245.038223 
	C109.202545,245.413574 109.769028,245.780655 109.781364,246.165512 
	C110.030380,253.930740 109.847298,261.591522 106.610359,268.937347 
	C104.820076,273.000183 101.973061,275.040314 97.813179,276.063477 
	C93.436455,277.139954 89.263786,278.594849 91.628799,284.823120 
	C92.078171,286.006561 90.902512,287.807068 90.476074,289.324860 
	C105.196526,292.523499 128.722748,274.878387 134.049438,256.366486 
z"/>
<path fill="none" opacity="1.000000" stroke="none" 
	d="
M108.748177,244.796585 
	C108.252060,249.945908 107.408592,254.837555 107.016541,259.765137 
	C106.467560,266.665192 103.940559,271.715546 96.736671,273.874939 
	C91.616982,275.409637 87.056854,277.608124 89.375656,284.833221 
	C89.848625,286.306976 87.014420,288.842163 85.426514,291.094116 
	C85.561913,285.522430 85.975555,279.744690 86.408653,273.695129 
	C91.519791,275.090454 92.286301,269.112000 95.366356,266.381500 
	C102.148018,268.950134 102.948631,268.388184 104.076355,261.007263 
	C104.448517,258.571503 105.619652,256.227020 105.778748,253.798462 
	C105.926208,251.547455 105.210243,249.239883 104.795212,246.534363 
	C105.379715,245.601105 106.043488,245.090714 106.851486,244.359177 
	C107.531235,244.277008 108.066750,244.415970 108.748177,244.796585 
z"/>
<path fill="none" opacity="1.000000" stroke="none" 
	d="
M244.506973,198.954254 
	C245.216492,193.165298 246.115555,187.282852 247.355804,181.473236 
	C247.777237,179.499069 249.058899,177.708542 250.234161,175.583801 
	C250.520859,175.333496 250.753311,175.347809 251.189575,175.259613 
	C252.201202,174.824738 252.776581,174.478058 253.351959,174.131378 
	C255.256638,176.146301 257.161316,178.161209 259.150513,180.531311 
	C256.769531,180.475586 254.304077,180.064697 250.847870,179.488678 
	C247.376389,184.076202 252.706512,190.316650 249.940552,195.263916 
	C248.237061,196.472366 246.533569,197.680817 244.506973,198.954254 
z"/>
<path fill="#727BD9" opacity="1.000000" stroke="none" 
	d="
M198.999268,213.450012 
	C199.800156,212.948196 200.626968,212.873718 201.699356,212.898987 
	C202.277466,214.415085 202.610001,215.831451 202.649109,217.652023 
	C202.214890,218.698883 202.074127,219.341522 201.933380,219.984161 
	C199.825623,222.234482 197.717880,224.484818 195.082977,226.979156 
	C194.282761,227.421158 194.103058,227.683182 194.016693,228.009232 
	C193.337479,229.430130 192.658279,230.851044 191.725159,232.632172 
	C191.471252,232.992401 191.004303,233.006485 191.004303,233.006485 
	C190.335846,234.105759 189.667389,235.205032 188.769958,236.761871 
	C188.274048,237.420181 188.090622,237.679932 187.990723,237.998688 
	C187.270844,238.020203 186.550964,238.041718 185.471405,238.069061 
	C189.226913,232.679428 193.610016,227.459412 197.318497,221.797546 
	C198.699387,219.689316 198.502579,216.547729 198.999268,213.450012 
z"/>
<path fill="none" opacity="1.000000" stroke="none" 
	d="
M122.038345,280.881287 
	C126.506706,273.652374 131.347107,266.445038 136.469116,259.064941 
	C140.564285,263.145874 136.156662,266.526367 134.526352,268.936157 
	C131.406967,273.546997 126.547646,276.980682 122.038345,280.881287 
z"/>
<path fill="#727BD9" opacity="1.000000" stroke="none" 
	d="
M178.992340,263.977264 
	C178.677124,264.453186 178.361908,264.929138 177.757828,265.910339 
	C177.315964,267.279480 177.162949,268.143341 177.009949,269.007233 
	C176.994736,269.759003 176.979507,270.510773 176.715210,271.808044 
	C176.310211,272.900330 176.154297,273.447113 175.998383,273.993896 
	C176.237930,275.121552 176.477478,276.249237 176.854279,278.025574 
	C176.702576,279.439423 176.413635,280.204559 176.124695,280.969727 
	C173.604019,276.850616 173.800262,272.815918 175.444733,268.258575 
	C178.285324,260.386505 180.424988,252.261475 183.494507,244.075546 
	C184.404907,243.941528 184.679550,243.974518 184.954208,244.007523 
	C184.959763,244.179443 184.965317,244.351349 184.979752,245.008545 
	C184.988632,245.493835 184.986633,245.949570 184.986633,245.949585 
	C184.098709,246.768646 183.210754,247.587723 182.168381,249.019379 
	C182.007690,250.083603 182.001450,250.535248 181.995193,250.986908 
	C181.660797,252.081558 181.326401,253.176208 180.766266,254.749756 
	C180.273926,255.439804 180.109406,255.712570 180.046936,256.046906 
	C180.031921,257.101532 180.016907,258.156189 179.724701,259.837952 
	C179.295792,261.635834 179.144058,262.806549 178.992340,263.977264 
z"/>
<path fill="none" opacity="1.000000" stroke="none" 
	d="
M245.011459,69.512573 
	C239.389252,69.050224 233.764847,68.195190 227.916565,67.043144 
	C231.412689,63.635670 239.781525,62.436974 243.376694,64.908035 
	C244.401642,65.612518 244.490906,67.678337 245.011459,69.512573 
z"/>
<path fill="none" opacity="1.000000" stroke="none" 
	d="
M140.325012,230.989655 
	C140.814636,229.836349 141.463577,228.214111 142.637894,227.605408 
	C147.772034,224.944122 153.058548,222.576828 158.648987,220.063721 
	C155.450256,223.464935 153.512283,228.851746 147.314987,229.105240 
	C145.096741,229.195969 142.921158,230.329559 140.325012,230.989655 
z"/>
<path fill="#747AD4" opacity="1.000000" stroke="none" 
	d="
M28.267414,275.266998 
	C28.001707,274.828278 28.000929,274.659271 28.465820,274.240326 
	C34.616013,273.639954 40.300537,273.289551 45.985062,272.939148 
	C45.987350,273.110901 45.989639,273.282715 45.991936,273.712219 
	C40.425278,277.313782 34.600597,277.782410 28.267414,275.266998 
z"/>
<path fill="none" opacity="1.000000" stroke="none" 
	d="
M137.441650,256.944458 
	C136.622513,256.052582 136.125244,255.101364 135.405777,253.915527 
	C135.896393,250.289398 136.609207,246.897903 137.563599,243.234711 
	C138.436996,243.670425 139.690903,244.915024 139.610886,245.007660 
	C136.551041,248.550812 137.205154,252.389343 138.483429,256.326508 
	C138.515244,256.424469 138.015411,256.695038 137.441650,256.944458 
z"/>
<path fill="none" opacity="1.000000" stroke="none" 
	d="
M238.709686,215.025360 
	C239.716064,211.162415 241.067062,207.275848 242.683914,203.143646 
	C244.365997,207.806274 243.510330,211.983368 238.709686,215.025360 
z"/>
<path fill="none" opacity="1.000000" stroke="none" 
	d="
M286.574615,163.936615 
	C286.582550,160.139328 286.942108,156.241974 287.632385,152.137466 
	C287.617493,155.899063 287.271851,159.867813 286.574615,163.936615 
z"/>
<path fill="none" opacity="1.000000" stroke="none" 
	d="
M138.596695,240.960373 
	C138.631470,238.521622 139.000961,236.025452 139.586975,233.230087 
	C143.017090,235.971588 141.871857,238.535477 138.596695,240.960373 
z"/>
<path fill="none" opacity="1.000000" stroke="none" 
	d="
M95.085274,250.995178 
	C96.541336,249.844498 98.371841,248.872177 100.549164,247.878708 
	C101.467552,252.870667 98.817963,252.602997 95.085274,250.995178 
z"/>
<path fill="none" opacity="1.000000" stroke="none" 
	d="
M277.278534,176.363266 
	C279.049164,175.003403 281.066071,173.899170 283.405945,172.646942 
	C284.361206,177.938614 279.922882,175.742584 277.278534,176.363266 
z"/>
<path fill="#6C77DE" opacity="1.000000" stroke="none" 
	d="
M176.068695,281.305176 
	C176.413635,280.204559 176.702576,279.439423 176.991058,278.349274 
	C178.111603,279.482727 178.183456,282.448242 181.651917,281.045654 
	C180.294998,281.706909 178.593552,282.351898 176.514053,282.994171 
	C176.094894,282.541199 176.053802,282.090912 176.068695,281.305176 
z"/>
<path fill="none" opacity="1.000000" stroke="none" 
	d="
M220.957779,64.313309 
	C219.409485,64.000725 217.788254,63.347256 216.011597,62.380684 
	C217.532410,62.702530 219.208618,63.337471 220.957779,64.313309 
z"/>
<path fill="none" opacity="1.000000" stroke="none" 
	d="
M159.420197,220.013565 
	C161.082993,218.983185 163.139740,217.955490 165.551331,216.898438 
	C163.875519,217.918152 161.844849,218.967194 159.420197,220.013565 
z"/>
<path fill="none" opacity="1.000000" stroke="none" 
	d="
M236.160492,221.864197 
	C236.287140,220.325302 236.814987,218.758148 237.599762,216.939941 
	C237.425049,218.404572 236.993362,220.120239 236.160492,221.864197 
z"/>
<path fill="none" opacity="1.000000" stroke="none" 
	d="
M267.381378,179.005646 
	C268.097870,178.294876 269.190735,177.588562 270.630920,176.924438 
	C269.904724,177.647781 268.831238,178.328918 267.381378,179.005646 
z"/>
<path fill="#727BD9" opacity="1.000000" stroke="none" 
	d="
M184.780533,238.220795 
	C185.055435,239.153503 185.029221,240.186432 184.601868,241.645233 
	C183.941116,242.104370 183.681473,242.137634 183.421844,242.170898 
	C183.774353,240.887619 184.126877,239.604324 184.780533,238.220795 
z"/>
<path fill="none" opacity="1.000000" stroke="none" 
	d="
M226.904236,65.996002 
	C226.145798,66.057365 225.293304,65.800842 224.211700,65.300217 
	C224.925110,65.263458 225.867645,65.470787 226.904236,65.996002 
z"/>
<path fill="#6C77DE" opacity="1.000000" stroke="none" 
	d="
M183.381012,242.434631 
	C183.681473,242.137634 183.941116,242.104370 184.591370,242.033081 
	C185.102036,242.579193 185.222107,243.163315 185.148193,243.877472 
	C184.679550,243.974518 184.404907,243.941528 183.719360,243.835297 
	C183.319031,243.407486 183.329620,243.052917 183.381012,242.434631 
z"/>
<path fill="none" opacity="1.000000" stroke="none" 
	d="
M271.233826,176.998474 
	C271.448608,176.747726 271.925751,176.522827 272.661133,176.392792 
	C272.444977,176.666550 271.970581,176.845444 271.233826,176.998474 
z"/>
<path fill="none" opacity="1.000000" stroke="none" 
	d="
M266.141388,179.886841 
	C266.096497,179.690887 266.301392,179.424118 266.753235,179.081360 
	C266.797211,179.275574 266.594208,179.545807 266.141388,179.886841 
z"/>
<path fill="none" opacity="1.000000" stroke="none" 
	d="
M243.526611,200.826935 
	C243.279388,200.642731 243.352646,200.370102 243.779694,200.033646 
	C243.969391,200.217133 243.873932,200.473373 243.526611,200.826935 
z"/>
<path fill="none" opacity="1.000000" stroke="none" 
	d="
M287.818665,142.549805 
	C287.661621,142.676804 287.335938,142.614578 286.841675,142.358032 
	C286.998749,142.229324 287.324371,142.294952 287.818665,142.549805 
z"/>
<path fill="none" opacity="1.000000" stroke="none" 
	d="
M101.102890,247.880890 
	C100.956390,247.577271 101.161133,247.353516 101.730133,247.242798 
	C101.832054,247.524033 101.618629,247.725662 101.102890,247.880890 
z"/>
<path fill="none" opacity="1.000000" stroke="none" 
	d="
M289.437805,148.821442 
	C289.307465,148.659363 289.370087,148.330841 289.635162,147.838837 
	C289.768646,148.001907 289.699707,148.328445 289.437805,148.821442 
z"/>
<path fill="none" opacity="1.000000" stroke="none" 
	d="
M288.564331,150.859482 
	C288.297668,150.669678 288.369965,150.417435 288.824158,150.135284 
	C288.993958,150.315750 288.893066,150.546295 288.564331,150.859482 
z"/>
<path fill="none" opacity="1.000000" stroke="none" 
	d="
M166.103256,216.889999 
	C165.959961,216.582733 166.162079,216.376373 166.723633,216.306976 
	C166.809265,216.577789 166.597809,216.760101 166.103256,216.889999 
z"/>
<path fill="#6A77D8" opacity="1.000000" stroke="none" 
	d="
M189.646301,170.603424 
	C191.066360,170.611618 193.391266,170.086517 193.760956,170.713760 
	C196.331085,175.074524 198.641327,179.612061 200.632111,184.265244 
	C200.929901,184.961304 199.300156,186.821045 198.183105,187.596664 
	C197.800201,187.862549 196.131927,186.595978 195.268967,185.794678 
	C192.137726,182.887115 189.018768,179.957550 186.048309,176.888077 
	C183.190582,173.935120 184.029510,171.554962 188.243256,170.895111 
	C187.487625,175.425720 191.139267,180.367371 196.563370,182.656723 
	C196.334930,177.412933 195.693817,176.295761 189.646301,170.603424 
z"/>
<path fill="#6C77DE" opacity="1.000000" stroke="none" 
	d="
M144.960739,220.034195 
	C144.168350,218.831635 142.570480,217.379318 142.809677,216.356720 
	C145.328308,205.589859 156.551605,202.443710 162.360840,194.479279 
	C162.653610,194.077911 163.598083,194.151901 164.601807,193.984497 
	C164.964508,193.964417 165.249924,194.247147 165.225662,194.670441 
	C161.542130,198.710388 158.457962,203.466110 154.086914,205.672989 
	C147.752960,208.870895 146.427856,214.113647 145.100449,219.881195 
	C145.100449,219.881195 145.008118,219.983932 144.960739,220.034195 
z"/>
<path fill="#DFEBFE" opacity="1.000000" stroke="none" 
	d="
M189.648773,170.549500 
	C195.693817,176.295761 196.334930,177.412933 196.563370,182.656723 
	C191.139267,180.367371 187.487625,175.425720 188.369080,171.193329 
	C188.441986,170.917679 188.786163,170.713394 189.091919,170.604034 
	C189.397690,170.494690 189.693909,170.396423 189.693909,170.396423 
	C189.693909,170.396423 189.651230,170.495575 189.648773,170.549500 
z"/>
<path fill="#6C77DE" opacity="1.000000" stroke="none" 
	d="
M179.333160,263.926941 
	C179.144058,262.806549 179.295792,261.635834 179.716415,260.233398 
	C179.881546,261.293335 179.777771,262.584991 179.333160,263.926941 
z"/>
<path fill="#6C77DE" opacity="1.000000" stroke="none" 
	d="
M177.310425,268.966309 
	C177.162949,268.143341 177.315964,267.279480 177.729294,266.208160 
	C177.863388,266.975616 177.737152,267.950470 177.310425,268.966309 
z"/>
<path fill="#6C77DE" opacity="1.000000" stroke="none" 
	d="
M202.190262,219.826584 
	C202.074127,219.341522 202.214890,218.698883 202.636383,218.019257 
	C202.760452,218.544525 202.603790,219.106766 202.190262,219.826584 
z"/>
<path fill="#6C77DE" opacity="1.000000" stroke="none" 
	d="
M176.291016,273.962341 
	C176.154297,273.447113 176.310211,272.900330 176.699219,272.183685 
	C176.816086,272.652802 176.699860,273.291809 176.291016,273.962341 
z"/>
<path fill="#6C77DE" opacity="1.000000" stroke="none" 
	d="
M182.221771,250.845215 
	C182.001450,250.535248 182.007690,250.083603 182.034607,249.292938 
	C182.186279,249.537125 182.317307,250.120331 182.221771,250.845215 
z"/>
<path fill="#6C77DE" opacity="1.000000" stroke="none" 
	d="
M185.234299,245.946442 
	C184.986633,245.949570 184.988632,245.493835 184.987183,245.266449 
	C185.413895,245.190643 185.842056,245.342239 186.270233,245.493835 
	C186.007477,245.643661 185.744720,245.793488 185.234299,245.946442 
z"/>
<path fill="#6C77DE" opacity="1.000000" stroke="none" 
	d="
M188.138321,238.158722 
	C188.090622,237.679932 188.274048,237.420181 188.755402,237.109100 
	C188.741852,237.438782 188.513885,237.878784 188.138321,238.158722 
z"/>
<path fill="#6F78DE" opacity="1.000000" stroke="none" 
	d="
M190.830994,63.127392 
	C190.995728,63.056126 191.000748,63.500980 190.998444,63.722710 
	C190.886185,63.695850 190.776230,63.447254 190.830994,63.127392 
z"/>
<path fill="#6A77D8" opacity="1.000000" stroke="none" 
	d="
M189.720856,170.167480 
	C189.693909,170.396423 189.397690,170.494690 189.244812,170.474945 
	C189.310547,170.282974 189.529175,170.110764 189.720856,170.167480 
z"/>
<path fill="#6C77DE" opacity="1.000000" stroke="none" 
	d="
M180.253143,255.923004 
	C180.109406,255.712570 180.273926,255.439804 180.754211,255.114151 
	C180.889084,255.323837 180.719543,255.590317 180.253143,255.923004 
z"/>
<path fill="#6C77DE" opacity="1.000000" stroke="none" 
	d="
M191.089218,233.171219 
	C191.004303,233.006485 191.471252,232.992401 191.704010,232.987366 
	C191.682571,233.100204 191.428345,233.218079 191.089218,233.171219 
z"/>
<path fill="#6C77DE" opacity="1.000000" stroke="none" 
	d="
M194.230911,227.900528 
	C194.103058,227.683182 194.282761,227.421158 194.775452,227.121979 
	C194.896606,227.338318 194.713287,227.595322 194.230911,227.900528 
z"/>
<path fill="#5C6BF2" opacity="1.000000" stroke="none" 
	d="
M46.152702,272.646820 
	C40.300537,273.289551 34.616013,273.639954 28.464897,273.986816 
	C24.838867,272.215790 21.698454,270.413208 18.515755,268.688660 
	C13.073259,265.739716 12.486394,262.126434 16.730282,257.719147 
	C17.417313,257.005676 17.895992,256.091644 18.337191,255.461380 
	C23.758480,259.557068 28.160522,264.433044 33.633400,266.582672 
	C39.138306,268.744843 45.708599,268.194611 51.648273,268.815826 
	C50.206882,269.773163 48.263615,271.063812 46.152702,272.646820 
z"/>
<path fill="none" opacity="1.000000" stroke="none" 
	d="
M243.271210,150.017990 
	C238.170715,140.972122 237.981628,130.774872 237.122116,120.909943 
	C236.443176,113.117340 237.894119,112.766853 245.541214,112.794617 
	C252.494522,112.819870 256.949127,115.005745 258.980713,122.222946 
	C260.342255,127.059708 263.324188,131.425613 265.330933,136.109390 
	C265.680054,136.924271 265.025330,138.439636 264.404572,139.332855 
	C263.585938,140.510849 262.342712,141.393814 260.882935,142.848419 
	C260.388885,143.627945 260.293976,143.962708 260.199036,144.297455 
	C260.199036,144.297455 260.130188,144.668564 259.766113,145.069855 
	C258.952820,147.675781 258.503632,149.880417 258.054443,152.085052 
	C257.444885,153.211349 256.835327,154.337662 255.791473,155.970428 
	C255.307602,157.404327 255.258041,158.331772 255.208481,159.259216 
	C253.144958,162.523605 251.081436,165.787994 249.081863,168.951218 
	C244.686462,166.821533 244.627228,163.353607 245.515411,159.349930 
	C246.724625,160.561951 247.507339,162.106934 248.292862,163.657471 
	C252.415085,161.651306 252.285782,156.765320 247.975021,153.632980 
	C246.993637,154.762451 246.025848,155.876297 245.058075,156.990128 
	C245.058075,156.990128 245.031326,157.034119 245.031311,156.709351 
	C244.799515,155.607285 244.567703,154.829987 244.335907,154.052689 
	C244.182007,153.374634 244.028091,152.696594 243.864014,151.414978 
	C243.659637,150.546951 243.465424,150.282471 243.271210,150.017990 
z"/>
<path fill="none" opacity="1.000000" stroke="none" 
	d="
M245.023682,157.327255 
	C246.025848,155.876297 246.993637,154.762451 247.975021,153.632980 
	C252.285782,156.765320 252.415085,161.651306 248.292862,163.657471 
	C247.507339,162.106934 246.724625,160.561951 245.589142,159.004028 
	C245.154007,158.548859 245.071655,158.106613 245.023682,157.327255 
z"/>
<path fill="#D2DBFB" opacity="1.000000" stroke="none" 
	d="
M258.349976,151.862579 
	C258.503632,149.880417 258.952820,147.675781 259.677490,145.236481 
	C259.517151,147.214569 259.081299,149.427338 258.349976,151.862579 
z"/>
<path fill="#D2DBFB" opacity="1.000000" stroke="none" 
	d="
M255.399368,158.975220 
	C255.258041,158.331772 255.307602,157.404327 255.615204,156.238708 
	C255.778915,156.897430 255.684586,157.794342 255.399368,158.975220 
z"/>
<path fill="none" opacity="1.000000" stroke="none" 
	d="
M244.270782,154.367981 
	C244.567703,154.829987 244.799515,155.607285 245.006317,156.703186 
	C244.722763,156.242279 244.464203,155.462769 244.270782,154.367981 
z"/>
<path fill="#727BD9" opacity="1.000000" stroke="none" 
	d="
M252.991699,174.112274 
	C252.776581,174.478058 252.201202,174.824738 251.279663,175.185837 
	C251.499496,174.831223 252.065475,174.462173 252.991699,174.112274 
z"/>
<path fill="#D2DBFB" opacity="1.000000" stroke="none" 
	d="
M260.409943,144.137970 
	C260.293976,143.962708 260.388885,143.627945 260.706635,143.143372 
	C260.826599,143.321854 260.723724,143.650177 260.409943,144.137970 
z"/>
<path fill="none" opacity="1.000000" stroke="none" 
	d="
M243.259064,150.272934 
	C243.465424,150.282471 243.659637,150.546951 243.853119,151.066833 
	C243.650543,151.057449 243.448730,150.792664 243.259064,150.272934 
z"/>
<path fill="none" opacity="1.000000" stroke="none" 
	d="
M145.428864,219.787598 
	C146.427856,214.113647 147.752960,208.870895 154.086914,205.672989 
	C158.457962,203.466110 161.542130,198.710388 165.368423,194.811752 
	C166.966354,193.452759 168.397263,192.375748 170.093872,191.098770 
	C172.158829,195.782455 174.097046,200.178680 176.216904,204.986862 
	C165.689163,210.070084 155.723236,214.882034 145.428864,219.787598 
z"/>
</svg>