<svg version="1.1" id="Layer_1" xmlns="http://www.w3.org/2000/svg" xmlns:xlink="http://www.w3.org/1999/xlink" x="0px" y="0px"
	 width="100%" viewBox="0 0 357 260" enable-background="new 0 0 357 260" xml:space="preserve">
<path fill="none" opacity="1.000000" stroke="none" 
	d="
M217.000000,261.000000 
	C144.666687,261.000000 72.833374,261.000000 1.000048,261.000000 
	C1.000032,174.333374 1.000032,87.666763 1.000016,1.000106 
	C119.999916,1.000071 238.999832,1.000071 357.999817,1.000035 
	C357.999878,87.666557 357.999878,174.333115 357.999939,260.999817 
	C311.166656,261.000000 264.333344,261.000000 217.000000,261.000000 
M58.162464,157.943420 
	C57.444908,158.632202 56.727348,159.320999 55.306496,160.087265 
	C54.165245,162.016388 53.023994,163.945496 51.141037,165.979126 
	C50.136959,167.404022 49.132881,168.828934 48.027927,170.923615 
	C43.265480,175.406799 38.503036,179.889999 34.392059,183.759918 
	C30.365231,181.890381 27.184494,180.413666 23.867441,178.223358 
	C21.795925,175.395996 19.076630,175.419907 16.383163,176.904343 
	C14.490890,177.947220 12.153583,179.193146 11.345690,180.957657 
	C10.114578,183.646530 10.385918,186.986267 9.385059,189.826111 
	C7.810174,194.294678 8.579662,195.858841 13.316461,195.979965 
	C16.927137,196.072296 20.542068,195.998291 24.726934,195.998291 
	C24.985268,195.212799 25.496227,193.659149 26.639965,191.925537 
	C27.076401,191.906387 27.512835,191.887238 28.365398,192.448364 
	C31.549694,193.562454 34.658119,196.394699 38.701080,192.871704 
	C39.132656,192.930954 39.564236,192.990189 39.979652,193.782959 
	C38.954556,197.092728 37.301025,198.740128 33.558006,196.941025 
	C32.500725,196.432861 30.797651,197.268280 29.390770,197.487473 
	C29.965490,198.626205 30.552801,199.758804 31.111593,200.905304 
	C31.743002,202.200806 32.348782,203.508789 32.957073,204.957031 
	C32.957073,204.957031 32.811230,204.952072 32.494110,205.135727 
	C32.290527,205.281479 32.140408,205.469833 31.626053,206.179169 
	C31.032675,206.782761 30.439295,207.386353 29.146038,208.081940 
	C27.514959,208.727524 25.883881,209.373108 23.221048,210.427078 
	C25.504248,213.077698 27.197281,215.043167 29.025154,217.762985 
	C28.896833,223.001129 31.750418,220.093048 34.100834,220.236633 
	C38.137093,223.055313 39.838165,221.906387 41.239365,215.204300 
	C41.612896,214.813278 41.986427,214.422256 43.111858,214.019745 
	C47.868214,214.682434 48.313084,211.203522 49.217178,207.481400 
	C49.513630,207.326920 49.810085,207.172440 50.458324,206.862717 
	C50.683350,206.724091 50.849792,206.534149 51.472942,205.818970 
	C52.116467,204.650635 52.759991,203.482300 53.432991,202.278122 
	C53.432991,202.278122 53.430325,202.329956 54.022446,202.119781 
	C54.479477,201.403748 54.936504,200.687729 55.705826,199.720810 
	C55.887299,199.508011 55.982021,199.261826 56.000237,198.996231 
	C56.000237,198.996231 55.983791,198.989761 56.691860,198.925629 
	C58.436794,197.471359 60.436218,196.231659 61.877949,194.521759 
	C65.869865,189.787323 69.704033,184.913239 73.434959,179.969391 
	C74.552353,178.488724 75.124863,176.596863 76.272202,174.337570 
	C77.438972,173.857803 78.605736,173.378052 80.252769,172.864120 
	C80.575996,172.765900 80.819176,172.568909 81.577805,172.052048 
	C81.997139,172.005508 82.416466,171.958969 83.588768,172.052139 
	C87.807915,171.874847 92.031197,171.748322 96.236992,171.406677 
	C96.519035,171.383774 96.668846,169.733200 96.954781,168.843094 
	C96.954781,168.843094 96.889854,168.879959 97.484619,168.956223 
	C97.983932,168.689987 98.483238,168.423752 99.537033,167.951157 
	C99.928474,167.922729 100.319923,167.894318 101.197906,167.873398 
	C101.533325,167.803711 101.791718,167.623627 102.617508,167.098907 
	C103.069710,167.039185 103.521912,166.979462 104.269753,167.392105 
	C104.858864,167.014374 105.447975,166.636627 106.561882,166.010605 
	C106.943245,165.961899 107.324608,165.913208 108.196297,165.870056 
	C108.534225,165.798523 108.792358,165.614929 109.505234,165.051834 
	C109.895653,164.986343 110.286072,164.920837 111.199051,164.847000 
	C111.461281,164.634949 111.723503,164.422882 112.621674,163.866150 
	C117.294060,160.472351 122.262932,157.413116 126.564621,153.600998 
	C132.079239,148.714005 138.120010,146.131378 145.284912,148.108780 
	C152.147171,150.002670 158.791397,152.677597 165.557983,154.929565 
	C172.317978,157.179337 178.977295,160.083420 185.926346,161.315598 
	C193.068085,162.581909 200.518295,162.024597 207.808319,162.590073 
	C209.963165,162.757217 213.463455,163.572632 213.874191,164.872437 
	C215.128693,168.842422 215.628418,173.195816 215.600952,177.394638 
	C215.550018,185.184723 214.834717,192.968033 214.557999,200.759918 
	C214.388214,205.540497 214.587112,210.333008 214.496613,215.117828 
	C214.402786,220.079239 213.894241,225.047806 214.080582,229.993912 
	C214.193176,232.983032 215.610809,235.423645 219.502533,234.908310 
	C222.348663,234.531418 223.481171,236.323273 223.205368,238.889587 
	C222.687515,243.708527 225.337097,245.190918 229.475555,244.948334 
	C231.969528,244.802139 234.438339,244.226547 237.626801,243.734634 
	C234.907318,239.858597 232.958145,234.463318 229.163406,232.289047 
	C223.557648,229.077118 222.383255,225.114243 222.939545,219.648270 
	C223.845840,210.743088 224.840927,201.846924 226.265121,192.387680 
	C228.203613,185.862137 230.096146,179.322418 232.101608,172.817520 
	C232.994186,169.922363 234.644943,168.982208 238.061523,169.351074 
	C243.244171,169.910614 247.293488,172.003174 251.538452,174.840591 
	C259.764832,180.339325 268.487000,185.096390 277.274658,190.577789 
	C277.529938,190.826202 277.835175,190.936325 278.622009,190.968094 
	C278.622009,190.968094 279.009308,191.167847 279.347778,191.593002 
	C279.696564,191.660614 280.045319,191.728210 280.993591,191.810165 
	C281.684937,192.161377 282.376282,192.512573 283.036438,193.659149 
	C283.738068,198.473709 287.742859,196.947021 291.066772,198.069077 
	C295.247620,200.708664 299.343903,203.500046 303.656952,205.902344 
	C305.091675,206.701477 307.409332,207.227264 308.755890,206.619919 
	C312.380280,204.985153 314.190216,206.689163 315.472870,209.514618 
	C317.212494,213.346710 320.487396,213.162704 322.976440,211.600418 
	C326.135590,209.617493 328.578644,206.493713 332.357758,202.879364 
	C329.009308,202.396149 327.387634,202.289185 325.829620,201.916321 
	C316.901520,199.779694 307.242950,199.858856 299.704102,193.454330 
	C292.236053,187.109970 284.650909,180.893768 277.380676,174.329498 
	C272.103729,169.564957 267.256226,164.324722 262.910187,159.018570 
	C262.354340,157.026733 261.798492,155.034897 261.025269,152.174225 
	C260.996552,149.790695 260.967865,147.407150 261.525085,144.527313 
	C262.160309,142.389053 262.125366,139.475082 263.546875,138.246933 
	C269.668427,132.958130 277.359192,131.898788 284.406158,131.197983 
	C286.126923,129.314209 287.582153,127.721153 289.277069,125.711746 
	C289.489594,125.462929 289.748291,125.279182 290.842560,125.193794 
	C295.729797,122.589012 300.509552,123.418983 305.396759,125.367859 
	C307.117065,126.053879 309.160309,125.930046 311.511200,126.334160 
	C311.511200,126.334160 311.986603,126.417145 311.986603,126.417145 
	C311.986603,126.417145 312.462067,126.334412 312.938690,126.812263 
	C313.984528,126.979927 315.030365,127.147591 316.726654,127.693100 
	C319.913727,129.427765 323.177216,131.038162 326.263245,132.937042 
	C328.662445,134.413315 330.756195,137.458420 333.137604,137.624176 
	C336.227722,137.839233 340.666504,136.822647 342.359375,134.649460 
	C344.805511,131.509277 345.188538,126.833801 342.275696,122.985023 
	C334.263916,112.398994 326.671875,101.444656 317.982300,91.445496 
	C314.136200,87.019753 310.561340,78.927475 301.732758,83.893021 
	C301.355865,84.105003 300.535156,84.123833 300.283691,83.871437 
	C297.493378,81.070930 295.852173,83.726234 293.850739,84.685654 
	C291.209808,84.418518 288.700409,85.105103 286.190125,85.108231 
	C280.804932,85.114944 275.419220,84.771202 270.034393,84.553558 
	C269.910461,84.548553 269.810089,84.313377 269.673218,84.225159 
	C259.877960,77.911263 250.028641,71.663361 242.821564,61.566654 
	C242.556931,61.374004 242.292313,61.181358 241.500931,60.588955 
	C241.136505,59.563877 240.772079,58.538799 240.952393,56.874233 
	C241.670624,55.786179 242.388855,54.698124 243.822540,53.780979 
	C244.547409,53.903278 245.272263,54.025578 246.161865,54.443592 
	C246.439301,54.394142 246.716751,54.344696 247.658966,54.098728 
	C248.898224,53.063641 250.137482,52.028557 251.619446,50.875771 
	C251.772507,50.773315 251.889160,50.639194 252.481110,50.102844 
	C252.987900,49.733704 253.494705,49.364567 254.549164,48.577419 
	C254.658127,47.680149 254.767105,46.782875 254.842239,45.961132 
	C254.842239,45.961132 254.837967,45.878372 255.559174,45.890011 
	C256.407867,44.668869 257.256561,43.447723 258.083466,42.107727 
	C258.083466,42.107727 258.203461,42.093533 258.907043,42.033142 
	C260.583160,41.153652 262.259277,40.274162 265.291412,38.683132 
	C260.250092,33.875866 255.996780,29.682806 251.509857,25.756714 
	C251.068100,25.370165 249.194046,26.620525 247.192490,27.128826 
	C246.137238,27.141146 245.081985,27.153465 243.923843,26.461924 
	C243.041489,26.131290 241.695953,25.260050 241.350449,25.556038 
	C238.722900,27.807211 235.288818,29.674492 235.940552,34.558212 
	C235.865799,34.710014 235.791031,34.861816 235.358200,35.269375 
	C235.144165,35.493397 235.034149,35.760326 234.928192,36.571880 
	C234.847290,36.721996 234.766388,36.872112 234.147903,37.325317 
	C233.426956,38.249222 232.706024,39.173130 231.291351,40.056076 
	C230.842819,39.944477 230.394302,39.832878 229.346985,39.251480 
	C226.589859,39.384319 223.832718,39.517162 220.310089,39.870758 
	C218.989304,39.969696 217.668503,40.068630 215.849518,40.134212 
	C215.501175,40.185745 215.228790,40.357540 214.382095,40.896545 
	C213.694641,40.980690 213.007172,41.064835 211.819351,41.134445 
	C211.472305,41.201344 211.207947,41.386261 210.516525,41.918625 
	C210.331375,41.939381 210.146210,41.960140 209.413666,41.975258 
	C208.953537,42.224667 208.493408,42.474075 207.583633,42.953041 
	C207.417694,42.981152 207.251770,43.009258 206.665237,43.097359 
	C206.385986,43.195366 206.172760,43.372719 205.404190,43.919350 
	C204.964798,44.043282 204.525406,44.167213 203.762375,43.716351 
	C202.505753,44.465885 201.249130,45.215416 199.706848,46.151775 
	C199.706848,46.151775 199.365753,46.164257 198.814377,46.181740 
	C198.544693,46.414345 198.275009,46.646954 197.623566,47.064140 
	C197.623566,47.064140 197.199554,47.069859 196.740540,47.132633 
	C196.434448,47.236626 196.203613,47.430271 195.554642,47.962788 
	C195.371185,47.979919 195.187714,47.997055 194.915939,47.368023 
	C191.794998,45.219952 190.894501,47.526436 189.615448,50.048725 
	C189.615448,50.048725 189.179291,50.064293 188.758347,50.104191 
	C188.476135,50.180744 188.250351,50.338173 187.438889,50.892189 
	C186.974884,50.996006 186.510895,51.099823 185.929688,50.474724 
	C182.284286,49.116890 172.784775,53.929222 172.115601,57.481964 
	C172.055374,57.801662 172.064697,58.142944 172.093552,58.469627 
	C172.396744,61.903343 172.662506,65.341293 173.031372,68.768089 
	C173.787964,75.797089 175.715820,77.746162 181.579193,77.066414 
	C181.737915,77.156624 181.896652,77.246834 182.299973,77.658607 
	C182.507797,77.846344 182.750732,77.957253 183.475281,78.034576 
	C183.783081,78.115303 184.013870,78.294952 184.112137,79.322037 
	C185.914520,80.974022 187.451080,83.248093 189.572083,84.154442 
	C194.716110,86.352570 195.681625,88.932442 192.167908,92.891075 
	C191.653549,93.470543 191.381699,94.265244 190.343323,95.140289 
	C189.892990,95.133675 189.442657,95.127052 188.899750,94.405540 
	C186.905289,94.677933 184.910843,94.950325 182.089401,95.282181 
	C180.731537,95.075394 179.373688,94.868599 177.904800,94.118347 
	C177.250839,94.128685 176.596863,94.139015 175.197784,94.151802 
	C174.469788,94.002090 173.741776,93.852379 172.858627,93.071922 
	C171.931229,93.441650 171.003830,93.811386 170.172546,94.566635 
	C170.172546,94.566635 170.155838,94.963585 169.384979,95.049545 
	C166.585312,95.378479 163.785629,95.707405 160.274490,96.033844 
	C159.824448,95.890831 159.374420,95.747826 158.611115,95.290176 
	C158.348862,95.120407 158.062607,95.054405 157.153030,95.132233 
	C156.772400,95.015816 156.391754,94.899399 155.919373,94.221008 
	C155.263641,94.190239 154.607910,94.159470 153.287323,94.134155 
	C152.862488,94.015678 152.437653,93.897202 151.923737,93.224884 
	C151.277939,93.162239 150.632141,93.099586 149.289688,93.012566 
	C148.842285,92.890724 148.394897,92.768883 147.661819,92.330696 
	C147.419647,92.151115 147.148987,92.080353 146.933075,92.161186 
	C146.933075,92.161186 146.845016,92.192879 147.026016,91.473076 
	C147.936829,90.514931 148.847641,89.556786 149.929733,88.418472 
	C149.025223,87.854630 148.471573,87.205765 147.942688,87.225372 
	C139.952209,87.521523 131.963867,87.885399 123.980728,88.334785 
	C123.624443,88.354843 123.322456,89.339386 122.184242,90.037872 
	C120.807671,90.073944 119.431099,90.110016 117.688301,89.559883 
	C115.653671,88.024147 113.820679,87.378914 112.209053,90.786224 
	C111.757973,90.779068 111.306892,90.771912 110.938675,89.836983 
	C111.170677,86.729446 108.577629,86.291847 107.106308,87.210793 
	C105.024506,88.511040 103.662979,90.964516 101.598473,93.092506 
	C101.598473,93.092506 101.169800,93.072769 100.582840,93.031624 
	C100.073250,93.263931 99.563660,93.496239 98.400566,93.944778 
	C97.946236,93.996132 97.491913,94.047485 96.747414,93.627281 
	C96.159973,93.982521 95.572533,94.337753 94.378662,94.966125 
	C93.945274,95.052559 93.511894,95.138992 92.774513,94.557365 
	C89.211311,91.449486 88.256714,93.518318 87.698608,97.155960 
	C87.698608,97.155960 87.345215,97.139168 86.434227,97.049942 
	C81.186249,97.199944 75.853249,97.152512 72.420631,102.999420 
	C72.028877,103.036507 71.637123,103.073586 70.500313,102.988724 
	C69.097015,102.001869 67.693718,101.015007 66.985497,100.516953 
	C64.486008,101.510887 62.661732,102.719742 60.735504,102.913116 
	C54.554836,103.533615 54.540291,103.388733 55.848293,109.965256 
	C55.325844,111.682938 54.803394,113.400612 53.417694,115.050095 
	C49.914982,114.516068 48.168751,115.976967 47.957832,119.558823 
	C47.853085,121.337639 47.302494,123.090202 46.174675,124.922134 
	C44.465511,125.185043 42.756351,125.447952 40.233540,125.888649 
	C38.572666,125.973343 36.911789,126.058037 34.646873,126.039291 
	C34.108715,126.255669 33.570557,126.472054 32.111439,126.879372 
	C26.861423,127.238640 21.611408,127.597908 15.697393,128.009247 
	C14.269838,128.624542 12.842282,129.239838 11.414727,129.855148 
	C11.370280,130.198898 11.325833,130.542633 11.281387,130.886383 
	C13.211953,131.241989 15.142520,131.597595 17.549210,132.092667 
	C17.549210,132.092667 18.018147,132.254654 18.386431,132.662720 
	C18.913383,132.780685 19.440336,132.898636 20.666088,133.178619 
	C23.464409,134.060883 26.262732,134.943130 29.582848,136.283142 
	C30.722616,136.444717 31.862385,136.606293 33.647205,136.994278 
	C34.101254,137.000656 34.555302,137.007034 35.673504,137.453247 
	C42.113926,137.897751 48.554344,138.342255 55.718433,139.022003 
	C57.672447,138.937195 59.662628,139.054871 61.570904,138.714005 
	C63.739422,138.326645 65.834709,137.529358 68.408279,137.489395 
	C70.946945,136.689423 73.485611,135.889450 76.760300,135.000504 
	C80.162064,133.990311 83.563835,132.980118 87.666290,131.931580 
	C89.449615,131.955917 91.232948,131.980255 93.010880,132.692368 
	C92.914238,133.139435 92.817604,133.586487 92.309448,134.447479 
	C92.234627,135.017609 92.159813,135.587723 92.067406,136.886505 
	C91.932053,137.600800 91.796700,138.315079 91.311150,139.374969 
	C91.127090,139.673264 91.075928,139.992905 91.196587,141.087036 
	C91.001472,142.061737 90.806358,143.036438 90.365997,144.143188 
	C90.212349,144.254959 90.096901,144.397644 89.474297,144.867828 
	C89.073158,144.960907 88.672020,145.053970 87.504074,144.991837 
	C84.355553,144.453674 80.806625,142.995499 80.061089,148.176147 
	C80.061089,148.176147 80.143616,148.132324 79.702896,148.141693 
	C79.404564,148.223969 79.177956,148.399033 78.386696,148.907883 
	C77.940544,148.983658 77.494392,149.059448 76.683609,148.593018 
	C75.781296,149.015213 74.878990,149.437408 73.413269,150.056473 
	C73.017975,150.077942 72.622673,150.099396 71.628944,150.034744 
	C71.100243,150.254639 70.571541,150.474518 69.295753,150.892197 
	C68.267944,150.957611 67.240135,151.023041 65.714752,151.147842 
	C65.384201,151.272369 65.149475,151.496979 64.662247,152.047760 
	C64.662247,152.047760 64.255829,152.133041 63.463863,152.059830 
	C62.678463,153.078781 61.893066,154.097748 61.070103,154.987137 
	C61.070103,154.987137 61.136227,155.105057 60.441868,155.104843 
	C59.903542,156.004150 59.365211,156.903442 58.162464,157.943420 
M187.356400,86.472038 
	C186.256424,87.227364 185.156433,87.982697 184.056442,88.738029 
	C184.541550,89.229958 185.026657,89.721893 185.511749,90.213829 
	C186.266434,89.139473 187.021103,88.065117 187.356400,86.472038 
M15.352406,200.076187 
	C14.766196,200.421402 14.179986,200.766617 13.593773,201.111816 
	C14.097611,201.379044 14.868736,201.989243 15.052636,201.845963 
	C15.511388,201.488434 15.703209,200.788406 15.352406,200.076187 
M66.481949,138.594315 
	C66.481949,138.594315 66.407997,138.472336 66.481949,138.594315 
z"/>
<path fill="#5C6BF4" opacity="1.000000" stroke="none" 
	d="
M312.462067,126.334412 
	C312.462067,126.334412 311.986603,126.417145 311.986603,126.417145 
	C311.986603,126.417145 311.511200,126.334160 311.133820,125.978180 
	C310.185181,125.400406 309.613922,125.178604 309.050079,124.663841 
	C308.136566,122.917297 307.215637,121.463715 306.294708,120.010147 
	C304.491028,121.662804 300.596497,116.499146 299.636383,121.958618 
	C298.883728,121.957222 298.453674,121.950775 297.926025,121.786018 
	C297.547119,121.731903 297.265747,121.836090 296.614532,121.956497 
	C295.504822,122.002487 294.764954,122.032242 293.837128,121.807709 
	C292.438110,122.368515 291.227081,123.183617 290.009247,124.000427 
	C290.002441,124.002136 289.999054,124.015808 289.584381,124.009140 
	C285.075928,124.841949 280.243713,124.031517 277.764160,129.072647 
	C277.529541,129.143250 277.039642,129.131165 276.813873,128.832062 
	C271.424042,129.830399 266.106628,130.734161 261.184143,132.651733 
	C259.591248,133.272263 258.182983,136.543045 258.160065,138.617767 
	C258.085114,145.401855 258.565308,152.203552 259.126099,158.974106 
	C259.246368,160.426147 260.267151,162.220276 261.440460,163.101135 
	C269.359863,169.046799 275.307434,177.124878 283.287048,183.001984 
	C289.628204,187.672363 295.518433,193.014618 302.146362,197.209305 
	C305.160645,199.117004 307.194244,200.212906 305.539886,203.964035 
	C305.079193,203.827621 304.545685,203.785110 304.142639,203.533508 
	C292.883423,196.505051 281.640076,189.451202 270.386993,182.412903 
	C268.166290,181.023941 265.927246,179.663483 263.678070,178.321045 
	C258.740570,175.374054 254.006241,171.953705 248.776062,169.673920 
	C244.861862,167.967758 240.337006,167.322189 236.021194,166.965927 
	C230.899109,166.543137 229.478867,170.226410 228.932419,174.615265 
	C228.701569,176.469391 227.673218,178.224213 226.853333,179.667786 
	C226.183624,177.563934 225.667923,175.816483 225.024445,173.636017 
	C221.844559,177.985657 222.338516,180.985840 226.010010,183.392792 
	C225.673050,185.524963 225.339157,187.265533 224.606323,189.017380 
	C223.471771,190.060593 222.174973,191.053894 222.100800,192.131363 
	C221.826187,196.120651 220.249451,198.651428 216.013016,198.564575 
	C216.667679,189.740967 217.789368,181.342163 217.778397,172.944870 
	C217.773392,169.116394 216.641800,163.782700 214.018936,161.852356 
	C210.864243,159.530640 205.399521,158.985413 201.250015,159.647110 
	C191.032867,161.276337 181.776947,159.066406 172.471222,155.319992 
	C164.286011,152.024689 155.981537,148.899872 147.499527,146.520355 
	C143.230667,145.322800 137.906723,144.568008 134.037430,146.093094 
	C129.052826,148.057785 125.127151,152.619644 120.594292,155.850906 
	C117.513084,158.047379 114.395996,160.516113 110.901695,161.743713 
	C103.489273,164.347778 95.836777,166.282242 88.245171,168.353668 
	C86.094543,168.940475 83.823669,169.216019 81.591209,169.345306 
	C77.550896,169.579330 73.178284,173.122513 72.201691,177.171371 
	C72.189789,177.157043 72.158508,177.140335 71.780174,177.092758 
	C69.388596,177.281250 67.375351,177.517334 65.582741,177.727524 
	C65.431969,179.993774 65.293785,182.070877 65.085846,184.115784 
	C65.016090,184.083588 65.168121,184.105850 64.907005,184.183197 
	C64.500000,184.575394 64.354118,184.890228 64.208939,185.128754 
	C64.209656,185.052460 64.269402,185.192886 63.957809,185.274323 
	C63.461769,185.937531 63.277321,186.519302 63.094742,187.050034 
	C63.096607,186.998993 63.126621,187.096878 62.752270,187.092621 
	C59.665779,188.257935 57.078812,189.508667 58.358055,193.203873 
	C58.347416,193.135040 58.314461,193.270386 57.952217,193.296051 
	C54.435425,195.508072 51.867821,197.965454 53.430325,202.329956 
	C53.430325,202.329956 53.432991,202.278122 53.028435,202.299896 
	C48.328720,204.594238 43.591145,206.447754 43.035072,212.540268 
	C42.767578,212.967773 42.539230,213.129715 42.202278,213.138458 
	C42.146099,213.059143 41.995098,212.936737 41.890652,212.730972 
	C41.584702,212.274506 41.326263,212.117477 40.699692,212.195801 
	C37.562531,213.916641 34.736568,215.495773 31.670301,217.209183 
	C30.888779,209.510269 32.147022,207.846558 38.483150,206.921051 
	C39.410782,206.785553 40.216892,205.818146 41.093933,205.160904 
	C41.108635,205.086151 41.260464,205.098892 41.447937,205.077484 
	C41.635414,205.056076 42.010361,205.002777 42.259541,204.986877 
	C42.769669,204.810425 43.030617,204.649872 43.291565,204.489304 
	C42.863651,204.328644 42.435741,204.167969 41.967030,203.688416 
	C41.896317,202.942291 41.866405,202.515076 42.185501,202.034637 
	C44.021851,200.986404 45.509197,199.991394 47.037941,199.277267 
	C47.379116,199.879974 47.678894,200.201797 47.978668,200.523605 
	C48.157318,200.316757 48.335968,200.109909 48.514626,199.903061 
	C48.008537,199.600906 47.502449,199.298752 46.992485,198.628586 
	C47.777363,196.883759 48.636147,195.541641 49.339214,194.122360 
	C50.533070,191.712357 51.628796,189.253738 52.857292,186.909103 
	C52.948822,187.002655 52.745121,186.838135 53.054527,186.744659 
	C53.544296,186.065033 53.724659,185.478867 53.932304,184.934784 
	C53.959591,184.976883 53.865028,184.943405 54.143505,184.831696 
	C54.663872,184.188766 54.905762,183.657578 55.344467,182.996094 
	C55.789330,182.659866 55.973297,182.407288 56.320015,182.079773 
	C56.546833,182.051514 57.001785,182.006851 57.319889,181.960739 
	C58.074131,181.273834 58.510269,180.633057 59.086929,179.696274 
	C60.154507,177.930435 61.081562,176.460602 62.237198,174.982788 
	C62.630516,174.651993 62.795265,174.329132 62.975204,173.630798 
	C62.994942,172.503784 62.999485,171.752274 63.258587,170.797638 
	C63.471451,169.885757 63.429756,169.176956 63.388062,168.468170 
	C62.592205,168.665985 61.796349,168.863800 60.720795,169.251205 
	C58.588970,171.921524 56.736839,174.402267 54.585243,176.961182 
	C53.820351,177.656601 53.354923,178.273819 52.558105,178.978638 
	C50.841290,181.074646 49.455868,183.083054 48.039158,185.058929 
	C48.007870,185.026398 48.095669,185.047318 47.847244,185.131104 
	C47.406773,185.497299 47.214722,185.779709 47.020992,186.040115 
	C47.019318,186.018112 47.058189,186.043076 46.706390,186.060211 
	C43.921478,187.566635 41.595055,190.060226 39.032654,190.332413 
	C33.972393,190.869965 28.780497,190.200882 23.645134,189.981522 
	C21.800217,189.902710 19.961355,189.682144 17.603951,189.482620 
	C18.331131,187.923157 18.597807,187.155533 19.017059,186.483002 
	C22.508570,180.882263 23.492905,181.034866 28.780338,184.722061 
	C30.626505,186.009476 34.012463,185.420563 36.634232,185.132767 
	C38.078854,184.974167 39.798267,183.974319 40.700981,182.814484 
	C44.228245,178.282562 47.479137,173.535538 50.841328,168.883209 
	C50.849895,168.897964 50.865181,168.900146 51.217949,168.907074 
	C52.630791,167.514130 53.690857,166.114243 54.861126,164.734833 
	C54.971325,164.755310 54.747204,164.753571 55.023037,164.723831 
	C55.421467,164.373779 55.544064,164.053452 55.650780,163.688370 
	C55.634899,163.643600 55.645771,163.549225 56.019127,163.672180 
	C57.787952,161.752151 59.183414,159.709167 60.550152,157.603729 
	C60.521427,157.541245 60.499611,157.405457 60.854950,157.470535 
	C62.968121,156.381287 64.579590,154.753784 66.509804,154.156708 
	C73.833481,151.891327 81.322891,150.151184 88.606750,147.774582 
	C90.546570,147.141647 92.833366,145.233978 93.461006,143.398651 
	C94.816216,139.435822 95.199333,135.140549 96.260651,130.745758 
	C95.801331,129.024994 95.091942,126.273743 94.316879,126.255104 
	C88.193092,126.107925 82.110977,126.429993 76.466682,129.537674 
	C73.114861,131.383163 69.441978,132.708481 65.807373,133.959442 
	C62.275108,135.175186 58.607441,135.997482 54.531807,136.986481 
	C48.722240,136.953156 43.380104,136.925858 37.911587,136.698364 
	C37.571541,136.250488 37.307938,136.080002 36.758621,135.719757 
	C35.345852,135.317032 34.168861,135.181229 32.621944,135.028381 
	C31.512573,134.991516 30.773125,134.971664 29.945814,134.590485 
	C27.303495,133.039291 24.749037,131.849411 22.194580,130.659531 
	C27.035648,129.520645 31.559864,129.809097 35.786659,128.822861 
	C41.807594,127.418015 49.344791,129.967957 53.416386,122.992111 
	C55.216087,119.908684 56.242939,116.374748 58.036839,113.287132 
	C59.181946,111.316200 60.865139,108.615730 62.694439,108.265480 
	C70.475998,106.775597 77.571159,103.675964 84.949486,101.056305 
	C97.445709,96.619537 110.777817,93.920631 123.981018,92.259895 
	C137.992569,90.497467 151.227737,96.147102 164.597626,99.719048 
	C167.511261,100.497467 170.742279,100.663261 173.750519,100.357460 
	C177.039917,100.023071 180.209320,98.289330 183.486130,98.094971 
	C190.475052,97.680443 197.401352,97.496117 202.470810,91.686333 
	C203.612839,90.377502 205.535172,88.324768 205.159271,87.420723 
	C204.436325,85.682053 202.543381,84.076820 200.751984,83.201897 
	C195.453506,80.614113 189.871017,78.605675 184.584946,75.995369 
	C179.969543,73.716255 177.207016,70.275940 177.882858,64.462349 
	C178.485901,59.274982 181.448517,55.910931 185.675293,54.415077 
	C197.263412,50.314072 208.022171,43.628109 220.529480,42.417187 
	C224.937683,41.990391 229.467133,42.815868 235.079666,43.134140 
	C235.372833,42.438915 236.455093,40.479511 237.035370,38.381283 
	C238.703491,32.349308 244.770279,28.448229 249.837555,31.170307 
	C252.741241,32.730122 254.629379,36.180431 257.223816,39.055714 
	C251.624939,41.077175 252.830521,46.313747 250.520950,49.976357 
	C248.088013,50.363907 246.030655,50.670048 243.724854,50.703968 
	C238.251297,49.934395 236.063385,51.984364 237.201111,56.761410 
	C237.722839,58.951912 238.670151,61.345493 240.173737,62.940792 
	C244.743958,67.789749 249.043701,73.378578 254.634659,76.656799 
	C261.504211,80.684731 265.771942,90.669342 276.333374,87.318466 
	C276.928101,87.129776 277.805328,88.069328 278.602234,88.229942 
	C280.203888,88.552742 281.885895,89.052803 283.454742,88.852699 
	C287.843811,88.292908 292.178436,87.315781 296.562531,86.703606 
	C298.625793,86.415512 301.056641,87.233871 302.791107,86.420761 
	C306.955109,84.468666 309.842926,86.120110 312.403290,88.962181 
	C316.728455,93.763268 321.538116,98.312096 324.923828,103.729576 
	C329.361755,110.830673 336.806488,115.986946 338.545990,124.868874 
	C338.941071,126.886154 340.420990,128.690979 341.477753,130.741455 
	C339.102325,134.918030 335.477966,136.838684 333.353973,134.496567 
	C328.619965,129.276474 322.187775,127.960152 315.524689,126.027603 
	C314.211365,126.124146 313.336731,126.229279 312.462067,126.334412 
M241.250961,79.305748 
	C239.523407,77.756882 237.934235,76.007118 236.038925,74.701836 
	C232.328995,72.146805 228.715164,68.964523 224.556992,67.696587 
	C220.990417,66.609039 216.716415,67.774696 212.763306,68.056725 
	C211.322601,68.159508 209.905106,68.587845 208.248840,68.912361 
	C208.794037,69.917244 208.901428,70.241356 209.108505,70.478355 
	C213.833771,75.885963 218.427429,81.422134 223.418274,86.573265 
	C224.479996,87.669075 226.986542,87.553230 228.843857,87.638618 
	C230.822449,87.729599 233.138443,86.687325 234.740372,87.404968 
	C237.602966,88.687370 239.771515,88.511925 242.721298,86.648788 
	C245.800491,86.729134 248.884964,86.948410 251.956711,86.832138 
	C253.529877,86.772598 255.080307,86.112823 256.641022,85.724327 
	C256.516418,85.185524 256.391785,84.646713 256.267181,84.107910 
	C254.170944,83.751564 252.074722,83.395210 249.622040,82.871140 
	C249.622040,82.871140 249.235214,82.796715 248.915024,82.200104 
	C246.546295,81.382927 244.177567,80.565750 241.250961,79.305748 
z"/>
<path fill="#6E78DF" opacity="1.000000" stroke="none" 
	d="
M250.896515,49.894951 
	C252.830521,46.313747 251.624939,41.077175 257.223816,39.055714 
	C254.629379,36.180431 252.741241,32.730122 249.837555,31.170307 
	C244.770279,28.448229 238.703491,32.349308 237.035370,38.381283 
	C236.455093,40.479511 235.372833,42.438915 235.079666,43.134140 
	C229.467133,42.815868 224.937683,41.990391 220.529480,42.417187 
	C208.022171,43.628109 197.263412,50.314072 185.675293,54.415077 
	C181.448517,55.910931 178.485901,59.274982 177.882858,64.462349 
	C177.207016,70.275940 179.969543,73.716255 184.584946,75.995369 
	C189.871017,78.605675 195.453506,80.614113 200.751984,83.201897 
	C202.543381,84.076820 204.436325,85.682053 205.159271,87.420723 
	C205.535172,88.324768 203.612839,90.377502 202.470810,91.686333 
	C197.401352,97.496117 190.475052,97.680443 183.486130,98.094971 
	C180.209320,98.289330 177.039917,100.023071 173.750519,100.357460 
	C170.742279,100.663261 167.511261,100.497467 164.597626,99.719048 
	C151.227737,96.147102 137.992569,90.497467 123.981018,92.259895 
	C110.777817,93.920631 97.445709,96.619537 84.949486,101.056305 
	C77.571159,103.675964 70.475998,106.775597 62.694439,108.265480 
	C60.865139,108.615730 59.181946,111.316200 58.036839,113.287132 
	C56.242939,116.374748 55.216087,119.908684 53.416386,122.992111 
	C49.344791,129.967957 41.807594,127.418015 35.786659,128.822861 
	C31.559864,129.809097 27.035648,129.520645 22.194580,130.659531 
	C24.749037,131.849411 27.303495,133.039291 29.741392,134.686523 
	C29.357649,135.305511 29.169724,135.532684 29.061054,135.825394 
	C26.262732,134.943130 23.464409,134.060883 20.143341,132.874603 
	C19.086445,132.465286 18.552296,132.359970 18.018147,132.254654 
	C18.018147,132.254654 17.549210,132.092667 17.197899,131.746918 
	C16.684858,130.253159 16.523127,129.105164 16.361393,127.957169 
	C21.611408,127.597908 26.861423,127.238640 32.867516,126.851883 
	C34.166035,126.597183 34.708477,126.369957 35.250916,126.142731 
	C36.911789,126.058037 38.572666,125.973343 41.041748,125.896385 
	C43.912724,125.604218 45.975483,125.304314 48.336170,124.846230 
	C50.516376,121.498123 52.398659,118.308212 54.280945,115.118294 
	C54.803394,113.400612 55.325844,111.682938 56.305122,109.451866 
	C58.773636,107.994736 60.744915,106.948990 62.806904,106.132248 
	C65.583107,105.032623 68.429245,104.109528 71.245369,103.110657 
	C71.637123,103.073586 72.028877,103.036507 73.089874,102.991425 
	C78.287819,101.035347 82.816521,99.087257 87.345215,97.139168 
	C87.345215,97.139168 87.698608,97.155960 88.194244,97.059387 
	C90.152748,96.383682 91.615623,95.804558 93.078506,95.225433 
	C93.511894,95.138992 93.945274,95.052559 94.963806,94.891739 
	C96.045158,94.577843 96.541367,94.338341 97.037582,94.098839 
	C97.491913,94.047485 97.946236,93.996132 99.017593,93.879807 
	C100.146347,93.567474 100.658073,93.320122 101.169800,93.072769 
	C101.169800,93.072769 101.598473,93.092506 102.186234,93.032860 
	C105.467934,92.237061 108.161873,91.500908 110.855812,90.764755 
	C111.306892,90.771912 111.757973,90.779068 112.852074,90.839043 
	C115.014908,90.643272 116.534714,90.394684 118.054527,90.146095 
	C119.431099,90.110016 120.807671,90.073944 123.050560,90.028641 
	C131.559586,90.743896 139.202301,91.468384 146.845016,92.192879 
	C146.845016,92.192879 146.933075,92.161186 147.002411,92.340584 
	C147.071762,92.519981 147.492508,92.701553 147.492508,92.701553 
	C147.492508,92.701553 147.947495,92.647041 147.947495,92.647041 
	C148.394897,92.768883 148.842285,92.890724 149.821472,93.245522 
	C150.906448,93.578560 151.459625,93.678642 152.012817,93.778717 
	C152.437653,93.897202 152.862488,94.015678 153.817902,94.340187 
	C154.902679,94.625145 155.456909,94.704063 156.011124,94.782990 
	C156.391754,94.899399 156.772400,95.015816 157.594879,95.300323 
	C158.036728,95.468422 158.460800,95.665573 158.460800,95.665573 
	C158.460800,95.665573 158.924377,95.604813 158.924377,95.604813 
	C159.374420,95.747826 159.824448,95.890831 160.908569,96.294556 
	C164.792282,97.126839 168.041931,97.698395 172.355728,98.457123 
	C171.146301,96.536491 170.651062,95.750038 170.155838,94.963585 
	C170.155838,94.963585 170.172546,94.566635 170.491058,94.310707 
	C171.544296,93.937408 172.279037,93.820038 173.013779,93.702667 
	C173.741776,93.852379 174.469788,94.002090 175.771393,94.355484 
	C176.901947,94.593376 177.458878,94.627594 178.015823,94.661812 
	C179.373688,94.868599 180.731537,95.075394 182.790253,95.435539 
	C185.324829,95.432747 187.158585,95.276588 188.992325,95.120438 
	C189.442657,95.127052 189.892990,95.133675 191.050034,95.103699 
	C195.361526,92.745140 198.966309,90.423180 203.701248,87.373238 
	C196.179504,83.984756 190.173599,81.279144 184.167679,78.573524 
	C184.013870,78.294952 183.783081,78.115303 183.145111,77.827164 
	C182.623627,77.359161 182.370453,77.264923 182.055405,77.337044 
	C181.896652,77.246834 181.737915,77.156624 181.152679,76.725891 
	C174.688553,70.480576 173.169952,64.330643 177.253448,58.940075 
	C179.563431,55.890709 183.076004,53.752338 186.046890,51.203640 
	C186.510895,51.099823 186.974884,50.996006 187.980774,50.762695 
	C188.837601,50.554554 189.056473,50.364914 189.179291,50.064293 
	C189.179291,50.064293 189.615448,50.048725 190.147705,49.956440 
	C192.121384,49.247494 193.562820,48.630836 195.004257,48.014183 
	C195.187714,47.997055 195.371185,47.979919 196.036560,47.830444 
	C196.832840,47.583424 197.059860,47.374008 197.199554,47.069859 
	C197.199554,47.069859 197.623566,47.064140 198.084076,46.952282 
	C198.818298,46.615036 199.092026,46.389648 199.365753,46.164257 
	C199.365753,46.164257 199.706848,46.151775 200.176178,46.054703 
	C201.792343,45.402134 202.939178,44.846634 204.086014,44.291138 
	C204.525406,44.167213 204.964798,44.043282 205.937958,43.784225 
	C206.782623,43.551853 206.987320,43.347942 207.085846,43.037369 
	C207.251770,43.009258 207.417694,42.981152 208.086685,42.876892 
	C209.046844,42.527466 209.503937,42.254185 209.961029,41.980904 
	C210.146210,41.960140 210.331375,41.939381 211.020676,41.825054 
	C211.789780,41.537315 212.054749,41.343147 212.319717,41.148979 
	C213.007172,41.064835 213.694641,40.980690 214.955475,40.805073 
	C215.801819,40.531590 216.074768,40.349575 216.347717,40.167564 
	C217.668503,40.068630 218.989304,39.969696 221.126923,39.847443 
	C224.611084,39.789848 227.278427,39.755566 229.945770,39.721283 
	C230.394302,39.832878 230.842819,39.944477 231.878464,40.315910 
	C236.271057,41.306290 234.285248,38.418961 234.685486,37.022228 
	C234.766388,36.872112 234.847290,36.721996 235.194855,36.227409 
	C235.712494,35.641819 235.797409,35.352043 235.716278,35.013618 
	C235.791031,34.861816 235.865799,34.710014 236.261841,34.116180 
	C239.064331,31.504694 241.545532,29.335236 244.026733,27.165781 
	C245.081985,27.153465 246.137238,27.141146 247.856628,27.341267 
	C256.688995,29.960161 260.344391,35.449226 258.203461,42.093533 
	C258.203461,42.093533 258.083466,42.107727 257.738800,42.199562 
	C256.542084,43.487049 255.690018,44.682709 254.837967,45.878372 
	C254.837967,45.878372 254.842239,45.961132 254.587173,46.133385 
	C254.221909,47.202236 254.111710,48.098831 254.001495,48.995430 
	C253.494705,49.364567 252.987900,49.733704 252.057236,50.195808 
	C251.633362,50.288773 251.252899,50.249672 251.163666,50.161140 
	C251.074417,50.072605 250.896515,49.894951 250.896515,49.894951 
z"/>
<path fill="#6B75E1" opacity="1.000000" stroke="none" 
	d="
M225.005280,189.006104 
	C225.339157,187.265533 225.673050,185.524963 226.269516,183.187729 
	C226.690521,181.735443 226.848953,180.879807 227.007385,180.024185 
	C227.673218,178.224213 228.701569,176.469391 228.932419,174.615265 
	C229.478867,170.226410 230.899109,166.543137 236.021194,166.965927 
	C240.337006,167.322189 244.861862,167.967758 248.776062,169.673920 
	C254.006241,171.953705 258.740570,175.374054 263.678070,178.321045 
	C265.927246,179.663483 268.166290,181.023941 270.386993,182.412903 
	C281.640076,189.451202 292.883423,196.505051 304.142639,203.533508 
	C304.545685,203.785110 305.079193,203.827621 305.539886,203.964035 
	C307.194244,200.212906 305.160645,199.117004 302.146362,197.209305 
	C295.518433,193.014618 289.628204,187.672363 283.287048,183.001984 
	C275.307434,177.124878 269.359863,169.046799 261.440460,163.101135 
	C260.267151,162.220276 259.246368,160.426147 259.126099,158.974106 
	C258.565308,152.203552 258.085114,145.401855 258.160065,138.617767 
	C258.182983,136.543045 259.591248,133.272263 261.184143,132.651733 
	C266.106628,130.734161 271.424042,129.830399 276.544556,129.061829 
	C273.091400,130.807846 269.642181,131.925461 266.280731,133.263550 
	C259.921661,135.794907 259.015656,137.895233 260.939148,145.023621 
	C260.967865,147.407150 260.996552,149.790695 261.073364,152.998199 
	C261.486725,155.646988 261.851959,157.471802 262.217224,159.296616 
	C267.256226,164.324722 272.103729,169.564957 277.380676,174.329498 
	C284.650909,180.893768 292.236053,187.109970 299.704102,193.454330 
	C307.242950,199.858856 316.901520,199.779694 325.829620,201.916321 
	C327.387634,202.289185 329.009308,202.396149 332.357758,202.879364 
	C328.578644,206.493713 326.135590,209.617493 322.976440,211.600418 
	C320.487396,213.162704 317.212494,213.346710 315.472870,209.514618 
	C314.190216,206.689163 312.380280,204.985153 308.755890,206.619919 
	C307.409332,207.227264 305.091675,206.701477 303.656952,205.902344 
	C299.343903,203.500046 295.247620,200.708664 290.674744,197.533844 
	C287.877686,195.620331 285.472656,194.242050 283.067627,192.863785 
	C282.376282,192.512573 281.684937,192.161377 280.513062,191.602097 
	C279.691437,191.318634 279.350372,191.243240 279.009308,191.167847 
	C279.009308,191.167847 278.622009,190.968094 278.275757,190.721985 
	C277.620911,190.370850 277.312317,190.265808 277.003693,190.160767 
	C268.487000,185.096390 259.764832,180.339325 251.538452,174.840591 
	C247.293488,172.003174 243.244171,169.910614 238.061523,169.351074 
	C234.644943,168.982208 232.994186,169.922363 232.101608,172.817520 
	C230.096146,179.322418 228.203613,185.862137 225.827698,192.680115 
	C225.390289,192.972534 224.980988,192.983109 224.987793,192.585724 
	C224.998154,191.127609 225.001709,190.066849 225.005280,189.006104 
z"/>
<path fill="#6E78DB" opacity="1.000000" stroke="none" 
	d="
M224.980988,192.983109 
	C224.980988,192.983109 225.390289,192.972534 225.594421,192.959747 
	C224.840927,201.846924 223.845840,210.743088 222.939545,219.648270 
	C222.383255,225.114243 223.557648,229.077118 229.163406,232.289047 
	C232.958145,234.463318 234.907318,239.858597 237.626801,243.734634 
	C234.438339,244.226547 231.969528,244.802139 229.475555,244.948334 
	C225.337097,245.190918 222.687515,243.708527 223.205368,238.889587 
	C223.481171,236.323273 222.348663,234.531418 219.502533,234.908310 
	C215.610809,235.423645 214.193176,232.983032 214.080582,229.993912 
	C213.894241,225.047806 214.402786,220.079239 214.496613,215.117828 
	C214.587112,210.333008 214.388214,205.540497 214.557999,200.759918 
	C214.834717,192.968033 215.550018,185.184723 215.600952,177.394638 
	C215.628418,173.195816 215.128693,168.842422 213.874191,164.872437 
	C213.463455,163.572632 209.963165,162.757217 207.808319,162.590073 
	C200.518295,162.024597 193.068085,162.581909 185.926346,161.315598 
	C178.977295,160.083420 172.317978,157.179337 165.557983,154.929565 
	C158.791397,152.677597 152.147171,150.002670 145.284912,148.108780 
	C138.120010,146.131378 132.079239,148.714005 126.564621,153.600998 
	C122.262932,157.413116 117.294060,160.472351 112.047905,164.052063 
	C111.208252,164.443771 110.942375,164.649551 110.676498,164.855331 
	C110.286072,164.920837 109.895653,164.986343 108.992081,165.168549 
	C108.130997,165.357773 107.873344,165.550842 107.705971,165.864502 
	C107.324608,165.913208 106.943245,165.961899 106.010239,166.084320 
	C104.963768,166.411942 104.468941,166.665848 103.974113,166.919739 
	C103.521912,166.979462 103.069710,167.039185 102.051056,167.195755 
	C101.142967,167.370468 100.885216,167.561569 100.711365,167.865891 
	C100.319923,167.894318 99.928474,167.922729 98.966324,168.018707 
	C97.893700,168.350830 97.391777,168.615387 96.889854,168.879959 
	C96.889854,168.879959 96.954781,168.843094 96.505112,168.824066 
	C91.648903,169.840836 87.242348,170.876633 82.835800,171.912415 
	C82.416466,171.958969 81.997139,172.005508 81.033157,172.149628 
	C80.151314,172.355820 79.912643,172.572845 79.772507,172.898285 
	C78.605736,173.378052 77.438972,173.857803 75.811447,174.731293 
	C74.304993,175.811920 73.259285,176.498810 72.213577,177.185699 
	C73.178284,173.122513 77.550896,169.579330 81.591209,169.345306 
	C83.823669,169.216019 86.094543,168.940475 88.245171,168.353668 
	C95.836777,166.282242 103.489273,164.347778 110.901695,161.743713 
	C114.395996,160.516113 117.513084,158.047379 120.594292,155.850906 
	C125.127151,152.619644 129.052826,148.057785 134.037430,146.093094 
	C137.906723,144.568008 143.230667,145.322800 147.499527,146.520355 
	C155.981537,148.899872 164.286011,152.024689 172.471222,155.319992 
	C181.776947,159.066406 191.032867,161.276337 201.250015,159.647110 
	C205.399521,158.985413 210.864243,159.530640 214.018936,161.852356 
	C216.641800,163.782700 217.773392,169.116394 217.778397,172.944870 
	C217.789368,181.342163 216.667679,189.740967 216.025848,198.862305 
	C216.351486,200.059662 216.659790,200.533875 216.975616,201.474609 
	C216.668793,207.632477 216.184906,213.321411 216.104660,219.016052 
	C216.057632,222.352890 216.653839,225.698792 216.970154,229.449677 
	C217.289078,235.390945 221.595627,232.056335 224.015762,233.381485 
	C224.676254,235.285355 225.560638,236.767548 225.853653,238.358643 
	C226.746658,243.207993 229.348984,242.395355 233.642975,240.508972 
	C230.701172,237.607285 228.356644,235.294739 225.846832,232.673431 
	C221.841934,230.894379 220.964203,227.428101 220.035645,223.570129 
	C220.670975,218.437714 221.310776,213.728271 221.965820,208.593781 
	C222.981049,203.106857 223.981003,198.044983 224.980988,192.983109 
z"/>
<path fill="#6B75E1" opacity="1.000000" stroke="none" 
	d="
M315.963348,126.036194 
	C322.187775,127.960152 328.619965,129.276474 333.353973,134.496567 
	C335.477966,136.838684 339.102325,134.918030 341.477753,130.741455 
	C340.420990,128.690979 338.941071,126.886154 338.545990,124.868874 
	C336.806488,115.986946 329.361755,110.830673 324.923828,103.729576 
	C321.538116,98.312096 316.728455,93.763268 312.403290,88.962181 
	C309.842926,86.120110 306.955109,84.468666 302.791107,86.420761 
	C301.056641,87.233871 298.625793,86.415512 296.562531,86.703606 
	C292.178436,87.315781 287.843811,88.292908 283.454742,88.852699 
	C281.885895,89.052803 280.203888,88.552742 278.602234,88.229942 
	C277.805328,88.069328 276.928101,87.129776 276.333374,87.318466 
	C265.771942,90.669342 261.504211,80.684731 254.634659,76.656799 
	C249.043701,73.378578 244.743958,67.789749 240.173737,62.940792 
	C238.670151,61.345493 237.722839,58.951912 237.201111,56.761410 
	C236.063385,51.984364 238.251297,49.934395 243.424103,50.739979 
	C242.915436,51.397285 242.459091,51.746361 241.672241,52.167999 
	C239.007629,53.639977 238.116776,55.295048 240.407654,57.513725 
	C240.772079,58.538799 241.136505,59.563877 241.823944,61.039059 
	C242.425323,61.673523 242.703705,61.857880 242.982071,62.042236 
	C250.028641,71.663361 259.877960,77.911263 269.673218,84.225159 
	C269.810089,84.313377 269.910461,84.548553 270.034393,84.553558 
	C275.419220,84.771202 280.804932,85.114944 286.190125,85.108231 
	C288.700409,85.105103 291.209808,84.418518 293.850739,84.685654 
	C295.852173,83.726234 297.493378,81.070930 300.283691,83.871437 
	C300.535156,84.123833 301.355865,84.105003 301.732758,83.893021 
	C310.561340,78.927475 314.136200,87.019753 317.982300,91.445496 
	C326.671875,101.444656 334.263916,112.398994 342.275696,122.985023 
	C345.188538,126.833801 344.805511,131.509277 342.359375,134.649460 
	C340.666504,136.822647 336.227722,137.839233 333.137604,137.624176 
	C330.756195,137.458420 328.662445,134.413315 326.263245,132.937042 
	C323.177216,131.038162 319.913727,129.427765 316.381897,127.292389 
	C315.998871,126.607697 315.974274,126.322533 315.963348,126.036194 
z"/>
<path fill="#717ADA" opacity="1.000000" stroke="none" 
	d="
M50.832760,168.868469 
	C47.479137,173.535538 44.228245,178.282562 40.700981,182.814484 
	C39.798267,183.974319 38.078854,184.974167 36.634232,185.132767 
	C34.012463,185.420563 30.626505,186.009476 28.780338,184.722061 
	C23.492905,181.034866 22.508570,180.882263 19.017059,186.483002 
	C18.597807,187.155533 18.331131,187.923157 17.603951,189.482620 
	C19.961355,189.682144 21.800217,189.902710 23.645134,189.981522 
	C28.780497,190.200882 33.972393,190.869965 39.032654,190.332413 
	C41.595055,190.060226 43.921478,187.566635 46.647110,186.397858 
	C44.625023,188.828705 42.310413,190.939072 39.995811,193.049438 
	C39.564236,192.990189 39.132656,192.930954 38.088287,192.630981 
	C34.300083,192.216217 31.124676,192.042160 27.949268,191.868103 
	C27.512835,191.887238 27.076401,191.906387 25.865227,191.935120 
	C21.227110,191.944687 17.363733,191.944687 12.721354,191.944687 
	C14.791299,188.664474 16.019808,186.084503 17.835850,184.021835 
	C19.574284,182.047302 21.923168,180.610229 24.003754,178.936951 
	C27.184494,180.413666 30.365231,181.890381 34.392059,183.759918 
	C38.503036,179.889999 43.265480,175.406799 48.376816,170.513702 
	C49.428055,169.692017 50.130409,169.280243 50.832760,168.868469 
z"/>
<path fill="none" opacity="1.000000" stroke="none" 
	d="
M23.935595,178.580154 
	C21.923168,180.610229 19.574284,182.047302 17.835850,184.021835 
	C16.019808,186.084503 14.791299,188.664474 12.721354,191.944687 
	C17.363733,191.944687 21.227110,191.944687 25.548838,192.025101 
	C25.496227,193.659149 24.985268,195.212799 24.726934,195.998291 
	C20.542068,195.998291 16.927137,196.072296 13.316461,195.979965 
	C8.579662,195.858841 7.810174,194.294678 9.385059,189.826111 
	C10.385918,186.986267 10.114578,183.646530 11.345690,180.957657 
	C12.153583,179.193146 14.490890,177.947220 16.383163,176.904343 
	C19.076630,175.419907 21.795925,175.395996 23.935595,178.580154 
z"/>
<path fill="none" opacity="1.000000" stroke="none" 
	d="
M39.987732,193.416199 
	C42.310413,190.939072 44.625023,188.828705 46.998909,186.380707 
	C47.058189,186.043076 47.019318,186.018112 47.270622,185.951447 
	C47.713173,185.605606 47.904419,185.326462 48.095665,185.047318 
	C48.095669,185.047318 48.007870,185.026398 48.318760,184.933960 
	C49.645584,183.840897 50.661522,182.840302 52.052319,181.909088 
	C53.013332,182.408630 53.599483,182.838806 54.122765,183.547302 
	C53.994938,184.198242 53.929985,184.570816 53.865028,184.943405 
	C53.865028,184.943405 53.959591,184.976883 53.663494,185.077774 
	C53.159973,185.731827 52.952549,186.284973 52.745125,186.838135 
	C52.745121,186.838135 52.948822,187.002655 52.553169,187.037048 
	C48.549427,191.404816 44.913509,195.715897 41.389694,200.116730 
	C41.127319,200.444412 41.668743,201.415741 41.836494,202.087845 
	C41.866405,202.515076 41.896317,202.942291 41.961647,203.672394 
	C41.997066,203.975281 41.963596,203.973511 41.772606,204.107086 
	C41.366890,204.486420 41.259838,204.772507 41.260464,205.098892 
	C41.260464,205.098892 41.108635,205.086151 40.642113,205.144012 
	C37.772297,205.071701 35.368999,204.941528 32.965706,204.811356 
	C32.348782,203.508789 31.743002,202.200806 31.111593,200.905304 
	C30.552801,199.758804 29.965490,198.626205 29.390770,197.487473 
	C30.797651,197.268280 32.500725,196.432861 33.558006,196.941025 
	C37.301025,198.740128 38.954556,197.092728 39.987732,193.416199 
z"/>
<path fill="#6872DD" opacity="1.000000" stroke="none" 
	d="
M54.999237,136.992554 
	C58.607441,135.997482 62.275108,135.175186 65.807373,133.959442 
	C69.441978,132.708481 73.114861,131.383163 76.466682,129.537674 
	C82.110977,126.429993 88.193092,126.107925 94.316879,126.255104 
	C95.091942,126.273743 95.801331,129.024994 96.137695,130.459137 
	C95.104294,129.631836 94.474327,128.855621 93.495514,128.128281 
	C91.109123,128.846039 89.071594,129.514938 86.816772,130.023834 
	C86.141464,129.271759 85.381027,128.110809 85.269310,128.170197 
	C81.799713,130.014572 78.393486,131.978149 74.631683,134.022583 
	C72.177841,135.051254 70.069832,135.980743 67.961830,136.910248 
	C65.834709,137.529358 63.739422,138.326645 61.570904,138.714005 
	C59.662628,139.054871 57.672447,138.937195 55.358444,138.605560 
	C54.998714,137.790268 54.998974,137.391403 54.999237,136.992554 
z"/>
<path fill="#717ADA" opacity="1.000000" stroke="none" 
	d="
M93.844368,128.079407 
	C94.474327,128.855621 95.104294,129.631836 95.857208,130.694672 
	C95.199333,135.140549 94.816216,139.435822 93.461006,143.398651 
	C92.833366,145.233978 90.546570,147.141647 88.606750,147.774582 
	C81.322891,150.151184 73.833481,151.891327 66.509804,154.156708 
	C64.579590,154.753784 62.968121,156.381287 60.929607,157.182831 
	C60.811359,156.255066 60.973793,155.680054 61.136227,155.105057 
	C61.136227,155.105057 61.070103,154.987137 61.382141,154.940323 
	C62.548061,153.973343 63.401943,153.053192 64.255829,152.133041 
	C64.255829,152.133041 64.662247,152.047760 65.084030,151.906708 
	C65.741318,151.539932 65.976822,151.314194 66.212326,151.088455 
	C67.240135,151.023041 68.267944,150.957611 69.961990,150.863678 
	C71.161270,150.597046 71.694321,150.358948 72.227379,150.120850 
	C72.622673,150.099396 73.017975,150.077942 74.024017,150.012817 
	C75.439255,149.691193 76.243744,149.413208 77.048241,149.135223 
	C77.494392,149.059448 77.940544,148.983658 78.935608,148.816467 
	C79.831779,148.669373 80.051476,148.471802 80.143616,148.132324 
	C80.143616,148.132324 80.061089,148.176147 80.479042,148.183655 
	C83.354958,147.176468 85.812920,146.161758 88.270882,145.147034 
	C88.672020,145.053970 89.073158,144.960907 89.929001,144.754379 
	C90.657845,144.502899 90.733696,144.292969 90.611252,144.011139 
	C90.806358,143.036438 91.001472,142.061737 91.361862,140.538422 
	C91.571869,139.669662 91.616608,139.349518 91.661346,139.029373 
	C91.796700,138.315079 91.932053,137.600800 92.288086,136.314880 
	C92.579491,135.173355 92.650230,134.603455 92.720970,134.033554 
	C92.817604,133.586487 92.914238,133.139435 93.259544,132.102936 
	C93.620262,130.368805 93.732315,129.224106 93.844368,128.079407 
z"/>
<path fill="none" opacity="1.000000" stroke="none" 
	d="
M185.988281,50.839180 
	C183.076004,53.752338 179.563431,55.890709 177.253448,58.940075 
	C173.169952,64.330643 174.688553,70.480576 180.881927,76.684677 
	C175.715820,77.746162 173.787964,75.797089 173.031372,68.768089 
	C172.662506,65.341293 172.396744,61.903343 172.093552,58.469627 
	C172.064697,58.142944 172.055374,57.801662 172.115601,57.481964 
	C172.784775,53.929222 182.284286,49.116890 185.988281,50.839180 
z"/>
<path fill="none" opacity="1.000000" stroke="none" 
	d="
M261.232117,144.775467 
	C259.015656,137.895233 259.921661,135.794907 266.280731,133.263550 
	C269.642181,131.925461 273.091400,130.807846 276.770325,129.360931 
	C277.039642,129.131165 277.529541,129.143250 278.145844,129.100861 
	C282.187225,128.081665 285.612305,127.104881 289.037384,126.128090 
	C287.582153,127.721153 286.126923,129.314209 284.406158,131.197983 
	C277.359192,131.898788 269.668427,132.958130 263.546875,138.246933 
	C262.125366,139.475082 262.160309,142.389053 261.232117,144.775467 
z"/>
<path fill="none" opacity="1.000000" stroke="none" 
	d="
M184.139908,78.947784 
	C190.173599,81.279144 196.179504,83.984756 203.701248,87.373238 
	C198.966309,90.423180 195.361526,92.745140 191.377197,95.013733 
	C191.381699,94.265244 191.653549,93.470543 192.167908,92.891075 
	C195.681625,88.932442 194.716110,86.352570 189.572083,84.154442 
	C187.451080,83.248093 185.914520,80.974022 184.139908,78.947784 
z"/>
<path fill="#7279DC" opacity="1.000000" stroke="none" 
	d="
M32.961388,204.884186 
	C35.368999,204.941528 37.772297,205.071701 40.627411,205.218765 
	C40.216892,205.818146 39.410782,206.785553 38.483150,206.921051 
	C32.147022,207.846558 30.888779,209.510269 31.670301,217.209183 
	C34.736568,215.495773 37.562531,213.916641 40.806541,212.399200 
	C41.421417,212.716644 41.678253,212.875259 41.995098,212.936737 
	C41.995098,212.936737 42.146099,213.059143 42.207943,213.344208 
	C42.269787,213.629257 42.359955,214.031219 42.359955,214.031219 
	C41.986427,214.422256 41.612896,214.813278 40.712811,215.475143 
	C38.043583,216.995834 35.900909,218.245682 33.758232,219.495514 
	C31.750418,220.093048 28.896833,223.001129 29.044224,216.977219 
	C29.324163,213.457611 29.585037,210.723785 29.845913,207.989944 
	C30.439295,207.386353 31.032675,206.782761 32.030716,205.901703 
	C32.690727,205.472992 32.816010,205.248932 32.811230,204.952072 
	C32.811230,204.952072 32.957073,204.957031 32.961388,204.884186 
z"/>
<path fill="none" opacity="1.000000" stroke="none" 
	d="
M72.201683,177.171356 
	C73.259285,176.498810 74.304993,175.811920 75.648849,175.009216 
	C75.124863,176.596863 74.552353,178.488724 73.434959,179.969391 
	C69.704033,184.913239 65.869865,189.787323 61.877949,194.521759 
	C60.436218,196.231659 58.436794,197.471359 56.374290,198.607620 
	C56.809296,196.616531 57.561878,194.943466 58.314461,193.270386 
	C58.314461,193.270386 58.347416,193.135040 58.669876,193.131683 
	C60.370430,191.117859 61.748528,189.107361 63.126625,187.096878 
	C63.126621,187.096878 63.096607,186.998993 63.373634,186.923477 
	C63.856907,186.296265 64.063156,185.744583 64.269402,185.192886 
	C64.269402,185.192886 64.209656,185.052460 64.472870,185.062607 
	C64.880096,184.750458 65.024109,184.428146 65.168121,184.105850 
	C65.168121,184.105850 65.016090,184.083588 65.389542,183.982056 
	C67.894821,181.633804 70.026665,179.387070 72.158508,177.140335 
	C72.158508,177.140335 72.189789,177.157043 72.201683,177.171356 
z"/>
<path fill="none" opacity="1.000000" stroke="none" 
	d="
M146.935516,91.832977 
	C139.202301,91.468384 131.559586,90.743896 123.456024,89.947037 
	C123.322456,89.339386 123.624443,88.354843 123.980728,88.334785 
	C131.963867,87.885399 139.952209,87.521523 147.942688,87.225372 
	C148.471573,87.205765 149.025223,87.854630 149.929733,88.418472 
	C148.847641,89.556786 147.936829,90.514931 146.935516,91.832977 
z"/>
<path fill="none" opacity="1.000000" stroke="none" 
	d="
M258.555237,42.063339 
	C260.344391,35.449226 256.688995,29.960161 248.252777,27.332407 
	C249.194046,26.620525 251.068100,25.370165 251.509857,25.756714 
	C255.996780,29.682806 260.250092,33.875866 265.291412,38.683132 
	C262.259277,40.274162 260.583160,41.153652 258.555237,42.063339 
z"/>
<path fill="none" opacity="1.000000" stroke="none" 
	d="
M70.872841,103.049690 
	C68.429245,104.109528 65.583107,105.032623 62.806904,106.132248 
	C60.744915,106.948990 58.773636,107.994736 56.454956,109.137726 
	C54.540291,103.388733 54.554836,103.533615 60.735504,102.913116 
	C62.661732,102.719742 64.486008,101.510887 66.985497,100.516953 
	C67.693718,101.015007 69.097015,102.001869 70.872841,103.049690 
z"/>
<path fill="none" opacity="1.000000" stroke="none" 
	d="
M53.849319,115.084198 
	C52.398659,118.308212 50.516376,121.498123 48.063805,124.816528 
	C47.313545,124.914879 47.133575,124.884758 46.953602,124.854637 
	C47.302494,123.090202 47.853085,121.337639 47.957832,119.558823 
	C48.168751,115.976967 49.914982,114.516068 53.849319,115.084198 
z"/>
<path fill="#818AD5" opacity="1.000000" stroke="none" 
	d="
M294.025116,122.061996 
	C294.764954,122.032242 295.504822,122.002487 296.874329,121.970215 
	C297.677185,121.959915 297.850403,121.952118 298.023590,121.944328 
	C298.453674,121.950775 298.883728,121.957222 300.041199,121.973618 
	C303.526642,122.974655 306.284637,123.965736 309.042664,124.956810 
	C309.613922,125.178604 310.185181,125.400406 310.906281,125.899094 
	C309.160309,125.930046 307.117065,126.053879 305.396759,125.367859 
	C300.509552,123.418983 295.729797,122.589012 290.430786,124.890854 
	C290.012390,124.397209 290.005737,124.206505 289.999054,124.015808 
	C289.999054,124.015808 290.002441,124.002136 290.339355,123.977478 
	C291.792542,123.322540 292.908844,122.692268 294.025116,122.061996 
z"/>
<path fill="none" opacity="1.000000" stroke="none" 
	d="
M110.897247,90.300873 
	C108.161873,91.500908 105.467934,92.237061 102.383789,92.949142 
	C103.662979,90.964516 105.024506,88.511040 107.106308,87.210793 
	C108.577629,86.291847 111.170677,86.729446 110.897247,90.300873 
z"/>
<path fill="none" opacity="1.000000" stroke="none" 
	d="
M86.889725,97.094559 
	C82.816521,99.087257 78.287819,101.035347 73.374222,102.911316 
	C75.853249,97.152512 81.186249,97.199944 86.889725,97.094559 
z"/>
<path fill="#CAD3FB" opacity="1.000000" stroke="none" 
	d="
M74.977524,133.923416 
	C78.393486,131.978149 81.799713,130.014572 85.269310,128.170197 
	C85.381027,128.110809 86.141464,129.271759 86.804520,130.321411 
	C86.994904,131.175964 86.980255,131.572952 86.965607,131.969940 
	C83.563835,132.980118 80.162064,133.990311 76.164688,134.900040 
	C75.371887,134.507523 75.174706,134.215469 74.977524,133.923416 
z"/>
<path fill="none" opacity="1.000000" stroke="none" 
	d="
M29.495974,208.035950 
	C29.585037,210.723785 29.324163,213.457611 28.976803,216.600052 
	C27.197281,215.043167 25.504248,213.077698 23.221048,210.427078 
	C25.883881,209.373108 27.514959,208.727524 29.495974,208.035950 
z"/>
<path fill="#6E78DB" opacity="1.000000" stroke="none" 
	d="
M43.126648,212.348602 
	C43.591145,206.447754 48.328720,204.594238 53.013695,202.317825 
	C52.759991,203.482300 52.116467,204.650635 50.999546,206.066437 
	C50.225990,206.452972 50.086121,206.687653 50.106541,207.017960 
	C49.810085,207.172440 49.513630,207.326920 48.752899,207.736053 
	C46.567963,209.443329 44.847305,210.895966 43.126648,212.348602 
z"/>
<path fill="none" opacity="1.000000" stroke="none" 
	d="
M33.929535,219.866089 
	C35.900909,218.245682 38.043583,216.995834 40.549114,215.691147 
	C39.838165,221.906387 38.137093,223.055313 33.929535,219.866089 
z"/>
<path fill="none" opacity="1.000000" stroke="none" 
	d="
M83.212280,171.982269 
	C87.242348,170.876633 91.648903,169.840836 96.467804,168.822357 
	C96.668846,169.733200 96.519035,171.383774 96.236992,171.406677 
	C92.031197,171.748322 87.807915,171.874847 83.212280,171.982269 
z"/>
<path fill="#717BCD" opacity="1.000000" stroke="none" 
	d="
M54.531807,136.986496 
	C54.998974,137.391403 54.998714,137.790268 54.996609,138.487946 
	C48.554344,138.342255 42.113926,137.897751 35.389740,137.196747 
	C35.105980,136.940231 35.205017,136.869720 35.555538,136.909607 
	C36.616695,136.932526 37.327332,136.915543 38.037968,136.898560 
	C43.380104,136.925858 48.722240,136.953156 54.531807,136.986496 
z"/>
<path fill="none" opacity="1.000000" stroke="none" 
	d="
M243.975281,26.813850 
	C241.545532,29.335236 239.064331,31.504694 236.306824,33.866386 
	C235.288818,29.674492 238.722900,27.807211 241.350449,25.556038 
	C241.695953,25.260050 243.041489,26.131290 243.975281,26.813850 
z"/>
<path fill="#6B75E1" opacity="1.000000" stroke="none" 
	d="
M289.584381,124.009140 
	C290.005737,124.206505 290.012390,124.397209 290.036133,124.874207 
	C289.748291,125.279182 289.489594,125.462929 289.157227,125.919922 
	C285.612305,127.104881 282.187225,128.081665 278.380463,129.030243 
	C280.243713,124.031517 285.075928,124.841949 289.584381,124.009140 
z"/>
<path fill="none" opacity="1.000000" stroke="none" 
	d="
M28.157333,192.158234 
	C31.124676,192.042160 34.300083,192.216217 37.761242,192.633072 
	C34.658119,196.394699 31.549694,193.562454 28.157333,192.158234 
z"/>
<path fill="#6E78DF" opacity="1.000000" stroke="none" 
	d="
M242.002747,52.095436 
	C242.459091,51.746361 242.915436,51.397285 243.672531,51.012199 
	C246.030655,50.670048 248.088013,50.363907 250.520950,49.976357 
	C250.896515,49.894951 251.074417,50.072605 251.168335,50.351128 
	C251.262238,50.629650 251.376724,50.993465 251.376724,50.993469 
	C250.137482,52.028557 248.898224,53.063641 247.086792,54.096310 
	C246.342148,54.111885 246.169647,54.129883 245.997131,54.147877 
	C245.272263,54.025578 244.547409,53.903278 243.419006,53.456802 
	C242.677887,52.786896 242.340317,52.441170 242.002747,52.095436 
z"/>
<path fill="none" opacity="1.000000" stroke="none" 
	d="
M169.770416,95.006561 
	C170.651062,95.750038 171.146301,96.536491 172.355728,98.457123 
	C168.041931,97.698395 164.792282,97.126839 161.264297,96.295807 
	C163.785629,95.707405 166.585312,95.378479 169.770416,95.006561 
z"/>
<path fill="none" opacity="1.000000" stroke="none" 
	d="
M43.035072,212.540268 
	C44.847305,210.895966 46.567963,209.443329 48.627556,207.957825 
	C48.313084,211.203522 47.868214,214.682434 42.735909,214.025482 
	C42.359955,214.031219 42.269787,213.629257 42.264122,213.423523 
	C42.539230,213.129715 42.767578,212.967773 43.035072,212.540268 
z"/>
<path fill="#6E78DB" opacity="1.000000" stroke="none" 
	d="
M57.952217,193.296051 
	C57.561878,194.943466 56.809296,196.616531 56.020256,198.639679 
	C55.983791,198.989761 56.000237,198.996231 55.808575,199.092941 
	C55.382622,199.404694 55.308163,199.665375 55.393532,199.971695 
	C54.936504,200.687729 54.479477,201.403748 53.726387,202.224869 
	C51.867821,197.965454 54.435425,195.508072 57.952217,193.296051 
z"/>
<path fill="none" opacity="1.000000" stroke="none" 
	d="
M87.887482,145.069427 
	C85.812920,146.161758 83.354958,147.176468 80.525177,148.191040 
	C80.806625,142.995499 84.355553,144.453674 87.887482,145.069427 
z"/>
<path fill="none" opacity="1.000000" stroke="none" 
	d="
M283.052032,193.261475 
	C285.472656,194.242050 287.877686,195.620331 290.446381,197.301407 
	C287.742859,196.947021 283.738068,198.473709 283.052032,193.261475 
z"/>
<path fill="none" opacity="1.000000" stroke="none" 
	d="
M74.631683,134.022583 
	C75.174706,134.215469 75.371887,134.507523 75.796677,134.944519 
	C73.485611,135.889450 70.946945,136.689423 68.185059,137.199829 
	C70.069832,135.980743 72.177841,135.051254 74.631683,134.022583 
z"/>
<path fill="none" opacity="1.000000" stroke="none" 
	d="
M87.315948,131.950760 
	C86.980255,131.572952 86.994904,131.175964 87.021812,130.481415 
	C89.071594,129.514938 91.109123,128.846039 93.495514,128.128281 
	C93.732315,129.224106 93.620262,130.368805 93.262238,131.759048 
	C91.232948,131.980255 89.449615,131.955917 87.315948,131.950760 
z"/>
<path fill="#DCE5FC" opacity="1.000000" stroke="none" 
	d="
M241.672241,52.167999 
	C242.340317,52.441170 242.677887,52.786896 243.061279,53.371346 
	C242.388855,54.698124 241.670624,55.786179 240.680023,57.193977 
	C238.116776,55.295048 239.007629,53.639977 241.672241,52.167999 
z"/>
<path fill="none" opacity="1.000000" stroke="none" 
	d="
M51.882748,165.874619 
	C53.023994,163.945496 54.165245,162.016388 55.832558,160.216492 
	C56.358620,160.345734 56.707409,160.681747 56.544796,160.950317 
	C56.136711,161.995667 55.891239,162.772446 55.645771,163.549225 
	C55.645771,163.549225 55.634899,163.643600 55.397415,163.739883 
	C55.022358,164.141968 54.884781,164.447769 54.747204,164.753571 
	C54.747204,164.753571 54.971325,164.755310 54.563190,164.769897 
	C53.487316,165.239670 52.819572,165.694824 52.084034,166.081650 
	C52.016235,166.013321 51.882748,165.874619 51.882748,165.874619 
z"/>
<path fill="none" opacity="1.000000" stroke="none" 
	d="
M16.029394,127.983208 
	C16.523127,129.105164 16.684858,130.253159 16.959839,131.677185 
	C15.142520,131.597595 13.211953,131.241989 11.281387,130.886383 
	C11.325833,130.542633 11.370280,130.198898 11.414727,129.855148 
	C12.842282,129.239838 14.269838,128.624542 16.029394,127.983208 
z"/>
<path fill="none" opacity="1.000000" stroke="none" 
	d="
M92.926514,94.891403 
	C91.615623,95.804558 90.152748,96.383682 88.343185,96.963943 
	C88.256714,93.518318 89.211311,91.449486 92.926514,94.891403 
z"/>
<path fill="none" opacity="1.000000" stroke="none" 
	d="
M188.946045,94.762985 
	C187.158585,95.276588 185.324829,95.432747 183.203735,95.405807 
	C184.910843,94.950325 186.905289,94.677933 188.946045,94.762985 
z"/>
<path fill="none" opacity="1.000000" stroke="none" 
	d="
M194.960098,47.691101 
	C193.562820,48.630836 192.121384,49.247494 190.334686,49.843941 
	C190.894501,47.526436 191.794998,45.219952 194.960098,47.691101 
z"/>
<path fill="none" opacity="1.000000" stroke="none" 
	d="
M187.566101,86.731400 
	C187.021103,88.065117 186.266434,89.139473 185.511749,90.213829 
	C185.026657,89.721893 184.541550,89.229958 184.056442,88.738029 
	C185.156433,87.982697 186.256424,87.227364 187.566101,86.731400 
z"/>
<path fill="none" opacity="1.000000" stroke="none" 
	d="
M117.871414,89.852989 
	C116.534714,90.394684 115.014908,90.643272 113.184723,90.770851 
	C113.820679,87.378914 115.653671,88.024147 117.871414,89.852989 
z"/>
<path fill="none" opacity="1.000000" stroke="none" 
	d="
M262.563721,159.157593 
	C261.851959,157.471802 261.486725,155.646988 261.182068,153.432617 
	C261.798492,155.034897 262.354340,157.026733 262.563721,159.157593 
z"/>
<path fill="none" opacity="1.000000" stroke="none" 
	d="
M50.841328,168.883209 
	C50.130409,169.280243 49.428055,169.692017 48.427254,170.178802 
	C49.132881,168.828934 50.136959,167.404022 51.511894,165.926880 
	C51.882748,165.874619 52.016235,166.013321 51.966431,166.365753 
	C51.566143,167.445511 51.215660,168.172836 50.865181,168.900146 
	C50.865181,168.900146 50.849895,168.897964 50.841328,168.883209 
z"/>
<path fill="none" opacity="1.000000" stroke="none" 
	d="
M234.416687,37.173775 
	C234.285248,38.418961 236.271057,41.306290 232.225342,40.336388 
	C232.706024,39.173130 233.426956,38.249222 234.416687,37.173775 
z"/>
<path fill="none" opacity="1.000000" stroke="none" 
	d="
M255.198578,45.884190 
	C255.690018,44.682709 256.542084,43.487049 257.749695,42.258987 
	C257.256561,43.447723 256.407867,44.668869 255.198578,45.884190 
z"/>
<path fill="none" opacity="1.000000" stroke="none" 
	d="
M229.646378,39.486382 
	C227.278427,39.755566 224.611084,39.789848 221.509674,39.737064 
	C223.832718,39.517162 226.589859,39.384319 229.646378,39.486382 
z"/>
<path fill="#717BCD" opacity="1.000000" stroke="none" 
	d="
M29.321951,136.054260 
	C29.169724,135.532684 29.357649,135.305511 29.829254,135.047852 
	C30.773125,134.971664 31.512573,134.991516 32.623871,135.314972 
	C32.997860,136.001678 33.000004,136.384781 33.002151,136.767868 
	C31.862385,136.606293 30.722616,136.444717 29.321951,136.054260 
z"/>
<path fill="none" opacity="1.000000" stroke="none" 
	d="
M15.677289,200.151016 
	C15.703209,200.788406 15.511388,201.488434 15.052636,201.845963 
	C14.868736,201.989243 14.097611,201.379044 13.593775,201.111816 
	C14.179986,200.766617 14.766196,200.421402 15.677289,200.151016 
z"/>
<path fill="none" opacity="1.000000" stroke="none" 
	d="
M203.924194,44.003742 
	C202.939178,44.846634 201.792343,45.402134 200.319000,45.961288 
	C201.249130,45.215416 202.505753,44.465885 203.924194,44.003742 
z"/>
<path fill="none" opacity="1.000000" stroke="none" 
	d="
M46.564140,124.888382 
	C47.133575,124.884758 47.313545,124.914879 47.765884,124.974716 
	C45.975483,125.304314 43.912724,125.604218 41.448574,125.807495 
	C42.756351,125.447952 44.465511,125.185043 46.564140,124.888382 
z"/>
<path fill="#6E78DF" opacity="1.000000" stroke="none" 
	d="
M33.324677,136.881073 
	C33.000004,136.384781 32.997860,136.001678 32.993790,135.332001 
	C34.168861,135.181229 35.345852,135.317032 36.485901,135.736389 
	C36.034306,136.303207 35.619659,136.586456 35.205017,136.869720 
	C35.205017,136.869720 35.105980,136.940231 35.057663,136.976822 
	C34.555302,137.007034 34.101254,137.000656 33.324677,136.881073 
z"/>
<path fill="none" opacity="1.000000" stroke="none" 
	d="
M172.936203,93.387299 
	C172.279037,93.820038 171.544296,93.937408 170.442993,94.117950 
	C171.003830,93.811386 171.931229,93.441650 172.936203,93.387299 
z"/>
<path fill="none" opacity="1.000000" stroke="none" 
	d="
M76.865921,148.864120 
	C76.243744,149.413208 75.439255,149.691193 74.305725,149.914398 
	C74.878990,149.437408 75.781296,149.015213 76.865921,148.864120 
z"/>
<path fill="none" opacity="1.000000" stroke="none" 
	d="
M63.859848,152.096436 
	C63.401943,153.053192 62.548061,153.973343 61.400925,155.005096 
	C61.893066,154.097748 62.678463,153.078781 63.859848,152.096436 
z"/>
<path fill="none" opacity="1.000000" stroke="none" 
	d="
M60.789047,155.104950 
	C60.973793,155.680054 60.811359,156.255066 60.574272,157.117767 
	C60.499611,157.405457 60.521427,157.541245 60.281578,157.599976 
	C59.691269,157.768723 59.340805,157.878754 58.948353,157.943237 
	C58.906368,157.897720 58.826874,157.802734 58.826878,157.802734 
	C59.365211,156.903442 59.903542,156.004150 60.789047,155.104950 
z"/>
<path fill="none" opacity="1.000000" stroke="none" 
	d="
M56.184204,160.177765 
	C56.727348,159.320999 57.444908,158.632202 58.494667,157.873077 
	C58.826874,157.802734 58.906368,157.897720 58.839924,158.223145 
	C58.084789,159.259628 57.396103,159.970688 56.707413,160.681747 
	C56.707409,160.681747 56.358620,160.345734 56.184204,160.177765 
z"/>
<path fill="#818AD5" opacity="1.000000" stroke="none" 
	d="
M315.524689,126.027603 
	C315.974274,126.322533 315.998871,126.607697 316.056702,127.103462 
	C315.030365,127.147591 313.984528,126.979927 312.700378,126.573334 
	C313.336731,126.229279 314.211365,126.124146 315.524689,126.027603 
z"/>
<path fill="none" opacity="1.000000" stroke="none" 
	d="
M104.121933,167.155914 
	C104.468941,166.665848 104.963768,166.411942 105.747849,166.208466 
	C105.447975,166.636627 104.858864,167.014374 104.121933,167.155914 
z"/>
<path fill="none" opacity="1.000000" stroke="none" 
	d="
M96.892502,93.863060 
	C96.541367,94.338341 96.045158,94.577843 95.267014,94.755165 
	C95.572533,94.337753 96.159973,93.982521 96.892502,93.863060 
z"/>
<path fill="none" opacity="1.000000" stroke="none" 
	d="
M151.968277,93.501801 
	C151.459625,93.678642 150.906448,93.578560 150.169800,93.257706 
	C150.632141,93.099586 151.277939,93.162239 151.968277,93.501801 
z"/>
<path fill="none" opacity="1.000000" stroke="none" 
	d="
M155.965240,94.501999 
	C155.456909,94.704063 154.902679,94.625145 154.150330,94.337463 
	C154.607910,94.159470 155.263641,94.190239 155.965240,94.501999 
z"/>
<path fill="none" opacity="1.000000" stroke="none" 
	d="
M177.960312,94.390076 
	C177.458878,94.627594 176.901947,94.593376 176.143951,94.354248 
	C176.596863,94.139015 177.250839,94.128685 177.960312,94.390076 
z"/>
<path fill="none" opacity="1.000000" stroke="none" 
	d="
M254.275330,48.786423 
	C254.111710,48.098831 254.221909,47.202236 254.604095,46.095619 
	C254.767105,46.782875 254.658127,47.680149 254.275330,48.786423 
z"/>
<path fill="none" opacity="1.000000" stroke="none" 
	d="
M92.515213,134.240509 
	C92.650230,134.603455 92.579491,135.173355 92.296875,135.950562 
	C92.159813,135.587723 92.234627,135.017609 92.515213,134.240509 
z"/>
<path fill="none" opacity="1.000000" stroke="none" 
	d="
M209.687347,41.978081 
	C209.503937,42.254185 209.046844,42.527466 208.311508,42.762115 
	C208.493408,42.474075 208.953537,42.224667 209.687347,41.978081 
z"/>
<path fill="none" opacity="1.000000" stroke="none" 
	d="
M18.202290,132.458679 
	C18.552296,132.359970 19.086445,132.465286 19.793941,132.793610 
	C19.440336,132.898636 18.913383,132.780685 18.202290,132.458679 
z"/>
<path fill="none" opacity="1.000000" stroke="none" 
	d="
M34.948895,126.091011 
	C34.708477,126.369957 34.166035,126.597183 33.327995,126.756424 
	C33.570557,126.472054 34.108715,126.255669 34.948895,126.091011 
z"/>
<path fill="none" opacity="1.000000" stroke="none" 
	d="
M97.187241,168.918091 
	C97.391777,168.615387 97.893700,168.350830 98.689087,168.121887 
	C98.483238,168.423752 97.983932,168.689987 97.187241,168.918091 
z"/>
<path fill="none" opacity="1.000000" stroke="none" 
	d="
M71.928162,150.077789 
	C71.694321,150.358948 71.161270,150.597046 70.335526,150.764771 
	C70.571541,150.474518 71.100243,150.254639 71.928162,150.077789 
z"/>
<path fill="none" opacity="1.000000" stroke="none" 
	d="
M100.876320,93.052200 
	C100.658073,93.320122 100.146347,93.567474 99.344345,93.771690 
	C99.563660,93.496239 100.073250,93.263931 100.876320,93.052200 
z"/>
<path fill="none" opacity="1.000000" stroke="none" 
	d="
M55.549683,199.846252 
	C55.308163,199.665375 55.382622,199.404694 55.803452,199.085938 
	C55.982021,199.261826 55.887299,199.508011 55.549683,199.846252 
z"/>
<path fill="none" opacity="1.000000" stroke="none" 
	d="
M182.177689,77.497826 
	C182.370453,77.264923 182.623627,77.359161 182.921860,77.805542 
	C182.750732,77.957253 182.507797,77.846344 182.177689,77.497826 
z"/>
<path fill="none" opacity="1.000000" stroke="none" 
	d="
M199.090057,46.172997 
	C199.092026,46.389648 198.818298,46.615036 198.274948,46.859993 
	C198.275009,46.646954 198.544693,46.414345 199.090057,46.172997 
z"/>
<path fill="none" opacity="1.000000" stroke="none" 
	d="
M147.804657,92.488869 
	C147.947495,92.647041 147.492508,92.701553 147.492508,92.701553 
	C147.492508,92.701553 147.071762,92.519981 146.960800,92.319199 
	C147.148987,92.080353 147.419647,92.151115 147.804657,92.488869 
z"/>
<path fill="none" opacity="1.000000" stroke="none" 
	d="
M32.652672,205.043900 
	C32.816010,205.248932 32.690727,205.472992 32.239563,205.662506 
	C32.140408,205.469833 32.290527,205.281479 32.652672,205.043900 
z"/>
<path fill="none" opacity="1.000000" stroke="none" 
	d="
M50.282433,206.940338 
	C50.086121,206.687653 50.225990,206.452972 50.741905,206.303391 
	C50.849792,206.534149 50.683350,206.724091 50.282433,206.940338 
z"/>
<path fill="none" opacity="1.000000" stroke="none" 
	d="
M212.069534,41.141712 
	C212.054749,41.343147 211.789780,41.537315 211.275543,41.710342 
	C211.207947,41.386261 211.472305,41.201344 212.069534,41.141712 
z"/>
<path fill="none" opacity="1.000000" stroke="none" 
	d="
M158.767746,95.447495 
	C158.924377,95.604813 158.460800,95.665573 158.460800,95.665573 
	C158.460800,95.665573 158.036728,95.468422 157.894562,95.280296 
	C158.062607,95.054405 158.348862,95.120407 158.767746,95.447495 
z"/>
<path fill="none" opacity="1.000000" stroke="none" 
	d="
M216.098618,40.150887 
	C216.074768,40.349575 215.801819,40.531590 215.280609,40.681599 
	C215.228790,40.357540 215.501175,40.185745 216.098618,40.150887 
z"/>
<path fill="none" opacity="1.000000" stroke="none" 
	d="
M235.537231,35.141495 
	C235.797409,35.352043 235.712494,35.641819 235.244827,35.976551 
	C235.034149,35.760326 235.144165,35.493397 235.537231,35.141495 
z"/>
<path fill="none" opacity="1.000000" stroke="none" 
	d="
M91.486252,139.202179 
	C91.616608,139.349518 91.571869,139.669662 91.342407,140.161850 
	C91.075928,139.992905 91.127090,139.673264 91.486252,139.202179 
z"/>
<path fill="none" opacity="1.000000" stroke="none" 
	d="
M107.951134,165.867279 
	C107.873344,165.550842 108.130997,165.357773 108.724815,165.302277 
	C108.792358,165.614929 108.534225,165.798523 107.951134,165.867279 
z"/>
<path fill="none" opacity="1.000000" stroke="none" 
	d="
M65.963547,151.118149 
	C65.976822,151.314194 65.741318,151.539932 65.258194,151.793671 
	C65.149475,151.496979 65.384201,151.272369 65.963547,151.118149 
z"/>
<path fill="none" opacity="1.000000" stroke="none" 
	d="
M100.954636,167.869644 
	C100.885216,167.561569 101.142967,167.370468 101.728844,167.312866 
	C101.791718,167.623627 101.533325,167.803711 100.954636,167.869644 
z"/>
<path fill="none" opacity="1.000000" stroke="none" 
	d="
M79.923256,148.137009 
	C80.051476,148.471802 79.831779,148.669373 79.253784,148.695953 
	C79.177956,148.399033 79.404564,148.223969 79.923256,148.137009 
z"/>
<path fill="none" opacity="1.000000" stroke="none" 
	d="
M251.498077,50.934616 
	C251.376724,50.993465 251.262238,50.629650 251.257568,50.439659 
	C251.252899,50.249672 251.633362,50.288773 251.801392,50.381088 
	C251.889160,50.639194 251.772507,50.773315 251.498077,50.934616 
z"/>
<path fill="none" opacity="1.000000" stroke="none" 
	d="
M80.012634,172.881195 
	C79.912643,172.572845 80.151314,172.355820 80.735413,172.260178 
	C80.819176,172.568909 80.575996,172.765900 80.012634,172.881195 
z"/>
<path fill="none" opacity="1.000000" stroke="none" 
	d="
M90.488625,144.077164 
	C90.733696,144.292969 90.657845,144.502899 90.201675,144.606079 
	C90.096901,144.397644 90.212349,144.254959 90.488625,144.077164 
z"/>
<path fill="none" opacity="1.000000" stroke="none" 
	d="
M188.968811,50.084244 
	C189.056473,50.364914 188.837601,50.554554 188.301819,50.604843 
	C188.250351,50.338173 188.476135,50.180744 188.968811,50.084244 
z"/>
<path fill="none" opacity="1.000000" stroke="none" 
	d="
M196.970047,47.101246 
	C197.059860,47.374008 196.832840,47.583424 196.283264,47.705837 
	C196.203613,47.430271 196.434448,47.236626 196.970047,47.101246 
z"/>
<path fill="none" opacity="1.000000" stroke="none" 
	d="
M279.178528,191.380432 
	C279.350372,191.243240 279.691437,191.318634 280.213318,191.594925 
	C280.045319,191.728210 279.696564,191.660614 279.178528,191.380432 
z"/>
<path fill="none" opacity="1.000000" stroke="none" 
	d="
M66.444977,138.533325 
	C66.407997,138.472336 66.481949,138.594315 66.444977,138.533325 
z"/>
<path fill="#DCE5FC" opacity="1.000000" stroke="none" 
	d="
M246.079498,54.295734 
	C246.169647,54.129883 246.342148,54.111885 246.754410,54.194572 
	C246.716751,54.344696 246.439301,54.394142 246.079498,54.295734 
z"/>
<path fill="none" opacity="1.000000" stroke="none" 
	d="
M110.937775,164.851166 
	C110.942375,164.649551 111.208252,164.443771 111.729935,164.224411 
	C111.723503,164.422882 111.461281,164.634949 110.937775,164.851166 
z"/>
<path fill="none" opacity="1.000000" stroke="none" 
	d="
M206.875549,43.067364 
	C206.987320,43.347942 206.782623,43.551853 206.248657,43.639259 
	C206.172760,43.372719 206.385986,43.195366 206.875549,43.067364 
z"/>
<path fill="none" opacity="1.000000" stroke="none" 
	d="
M277.139160,190.369278 
	C277.312317,190.265808 277.620911,190.370850 278.059937,190.692017 
	C277.835175,190.936325 277.529938,190.826202 277.139160,190.369278 
z"/>
<path fill="#DCE5FC" opacity="1.000000" stroke="none" 
	d="
M242.901825,61.804443 
	C242.703705,61.857880 242.425323,61.673523 242.087326,61.238937 
	C242.292313,61.181358 242.556931,61.374004 242.901825,61.804443 
z"/>
<path fill="none" opacity="1.000000" stroke="none" 
	d="
M249.235214,82.796722 
	C249.235214,82.796715 249.622040,82.871140 249.797272,83.198761 
	C249.972504,83.526390 249.985580,84.014008 249.992279,84.007500 
	C249.998978,84.000992 250.008682,83.986343 249.622314,84.008530 
	C246.808014,84.838081 244.380096,85.645447 241.952179,86.452820 
	C239.771515,88.511925 237.602966,88.687370 234.740372,87.404968 
	C233.138443,86.687325 230.822449,87.729599 228.843857,87.638618 
	C226.986542,87.553230 224.479996,87.669075 223.418274,86.573265 
	C218.427429,81.422134 213.833771,75.885963 209.108505,70.478355 
	C208.901428,70.241356 208.794037,69.917244 208.248840,68.912361 
	C209.905106,68.587845 211.322601,68.159508 212.763306,68.056725 
	C216.716415,67.774696 220.990417,66.609039 224.556992,67.696587 
	C228.715164,68.964523 232.328995,72.146805 236.038925,74.701836 
	C237.934235,76.007118 239.523407,77.756882 241.693665,79.791618 
	C244.502655,81.117233 246.868927,81.956978 249.235214,82.796722 
z"/>
<path fill="#6270EB" opacity="1.000000" stroke="none" 
	d="
M216.968094,201.008072 
	C216.659790,200.533875 216.351486,200.059662 216.030365,199.287720 
	C220.249451,198.651428 221.826187,196.120651 222.100800,192.131363 
	C222.174973,191.053894 223.471771,190.060593 224.606323,189.017380 
	C225.001709,190.066849 224.998154,191.127609 224.987793,192.585724 
	C223.981003,198.044983 222.981049,203.106857 221.610443,208.519440 
	C220.505524,207.318054 219.826294,205.736572 219.018692,204.223618 
	C218.421844,203.105499 217.657715,202.076675 216.968094,201.008072 
z"/>
<path fill="#717ADA" opacity="1.000000" stroke="none" 
	d="
M63.004028,171.000748 
	C62.999485,171.752274 62.994942,172.503784 62.764969,173.738556 
	C62.277359,174.419281 62.100384,174.675598 62.008621,174.990753 
	C61.081562,176.460602 60.154507,177.930435 58.777275,179.703445 
	C57.913536,180.031967 57.499973,180.057327 57.064632,180.062164 
	C57.042854,180.041626 56.999813,180.000000 57.036407,179.666595 
	C58.205395,177.005890 57.132961,176.645569 55.054493,177.069946 
	C54.998779,177.006836 54.884708,176.882996 54.884708,176.882996 
	C56.736839,174.402267 58.588970,171.921524 60.764702,169.564484 
	C61.726879,170.125702 62.365456,170.563217 63.004028,171.000748 
z"/>
<path fill="#7279DC" opacity="1.000000" stroke="none" 
	d="
M42.185501,202.034637 
	C41.668743,201.415741 41.127319,200.444412 41.389694,200.116730 
	C44.913509,195.715897 48.549427,191.404816 52.461643,186.943512 
	C51.628796,189.253738 50.533070,191.712357 49.339214,194.122360 
	C48.636147,195.541641 47.777363,196.883759 46.994308,198.630280 
	C47.000000,199.000000 46.996544,198.996368 46.996544,198.996368 
	C45.509197,199.991394 44.021851,200.986404 42.185501,202.034637 
z"/>
<path fill="#BFC9F8" opacity="1.000000" stroke="none" 
	d="
M242.336731,86.550804 
	C244.380096,85.645447 246.808014,84.838081 249.778625,84.262230 
	C250.931824,84.601677 251.542343,84.709602 252.152847,84.817528 
	C252.180023,84.618484 252.207199,84.419441 252.234360,84.220398 
	C251.484772,84.151604 250.735168,84.082802 249.985580,84.014008 
	C249.985580,84.014008 249.972504,83.526390 249.975494,83.282623 
	C252.074722,83.395210 254.170944,83.751564 256.267181,84.107910 
	C256.391785,84.646713 256.516418,85.185524 256.641022,85.724327 
	C255.080307,86.112823 253.529877,86.772598 251.956711,86.832138 
	C248.884964,86.948410 245.800491,86.729134 242.336731,86.550804 
z"/>
<path fill="#6270EB" opacity="1.000000" stroke="none" 
	d="
M226.853348,179.667786 
	C226.848953,180.879807 226.690521,181.735443 226.272583,182.796127 
	C222.338516,180.985840 221.844559,177.985657 225.024445,173.636017 
	C225.667923,175.816483 226.183624,177.563934 226.853348,179.667786 
z"/>
<path fill="#6B75E1" opacity="1.000000" stroke="none" 
	d="
M309.050079,124.663841 
	C306.284637,123.965736 303.526642,122.974655 300.363770,121.968582 
	C300.596497,116.499146 304.491028,121.662804 306.294708,120.010147 
	C307.215637,121.463715 308.136566,122.917297 309.050079,124.663841 
z"/>
<path fill="#6E78DB" opacity="1.000000" stroke="none" 
	d="
M71.780167,177.092758 
	C70.026665,179.387070 67.894821,181.633804 65.459290,184.014267 
	C65.293785,182.070877 65.431969,179.993774 65.582741,177.727524 
	C67.375351,177.517334 69.388596,177.281250 71.780167,177.092758 
z"/>
<path fill="#717ADA" opacity="1.000000" stroke="none" 
	d="
M56.544800,160.950317 
	C57.396103,159.970688 58.084789,159.259628 58.881908,158.268677 
	C59.340805,157.878754 59.691269,157.768723 60.310303,157.662445 
	C59.183414,159.709167 57.787952,161.752151 56.019127,163.672180 
	C55.891239,162.772446 56.136711,161.995667 56.544800,160.950317 
z"/>
<path fill="#6E78DB" opacity="1.000000" stroke="none" 
	d="
M62.752274,187.092621 
	C61.748528,189.107361 60.370430,191.117859 58.680511,193.200531 
	C57.078812,189.508667 59.665779,188.257935 62.752274,187.092621 
z"/>
<path fill="#BFC9F8" opacity="1.000000" stroke="none" 
	d="
M249.075119,82.498413 
	C246.868927,81.956978 244.502655,81.117233 241.972595,80.013031 
	C244.177567,80.565750 246.546295,81.382927 249.075119,82.498413 
z"/>
<path fill="#717ADA" opacity="1.000000" stroke="none" 
	d="
M51.677452,181.839691 
	C50.661522,182.840302 49.645584,183.840897 48.350048,184.966476 
	C49.455868,183.083054 50.841290,181.074646 52.623100,179.043518 
	C53.019485,179.020798 53.148952,179.151093 53.011253,179.426788 
	C52.474854,180.414886 52.076153,181.127289 51.677452,181.839691 
z"/>
<path fill="#6E78DD" opacity="1.000000" stroke="none" 
	d="
M63.258591,170.797638 
	C62.365456,170.563217 61.726879,170.125702 61.044399,169.374908 
	C61.796349,168.863800 62.592205,168.665985 63.388062,168.468170 
	C63.429756,169.176956 63.471451,169.885757 63.258591,170.797638 
z"/>
<path fill="#717ADA" opacity="1.000000" stroke="none" 
	d="
M51.217949,168.907074 
	C51.215660,168.172836 51.566143,167.445511 52.034225,166.434082 
	C52.819572,165.694824 53.487316,165.239670 54.452991,164.749420 
	C53.690857,166.114243 52.630791,167.514130 51.217949,168.907074 
z"/>
<path fill="#6B75E1" opacity="1.000000" stroke="none" 
	d="
M293.837128,121.807701 
	C292.908844,122.692268 291.792542,123.322540 290.346161,123.975769 
	C291.227081,123.183617 292.438110,122.368515 293.837128,121.807701 
z"/>
<path fill="#6E78DD" opacity="1.000000" stroke="none" 
	d="
M57.086411,180.082687 
	C57.499973,180.057327 57.913536,180.031967 58.636753,179.999435 
	C58.510269,180.633057 58.074131,181.273834 57.320927,181.638824 
	C57.031376,180.936234 57.058891,180.509460 57.086411,180.082687 
z"/>
<path fill="#6E78DB" opacity="1.000000" stroke="none" 
	d="
M46.998180,198.998291 
	C47.502449,199.298752 48.008537,199.600906 48.514626,199.903061 
	C48.335968,200.109909 48.157318,200.316757 47.978668,200.523605 
	C47.678894,200.201797 47.379116,199.879974 47.037941,199.277267 
	C46.996544,198.996368 47.000000,199.000000 46.998180,198.998291 
z"/>
<path fill="#6872DD" opacity="1.000000" stroke="none" 
	d="
M35.555534,136.909607 
	C35.619659,136.586456 36.034306,136.303207 36.721672,136.003326 
	C37.307938,136.080002 37.571541,136.250488 37.911587,136.698364 
	C37.327332,136.915543 36.616695,136.932526 35.555534,136.909607 
z"/>
<path fill="#717ADA" opacity="1.000000" stroke="none" 
	d="
M52.954491,178.955917 
	C53.354923,178.273819 53.820351,177.656601 54.585243,176.961182 
	C54.884708,176.882996 54.998779,177.006836 54.926834,177.326492 
	C54.286240,178.147797 53.717594,178.649445 53.148949,179.151093 
	C53.148952,179.151093 53.019485,179.020798 52.954491,178.955917 
z"/>
<path fill="#717ADA" opacity="1.000000" stroke="none" 
	d="
M57.064632,180.062164 
	C57.058891,180.509460 57.031376,180.936234 57.002823,181.684937 
	C57.001785,182.006851 56.546833,182.051514 56.264515,182.022598 
	C55.982197,181.993683 55.865345,181.885315 55.922279,181.601227 
	C56.319416,180.878082 56.659615,180.439041 56.999817,180.000000 
	C56.999813,180.000000 57.042854,180.041626 57.064632,180.062164 
z"/>
<path fill="#717ADA" opacity="1.000000" stroke="none" 
	d="
M53.054527,186.744659 
	C52.952549,186.284973 53.159973,185.731827 53.636208,185.035675 
	C53.724659,185.478867 53.544296,186.065033 53.054527,186.744659 
z"/>
<path fill="#6E78DD" opacity="1.000000" stroke="none" 
	d="
M42.002449,203.991287 
	C42.435741,204.167969 42.863651,204.328644 43.291565,204.489304 
	C43.030617,204.649872 42.769669,204.810425 42.251347,204.729370 
	C41.983849,204.316330 41.973724,204.144913 41.963596,203.973511 
	C41.963596,203.973511 41.997066,203.975281 42.002449,203.991287 
z"/>
<path fill="#6E78DB" opacity="1.000000" stroke="none" 
	d="
M63.957809,185.274323 
	C64.063156,185.744583 63.856907,186.296265 63.371765,186.974518 
	C63.277321,186.519302 63.461769,185.937531 63.957809,185.274323 
z"/>
<path fill="#717ADA" opacity="1.000000" stroke="none" 
	d="
M54.143505,184.831696 
	C53.929985,184.570816 53.994938,184.198242 54.329895,183.484314 
	C54.599892,183.142960 55.014225,183.014877 55.047714,183.042603 
	C55.081200,183.070312 55.147652,183.126373 55.147652,183.126373 
	C54.905762,183.657578 54.663872,184.188766 54.143505,184.831696 
z"/>
<path fill="#6E78DD" opacity="1.000000" stroke="none" 
	d="
M62.237194,174.982788 
	C62.100384,174.675598 62.277359,174.419281 62.749779,174.114044 
	C62.795265,174.329132 62.630516,174.651993 62.237194,174.982788 
z"/>
<path fill="#6B75E1" opacity="1.000000" stroke="none" 
	d="
M297.926025,121.786018 
	C297.850403,121.952118 297.677185,121.959915 297.244202,121.953995 
	C297.265747,121.836090 297.547119,121.731903 297.926025,121.786018 
z"/>
<path fill="#7279DC" opacity="1.000000" stroke="none" 
	d="
M41.772606,204.107086 
	C41.973724,204.144913 41.983849,204.316330 42.002167,204.745255 
	C42.010361,205.002777 41.635414,205.056076 41.447937,205.077484 
	C41.259838,204.772507 41.366890,204.486420 41.772606,204.107086 
z"/>
<path fill="#6E78DB" opacity="1.000000" stroke="none" 
	d="
M41.890652,212.730972 
	C41.678253,212.875259 41.421417,212.716644 41.117741,212.257507 
	C41.326263,212.117477 41.584702,212.274506 41.890652,212.730972 
z"/>
<path fill="#717ADA" opacity="1.000000" stroke="none" 
	d="
M55.023037,164.723831 
	C54.884781,164.447769 55.022358,164.141968 55.413300,163.784653 
	C55.544064,164.053452 55.421467,164.373779 55.023037,164.723831 
z"/>
<path fill="#717ADA" opacity="1.000000" stroke="none" 
	d="
M56.037697,182.050858 
	C55.973297,182.407288 55.789330,182.659866 55.344467,182.996094 
	C55.147652,183.126373 55.081200,183.070312 55.115551,182.805084 
	C55.304916,182.230453 55.543396,182.012268 55.865345,181.885315 
	C55.865345,181.885315 55.982197,181.993683 56.037697,182.050858 
z"/>
<path fill="#6E78DB" opacity="1.000000" stroke="none" 
	d="
M64.907005,184.183197 
	C65.024109,184.428146 64.880096,184.750458 64.472160,185.138916 
	C64.354118,184.890228 64.500000,184.575394 64.907005,184.183197 
z"/>
<path fill="#717ADA" opacity="1.000000" stroke="none" 
	d="
M47.847244,185.131104 
	C47.904419,185.326462 47.713173,185.605606 47.272297,185.973450 
	C47.214722,185.779709 47.406773,185.497299 47.847244,185.131104 
z"/>
<path fill="#5C6BF4" opacity="1.000000" stroke="none" 
	d="
M216.975616,201.474609 
	C217.657715,202.076675 218.421844,203.105499 219.018692,204.223618 
	C219.826294,205.736572 220.505524,207.318054 221.595200,208.944473 
	C221.310776,213.728271 220.670975,218.437714 219.755173,223.804306 
	C218.639679,225.987839 217.800186,227.514221 216.960693,229.040619 
	C216.653839,225.698792 216.057632,222.352890 216.104660,219.016052 
	C216.184906,213.321411 216.668793,207.632477 216.975616,201.474609 
z"/>
<path fill="#5C6BF3" opacity="1.000000" stroke="none" 
	d="
M226.012115,232.982178 
	C228.356644,235.294739 230.701172,237.607285 233.642975,240.508972 
	C229.348984,242.395355 226.746658,243.207993 225.853653,238.358643 
	C225.560638,236.767548 224.676254,235.285355 224.356628,233.377777 
	C225.104660,232.995529 225.558395,232.988846 226.012115,232.982178 
z"/>
<path fill="#6270EB" opacity="1.000000" stroke="none" 
	d="
M225.846832,232.673431 
	C225.558395,232.988846 225.104660,232.995529 224.310089,233.005890 
	C221.595627,232.056335 217.289078,235.390945 216.970154,229.449677 
	C217.800186,227.514221 218.639679,225.987839 219.759644,224.227264 
	C220.964203,227.428101 221.841934,230.894379 225.846832,232.673431 
z"/>
<path fill="none" opacity="1.000000" stroke="none" 
	d="
M55.922279,181.601227 
	C55.543396,182.012268 55.304916,182.230453 55.082062,182.777374 
	C55.014225,183.014877 54.599892,183.142960 54.392761,183.205963 
	C53.599483,182.838806 53.013332,182.408630 52.052315,181.909073 
	C52.076153,181.127289 52.474854,180.414886 53.011250,179.426788 
	C53.717594,178.649445 54.286240,178.147797 54.982544,177.389618 
	C57.132961,176.645569 58.205395,177.005890 57.036407,179.666595 
	C56.659615,180.439041 56.319416,180.878082 55.922279,181.601227 
z"/>
<path fill="none" opacity="1.000000" stroke="none" 
	d="
M249.992279,84.007500 
	C250.735168,84.082802 251.484772,84.151604 252.234360,84.220398 
	C252.207199,84.419441 252.180023,84.618484 252.152847,84.817528 
	C251.542343,84.709602 250.931824,84.601677 250.164993,84.240051 
	C250.008682,83.986343 249.998978,84.000992 249.992279,84.007500 
z"/>
</svg>