<svg version="1.1" id="Layer_1" xmlns="http://www.w3.org/2000/svg" xmlns:xlink="http://www.w3.org/1999/xlink" x="0px" y="0px"
	 width="100%" viewBox="0 0 241 324" enable-background="new 0 0 241 324" xml:space="preserve">
<path fill="none" opacity="1.000000" stroke="none" 
	d="
M1.000000,30.000000 
	C1.000000,26.638712 1.000000,23.277426 1.298622,19.419228 
	C1.916422,18.515108 2.235600,18.107899 2.554778,17.700691 
	C2.036519,17.467127 1.518259,17.233562 1.000000,17.000000 
	C1.000000,11.668791 1.000000,6.337582 1.000000,1.004779 
	C81.299217,1.003186 161.598434,1.003186 241.948822,1.003186 
	C241.948822,108.922844 241.948822,216.845718 241.948822,324.884277 
	C161.775940,324.884277 81.551666,324.884277 1.000000,324.884277 
	C1.000000,232.979370 1.000000,140.958344 1.380171,48.510757 
	C4.575250,48.024384 7.390157,47.964561 10.425819,47.931091 
	C10.646574,47.957436 11.041074,48.164528 11.236177,48.387653 
	C12.292938,48.432129 13.154595,48.253483 14.017130,48.042767 
	C14.018007,48.010696 14.079123,48.031303 14.481684,48.023811 
	C20.818869,48.959084 20.772099,43.521702 22.385912,39.855610 
	C22.913105,39.985966 23.440298,40.116325 23.967491,40.246685 
	C24.543928,43.026123 25.120363,45.805561 25.701668,48.608471 
	C27.486082,49.078030 29.241961,49.540077 30.998898,50.412796 
	C30.412804,56.393639 34.413254,55.914845 37.953537,56.442131 
	C40.157444,59.228050 42.348564,61.637287 44.507515,64.075020 
	C45.653797,65.369324 47.169197,66.544785 47.772804,68.068985 
	C49.090477,71.396339 49.788418,74.964928 51.023228,78.330894 
	C51.724560,80.242676 53.729580,81.900314 53.851055,83.757210 
	C54.170753,88.644089 56.474922,89.872246 60.756386,88.575089 
	C64.544052,87.427521 65.262711,89.274284 64.709869,92.463661 
	C64.494362,93.706917 64.248283,94.944870 63.976917,96.394768 
	C65.810249,96.835884 67.204613,97.171379 68.738693,97.540489 
	C68.855118,99.226929 68.385094,101.476219 69.153175,102.040642 
	C73.410088,105.168854 73.357552,109.114021 72.464058,113.666573 
	C72.000206,116.030067 72.400024,118.578377 72.528725,121.036957 
	C72.602867,122.453316 72.476341,124.151848 73.192749,125.217323 
	C76.892059,130.719147 80.571045,136.274277 84.775497,141.384308 
	C88.151619,145.487625 88.569946,153.130569 83.949539,155.433487 
	C80.434875,157.185287 81.172096,159.311615 81.025299,161.773666 
	C80.793678,165.658249 80.556992,169.542603 80.348701,173.428452 
	C80.278488,174.738220 80.170647,176.062393 80.282654,177.362518 
	C80.661743,181.762787 81.131653,186.155243 81.619492,191.082367 
	C88.807259,189.166367 93.905777,192.665039 97.007111,199.742966 
	C97.089523,199.931046 97.617279,199.923981 98.012009,200.218781 
	C98.086655,200.429626 98.085045,200.876953 97.920105,201.232498 
	C96.195274,204.979843 96.800529,207.224182 100.846199,208.052780 
	C102.002075,208.289505 102.990372,209.344437 104.128975,210.404144 
	C104.205086,211.814957 104.207726,212.845810 103.870422,214.033203 
	C100.361832,216.845474 100.594406,220.208481 104.957787,224.196106 
	C107.293449,226.330612 107.415482,227.726746 105.273857,229.818512 
	C104.653343,230.424576 104.521271,231.530746 104.225777,232.258636 
	C105.645523,233.682312 106.840340,234.880447 107.984406,236.300919 
	C107.790527,236.813461 107.564453,237.006531 106.830696,237.076904 
	C105.273170,238.301773 103.291420,239.471603 103.163582,240.817520 
	C102.746620,245.207565 102.894371,249.666855 103.090973,254.087662 
	C103.135307,255.084503 104.257057,256.033386 104.975830,257.322021 
	C105.079086,258.079346 105.089340,258.518982 104.786896,259.237549 
	C103.893204,266.441742 103.312210,273.367004 102.807999,279.377075 
	C106.241341,280.901489 108.606636,281.951691 111.170761,283.321777 
	C112.771873,290.362915 117.830742,296.786957 112.975021,304.375916 
	C113.077171,306.338074 112.642670,308.440979 113.497665,309.436951 
	C115.637947,311.930298 118.339920,313.948456 120.857750,316.109222 
	C126.157860,320.657684 132.122543,320.409546 138.266617,318.361877 
	C141.426254,317.308899 142.046585,315.265717 139.998215,312.633514 
	C136.689438,308.381653 133.056519,304.357635 130.054062,299.904633 
	C128.956360,298.276642 128.294662,295.110016 129.156265,293.691071 
	C130.520767,291.444031 133.106964,289.587433 135.581345,288.436859 
	C141.212189,285.818481 142.659332,281.499023 142.105103,275.794403 
	C140.979507,264.208405 139.823471,252.620178 139.018265,241.009415 
	C137.766342,222.956772 140.102646,205.213821 143.376373,187.459244 
	C145.281967,177.124466 148.711624,168.530426 158.203323,163.064819 
	C160.905334,161.508911 163.076126,159.049881 165.581772,157.123672 
	C166.527435,156.396683 167.731201,156.005432 169.598816,155.069489 
	C170.182236,162.638397 170.767410,169.382782 171.153290,176.138550 
	C171.211990,177.165955 170.415817,178.281662 169.895981,179.295486 
	C168.128403,182.742767 166.159500,186.097488 164.601059,189.634537 
	C164.159042,190.637726 164.393936,192.540390 165.098892,193.355484 
	C172.905563,202.381699 180.817596,211.319107 188.861908,220.133789 
	C189.642838,220.989471 192.117874,221.565338 192.716721,221.036667 
	C193.720551,220.150497 194.493683,218.140625 194.231354,216.830399 
	C193.032394,210.841888 191.439468,204.932266 190.009598,198.558685 
	C189.222412,193.054474 190.403397,189.684128 196.503433,189.859909 
	C197.284485,189.882401 198.855789,187.994019 198.819412,187.038147 
	C198.285797,173.021332 197.541260,159.012543 196.881393,144.625076 
	C196.802963,143.505463 196.690048,142.762619 196.675751,141.607025 
	C195.543335,134.554321 194.685577,127.815125 192.956024,121.307655 
	C191.707993,116.611893 188.537033,113.200424 182.587006,113.277802 
	C181.147476,113.258530 180.095184,113.333946 178.726059,113.335114 
	C177.975571,113.269638 177.541885,113.278412 177.010712,113.081444 
	C176.601822,113.175598 176.290421,113.475502 175.663208,113.882614 
	C174.905472,114.032364 174.463531,114.074905 173.803528,113.826218 
	C170.241791,114.027252 166.873764,114.399231 163.566345,115.070091 
	C162.214905,115.344208 160.679779,115.968964 159.765671,116.940094 
	C153.650635,123.436623 149.305389,124.504395 142.063705,120.622559 
	C141.982574,119.509705 141.966171,118.764267 142.182083,117.864990 
	C142.008850,117.135750 141.603271,116.560356 141.135361,115.637840 
	C141.192078,114.840996 141.311157,114.391273 141.558289,113.847687 
	C141.838333,113.598457 141.939163,113.414986 142.116974,113.063751 
	C142.245102,112.924095 142.602478,112.797722 143.018829,112.848648 
	C153.817566,109.633820 164.359467,108.849106 175.162720,110.345802 
	C176.135864,110.480629 177.494980,107.829445 178.678833,106.293594 
	C178.682816,106.115097 178.626083,105.762535 178.747223,105.823792 
	C178.868347,105.885048 179.099243,106.027847 179.482452,106.016342 
	C180.802322,105.459831 182.082550,105.140068 182.614044,104.329414 
	C184.550507,101.375923 186.236786,98.258408 188.347534,95.113419 
	C189.119476,94.916748 189.561249,94.809357 190.370285,94.766556 
	C191.482285,94.863670 192.227036,94.896194 193.234558,95.226891 
	C196.102661,95.580849 199.103836,97.697578 201.357391,93.995331 
	C202.433853,93.833923 203.157166,93.760391 204.102127,94.013474 
	C209.492828,95.555695 214.179962,95.251808 219.010910,92.230957 
	C222.804504,89.858780 227.533234,88.982071 231.846558,87.441017 
	C231.849365,87.614029 231.852173,87.787033 231.854980,87.960037 
	C234.069092,86.245308 236.283218,84.530579 238.721069,82.642570 
	C238.175842,80.926544 237.547470,78.948860 236.897095,76.573883 
	C236.951401,75.119888 237.027710,74.063187 237.439819,72.937042 
	C239.498352,71.221100 239.717529,69.847931 237.001175,68.565552 
	C236.914719,66.104919 236.898834,64.074318 237.146469,61.871223 
	C237.057999,60.791744 236.706024,59.884758 236.260956,58.579277 
	C235.447250,55.738232 234.726624,53.295681 233.911896,50.486393 
	C231.410370,49.715816 229.002945,49.311981 226.137070,48.831238 
	C227.461838,51.678513 228.236130,53.342674 229.005219,55.003571 
	C229.000000,55.000305 229.009705,55.010090 228.659012,55.045456 
	C225.071518,56.625828 225.331696,58.289745 228.165527,60.369728 
	C228.120377,61.132542 228.049362,61.565929 227.615189,62.072384 
	C225.641357,64.962700 223.760513,67.746811 226.140503,71.392616 
	C226.011017,72.164116 225.900223,72.598785 225.575378,73.225204 
	C225.264572,73.972343 225.167816,74.527725 225.052338,75.037506 
	C225.033600,74.991913 225.101364,75.063599 224.721344,75.079498 
	C217.869263,75.890793 211.392441,76.651207 204.932068,77.532143 
	C204.235947,77.627068 203.635254,78.421745 202.646301,78.924423 
	C201.851578,78.870659 201.400894,78.784309 200.727783,78.493713 
	C199.910156,78.236633 199.314926,78.183800 198.296188,78.174927 
	C195.046448,78.199112 192.220215,78.179329 188.976410,78.101212 
	C186.403183,78.595078 183.707733,74.853996 181.528275,78.939590 
	C176.715088,78.988564 172.361130,78.967056 167.962646,78.594810 
	C166.262009,76.996284 164.715759,75.551720 162.922119,74.550217 
	C160.650223,73.281670 157.563873,72.951599 155.909943,71.197403 
	C151.558121,66.581764 146.535934,66.894730 141.087753,67.757751 
	C139.488724,68.011047 137.759445,67.442101 136.292953,67.273369 
	C138.106415,64.918106 139.411011,63.223743 140.772781,61.150715 
	C141.132401,56.203850 138.294922,50.885479 143.861237,48.082851 
	C142.469513,44.976604 141.023605,42.301926 140.060989,39.463356 
	C138.811844,35.779869 137.947357,31.965927 136.858398,27.945707 
	C136.533249,27.455347 136.266998,27.227421 135.818649,26.838783 
	C135.400009,26.454386 135.192200,26.206625 135.013000,25.535179 
	C134.313004,23.538349 133.998260,21.502705 132.811279,20.459908 
	C131.464706,19.276905 129.337173,18.982830 126.467346,17.890522 
	C126.416687,17.971300 125.685738,19.136950 124.559845,20.264957 
	C123.111099,20.141678 122.057281,20.056042 120.935638,19.615654 
	C113.948120,16.585676 104.847046,22.947197 105.098969,30.456146 
	C105.056297,30.659019 104.843102,31.014635 104.631859,31.181730 
	C104.333076,31.690552 104.245537,32.032276 104.140121,32.658859 
	C104.005135,33.304775 103.888016,33.665833 103.558823,34.214096 
	C103.236626,34.945866 103.126511,35.490425 103.017715,36.373451 
	C102.926003,37.152405 102.832970,37.592899 102.520996,38.238922 
	C102.449120,39.957294 102.596176,41.470135 102.812561,43.231392 
	C102.875618,43.651627 102.869339,43.823448 102.487320,43.997475 
	C99.381180,45.955406 96.650772,47.911144 94.042114,49.779667 
	C96.630974,54.759136 100.466698,56.046589 104.897736,56.257935 
	C104.529778,57.012363 104.266197,57.506096 103.572899,57.999790 
	C100.095230,58.667694 97.047272,59.335640 93.666267,60.002174 
	C92.888992,60.000191 92.444763,59.999619 91.995293,59.620647 
	C91.155319,58.199226 89.911453,56.126175 89.548309,56.270416 
	C85.301399,57.957298 84.125526,54.833382 82.946838,52.015324 
	C80.637985,52.366531 78.659790,53.035198 76.761360,52.856503 
	C74.715691,52.663944 72.728134,51.087185 70.744118,51.142918 
	C63.285389,51.352436 59.534321,48.396217 59.027699,41.327286 
	C53.812267,40.788490 53.996071,40.699009 51.658142,35.896664 
	C51.013428,34.572361 49.016438,33.433231 47.462063,33.134438 
	C45.055195,32.671772 42.495499,33.004143 40.041565,32.623611 
	C40.910625,29.953856 41.831848,27.309345 38.122257,27.103376 
	C31.871090,26.756289 28.464773,22.576679 25.067036,18.632936 
	C22.595970,18.462456 20.200361,18.060671 17.834522,18.192629 
	C14.738659,18.365307 11.535493,18.580301 8.653245,19.574020 
	C7.613318,19.932558 7.692209,22.845566 6.686606,24.150637 
	C5.037761,26.290508 2.920005,28.069067 1.000000,30.000000 
M81.455818,142.147842 
	C81.227348,142.966782 80.998878,143.785736 80.770401,144.604675 
	C81.654945,144.531631 82.539482,144.458588 83.424026,144.385544 
	C83.004341,143.663208 82.584663,142.940857 81.455818,142.147842 
z"/>
<path fill="none" opacity="1.000000" stroke="none" 
	d="
M1.000000,30.467939 
	C2.920005,28.069067 5.037761,26.290508 6.686606,24.150637 
	C7.692209,22.845566 7.613318,19.932558 8.653245,19.574020 
	C11.535493,18.580301 14.738659,18.365307 17.834522,18.192629 
	C20.200361,18.060671 22.595970,18.462456 25.067036,18.632936 
	C28.464773,22.576679 31.871090,26.756289 38.122257,27.103376 
	C41.831848,27.309345 40.910625,29.953856 39.856750,32.815212 
	C39.507751,33.510342 39.384537,33.638081 38.974903,33.601547 
	C34.453159,30.578997 30.217836,27.720711 25.888412,24.786768 
	C25.794312,24.711111 25.565031,24.786926 25.330391,24.461145 
	C20.948172,21.930592 17.183867,22.463120 13.784416,25.730095 
	C13.768239,25.743280 13.780342,25.696203 13.452213,25.728386 
	C12.065047,26.496155 11.006008,27.231739 9.972939,27.982964 
	C9.998906,27.998604 9.972147,27.944201 9.640148,27.993032 
	C8.231868,29.363384 7.155584,30.684906 5.983264,32.179035 
	C5.887228,32.351643 5.869997,32.746220 5.645432,33.011452 
	C5.336471,34.187832 5.252075,35.098972 5.102511,36.343033 
	C5.083080,37.123680 5.128817,37.571419 5.145874,38.260063 
	C5.117195,38.500977 5.277217,38.959053 5.249954,39.312134 
	C6.883482,42.411728 8.544273,45.158234 10.205065,47.904743 
	C7.390157,47.964561 4.575250,48.024384 1.380171,48.042099 
	C1.000000,42.311958 1.000000,36.623920 1.000000,30.467939 
z"/>
<path fill="none" opacity="1.000000" stroke="none" 
	d="
M1.000000,17.333332 
	C1.518259,17.233562 2.036519,17.467127 2.554778,17.700691 
	C2.235600,18.107899 1.916422,18.515108 1.298622,18.961159 
	C1.000000,18.555555 1.000000,18.111111 1.000000,17.333332 
z"/>
<path fill="#5D6CF3" opacity="1.000000" stroke="none" 
	d="
M25.565031,24.786926 
	C25.565031,24.786926 25.794312,24.711111 25.916618,25.149019 
	C30.252655,29.182306 34.329659,32.957638 38.733097,36.303322 
	C41.240788,38.208641 44.281639,39.412247 47.037064,40.951538 
	C46.991726,40.971237 47.065922,40.905643 47.068802,41.260384 
	C52.170628,48.372623 59.277599,52.141708 67.215820,55.287704 
	C69.108658,56.268082 70.758430,57.023918 72.457497,57.644913 
	C75.625984,58.802959 78.823135,59.882599 81.616692,60.996647 
	C79.969566,61.157951 78.714111,61.317474 77.458649,61.477001 
	C77.660912,62.072399 77.863174,62.667797 78.065437,63.263195 
	C79.379585,62.506191 80.693733,61.749187 82.450653,60.991798 
	C84.973045,60.961071 87.052666,60.930740 89.079498,60.951248 
	C89.026703,61.002094 89.085831,60.868168 89.105270,61.241776 
	C93.993172,65.965950 103.644501,66.620613 106.717026,62.808693 
	C111.248039,57.187298 109.828064,46.133095 104.033562,41.567566 
	C104.982872,37.073303 105.939392,32.986115 106.876961,28.923702 
	C106.858009,28.948483 106.858101,28.885998 107.216263,28.906713 
	C110.386353,26.955082 113.198273,24.982733 116.407898,23.009483 
	C117.786301,22.873194 118.766479,22.734041 119.747749,22.603001 
	C128.905411,21.380104 138.621841,30.347725 138.072479,39.113338 
	C137.895752,41.933556 139.030121,44.835938 139.564682,47.700726 
	C139.591232,50.566532 138.345901,53.772972 138.660645,56.818161 
	C139.016052,60.256718 137.703964,60.669827 134.967499,61.110298 
	C132.947723,61.435406 131.086945,62.748344 129.168518,63.742210 
	C129.181717,63.863270 128.993637,64.018005 128.623566,64.086533 
	C126.646744,66.356995 125.310837,68.503250 129.395447,69.591347 
	C129.429993,69.640320 129.505676,69.733276 129.362549,69.969627 
	C129.314041,70.531403 129.408661,70.856827 129.503265,71.182251 
	C129.699326,71.025246 129.895401,70.868240 130.321686,70.801285 
	C130.551926,70.891335 130.992249,71.116226 131.056808,71.458549 
	C132.518036,72.447281 134.149841,73.924828 135.273682,73.606880 
	C143.313171,71.332405 150.190338,74.097198 157.153641,77.629196 
	C160.409836,79.280830 164.193726,80.830574 167.726334,80.804222 
	C175.163574,80.748741 182.593536,81.849373 190.125092,80.261787 
	C193.833099,79.480164 198.090836,81.831711 202.102722,81.844406 
	C208.253159,81.863861 214.457169,81.438942 220.544006,80.553413 
	C226.958496,79.620224 228.604340,77.165176 229.026459,70.610237 
	C229.238464,67.318024 229.629395,64.009827 230.308807,60.786716 
	C230.654205,59.148190 231.817719,57.682117 232.611389,56.138084 
	C233.219986,56.282402 233.828598,56.426723 234.437195,56.571041 
	C234.620224,62.648426 235.096771,68.735794 234.890381,74.799927 
	C234.734299,79.386383 230.707764,82.690392 226.327103,83.735962 
	C221.442734,84.901749 216.718948,86.734932 211.914719,88.244034 
	C208.879395,89.197479 205.852448,90.198105 202.772110,90.982651 
	C198.530212,92.063034 194.241409,92.959282 189.548767,93.949905 
	C187.422989,93.988457 185.721161,94.011497 183.684250,94.052635 
	C182.563263,95.047058 181.777344,96.023376 180.989700,97.406067 
	C181.005508,98.896194 181.023041,99.979950 181.024628,101.033691 
	C181.008667,101.003693 181.075729,101.014763 180.737793,101.149185 
	C179.938034,102.593460 179.476196,103.903305 179.019836,105.418465 
	C179.025299,105.623779 179.099243,106.027847 179.099243,106.027847 
	C179.099243,106.027847 178.868347,105.885048 178.441254,105.684166 
	C167.876144,105.983734 157.742279,106.673103 147.598160,106.896790 
	C143.199493,106.993790 141.279556,108.890076 140.691513,113.204102 
	C140.303513,117.648460 140.196396,121.879761 140.087341,126.059738 
	C140.085403,126.008415 140.142868,126.093559 139.768646,126.089897 
	C137.994934,127.520691 136.595474,128.955139 135.180359,130.642059 
	C135.131256,131.229126 135.097778,131.563751 135.051178,132.274872 
	C135.867249,133.314331 137.329559,134.640854 137.432510,134.542618 
	C139.674347,132.403595 141.764908,130.106033 143.927368,127.849838 
	C143.970200,127.860741 143.887772,127.892624 144.337921,127.932487 
	C146.436737,127.966515 148.249100,128.400742 149.699265,127.861305 
	C152.533218,126.807121 155.164825,125.209045 157.942047,123.869766 
	C158.003860,123.903381 157.866043,123.874931 158.242401,123.916595 
	C160.668213,122.539795 162.717697,121.121330 164.818237,119.713028 
	C164.869308,119.723190 164.780823,119.778091 165.053223,119.751770 
	C165.528229,119.438324 165.730865,119.151199 165.952881,118.917938 
	C165.972244,118.971794 165.888428,118.893806 166.293655,118.938530 
	C170.813553,117.125290 174.928223,115.267334 179.042877,113.409363 
	C180.095184,113.333946 181.147476,113.258530 182.672577,113.587440 
	C191.459244,118.929382 193.717911,127.062767 194.842407,135.873001 
	C195.108978,137.961700 195.982697,139.972916 196.577133,142.019775 
	C196.690048,142.762619 196.802963,143.505463 196.618408,144.944031 
	C196.579407,155.672470 196.621063,165.716766 197.156967,175.734619 
	C197.698441,185.856369 197.865662,185.718628 188.498718,189.231354 
	C187.191559,189.721558 185.584930,192.475494 185.932983,193.637527 
	C186.535095,195.647644 188.559998,197.231583 189.988068,198.994293 
	C191.439468,204.932266 193.032394,210.841888 194.231354,216.830399 
	C194.493683,218.140625 193.720551,220.150497 192.716721,221.036667 
	C192.117874,221.565338 189.642838,220.989471 188.861908,220.133789 
	C180.817596,211.319107 172.905563,202.381699 165.098892,193.355484 
	C164.393936,192.540390 164.159042,190.637726 164.601059,189.634537 
	C166.159500,186.097488 168.128403,182.742767 169.895981,179.295486 
	C170.415817,178.281662 171.211990,177.165955 171.153290,176.138550 
	C170.767410,169.382782 170.182236,162.638397 169.598816,155.069489 
	C167.731201,156.005432 166.527435,156.396683 165.581772,157.123672 
	C163.076126,159.049881 160.905334,161.508911 158.203323,163.064819 
	C148.711624,168.530426 145.281967,177.124466 143.376373,187.459244 
	C140.102646,205.213821 137.766342,222.956772 139.018265,241.009415 
	C139.823471,252.620178 140.979507,264.208405 142.105103,275.794403 
	C142.659332,281.499023 141.212189,285.818481 135.581345,288.436859 
	C133.106964,289.587433 130.520767,291.444031 129.156265,293.691071 
	C128.294662,295.110016 128.956360,298.276642 130.054062,299.904633 
	C133.056519,304.357635 136.689438,308.381653 139.998215,312.633514 
	C142.046585,315.265717 141.426254,317.308899 138.266617,318.361877 
	C132.122543,320.409546 126.157860,320.657684 120.857750,316.109222 
	C118.339920,313.948456 115.637947,311.930298 113.497665,309.436951 
	C112.642670,308.440979 113.077171,306.338074 113.328835,304.328918 
	C114.766907,300.920715 117.141846,297.650635 116.598640,294.972412 
	C114.443596,284.347137 110.683456,274.025604 108.857018,263.362152 
	C107.273155,254.114960 105.504662,244.388184 111.155815,235.496201 
	C111.518234,234.925934 111.036278,233.819016 110.986343,232.594818 
	C111.006088,231.490845 110.986595,230.753799 111.206558,229.832458 
	C110.874077,229.139969 110.302139,228.631729 109.460861,227.891647 
	C110.833778,221.382965 108.932564,216.122192 104.210365,213.876663 
	C104.207726,212.845810 104.205086,211.814957 104.314888,210.120728 
	C104.093925,206.695068 103.760521,203.932800 103.467049,201.501419 
	C101.503090,201.273544 99.794067,201.075256 98.085045,200.876953 
	C98.085045,200.876953 98.086655,200.429626 98.097885,199.818665 
	C98.458046,197.416504 99.178238,195.596375 99.041740,193.842941 
	C98.926750,192.365814 98.191124,190.294250 97.070160,189.668762 
	C94.550705,188.263000 91.661850,187.449295 88.850456,186.651535 
	C83.296356,185.075516 81.521500,181.876053 82.302231,175.929184 
	C83.529419,166.581650 86.455887,157.869492 90.764542,149.522186 
	C93.398003,144.420273 92.517082,141.195663 87.570892,138.302231 
	C80.934029,134.419785 77.753983,128.643723 77.114906,121.193161 
	C76.802147,117.546791 76.505348,113.896034 76.059441,110.264687 
	C74.856575,100.468887 72.512840,91.495667 63.361855,85.459526 
	C55.907646,80.542587 50.318516,73.874390 49.014389,64.343719 
	C48.756470,62.458828 46.337860,60.869587 44.905983,58.781017 
	C44.345356,57.659325 43.900093,56.786579 43.225410,56.161430 
	C40.115238,53.279648 36.985062,50.415783 33.770786,47.651627 
	C32.243591,46.338303 30.512327,45.262272 28.911476,44.041351 
	C28.949446,44.003960 28.917267,44.105568 28.950256,43.726509 
	C27.633682,41.575874 26.284121,39.804306 24.963694,38.015705 
	C24.992828,37.998676 24.961884,38.058651 24.962208,37.737526 
	C24.564165,36.983364 24.165802,36.550327 23.826866,36.133598 
	C23.886292,36.149910 23.810331,36.246971 23.830612,35.879288 
	C20.577000,33.381504 19.161856,34.526772 19.139856,38.124146 
	C19.114901,38.077366 19.218817,38.098473 18.921402,38.216164 
	C18.433035,38.916931 18.242081,39.500011 18.033932,40.045734 
	C18.016735,40.008377 18.090117,40.045532 17.738432,40.074108 
	C11.504623,45.759514 9.946819,45.318970 6.897228,37.171650 
	C6.731450,36.728756 6.340015,36.370323 6.048658,35.649483 
	C6.049523,34.895313 6.055350,34.464233 6.293864,33.855133 
	C6.700216,33.128178 6.873881,32.579239 7.339018,31.873684 
	C8.411041,30.459444 9.191594,29.201822 9.972147,27.944201 
	C9.972147,27.944201 9.998906,27.998604 10.335864,28.004772 
	C11.708662,27.239363 12.744502,26.467783 13.780342,25.696203 
	C13.780342,25.696203 13.768239,25.743280 14.179683,25.823784 
	C18.249094,25.531832 21.907063,25.159380 25.565031,24.786926 
M67.924500,61.571491 
	C69.707581,62.084991 71.490669,62.598488 73.273750,63.111988 
	C73.515350,62.454468 73.756943,61.796947 73.998535,61.139431 
	C71.298409,59.758095 68.598282,58.376759 65.898155,56.995422 
	C65.521614,57.417347 65.145081,57.839272 64.768547,58.261192 
	C65.596878,59.243622 66.425209,60.226051 67.924500,61.571491 
M136.292145,56.438362 
	C136.010880,56.706692 135.729599,56.975025 135.448318,57.243351 
	C135.559570,57.359772 135.761398,57.583530 135.768982,57.577129 
	C136.065582,57.326790 136.344498,57.055481 136.292145,56.438362 
z"/>
<path fill="none" opacity="1.000000" stroke="none" 
	d="
M44.915680,59.144005 
	C46.337860,60.869587 48.756470,62.458828 49.014389,64.343719 
	C50.318516,73.874390 55.907646,80.542587 63.361855,85.459526 
	C72.512840,91.495667 74.856575,100.468887 76.059441,110.264687 
	C76.505348,113.896034 76.802147,117.546791 77.114906,121.193161 
	C77.753983,128.643723 80.934029,134.419785 87.570892,138.302231 
	C92.517082,141.195663 93.398003,144.420273 90.764542,149.522186 
	C86.455887,157.869492 83.529419,166.581650 82.302231,175.929184 
	C81.521500,181.876053 83.296356,185.075516 88.850456,186.651535 
	C91.661850,187.449295 94.550705,188.263000 97.070160,189.668762 
	C98.191124,190.294250 98.926750,192.365814 99.041740,193.842941 
	C99.178238,195.596375 98.458046,197.416504 98.023239,199.607819 
	C97.617279,199.923981 97.089523,199.931046 97.007111,199.742966 
	C93.905777,192.665039 88.807259,189.166367 81.619492,191.082367 
	C81.131653,186.155243 80.661743,181.762787 80.282654,177.362518 
	C80.170647,176.062393 80.278488,174.738220 80.348701,173.428452 
	C80.556992,169.542603 80.793678,165.658249 81.025299,161.773666 
	C81.172096,159.311615 80.434875,157.185287 83.949539,155.433487 
	C88.569946,153.130569 88.151619,145.487625 84.775497,141.384308 
	C80.571045,136.274277 76.892059,130.719147 73.192749,125.217323 
	C72.476341,124.151848 72.602867,122.453316 72.528725,121.036957 
	C72.400024,118.578377 72.000206,116.030067 72.464058,113.666573 
	C73.357552,109.114021 73.410088,105.168854 69.153175,102.040642 
	C68.385094,101.476219 68.855118,99.226929 68.738693,97.540489 
	C67.204613,97.171379 65.810249,96.835884 63.976917,96.394768 
	C64.248283,94.944870 64.494362,93.706917 64.709869,92.463661 
	C65.262711,89.274284 64.544052,87.427521 60.756386,88.575089 
	C56.474922,89.872246 54.170753,88.644089 53.851055,83.757210 
	C53.729580,81.900314 51.724560,80.242676 51.023228,78.330894 
	C49.788418,74.964928 49.090477,71.396339 47.772804,68.068985 
	C47.169197,66.544785 45.653797,65.369324 44.507515,64.075020 
	C42.348564,61.637287 40.157444,59.228050 38.010765,56.382641 
	C38.041840,55.958313 38.157360,55.840366 38.477283,55.955544 
	C40.836697,57.095146 42.876190,58.119576 44.915680,59.144005 
z"/>
<path fill="#6A74DF" opacity="1.000000" stroke="none" 
	d="
M189.972702,93.934418 
	C194.241409,92.959282 198.530212,92.063034 202.772110,90.982651 
	C205.852448,90.198105 208.879395,89.197479 211.914719,88.244034 
	C216.718948,86.734932 221.442734,84.901749 226.327103,83.735962 
	C230.707764,82.690392 234.734299,79.386383 234.890381,74.799927 
	C235.096771,68.735794 234.620224,62.648426 234.437195,56.571041 
	C233.828598,56.426723 233.219986,56.282402 232.611389,56.138084 
	C231.817719,57.682117 230.654205,59.148190 230.308807,60.786716 
	C229.629395,64.009827 229.238464,67.318024 229.026459,70.610237 
	C228.604340,77.165176 226.958496,79.620224 220.544006,80.553413 
	C214.457169,81.438942 208.253159,81.863861 202.102722,81.844406 
	C198.090836,81.831711 193.833099,79.480164 190.125092,80.261787 
	C182.593536,81.849373 175.163574,80.748741 167.726334,80.804222 
	C164.193726,80.830574 160.409836,79.280830 157.153641,77.629196 
	C150.190338,74.097198 143.313171,71.332405 135.273682,73.606880 
	C134.149841,73.924828 132.518036,72.447281 131.510757,71.420753 
	C136.006760,70.808289 140.290894,69.735786 144.174957,70.556572 
	C149.014603,71.579292 153.478714,74.286568 158.192245,76.030647 
	C161.386124,77.212425 164.730240,77.988197 168.007156,78.945557 
	C172.361130,78.967056 176.715088,78.988564 181.947083,79.004967 
	C185.014740,78.719757 187.204376,78.439651 189.393997,78.159546 
	C192.220215,78.179329 195.046448,78.199112 198.525726,78.377014 
	C199.769241,78.589409 200.359726,78.643677 200.950195,78.697952 
	C201.400894,78.784309 201.851578,78.870659 203.050995,79.030945 
	C209.834229,78.908920 215.883759,78.886345 221.890167,78.366104 
	C223.047241,78.265877 224.035324,76.214752 225.101364,75.063599 
	C225.101364,75.063599 225.033600,74.991913 225.278198,74.853638 
	C225.611694,74.154732 225.700577,73.594093 225.789459,73.033455 
	C225.900223,72.598785 226.011017,72.164116 226.387878,71.112534 
	C227.095428,67.663521 227.536880,64.831413 227.978348,61.999313 
	C228.049362,61.565929 228.120377,61.132542 228.384766,60.074532 
	C228.722000,57.969967 228.865845,56.490028 229.009705,55.010090 
	C229.009705,55.010090 229.000000,55.000305 229.264832,54.809715 
	C231.021759,53.363789 232.513870,52.108456 234.005981,50.853127 
	C234.726624,53.295681 235.447250,55.738232 236.193161,58.898956 
	C236.439957,60.425991 236.661453,61.234852 236.882950,62.043716 
	C236.898834,64.074318 236.914719,66.104919 236.929291,68.963150 
	C236.986649,70.862679 237.045334,71.934578 237.104034,73.006477 
	C237.027710,74.063187 236.951401,75.119888 236.674316,76.842987 
	C234.350571,79.830437 232.658585,83.178879 230.025345,84.283455 
	C221.496323,87.861168 212.621872,90.615417 203.880493,93.686859 
	C203.157166,93.760391 202.433853,93.833923 200.935699,93.930656 
	C197.764511,94.278809 195.368149,94.603760 192.971786,94.928719 
	C192.227036,94.896194 191.482285,94.863670 190.364670,94.574677 
	C189.991806,94.318214 189.972702,93.934418 189.972702,93.934418 
z"/>
<path fill="none" opacity="1.000000" stroke="none" 
	d="
M39.815784,33.191002 
	C42.495499,33.004143 45.055195,32.671772 47.462063,33.134438 
	C49.016438,33.433231 51.013428,34.572361 51.658142,35.896664 
	C53.996071,40.699009 53.812267,40.788490 59.027699,41.327286 
	C59.534321,48.396217 63.285389,51.352436 70.744118,51.142918 
	C72.728134,51.087185 74.715691,52.663944 76.761360,52.856503 
	C78.659790,53.035198 80.637985,52.366531 82.946838,52.015324 
	C84.125526,54.833382 85.301399,57.957298 89.548309,56.270416 
	C89.911453,56.126175 91.155319,58.199226 91.615936,59.621201 
	C90.482544,60.004887 89.723267,60.009621 88.591537,59.962128 
	C81.630684,58.179619 75.042297,56.449337 68.199669,54.476212 
	C60.985596,49.790791 54.025761,45.348217 47.065922,40.905643 
	C47.065922,40.905643 46.991726,40.971237 46.908569,40.640770 
	C44.304047,38.128803 41.782688,35.947311 39.261326,33.765816 
	C39.384537,33.638081 39.507751,33.510342 39.815784,33.191002 
z"/>
<path fill="none" opacity="1.000000" stroke="none" 
	d="
M167.962646,78.594818 
	C164.730240,77.988197 161.386124,77.212425 158.192245,76.030647 
	C153.478714,74.286568 149.014603,71.579292 144.174957,70.556572 
	C140.290894,69.735786 136.006760,70.808289 131.446198,71.078430 
	C130.992249,71.116226 130.551926,70.891335 130.296539,70.592041 
	C130.005676,69.969017 129.827179,69.782524 129.505676,69.733276 
	C129.505676,69.733276 129.429993,69.640320 129.337646,69.290527 
	C129.161423,67.299828 129.077530,65.658913 128.993652,64.018005 
	C128.993637,64.018005 129.181717,63.863270 129.599274,63.640755 
	C133.583069,62.788620 137.149338,62.158997 140.715607,61.529381 
	C139.411011,63.223743 138.106415,64.918106 136.292953,67.273369 
	C137.759445,67.442101 139.488724,68.011047 141.087753,67.757751 
	C146.535934,66.894730 151.558121,66.581764 155.909943,71.197403 
	C157.563873,72.951599 160.650223,73.281670 162.922119,74.550217 
	C164.715759,75.551720 166.262009,76.996284 167.962646,78.594818 
z"/>
<path fill="#6B75DB" opacity="1.000000" stroke="none" 
	d="
M110.947113,232.961746 
	C111.036278,233.819016 111.518234,234.925934 111.155815,235.496201 
	C105.504662,244.388184 107.273155,254.114960 108.857018,263.362152 
	C110.683456,274.025604 114.443596,284.347137 116.598640,294.972412 
	C117.141846,297.650635 114.766907,300.920715 113.379181,303.965790 
	C117.830742,296.786957 112.771873,290.362915 111.181564,282.930695 
	C109.028900,274.466034 107.064255,266.712341 105.099602,258.958649 
	C105.089340,258.518982 105.079086,258.079346 105.033249,256.857788 
	C105.750252,249.751450 106.502846,243.426956 107.255432,237.102478 
	C107.564453,237.006531 107.790527,236.813461 108.247398,236.136353 
	C109.356461,234.820221 110.151787,233.890991 110.947113,232.961746 
z"/>
<path fill="#6C78D3" opacity="1.000000" stroke="none" 
	d="
M140.772766,61.150711 
	C137.149338,62.158997 133.583069,62.788620 129.586075,63.519699 
	C131.086945,62.748344 132.947723,61.435406 134.967499,61.110298 
	C137.703964,60.669827 139.016052,60.256718 138.660645,56.818161 
	C138.345901,53.772972 139.591232,50.566532 139.564682,47.700726 
	C139.030121,44.835938 137.895752,41.933556 138.072479,39.113338 
	C138.621841,30.347725 128.905411,21.380104 119.747749,22.603001 
	C118.766479,22.734041 117.786301,22.873194 116.372772,22.634991 
	C115.908440,22.012724 115.876945,21.764050 116.134430,21.342163 
	C117.950089,20.769436 119.476784,20.369921 121.003471,19.970406 
	C122.057281,20.056042 123.111099,20.141678 124.824486,20.471712 
	C128.660400,22.455671 131.836746,24.195234 135.013092,25.934795 
	C135.192200,26.206625 135.400009,26.454386 135.876953,27.100712 
	C136.384018,27.751612 136.650665,27.979876 136.917297,28.208141 
	C137.947357,31.965927 138.811844,35.779869 140.060989,39.463356 
	C141.023605,42.301926 142.469513,44.976604 143.861237,48.082851 
	C138.294922,50.885479 141.132401,56.203850 140.772766,61.150711 
z"/>
<path fill="none" opacity="1.000000" stroke="none" 
	d="
M135.064316,131.898376 
	C135.097778,131.563751 135.131256,131.229126 135.513062,130.553482 
	C137.288544,128.839508 138.715714,127.466530 140.142868,126.093567 
	C140.142868,126.093559 140.085403,126.008415 140.379715,125.862961 
	C141.158829,124.141670 141.643631,122.565826 142.128448,120.989983 
	C149.305389,124.504395 153.650635,123.436623 159.765671,116.940094 
	C160.679779,115.968964 162.214905,115.344208 163.566345,115.070091 
	C166.873764,114.399231 170.241791,114.027252 173.572876,114.076462 
	C171.003036,116.043221 168.445724,117.468513 165.888428,118.893806 
	C165.888428,118.893806 165.972244,118.971794 165.679230,118.952545 
	C165.184402,119.214890 164.982620,119.496498 164.780823,119.778091 
	C164.780823,119.778091 164.869308,119.723190 164.474045,119.733261 
	C162.007874,121.120529 159.936966,122.497734 157.866043,123.874939 
	C157.866043,123.874931 158.003860,123.903381 157.556091,123.961395 
	C152.701477,125.310478 148.294617,126.601547 143.887772,127.892624 
	C143.887772,127.892624 143.970200,127.860741 143.575272,127.887909 
	C140.475006,129.242844 137.769653,130.570618 135.064316,131.898376 
z"/>
<path fill="#707BD1" opacity="1.000000" stroke="none" 
	d="
M190.009583,198.558685 
	C188.559998,197.231583 186.535095,195.647644 185.932983,193.637527 
	C185.584930,192.475494 187.191559,189.721558 188.498718,189.231354 
	C197.865662,185.718628 197.698441,185.856369 197.156967,175.734619 
	C196.621063,165.716766 196.579407,155.672470 196.583923,145.320801 
	C197.541260,159.012543 198.285797,173.021332 198.819412,187.038147 
	C198.855789,187.994019 197.284485,189.882401 196.503433,189.859909 
	C190.403397,189.684128 189.222412,193.054474 190.009583,198.558685 
z"/>
<path fill="none" opacity="1.000000" stroke="none" 
	d="
M204.102127,94.013466 
	C212.621872,90.615417 221.496323,87.861168 230.025345,84.283455 
	C232.658585,83.178879 234.350571,79.830437 236.696320,77.240273 
	C237.547470,78.948860 238.175842,80.926544 238.721069,82.642570 
	C236.283218,84.530579 234.069092,86.245308 231.854980,87.960037 
	C231.852173,87.787033 231.849365,87.614029 231.846558,87.441017 
	C227.533234,88.982071 222.804504,89.858780 219.010910,92.230957 
	C214.179962,95.251808 209.492828,95.555695 204.102127,94.013466 
z"/>
<path fill="none" opacity="1.000000" stroke="none" 
	d="
M110.986343,232.594818 
	C110.151787,233.890991 109.356461,234.820221 108.298141,235.914032 
	C106.840340,234.880447 105.645523,233.682312 104.225777,232.258636 
	C104.521271,231.530746 104.653343,230.424576 105.273857,229.818512 
	C107.415482,227.726746 107.293449,226.330612 104.957787,224.196106 
	C100.594406,220.208481 100.361832,216.845474 103.870422,214.033203 
	C108.932564,216.122192 110.833778,221.382965 109.524551,228.182785 
	C110.227425,229.142761 110.597267,229.579742 110.967110,230.016739 
	C110.986595,230.753799 111.006088,231.490845 110.986343,232.594818 
z"/>
<path fill="none" opacity="1.000000" stroke="none" 
	d="
M104.786896,259.237549 
	C107.064255,266.712341 109.028900,274.466034 110.982735,282.610779 
	C108.606636,281.951691 106.241341,280.901489 102.807999,279.377075 
	C103.312210,273.367004 103.893204,266.441742 104.786896,259.237549 
z"/>
<path fill="none" opacity="1.000000" stroke="none" 
	d="
M105.002106,55.997246 
	C100.466698,56.046589 96.630974,54.759136 94.042114,49.779667 
	C96.650772,47.911144 99.381180,45.955406 102.643341,44.201138 
	C103.416443,44.638985 103.657791,44.875366 103.926521,45.086487 
	C103.953896,45.061234 103.888466,45.029140 103.894180,45.362305 
	C104.216080,46.259327 104.532265,46.823181 104.859627,47.676632 
	C104.976677,48.531601 105.082550,49.096970 105.131660,50.112595 
	C105.050636,52.374317 105.026367,54.185783 105.002106,55.997246 
z"/>
<path fill="none" opacity="1.000000" stroke="none" 
	d="
M30.997841,50.002129 
	C29.241961,49.540077 27.486082,49.078030 25.701668,48.608471 
	C25.120363,45.805561 24.543928,43.026123 23.967491,40.246685 
	C23.440298,40.116325 22.913105,39.985966 22.385912,39.855610 
	C20.772099,43.521702 20.818869,48.959084 14.628958,47.714462 
	C15.612486,44.956921 16.851301,42.501225 18.090117,40.045532 
	C18.090117,40.045532 18.016735,40.008377 18.315460,39.907639 
	C18.815729,39.237423 19.017273,38.667950 19.218817,38.098473 
	C19.218817,38.098473 19.114901,38.077366 19.434746,37.971382 
	C21.106503,37.325920 22.458416,36.786446 23.810331,36.246971 
	C23.810331,36.246971 23.886292,36.149910 23.864765,36.431797 
	C24.216120,37.162006 24.589003,37.610329 24.961884,38.058651 
	C24.961884,38.058651 24.992828,37.998676 24.968658,38.364220 
	C26.268747,40.521702 27.593008,42.313633 28.917267,44.105568 
	C28.917267,44.105568 28.949446,44.003960 28.965126,44.374481 
	C29.894016,46.256714 30.807228,47.768417 31.539791,49.460625 
	C31.238707,49.761459 31.118273,49.881790 30.997841,50.002129 
z"/>
<path fill="none" opacity="1.000000" stroke="none" 
	d="
M178.674866,106.472099 
	C177.494980,107.829445 176.135864,110.480629 175.162720,110.345802 
	C164.359467,108.849106 153.817566,109.633820 143.154419,112.490448 
	C143.780029,108.916359 145.748459,107.847778 149.109940,108.057632 
	C154.393433,108.387512 159.723938,108.366554 165.012848,108.085800 
	C169.582535,107.843239 174.122025,107.031967 178.674866,106.472099 
z"/>
<path fill="#707BD1" opacity="1.000000" stroke="none" 
	d="
M196.675751,141.607025 
	C195.982697,139.972916 195.108978,137.961700 194.842407,135.873001 
	C193.717911,127.062767 191.459244,118.929382 183.059784,113.682129 
	C188.537033,113.200424 191.707993,116.611893 192.956024,121.307655 
	C194.685577,127.815125 195.543335,134.554321 196.675751,141.607025 
z"/>
<path fill="#6B74D2" opacity="1.000000" stroke="none" 
	d="
M17.738432,40.074108 
	C16.851301,42.501225 15.612486,44.956921 14.226397,47.721958 
	C14.079123,48.031303 14.018007,48.010696 13.644348,48.051414 
	C12.527483,48.116261 11.784279,48.140396 11.041074,48.164528 
	C11.041074,48.164528 10.646574,47.957436 10.425819,47.931091 
	C8.544273,45.158234 6.883482,42.411728 5.372828,39.210159 
	C5.654923,38.415821 5.538785,38.170506 5.174553,38.019154 
	C5.128817,37.571419 5.083080,37.123680 5.324040,36.335701 
	C5.610737,35.995453 6.053621,35.972576 6.053621,35.972576 
	C6.340015,36.370323 6.731450,36.728756 6.897228,37.171650 
	C9.946819,45.318970 11.504623,45.759514 17.738432,40.074108 
z"/>
<path fill="#6D75CB" opacity="1.000000" stroke="none" 
	d="
M178.678833,106.293602 
	C174.122025,107.031967 169.582535,107.843239 165.012848,108.085800 
	C159.723938,108.366554 154.393433,108.387512 149.109940,108.057632 
	C145.748459,107.847778 143.780029,108.916359 142.738068,112.439529 
	C142.602478,112.797722 142.245102,112.924095 141.923187,113.035370 
	C141.601273,113.146652 141.211945,113.190346 141.153015,113.139374 
	C141.094070,113.088409 140.972397,112.991043 140.972397,112.991043 
	C141.279556,108.890076 143.199493,106.993790 147.598160,106.896790 
	C157.742279,106.673103 167.876144,105.983734 178.320129,105.622910 
	C178.626083,105.762535 178.682816,106.115097 178.678833,106.293602 
z"/>
<path fill="none" opacity="1.000000" stroke="none" 
	d="
M120.935638,19.615654 
	C119.476784,20.369921 117.950089,20.769436 115.783493,21.452389 
	C112.381752,24.119215 109.619926,26.502605 106.858101,28.885996 
	C106.858101,28.885998 106.858009,28.948483 106.614906,29.027897 
	C105.961746,29.489300 105.551689,29.871286 105.141632,30.253273 
	C104.847046,22.947197 113.948120,16.585676 120.935638,19.615654 
z"/>
<path fill="none" opacity="1.000000" stroke="none" 
	d="
M224.721344,75.079498 
	C224.035324,76.214752 223.047241,78.265877 221.890167,78.366104 
	C215.883759,78.886345 209.834229,78.908920 203.395020,78.998344 
	C203.635254,78.421745 204.235947,77.627068 204.932068,77.532143 
	C211.392441,76.651207 217.869263,75.890793 224.721344,75.079498 
z"/>
<path fill="none" opacity="1.000000" stroke="none" 
	d="
M97.920105,201.232498 
	C99.794067,201.075256 101.503090,201.273544 103.467049,201.501419 
	C103.760521,203.932800 104.093925,206.695068 104.241417,209.740753 
	C102.990372,209.344437 102.002075,208.289505 100.846199,208.052780 
	C96.800529,207.224182 96.195274,204.979843 97.920105,201.232498 
z"/>
<path fill="none" opacity="1.000000" stroke="none" 
	d="
M106.830704,237.076904 
	C106.502846,243.426956 105.750252,249.751450 104.940247,256.540161 
	C104.257057,256.033386 103.135307,255.084503 103.090973,254.087662 
	C102.894371,249.666855 102.746620,245.207565 103.163582,240.817520 
	C103.291420,239.471603 105.273170,238.301773 106.830704,237.076904 
z"/>
<path fill="none" opacity="1.000000" stroke="none" 
	d="
M93.999313,60.003586 
	C97.047272,59.335640 100.095230,58.667694 103.935898,58.037933 
	C104.970047,58.106594 105.211487,58.137074 105.333420,58.471062 
	C104.769669,59.513462 104.325424,60.252357 103.530914,61.000130 
	C102.480896,61.715263 101.781136,62.421520 101.043457,63.113056 
	C101.005539,63.098335 101.084892,63.080441 100.669754,63.044785 
	C99.143768,63.017044 98.032921,63.024963 96.589905,63.049881 
	C95.828934,62.964180 95.400146,62.861485 94.835968,62.578178 
	C94.464340,62.183521 94.186852,62.080742 93.878601,62.113354 
	C93.889084,62.137466 93.840363,62.160019 93.906845,61.804672 
	C93.981987,60.967411 93.990646,60.485497 93.999313,60.003586 
z"/>
<path fill="none" opacity="1.000000" stroke="none" 
	d="
M135.013000,25.535179 
	C131.836746,24.195234 128.660400,22.455671 125.219421,20.509354 
	C125.685738,19.136950 126.416687,17.971300 126.467346,17.890522 
	C129.337173,18.982830 131.464706,19.276905 132.811279,20.459908 
	C133.998260,21.502705 134.313004,23.538349 135.013000,25.535179 
z"/>
<path fill="none" opacity="1.000000" stroke="none" 
	d="
M179.482452,106.016342 
	C179.099243,106.027847 179.025299,105.623779 179.321533,105.233459 
	C180.103760,103.567009 180.589737,102.290886 181.075714,101.014755 
	C181.075729,101.014763 181.008667,101.003693 181.279190,100.800125 
	C181.800491,99.496574 182.051270,98.396584 182.289291,97.229630 
	C182.276535,97.162674 182.141083,97.177917 182.398163,97.094376 
	C182.786880,96.678978 182.918503,96.347107 183.252380,95.956589 
	C183.737595,95.829941 183.971298,95.683380 184.543152,95.423172 
	C185.959518,95.326279 186.988434,95.264496 188.017365,95.202713 
	C186.236786,98.258408 184.550507,101.375923 182.614044,104.329414 
	C182.082550,105.140068 180.802322,105.459831 179.482452,106.016342 
z"/>
<path fill="#707BD1" opacity="1.000000" stroke="none" 
	d="
M166.293655,118.938530 
	C168.445724,117.468513 171.003036,116.043221 173.790970,114.367691 
	C174.463531,114.074905 174.905472,114.032364 175.886414,113.903900 
	C176.748306,113.763626 176.975906,113.586693 177.108215,113.287186 
	C177.541885,113.278412 177.975571,113.269638 178.726059,113.335114 
	C174.928223,115.267334 170.813553,117.125290 166.293655,118.938530 
z"/>
<path fill="none" opacity="1.000000" stroke="none" 
	d="
M233.911880,50.486389 
	C232.513870,52.108456 231.021759,53.363789 229.270035,54.812981 
	C228.236130,53.342674 227.461838,51.678513 226.137070,48.831238 
	C229.002945,49.311981 231.410370,49.715816 233.911880,50.486389 
z"/>
<path fill="none" opacity="1.000000" stroke="none" 
	d="
M37.984612,56.017799 
	C34.413254,55.914845 30.412804,56.393639 30.998898,50.412796 
	C31.118273,49.881790 31.238707,49.761459 31.787609,49.669254 
	C34.196507,51.745045 36.176933,53.792706 38.157360,55.840366 
	C38.157360,55.840366 38.041840,55.958313 37.984612,56.017799 
z"/>
<path fill="#6D77CB" opacity="1.000000" stroke="none" 
	d="
M105.098969,30.456146 
	C105.551689,29.871286 105.961746,29.489300 106.633858,29.003117 
	C105.939392,32.986115 104.982872,37.073303 104.019135,41.959877 
	C103.974319,43.543427 103.936737,44.327583 103.899147,45.111744 
	C103.657791,44.875366 103.416443,44.638985 103.019073,44.198936 
	C102.869339,43.823448 102.875618,43.651627 102.861458,42.820580 
	C102.807327,40.785370 102.773628,39.409378 102.739929,38.033390 
	C102.832970,37.592899 102.926003,37.152405 103.223618,36.177429 
	C103.542419,35.104256 103.656654,34.565571 103.770889,34.026886 
	C103.888016,33.665833 104.005135,33.304775 104.353065,32.491436 
	C104.670288,31.697647 104.756691,31.356142 104.843102,31.014635 
	C104.843102,31.014635 105.056297,30.659019 105.098969,30.456146 
z"/>
<path fill="#6D75CB" opacity="1.000000" stroke="none" 
	d="
M142.063721,120.622559 
	C141.643631,122.565826 141.158829,124.141670 140.381653,125.914284 
	C140.196396,121.879761 140.303513,117.648460 140.691513,113.204102 
	C140.972397,112.991043 141.094070,113.088409 141.187653,113.332840 
	C141.281219,113.577278 141.430222,113.941551 141.430222,113.941551 
	C141.311157,114.391273 141.192078,114.840996 141.105179,115.925400 
	C141.408142,117.046341 141.678955,117.532585 141.949753,118.018837 
	C141.966171,118.764267 141.982574,119.509705 142.063721,120.622559 
z"/>
<path fill="none" opacity="1.000000" stroke="none" 
	d="
M227.615189,62.072384 
	C227.536880,64.831413 227.095428,67.663521 226.406586,70.775703 
	C223.760513,67.746811 225.641357,64.962700 227.615189,62.072384 
z"/>
<path fill="none" opacity="1.000000" stroke="none" 
	d="
M193.234558,95.226891 
	C195.368149,94.603760 197.764511,94.278809 200.582550,94.018524 
	C199.103836,97.697578 196.102661,95.580849 193.234558,95.226891 
z"/>
<path fill="none" opacity="1.000000" stroke="none" 
	d="
M105.452927,58.167557 
	C105.211487,58.137074 104.970047,58.106594 104.365616,58.037971 
	C104.266197,57.506096 104.529778,57.012363 104.897736,56.257935 
	C105.026367,54.185783 105.050636,52.374317 105.380814,50.400085 
	C106.668098,52.911961 108.550179,55.613155 105.452927,58.167557 
z"/>
<path fill="none" opacity="1.000000" stroke="none" 
	d="
M228.659012,55.045456 
	C228.865845,56.490028 228.722000,57.969967 228.358917,59.745102 
	C225.331696,58.289745 225.071518,56.625828 228.659012,55.045456 
z"/>
<path fill="none" opacity="1.000000" stroke="none" 
	d="
M81.810394,142.183182 
	C82.584663,142.940857 83.004341,143.663208 83.424026,144.385544 
	C82.539482,144.458588 81.654945,144.531631 80.770401,144.604675 
	C80.998878,143.785736 81.227348,142.966782 81.810394,142.183182 
z"/>
<path fill="none" opacity="1.000000" stroke="none" 
	d="
M188.976410,78.101212 
	C187.204376,78.439651 185.014740,78.719757 182.406311,78.934479 
	C183.707733,74.853996 186.403183,78.595078 188.976410,78.101212 
z"/>
<path fill="none" opacity="1.000000" stroke="none" 
	d="
M93.666267,60.002174 
	C93.990646,60.485497 93.981987,60.967411 93.554558,61.769527 
	C91.785805,61.682545 90.435822,61.275356 89.085831,60.868168 
	C89.085831,60.868168 89.026703,61.002094 89.049057,60.727760 
	C89.071411,60.453426 88.963989,60.014359 88.963989,60.014359 
	C89.723267,60.009621 90.482544,60.004887 91.621178,59.999599 
	C92.444763,59.999619 92.888992,60.000191 93.666267,60.002174 
z"/>
<path fill="none" opacity="1.000000" stroke="none" 
	d="
M237.439835,72.937042 
	C237.045334,71.934578 236.986649,70.862679 236.999847,69.393181 
	C239.717529,69.847931 239.498352,71.221100 237.439835,72.937042 
z"/>
<path fill="none" opacity="1.000000" stroke="none" 
	d="
M102.520996,38.238922 
	C102.773628,39.409378 102.807327,40.785370 102.792130,42.572166 
	C102.596176,41.470135 102.449120,39.957294 102.520996,38.238922 
z"/>
<path fill="#6D75CB" opacity="1.000000" stroke="none" 
	d="
M188.347534,95.113419 
	C186.988434,95.264496 185.959518,95.326279 184.499588,95.067253 
	C184.052170,94.509140 184.035751,94.271835 184.019333,94.034538 
	C185.721161,94.011497 187.422989,93.988457 189.548767,93.949913 
	C189.972702,93.934418 189.991806,94.318214 189.997421,94.510094 
	C189.561249,94.809357 189.119476,94.916748 188.347534,95.113419 
z"/>
<path fill="none" opacity="1.000000" stroke="none" 
	d="
M237.146469,61.871223 
	C236.661453,61.234852 236.439957,60.425991 236.286255,59.297447 
	C236.706024,59.884758 237.057999,60.791744 237.146469,61.871223 
z"/>
<path fill="none" opacity="1.000000" stroke="none" 
	d="
M142.182083,117.864990 
	C141.678955,117.532585 141.408142,117.046341 141.167526,116.272522 
	C141.603271,116.560356 142.008850,117.135750 142.182083,117.864990 
z"/>
<path fill="none" opacity="1.000000" stroke="none" 
	d="
M11.236177,48.387657 
	C11.784279,48.140396 12.527483,48.116261 13.643471,48.083481 
	C13.154595,48.253483 12.292938,48.432129 11.236177,48.387657 
z"/>
<path fill="none" opacity="1.000000" stroke="none" 
	d="
M177.010712,113.081451 
	C176.975906,113.586693 176.748306,113.763626 176.202225,113.796692 
	C176.290421,113.475502 176.601822,113.175598 177.010712,113.081451 
z"/>
<path fill="none" opacity="1.000000" stroke="none" 
	d="
M103.558823,34.214096 
	C103.656654,34.565571 103.542419,35.104256 103.222290,35.838963 
	C103.126511,35.490425 103.236626,34.945866 103.558823,34.214096 
z"/>
<path fill="none" opacity="1.000000" stroke="none" 
	d="
M225.575378,73.225204 
	C225.700577,73.594093 225.611694,74.154732 225.296936,74.899239 
	C225.167816,74.527725 225.264572,73.972343 225.575378,73.225204 
z"/>
<path fill="none" opacity="1.000000" stroke="none" 
	d="
M200.727783,78.493713 
	C200.359726,78.643677 199.769241,78.589409 198.949249,78.333054 
	C199.314926,78.183800 199.910156,78.236633 200.727783,78.493713 
z"/>
<path fill="none" opacity="1.000000" stroke="none" 
	d="
M104.631859,31.181730 
	C104.756691,31.356142 104.670288,31.697647 104.370934,32.206577 
	C104.245537,32.032276 104.333076,31.690552 104.631859,31.181730 
z"/>
<path fill="none" opacity="1.000000" stroke="none" 
	d="
M136.858398,27.945705 
	C136.650665,27.979876 136.384018,27.751612 136.059067,27.261421 
	C136.266998,27.227421 136.533249,27.455347 136.858398,27.945705 
z"/>
<path fill="none" opacity="1.000000" stroke="none" 
	d="
M141.558289,113.847687 
	C141.430222,113.941551 141.281219,113.577278 141.246582,113.383812 
	C141.211945,113.190346 141.601273,113.146652 141.795044,113.175034 
	C141.939163,113.414986 141.838333,113.598457 141.558289,113.847687 
z"/>
<path fill="#737AD4" opacity="1.000000" stroke="none" 
	d="
M38.974903,33.601547 
	C41.782688,35.947311 44.304047,38.128803 46.953907,40.621067 
	C44.281639,39.412247 41.240788,38.208641 38.733097,36.303322 
	C34.329659,32.957638 30.252655,29.182306 26.010719,25.224676 
	C30.217836,27.720711 34.453159,30.578997 38.974903,33.601547 
z"/>
<path fill="#737AD4" opacity="1.000000" stroke="none" 
	d="
M25.330391,24.461147 
	C21.907063,25.159380 18.249094,25.531832 14.195860,25.810596 
	C17.183867,22.463120 20.948172,21.930592 25.330391,24.461147 
z"/>
<path fill="#737AD4" opacity="1.000000" stroke="none" 
	d="
M9.640149,27.993032 
	C9.191594,29.201822 8.411041,30.459444 7.096759,31.864897 
	C6.563030,32.012730 6.079302,32.006428 6.079302,32.006428 
	C7.155584,30.684906 8.231868,29.363384 9.640149,27.993032 
z"/>
<path fill="#737AD4" opacity="1.000000" stroke="none" 
	d="
M13.452213,25.728386 
	C12.744502,26.467783 11.708662,27.239363 10.309896,27.989132 
	C11.006008,27.231739 12.065047,26.496155 13.452213,25.728386 
z"/>
<path fill="#737AD4" opacity="1.000000" stroke="none" 
	d="
M6.048658,35.649483 
	C6.053621,35.972576 5.610737,35.995453 5.389209,36.002785 
	C5.252075,35.098972 5.336471,34.187832 5.699039,33.332642 
	C6.005201,33.603451 6.033189,33.818306 6.061177,34.033157 
	C6.055350,34.464233 6.049523,34.895313 6.048658,35.649483 
z"/>
<path fill="#6B74D2" opacity="1.000000" stroke="none" 
	d="
M6.293864,33.855133 
	C6.033189,33.818306 6.005201,33.603451 5.923605,33.067406 
	C5.869997,32.746220 5.887228,32.351643 5.983265,32.179035 
	C6.079302,32.006428 6.563030,32.012730 6.805289,32.021515 
	C6.873881,32.579239 6.700216,33.128178 6.293864,33.855133 
z"/>
<path fill="#737AD4" opacity="1.000000" stroke="none" 
	d="
M5.145874,38.260063 
	C5.538785,38.170506 5.654923,38.415821 5.400091,38.857079 
	C5.277217,38.959053 5.117195,38.500977 5.145874,38.260063 
z"/>
<path fill="#6772DE" opacity="1.000000" stroke="none" 
	d="
M89.105270,61.241776 
	C90.435822,61.275356 91.785805,61.682545 93.488083,62.124878 
	C93.840363,62.160019 93.889084,62.137466 93.982552,62.329132 
	C94.333603,62.753872 94.632050,62.833199 94.971352,62.758785 
	C95.400146,62.861485 95.828934,62.964180 96.843445,63.256233 
	C98.647736,63.323872 99.866318,63.202156 101.084892,63.080441 
	C101.084892,63.080441 101.005539,63.098335 101.374428,63.139603 
	C102.455940,62.450996 103.168564,61.721123 103.881180,60.991249 
	C104.325424,60.252357 104.769669,59.513462 105.333420,58.471062 
	C108.550179,55.613155 106.668098,52.911961 105.437576,49.949829 
	C105.082550,49.096970 104.976677,48.531601 104.889549,47.325630 
	C104.568352,46.133068 104.228409,45.581104 103.888466,45.029140 
	C103.888466,45.029140 103.953896,45.061234 103.926521,45.086487 
	C103.936737,44.327583 103.974319,43.543427 104.026337,42.366951 
	C109.828064,46.133095 111.248039,57.187298 106.717026,62.808693 
	C103.644501,66.620613 93.993172,65.965950 89.105270,61.241776 
z"/>
<path fill="#737AD4" opacity="1.000000" stroke="none" 
	d="
M47.068802,41.260384 
	C54.025761,45.348217 60.985596,49.790791 67.837830,54.566360 
	C67.485146,54.933678 67.240074,54.968002 66.995003,55.002323 
	C59.277599,52.141708 52.170628,48.372623 47.068802,41.260384 
z"/>
<path fill="#6B74D2" opacity="1.000000" stroke="none" 
	d="
M38.477283,55.955544 
	C36.176933,53.792706 34.196507,51.745045 31.968260,49.488754 
	C30.807228,47.768417 29.894016,46.256714 28.927156,44.411877 
	C30.512327,45.262272 32.243591,46.338303 33.770786,47.651627 
	C36.985062,50.415783 40.115238,53.279648 43.225410,56.161430 
	C43.900093,56.786579 44.345356,57.659325 44.905983,58.781017 
	C42.876190,58.119576 40.836697,57.095146 38.477283,55.955544 
z"/>
<path fill="#6772DE" opacity="1.000000" stroke="none" 
	d="
M67.215820,55.287704 
	C67.240074,54.968002 67.485146,54.933678 68.092064,54.809204 
	C75.042297,56.449337 81.630684,58.179619 88.591537,59.962128 
	C88.963989,60.014359 89.071411,60.453426 89.101852,60.676918 
	C87.052666,60.930740 84.973045,60.961071 82.446709,60.995689 
	C82.000000,60.999973 82.008354,60.994869 82.008354,60.994869 
	C78.823135,59.882599 75.625984,58.802959 72.457497,57.644913 
	C70.758430,57.023918 69.108658,56.268082 67.215820,55.287704 
z"/>
<path fill="#596DEC" opacity="1.000000" stroke="none" 
	d="
M67.589020,61.389984 
	C66.425209,60.226051 65.596878,59.243622 64.768547,58.261192 
	C65.145081,57.839272 65.521614,57.417347 65.898155,56.995422 
	C68.598282,58.376759 71.298409,59.758095 73.998535,61.139431 
	C73.756943,61.796947 73.515350,62.454468 73.273750,63.111988 
	C71.490669,62.598488 69.707581,62.084991 67.589020,61.389984 
z"/>
<path fill="#707BD1" opacity="1.000000" stroke="none" 
	d="
M144.337921,127.932480 
	C148.294617,126.601547 152.701477,125.310478 157.494263,123.927780 
	C155.164825,125.209045 152.533218,126.807121 149.699265,127.861305 
	C148.249100,128.400742 146.436737,127.966515 144.337921,127.932480 
z"/>
<path fill="#707BD1" opacity="1.000000" stroke="none" 
	d="
M135.051178,132.274872 
	C137.769653,130.570618 140.475006,129.242844 143.532440,127.876999 
	C141.764908,130.106033 139.674347,132.403595 137.432510,134.542618 
	C137.329559,134.640854 135.867249,133.314331 135.051178,132.274872 
z"/>
<path fill="#6D77CB" opacity="1.000000" stroke="none" 
	d="
M107.216263,28.906712 
	C109.619926,26.502605 112.381752,24.119215 115.494522,21.625603 
	C115.876945,21.764050 115.908440,22.012724 115.975067,22.635893 
	C113.198273,24.982733 110.386353,26.955082 107.216263,28.906712 
z"/>
<path fill="#707BD1" opacity="1.000000" stroke="none" 
	d="
M158.242401,123.916595 
	C159.936966,122.497734 162.007874,121.120529 164.422974,119.723099 
	C162.717697,121.121330 160.668213,122.539795 158.242401,123.916595 
z"/>
<path fill="#6B74D2" opacity="1.000000" stroke="none" 
	d="
M28.950256,43.726509 
	C27.593008,42.313633 26.268747,40.521702 24.939522,38.381248 
	C26.284121,39.804306 27.633682,41.575874 28.950256,43.726509 
z"/>
<path fill="#6B74D2" opacity="1.000000" stroke="none" 
	d="
M23.830612,35.879288 
	C22.458416,36.786446 21.106503,37.325920 19.459702,38.018162 
	C19.161856,34.526772 20.577000,33.381504 23.830612,35.879288 
z"/>
<path fill="#6D75CB" opacity="1.000000" stroke="none" 
	d="
M139.768646,126.089905 
	C138.715714,127.466530 137.288544,128.839508 135.528687,130.301025 
	C136.595474,128.955139 137.994934,127.520691 139.768646,126.089905 
z"/>
<path fill="#6C78D3" opacity="1.000000" stroke="none" 
	d="
M128.623566,64.086533 
	C129.077530,65.658913 129.161423,67.299828 129.303101,69.241554 
	C125.310837,68.503250 126.646744,66.356995 128.623566,64.086533 
z"/>
<path fill="#596DEC" opacity="1.000000" stroke="none" 
	d="
M82.003937,60.996078 
	C80.693733,61.749187 79.379585,62.506191 78.065437,63.263195 
	C77.863174,62.667797 77.660912,62.072399 77.458649,61.477001 
	C78.714111,61.317474 79.969566,61.157951 81.616692,60.996647 
	C82.008354,60.994869 82.000000,60.999973 82.003937,60.996078 
z"/>
<path fill="#6A74DF" opacity="1.000000" stroke="none" 
	d="
M183.684250,94.052635 
	C184.035751,94.271835 184.052170,94.509140 184.112152,95.102356 
	C183.971298,95.683380 183.737595,95.829941 183.017609,96.074982 
	C182.434097,96.560661 182.287598,96.869293 182.141083,97.177917 
	C182.141083,97.177917 182.276535,97.162674 181.966339,97.126877 
	C181.434555,97.060631 181.212997,97.030167 180.991425,96.999695 
	C181.777344,96.023376 182.563263,95.047058 183.684250,94.052635 
z"/>
<path fill="#6D75CB" opacity="1.000000" stroke="none" 
	d="
M180.737793,101.149185 
	C180.589737,102.290886 180.103760,103.567009 179.316071,105.028137 
	C179.476196,103.903305 179.938034,102.593460 180.737793,101.149185 
z"/>
<path fill="#6B75DB" opacity="1.000000" stroke="none" 
	d="
M111.206558,229.832458 
	C110.597267,229.579742 110.227425,229.142761 109.793900,228.414642 
	C110.302139,228.631729 110.874077,229.139969 111.206558,229.832458 
z"/>
<path fill="#6D75CB" opacity="1.000000" stroke="none" 
	d="
M180.989700,97.406067 
	C181.212997,97.030167 181.434555,97.060631 181.979095,97.193832 
	C182.051270,98.396584 181.800491,99.496574 181.295151,100.830132 
	C181.023041,99.979950 181.005508,98.896194 180.989700,97.406067 
z"/>
<path fill="#6C78D3" opacity="1.000000" stroke="none" 
	d="
M136.458923,56.612640 
	C136.344498,57.055481 136.065582,57.326790 135.768982,57.577129 
	C135.761398,57.583530 135.559570,57.359772 135.448318,57.243355 
	C135.729599,56.975025 136.010880,56.706692 136.458923,56.612640 
z"/>
<path fill="#6B74D2" opacity="1.000000" stroke="none" 
	d="
M24.962208,37.737526 
	C24.589003,37.610329 24.216120,37.162006 23.805340,36.415489 
	C24.165802,36.550327 24.564165,36.983364 24.962208,37.737526 
z"/>
<path fill="#6B74D2" opacity="1.000000" stroke="none" 
	d="
M18.921402,38.216164 
	C19.017273,38.667950 18.815729,39.237423 18.332657,39.944996 
	C18.242081,39.500011 18.433035,38.916931 18.921402,38.216164 
z"/>
<path fill="#6C78D3" opacity="1.000000" stroke="none" 
	d="
M129.362549,69.969627 
	C129.827179,69.782524 130.005676,69.969017 130.066315,70.501984 
	C129.895401,70.868240 129.699326,71.025246 129.503265,71.182251 
	C129.408661,70.856827 129.314041,70.531403 129.362549,69.969627 
z"/>
<path fill="#707BD1" opacity="1.000000" stroke="none" 
	d="
M165.053223,119.751770 
	C164.982620,119.496498 165.184402,119.214890 165.659851,118.898682 
	C165.730865,119.151199 165.528229,119.438324 165.053223,119.751770 
z"/>
<path fill="#6D77CB" opacity="1.000000" stroke="none" 
	d="
M103.894180,45.362305 
	C104.228409,45.581104 104.568352,46.133068 104.878372,47.036034 
	C104.532265,46.823181 104.216080,46.259327 103.894180,45.362305 
z"/>
<path fill="none" opacity="1.000000" stroke="none" 
	d="
M103.530914,61.000130 
	C103.168564,61.721123 102.455940,62.450996 101.412346,63.154324 
	C101.781136,62.421520 102.480896,61.715263 103.530914,61.000130 
z"/>
<path fill="none" opacity="1.000000" stroke="none" 
	d="
M100.669754,63.044785 
	C99.866318,63.202156 98.647736,63.323872 97.175621,63.239235 
	C98.032921,63.024963 99.143768,63.017044 100.669754,63.044785 
z"/>
<path fill="none" opacity="1.000000" stroke="none" 
	d="
M94.835968,62.578178 
	C94.632050,62.833199 94.333603,62.753872 93.972061,62.305023 
	C94.186852,62.080742 94.464340,62.183521 94.835968,62.578178 
z"/>
<path fill="#6D75CB" opacity="1.000000" stroke="none" 
	d="
M182.398178,97.094383 
	C182.287598,96.869293 182.434097,96.560661 182.815369,96.133636 
	C182.918503,96.347107 182.786880,96.678978 182.398178,97.094383 
z"/>
</svg>