<?xml version="1.0" encoding="UTF-8"?>
<!DOCTYPE svg PUBLIC "-//W3C//DTD SVG 1.1//EN" "http://www.w3.org/Graphics/SVG/1.1/DTD/svg11.dtd">
<svg xmlns="http://www.w3.org/2000/svg" version="1.1" width="500px" height="500px" style="shape-rendering:geometricPrecision; text-rendering:geometricPrecision; image-rendering:optimizeQuality; fill-rule:evenodd; clip-rule:evenodd" xmlns:xlink="http://www.w3.org/1999/xlink">
<g><path style="opacity:1" fill="#eeeeee" d="M -0.5,-0.5 C 166.167,-0.5 332.833,-0.5 499.5,-0.5C 499.5,43.8333 499.5,88.1667 499.5,132.5C 486.506,172.677 461.506,203.177 424.5,224C 418.732,225.225 413.399,224.225 408.5,221C 402.469,216.308 397.969,210.475 395,203.5C 391.06,191.679 386.727,180.012 382,168.5C 377.07,157.291 368.57,152.125 356.5,153C 342.991,164.536 338.491,179.036 343,196.5C 349.261,224.555 364.094,246.721 387.5,263C 399.471,269.632 411.805,270.299 424.5,265C 452,252.167 472.167,232 485,204.5C 490.759,191.379 495.593,178.046 499.5,164.5C 499.5,276.167 499.5,387.833 499.5,499.5C 332.833,499.5 166.167,499.5 -0.5,499.5C -0.5,332.833 -0.5,166.167 -0.5,-0.5 Z"/></g>
<g><path style="opacity:1" fill="#877efe" d="M 130.5,186.5 C 129.833,186.167 129.167,185.833 128.5,185.5C 126.467,170.068 125.134,154.568 124.5,139C 121.511,102.536 132.845,71.5364 158.5,46C 173.357,33.9619 190.024,30.6286 208.5,36C 236.919,43.6093 259.419,59.4426 276,83.5C 285.422,97.0661 285.755,110.733 277,124.5C 275.2,126.317 273.034,127.484 270.5,128C 260.298,130.152 251.298,127.819 243.5,121C 231.734,108.229 219.067,96.5623 205.5,86C 201.055,83.4433 196.389,81.4433 191.5,80C 184.781,79.0167 178.781,80.6833 173.5,85C 162.602,94.9064 154.436,106.74 149,120.5C 140.646,141.922 134.479,163.922 130.5,186.5 Z"/></g>
<g><path style="opacity:1" fill="#877efe" d="M 347.5,51.5 C 375.897,50.29 393.063,63.6233 399,91.5C 400.078,112.848 391.578,129.015 373.5,140C 343.517,149.092 323.35,138.925 313,109.5C 308.408,80.3207 319.908,60.9874 347.5,51.5 Z"/></g>
<g><path style="opacity:1" fill="#877efe" d="M 499.5,132.5 C 499.5,143.167 499.5,153.833 499.5,164.5C 495.593,178.046 490.759,191.379 485,204.5C 472.167,232 452,252.167 424.5,265C 411.805,270.299 399.471,269.632 387.5,263C 364.094,246.721 349.261,224.555 343,196.5C 338.491,179.036 342.991,164.536 356.5,153C 368.57,152.125 377.07,157.291 382,168.5C 386.727,180.012 391.06,191.679 395,203.5C 397.969,210.475 402.469,216.308 408.5,221C 413.399,224.225 418.732,225.225 424.5,224C 461.506,203.177 486.506,172.677 499.5,132.5 Z"/></g>
<g><path style="opacity:1" fill="#fe9e32" d="M 303.5,130.5 C 319.078,130.414 327.745,138.08 329.5,153.5C 329.054,169.475 321.054,178.475 305.5,180.5C 304.395,186.973 304.395,193.473 305.5,200C 305.568,203.999 304.901,207.832 303.5,211.5C 318.344,211.518 324.511,218.851 322,233.5C 315.626,243.845 307.126,246.012 296.5,240C 291.178,234.79 289.178,228.623 290.5,221.5C 288.459,222.236 286.459,223.069 284.5,224C 290.009,228.51 290.676,233.51 286.5,239C 260.552,254.795 237.719,251.295 218,228.5C 215.294,223.225 216.461,219.059 221.5,216C 207.919,202.604 206.086,187.771 216,171.5C 224.706,160.708 235.873,156.875 249.5,160C 259.79,163.461 267.457,169.961 272.5,179.5C 281.522,176.206 290.022,177.206 298,182.5C 299.23,181.725 299.563,180.725 299,179.5C 286.815,172.144 282.481,161.477 286,147.5C 289.207,139.006 295.04,133.339 303.5,130.5 Z"/></g>
<g><path style="opacity:1" fill="#f3dabd" d="M 291.5,143.5 C 291.34,145.153 290.674,146.486 289.5,147.5C 289.229,145.62 289.896,144.287 291.5,143.5 Z"/></g>
<g><path style="opacity:1" fill="#f4dabe" d="M 321.5,169.5 C 328.168,157.303 326.501,146.47 316.5,137C 309.965,133.442 303.631,133.775 297.5,138C 295.63,140.04 293.63,141.873 291.5,143.5C 296.499,134.344 304.166,131.177 314.5,134C 324.749,140.345 328.582,149.512 326,161.5C 325.246,164.684 323.746,167.351 321.5,169.5 Z"/></g>
<g><path style="opacity:1" fill="#fe9d30" d="M 321.5,169.5 C 311.634,178.728 301.801,178.728 292,169.5C 288.466,162.491 287.632,155.158 289.5,147.5C 290.674,146.486 291.34,145.153 291.5,143.5C 293.63,141.873 295.63,140.04 297.5,138C 303.631,133.775 309.965,133.442 316.5,137C 326.501,146.47 328.168,157.303 321.5,169.5 Z"/></g>
<g><path style="opacity:1" fill="#f3e2d0" d="M 320.5,155.5 C 321.5,155.5 322.5,155.5 323.5,155.5C 323.167,157.5 322.833,159.5 322.5,161.5C 321.5,161.5 320.5,161.5 319.5,161.5C 319.833,159.5 320.167,157.5 320.5,155.5 Z"/></g>
<g><path style="opacity:1" fill="#f0eae3" d="M 312.5,154.5 C 314.167,154.5 315.833,154.5 317.5,154.5C 317.5,156.167 317.5,157.833 317.5,159.5C 315.5,159.5 313.5,159.5 311.5,159.5C 311.629,157.784 311.962,156.117 312.5,154.5 Z"/></g>
<g><path style="opacity:1" fill="#f0ebe6" d="M 304.5,152.5 C 308.446,152.488 310.113,154.488 309.5,158.5C 307.833,158.5 306.167,158.5 304.5,158.5C 304.5,156.5 304.5,154.5 304.5,152.5 Z"/></g>
<g><path style="opacity:1" fill="#f7cfa3" d="M 321.5,148.5 C 323.561,149.751 323.894,151.418 322.5,153.5C 321.548,151.955 321.215,150.288 321.5,148.5 Z"/></g>
<g><path style="opacity:1" fill="#f1e7dd" d="M 296.5,151.5 C 298.5,151.5 300.5,151.5 302.5,151.5C 302.167,153.5 301.833,155.5 301.5,157.5C 297.092,157.938 295.425,155.938 296.5,151.5 Z"/></g>
<g><path style="opacity:1" fill="#f2e6d9" d="M 291.5,150.5 C 292.675,150.281 293.675,150.614 294.5,151.5C 293.754,152.736 293.421,154.07 293.5,155.5C 292.5,155.5 291.5,155.5 290.5,155.5C 290.366,153.708 290.699,152.042 291.5,150.5 Z"/></g>
<g><path style="opacity:1" fill="#f8c997" d="M 294.5,143.5 C 295.451,144.919 295.784,146.585 295.5,148.5C 294.325,148.719 293.325,148.386 292.5,147.5C 293.63,146.378 294.297,145.044 294.5,143.5 Z"/></g>
<g><path style="opacity:1" fill="#f1e8de" d="M 313.5,146.5 C 315.604,146.201 317.604,146.534 319.5,147.5C 318.691,149.071 318.357,150.738 318.5,152.5C 314.092,152.938 312.425,150.938 313.5,146.5 Z"/></g>
<g><path style="opacity:1" fill="#f0eae4" d="M 305.5,145.5 C 307.604,145.201 309.604,145.534 311.5,146.5C 310.754,147.736 310.421,149.07 310.5,150.5C 308.833,150.5 307.167,150.5 305.5,150.5C 305.5,148.833 305.5,147.167 305.5,145.5 Z"/></g>
<g><path style="opacity:1" fill="#f2e3d4" d="M 297.5,143.5 C 299.5,143.5 301.5,143.5 303.5,143.5C 303.5,145.5 303.5,147.5 303.5,149.5C 301.5,149.5 299.5,149.5 297.5,149.5C 297.5,147.5 297.5,145.5 297.5,143.5 Z"/></g>
<g><path style="opacity:1" fill="#f3e1ce" d="M 314.5,139.5 C 316.886,140.373 318.886,141.873 320.5,144C 316.083,145.568 314.083,144.068 314.5,139.5 Z"/></g>
<g><path style="opacity:1" fill="#f0e9e0" d="M 302.5,137.5 C 304.176,138.183 304.843,139.517 304.5,141.5C 299.174,141.577 298.508,140.244 302.5,137.5 Z"/></g>
<g><path style="opacity:1" fill="#f1e9e1" d="M 307.5,137.5 C 309.167,137.5 310.833,137.5 312.5,137.5C 312.5,139.167 312.5,140.833 312.5,142.5C 310.5,142.5 308.5,142.5 306.5,142.5C 306.366,140.708 306.699,139.042 307.5,137.5 Z"/></g>
<g><path style="opacity:1" fill="#f2e6d9" d="M 295.5,159.5 C 297.167,159.5 298.833,159.5 300.5,159.5C 300.5,161.5 300.5,163.5 300.5,165.5C 298.5,165.167 296.5,164.833 294.5,164.5C 294.366,162.708 294.699,161.042 295.5,159.5 Z"/></g>
<g><path style="opacity:1" fill="#f2e5d7" d="M 303.5,160.5 C 305.167,160.5 306.833,160.5 308.5,160.5C 308.5,162.5 308.5,164.5 308.5,166.5C 306.5,166.5 304.5,166.5 302.5,166.5C 302.517,164.435 302.85,162.435 303.5,160.5 Z"/></g>
<g><path style="opacity:1" fill="#f0ebe5" d="M 234.5,161.5 C 236.5,161.5 238.5,161.5 240.5,161.5C 240.5,170.833 240.5,180.167 240.5,189.5C 238.167,189.5 235.833,189.5 233.5,189.5C 233.822,185.253 232.989,181.253 231,177.5C 229.03,174.032 226.864,170.699 224.5,167.5C 227.562,164.972 230.896,162.972 234.5,161.5 Z"/></g>
<g><path style="opacity:1" fill="#f2dec6" d="M 247.5,162.5 C 246.167,162.5 244.833,162.5 243.5,162.5C 243.5,171.5 243.5,180.5 243.5,189.5C 242.506,180.348 242.173,171.015 242.5,161.5C 244.415,161.216 246.081,161.549 247.5,162.5 Z"/></g>
<g><path style="opacity:1" fill="#efedeb" d="M 247.5,162.5 C 251.826,162.832 255.493,164.498 258.5,167.5C 252.728,173.709 249.728,181.043 249.5,189.5C 247.5,189.5 245.5,189.5 243.5,189.5C 243.5,180.5 243.5,171.5 243.5,162.5C 244.833,162.5 246.167,162.5 247.5,162.5 Z"/></g>
<g><path style="opacity:1" fill="#f2e6db" d="M 310.5,162.5 C 312.5,162.5 314.5,162.5 316.5,162.5C 317.42,167.922 315.42,169.588 310.5,167.5C 310.5,165.833 310.5,164.167 310.5,162.5 Z"/></g>
<g><path style="opacity:1" fill="#f3dec7" d="M 318.5,163.5 C 321.774,163.628 321.941,164.961 319,167.5C 318.51,166.207 318.343,164.873 318.5,163.5 Z"/></g>
<g><path style="opacity:1" fill="#f0ebe6" d="M 294.5,168.5 C 295.919,167.549 297.585,167.216 299.5,167.5C 299.688,169.103 299.188,170.437 298,171.5C 296.961,170.29 295.794,169.29 294.5,168.5 Z"/></g>
<g><path style="opacity:1" fill="#f2e5d9" d="M 301.5,168.5 C 306.922,167.58 308.588,169.58 306.5,174.5C 302.092,174.938 300.425,172.938 301.5,168.5 Z"/></g>
<g><path style="opacity:1" fill="#efece9" d="M 220.5,169.5 C 223.428,170.591 225.594,172.591 227,175.5C 229.736,179.779 231.236,184.446 231.5,189.5C 225.167,189.5 218.833,189.5 212.5,189.5C 212.941,181.95 215.608,175.283 220.5,169.5 Z"/></g>
<g><path style="opacity:1" fill="#efece8" d="M 260.5,169.5 C 264.581,172.251 267.581,175.918 269.5,180.5C 266.978,183.188 264.644,186.021 262.5,189C 258.848,189.499 255.182,189.665 251.5,189.5C 251.806,181.566 254.806,174.9 260.5,169.5 Z"/></g>
<g><path style="opacity:1" fill="#f4ddc4" d="M 289.5,147.5 C 287.632,155.158 288.466,162.491 292,169.5C 301.801,178.728 311.634,178.728 321.5,169.5C 314.709,179.124 306.042,180.958 295.5,175C 287.385,167.067 285.385,157.901 289.5,147.5 Z"/></g>
<g><path style="opacity:1" fill="#f2e4d4" d="M 309.5,169.5 C 317.271,170.42 317.271,171.753 309.5,173.5C 309.5,172.167 309.5,170.833 309.5,169.5 Z"/></g>
<g><path style="opacity:1" fill="#f0ebe6" d="M 278.5,179.5 C 281.167,179.5 283.833,179.5 286.5,179.5C 285.741,184.699 283.241,185.699 279,182.5C 278.517,181.552 278.351,180.552 278.5,179.5 Z"/></g>
<g><path style="opacity:1" fill="#f0ece8" d="M 274.5,180.5 C 276.188,183.719 278.855,186.052 282.5,187.5C 286.446,186.627 288.946,184.293 290,180.5C 292.657,181.573 294.823,183.24 296.5,185.5C 293.708,192.59 296.041,196.59 303.5,197.5C 303.969,201.91 302.969,205.91 300.5,209.5C 297.214,206.733 294.214,207.066 291.5,210.5C 291.039,213.955 290.039,217.122 288.5,220C 279.932,221.737 274.932,218.404 273.5,210C 270.421,207.466 267.088,206.966 263.5,208.5C 260.919,202.096 262.585,197.429 268.5,194.5C 269.748,191.494 269.748,188.494 268.5,185.5C 270.519,183.81 272.519,182.144 274.5,180.5 Z"/></g>
<g><path style="opacity:1" fill="#f1e4d5" d="M 301.5,180.5 C 302.239,180.369 302.906,180.536 303.5,181C 302.123,188.342 301.456,188.176 301.5,180.5 Z"/></g>
<g><path style="opacity:1" fill="#b4b1e4" d="M 128.5,185.5 C 129.167,185.833 129.833,186.167 130.5,186.5C 130.285,194.051 129.619,193.717 128.5,185.5 Z"/></g>
<g><path style="opacity:1" fill="#f1e6da" d="M 265.5,188.5 C 267.008,191.08 266.341,193.08 263.5,194.5C 263.167,194.333 262.833,194.167 262.5,194C 263.639,192.22 264.639,190.386 265.5,188.5 Z"/></g>
<g><path style="opacity:1" fill="#f0e8df" d="M 298.5,187.5 C 300.96,189.398 301.96,191.731 301.5,194.5C 298.971,192.937 297.971,190.604 298.5,187.5 Z"/></g>
<g><path style="opacity:1" fill="#efedeb" d="M 212.5,192.5 C 218.833,192.5 225.167,192.5 231.5,192.5C 230.807,200.554 227.473,207.22 221.5,212.5C 215.802,207.099 212.802,200.432 212.5,192.5 Z"/></g>
<g><path style="opacity:1" fill="#f0eae4" d="M 233.5,192.5 C 235.833,192.5 238.167,192.5 240.5,192.5C 240.5,198.167 240.5,203.833 240.5,209.5C 235.696,210.211 231.03,211.544 226.5,213.5C 226.167,213.167 225.833,212.833 225.5,212.5C 230.706,206.887 233.373,200.22 233.5,192.5 Z"/></g>
<g><path style="opacity:1" fill="#f0eae4" d="M 242.5,192.5 C 244.833,192.5 247.167,192.5 249.5,192.5C 249.35,197.875 250.683,202.875 253.5,207.5C 249.893,208.489 246.226,208.823 242.5,208.5C 242.5,203.167 242.5,197.833 242.5,192.5 Z"/></g>
<g><path style="opacity:1" fill="#f0ebe6" d="M 251.5,192.5 C 254.572,192.183 257.572,192.516 260.5,193.5C 259.138,198.588 259.472,203.588 261.5,208.5C 260.277,209.614 258.944,209.781 257.5,209C 254.22,203.995 252.22,198.495 251.5,192.5 Z"/></g>
<g><path style="opacity:1" fill="#fe9d30" d="M 281.5,192.5 C 288.741,193.464 291.074,197.464 288.5,204.5C 286.5,205.5 284.5,206.5 282.5,207.5C 276.736,205.541 274.902,201.541 277,195.5C 278.652,194.601 280.152,193.601 281.5,192.5 Z"/></g>
<g><path style="opacity:1" fill="#f1e9e2" d="M 281.5,195.5 C 286.547,195.376 288.38,197.709 287,202.5C 282.939,205.478 280.105,204.645 278.5,200C 278.557,197.791 279.557,196.291 281.5,195.5 Z"/></g>
<g><path style="opacity:1" fill="#f0ebe7" d="M 243.5,210.5 C 252.555,210.231 261.222,211.898 269.5,215.5C 269.833,216.167 270.167,216.833 270.5,217.5C 269.146,226.767 267.479,235.934 265.5,245C 255.029,247.56 245.196,246.06 236,240.5C 236.173,231.108 237.173,221.775 239,212.5C 240.622,211.901 242.122,211.234 243.5,210.5 Z"/></g>
<g><path style="opacity:1" fill="#f0e8de" d="M 295.5,210.5 C 297.103,210.312 298.437,210.812 299.5,212C 297.976,214.358 295.976,216.191 293.5,217.5C 291.911,214.412 292.578,212.078 295.5,210.5 Z"/></g>
<g><path style="opacity:1" fill="#f3e1cd" d="M 266.5,211.5 C 268.885,210.332 270.885,210.999 272.5,213.5C 272.333,213.833 272.167,214.167 272,214.5C 270.22,213.361 268.386,212.361 266.5,211.5 Z"/></g>
<g><path style="opacity:1" fill="#f0e9e2" d="M 235.5,212.5 C 236.139,213.097 236.472,213.93 236.5,215C 235.211,221.813 234.044,228.646 233,235.5C 232.395,237.481 231.395,237.815 230,236.5C 230.003,229.469 230.67,222.469 232,215.5C 232.985,214.186 234.152,213.186 235.5,212.5 Z"/></g>
<g><path style="opacity:1" fill="#877efe" d="M 161.5,213.5 C 168.734,213.225 175.734,214.391 182.5,217C 190.288,220.394 197.955,224.061 205.5,228C 236.588,250.421 263.755,276.921 287,307.5C 292.07,314.973 296.07,322.973 299,331.5C 299.525,340.065 297.525,348.065 293,355.5C 280.23,374.312 263.063,387.479 241.5,395C 220.697,402.116 199.697,408.449 178.5,414C 161.604,416.718 144.604,418.051 127.5,418C 127.167,417.667 126.833,417.333 126.5,417C 163.267,398.788 198.933,378.788 233.5,357C 238.083,353.088 241.917,348.588 245,343.5C 245.821,340.446 245.655,337.446 244.5,334.5C 237.709,327.873 230.209,322.206 222,317.5C 211.242,325.587 201.076,334.42 191.5,344C 182.167,351 172.833,358 163.5,365C 112.833,398.333 62.1667,431.667 11.5,465C 8.44627,467.208 5.11293,468.208 1.5,468C 25.4486,443.058 48.2819,417.224 70,390.5C 103.507,355.108 135.84,318.774 167,281.5C 167.667,280.833 167.667,280.167 167,279.5C 158.433,272.609 151.767,264.276 147,254.5C 143.366,244.319 143.699,234.319 148,224.5C 151.213,219.107 155.713,215.441 161.5,213.5 Z"/></g>
<g><path style="opacity:1" fill="#efece7" d="M 301.5,214.5 C 303.833,214.5 306.167,214.5 308.5,214.5C 307.167,223.666 310.5,230.499 318.5,235C 315.239,239.297 310.906,241.464 305.5,241.5C 307.149,231.967 303.816,224.8 295.5,220C 297.396,217.932 299.396,216.099 301.5,214.5 Z"/></g>
<g><path style="opacity:1" fill="#f0eae3" d="M 310.5,215.5 C 315.267,216.088 318.434,218.755 320,223.5C 320.497,226.146 320.664,228.813 320.5,231.5C 316.474,231.323 313.641,229.323 312,225.5C 310.801,222.274 310.301,218.941 310.5,215.5 Z"/></g>
<g><path style="opacity:1" fill="#f0e9e2" d="M 227.5,215.5 C 228.586,215.62 229.253,216.287 229.5,217.5C 228.685,222.872 227.685,228.205 226.5,233.5C 215.586,226.643 215.919,220.643 227.5,215.5 Z"/></g>
<g><path style="opacity:1" fill="#f0e9e1" d="M 272.5,218.5 C 275.05,218.884 276.383,220.384 276.5,223C 275.292,229.497 274.126,235.997 273,242.5C 271.989,243.337 270.822,243.67 269.5,243.5C 270.22,235.129 271.22,226.795 272.5,218.5 Z"/></g>
<g><path style="opacity:1" fill="#fe9d2f" d="M 241.5,222.5 C 242.5,222.5 243.5,222.5 244.5,222.5C 244.5,223.5 244.5,224.5 244.5,225.5C 246.143,225.52 247.476,224.853 248.5,223.5C 249.167,224.5 249.833,225.5 250.5,226.5C 253.082,222.2 254.416,222.533 254.5,227.5C 255.5,227.5 256.5,227.5 257.5,227.5C 257.281,226.325 257.614,225.325 258.5,224.5C 259.429,225.689 259.762,227.022 259.5,228.5C 260.5,228.5 261.5,228.5 262.5,228.5C 262.281,227.325 262.614,226.325 263.5,225.5C 264.563,227.435 265.897,229.101 267.5,230.5C 266.311,231.429 264.978,231.762 263.5,231.5C 263.719,232.675 263.386,233.675 262.5,234.5C 261.571,233.311 261.238,231.978 261.5,230.5C 260.5,230.5 259.5,230.5 258.5,230.5C 258.719,231.675 258.386,232.675 257.5,233.5C 256.571,232.311 256.238,230.978 256.5,229.5C 255.5,229.5 254.5,229.5 253.5,229.5C 252.833,233.5 252.167,233.5 251.5,229.5C 249.857,229.48 248.524,230.147 247.5,231.5C 246.614,230.675 246.281,229.675 246.5,228.5C 244.408,228.561 242.908,229.561 242,231.5C 241.51,230.207 241.343,228.873 241.5,227.5C 237.5,226.833 237.5,226.167 241.5,225.5C 241.5,224.5 241.5,223.5 241.5,222.5 Z"/></g>
<g><path style="opacity:1" fill="#f0eae4" d="M 293.5,223.5 C 297.562,223.724 300.395,225.724 302,229.5C 303.706,232.959 303.872,236.459 302.5,240C 299.328,240.151 297.161,238.651 296,235.5C 294.011,231.747 293.178,227.747 293.5,223.5 Z"/></g>
<g><path style="opacity:1" fill="#f0ebe6" d="M 278.5,222.5 C 282.328,224.985 284.994,228.318 286.5,232.5C 286.61,234.374 285.944,235.874 284.5,237C 282.182,238.993 279.516,240.159 276.5,240.5C 277.167,234.5 277.833,228.5 278.5,222.5 Z"/></g>
<g><path style="opacity:1" fill="#fe9a28" d="M 295.5,271.5 C 300.777,270.931 305.777,271.765 310.5,274C 312.202,276.235 313.202,278.735 313.5,281.5C 310.058,281.968 307.391,280.802 305.5,278C 302.97,276.578 300.303,276.245 297.5,277C 295.398,278.733 295.065,280.733 296.5,283C 301.15,284.331 305.817,285.665 310.5,287C 316.647,294.25 315.314,299.917 306.5,304C 297.683,306.756 291.683,303.922 288.5,295.5C 290.743,294.526 293.076,294.192 295.5,294.5C 295.792,298.004 297.792,299.671 301.5,299.5C 304.857,299.494 307.19,297.994 308.5,295C 308.241,293.739 307.574,292.739 306.5,292C 302.535,290.874 298.535,289.874 294.5,289C 292.714,288.215 291.214,287.049 290,285.5C 288.025,279.177 289.858,274.51 295.5,271.5 Z"/></g>
<g><path style="opacity:1" fill="#fe9b2a" d="M 356.5,271.5 C 371.273,270.773 378.107,277.773 377,292.5C 372.421,303.876 364.588,307.043 353.5,302C 345.196,293.925 344.363,285.092 351,275.5C 353.015,274.303 354.849,272.97 356.5,271.5 Z"/></g>
<g><path style="opacity:1" fill="#f8bc76" d="M 410.5,272.5 C 418.984,271.507 427.651,271.174 436.5,271.5C 436.795,273.735 436.461,275.735 435.5,277.5C 435.5,275.833 435.5,274.167 435.5,272.5C 427.167,272.5 418.833,272.5 410.5,272.5 Z"/></g>
<g><path style="opacity:1" fill="#fe9a27" d="M 448.5,271.5 C 464.946,271.349 471.113,279.349 467,295.5C 461.578,304.7 454.078,306.867 444.5,302C 438.788,296.331 436.955,289.497 439,281.5C 441.022,276.98 444.189,273.647 448.5,271.5 Z"/></g>
<g><path style="opacity:1" fill="#fe9a28" d="M 319.5,271.5 C 324.844,271.334 330.177,271.501 335.5,272C 342.526,273.878 345.026,278.378 343,285.5C 342.167,289 340,291.167 336.5,292C 332.848,292.499 329.182,292.665 325.5,292.5C 325.5,296.167 325.5,299.833 325.5,303.5C 323.5,303.5 321.5,303.5 319.5,303.5C 319.5,292.833 319.5,282.167 319.5,271.5 Z"/></g>
<g><path style="opacity:1" fill="#f8be7c" d="M 401.5,272.5 C 395.167,272.5 388.833,272.5 382.5,272.5C 382.5,282.833 382.5,293.167 382.5,303.5C 381.506,293.013 381.172,282.346 381.5,271.5C 388.354,271.176 395.021,271.509 401.5,272.5 Z"/></g>
<g><path style="opacity:1" fill="#fe9924" d="M 401.5,272.5 C 407.027,274.221 408.86,277.888 407,283.5C 406.167,285.667 404.667,287.167 402.5,288C 404,288.833 405.167,290 406,291.5C 406.238,295.222 406.738,298.889 407.5,302.5C 405.167,303.833 402.833,303.833 400.5,302.5C 399.899,298.841 399.233,295.174 398.5,291.5C 395.242,290.583 391.909,290.249 388.5,290.5C 388.5,294.833 388.5,299.167 388.5,303.5C 386.5,303.5 384.5,303.5 382.5,303.5C 382.5,293.167 382.5,282.833 382.5,272.5C 388.833,272.5 395.167,272.5 401.5,272.5 Z"/></g>
<g><path style="opacity:1" fill="#fe9820" d="M 410.5,272.5 C 418.833,272.5 427.167,272.5 435.5,272.5C 435.5,274.167 435.5,275.833 435.5,277.5C 432.5,277.5 429.5,277.5 426.5,277.5C 426.5,286.167 426.5,294.833 426.5,303.5C 424.5,303.5 422.5,303.5 420.5,303.5C 420.5,294.833 420.5,286.167 420.5,277.5C 417.167,277.5 413.833,277.5 410.5,277.5C 410.5,275.833 410.5,274.167 410.5,272.5 Z"/></g>
<g><path style="opacity:1" fill="#f8bc77" d="M 479.5,272.5 C 477.5,272.5 475.5,272.5 473.5,272.5C 473.5,282.833 473.5,293.167 473.5,303.5C 472.506,293.013 472.172,282.346 472.5,271.5C 475.059,271.198 477.393,271.532 479.5,272.5 Z"/></g>
<g><path style="opacity:1" fill="#fe9821" d="M 479.5,272.5 C 483.152,278.464 486.819,284.464 490.5,290.5C 490.783,291.289 491.283,291.956 492,292.5C 492.5,285.842 492.666,279.175 492.5,272.5C 494.5,272.5 496.5,272.5 498.5,272.5C 498.5,282.833 498.5,293.167 498.5,303.5C 496.076,303.808 493.743,303.474 491.5,302.5C 487.866,295.704 484.033,289.038 480,282.5C 479.5,289.492 479.334,296.492 479.5,303.5C 477.5,303.5 475.5,303.5 473.5,303.5C 473.5,293.167 473.5,282.833 473.5,272.5C 475.5,272.5 477.5,272.5 479.5,272.5 Z"/></g>
<g><path style="opacity:1" fill="#f5cb98" d="M 498.5,272.5 C 496.5,272.5 494.5,272.5 492.5,272.5C 492.666,279.175 492.5,285.842 492,292.5C 491.283,291.956 490.783,291.289 490.5,290.5C 491.49,284.355 491.823,278.022 491.5,271.5C 494.059,271.198 496.393,271.532 498.5,272.5 Z"/></g>
<g><path style="opacity:1" fill="#f0ebe6" d="M 325.5,277.5 C 328.518,277.335 331.518,277.502 334.5,278C 336.744,280.376 337.077,283.043 335.5,286C 332.183,286.498 328.85,286.665 325.5,286.5C 325.5,283.5 325.5,280.5 325.5,277.5 Z"/></g>
<g><path style="opacity:1" fill="#efedea" d="M 357.5,277.5 C 360.518,277.335 363.518,277.502 366.5,278C 370.305,282.091 371.472,286.924 370,292.5C 367.983,297.924 364.15,299.758 358.5,298C 356.185,296.891 354.685,295.057 354,292.5C 352.559,286.772 353.726,281.772 357.5,277.5 Z"/></g>
<g><path style="opacity:1" fill="#efeeec" d="M 388.5,277.5 C 392.182,277.335 395.848,277.501 399.5,278C 400.833,280.333 400.833,282.667 399.5,285C 395.848,285.499 392.182,285.665 388.5,285.5C 388.5,282.833 388.5,280.167 388.5,277.5 Z"/></g>
<g><path style="opacity:1" fill="#efedea" d="M 449.5,277.5 C 454.742,276.271 458.575,277.937 461,282.5C 461.667,286.167 461.667,289.833 461,293.5C 458.459,298.069 454.625,299.569 449.5,298C 447.185,296.891 445.685,295.057 445,292.5C 443.376,286.388 444.876,281.388 449.5,277.5 Z"/></g>
</svg>
