<svg version="1.1" id="Layer_1" xmlns="http://www.w3.org/2000/svg" xmlns:xlink="http://www.w3.org/1999/xlink" x="0px" y="0px"
	 width="100%" viewBox="0 0 432 288" enable-background="new 0 0 432 288" xml:space="preserve">
<path fill="#877EFF" opacity="1.000000" stroke="none" 
	d="
M234.731888,149.797333 
	C235.973907,133.431351 239.249252,118.113426 247.298782,104.036880 
	C262.161865,78.045128 283.782013,60.877457 312.697205,52.767403 
	C348.646881,42.684315 382.064362,76.768982 370.746429,113.234146 
	C358.114349,153.933243 330.783875,179.637711 288.691650,187.508041 
	C272.946381,190.452042 257.180817,192.445358 242.487854,199.173309 
	C239.632034,200.480988 236.894394,202.046814 234.199493,203.443176 
	C234.099228,206.189117 236.141098,207.159683 237.457474,208.483368 
	C256.489044,227.620453 275.575623,246.702866 294.647644,265.799774 
	C295.353973,266.507019 296.068634,267.207855 296.741333,267.946381 
	C300.597992,272.180664 300.830353,276.843781 297.376404,280.393494 
	C293.667725,284.204987 289.019501,284.174194 284.599426,280.014984 
	C280.112579,275.792969 275.812195,271.371918 271.454132,267.014069 
	C255.670227,251.230881 239.900406,235.433609 224.109604,219.657364 
	C223.067017,218.615738 221.893372,217.705322 219.679184,215.772217 
	C212.954178,222.872650 206.466995,229.968597 199.713181,236.800949 
	C186.126038,250.546021 172.400085,264.153961 158.710464,277.797455 
	C157.417480,279.086090 156.072174,280.362579 154.584747,281.407867 
	C150.701752,284.136597 146.295242,283.757935 143.257889,280.587524 
	C140.066071,277.255859 139.831711,272.511475 143.266098,268.890900 
	C150.143234,261.640869 157.277542,254.634430 164.320999,247.542633 
	C177.818710,233.952209 191.330978,220.376236 204.821426,206.778610 
	C205.617325,205.976425 206.672089,205.315033 206.836426,203.532166 
	C198.463501,198.322754 189.032654,195.287033 179.533447,192.314087 
	C167.995728,188.703156 155.672318,189.530731 144.193512,186.187027 
	C107.323357,175.446945 82.631744,151.829926 70.591759,115.168869 
	C65.058350,98.319977 67.927170,82.902817 78.451721,68.952126 
	C90.446609,53.052448 110.107841,47.055820 130.880814,53.674400 
	C169.516830,65.984406 194.122452,92.077621 203.686264,131.503586 
	C206.209442,141.905167 206.083649,152.926407 209.203476,163.363907 
	C211.961029,172.589355 215.279190,181.525009 220.314651,190.908844 
	C227.663940,177.483902 232.135956,164.206192 234.731888,149.797333 
M347.641846,140.153137 
	C348.771606,138.504990 350.021667,136.925781 351.011749,135.197601 
	C357.914795,123.148346 364.308746,110.930931 363.647095,96.401550 
	C362.592651,73.247398 339.117310,55.401588 317.057617,61.173668 
	C287.790039,68.831726 266.385803,86.388214 253.062637,113.443550 
	C247.062302,125.628418 242.642105,138.213333 247.197922,152.349640 
	C253.136948,170.777939 274.852875,182.797668 293.483246,177.565201 
	C315.594391,171.355194 333.527100,159.165329 347.641846,140.153137 
M115.716972,162.774033 
	C123.291306,168.355042 131.760513,172.244446 140.465454,175.617050 
	C150.972107,179.687698 161.427017,179.822281 172.042191,175.453659 
	C187.948837,168.907349 198.815781,150.819550 194.849884,134.232590 
	C185.823349,96.480034 161.984634,72.286545 124.854294,61.493019 
	C110.881828,57.431316 98.255775,61.549381 88.292877,71.838234 
	C78.101883,82.362633 74.446358,95.288101 78.547531,109.619125 
	C84.745758,131.278000 96.817673,149.021866 115.716972,162.774033 
M200.273743,161.210358 
	C194.752563,171.425308 186.811996,179.208694 175.098648,184.970139 
	C186.414307,187.844498 195.910187,191.732956 205.522476,195.309402 
	C209.383057,196.745819 213.097565,191.798569 211.532578,187.674454 
	C208.405457,179.433762 204.887238,171.337479 202.711868,162.760376 
	C202.461929,161.774918 202.125214,160.814850 200.273743,161.210358 
M229.319107,192.264053 
	C231.351425,195.978256 234.192276,196.087341 237.770569,194.511627 
	C242.171082,192.573837 246.887436,191.309113 251.170547,189.161652 
	C255.231857,187.125397 260.237823,187.589661 264.551483,184.028793 
	C253.116333,178.765900 245.481689,170.340546 239.291718,158.709991 
	C236.393677,170.032455 232.879135,179.484650 228.807907,188.736420 
	C228.465897,189.513611 228.930298,190.645660 229.319107,192.264053 
z"/>
<path fill="#877EFF" opacity="1.000000" stroke="none" 
	d="
M210.653046,40.352577 
	C216.839859,38.006634 222.752411,38.210030 228.673080,39.667637 
	C231.434174,40.347385 232.497482,41.800022 231.176025,44.789513 
	C225.637344,57.319603 225.876480,69.983086 230.988052,82.554497 
	C232.201508,85.538879 231.298950,86.805618 228.588013,87.761459 
	C222.843933,89.786766 217.191940,89.578751 211.515945,87.510483 
	C209.369019,86.728157 208.661697,85.530670 209.573669,83.325218 
	C214.986237,70.235786 214.914917,57.128273 209.587753,44.025364 
	C209.056305,42.718136 208.788437,41.443165 210.653046,40.352577 
z"/>
<path fill="#877EFF" opacity="1.000000" stroke="none" 
	d="
M235.208832,83.426849 
	C232.837784,81.744133 232.403854,79.300125 231.956665,77.116669 
	C229.900818,67.078613 229.602600,57.038097 233.071060,47.192005 
	C233.889465,44.868752 234.966949,42.429855 237.889618,45.270111 
	C247.989471,55.085228 249.233627,71.788033 237.354935,82.936836 
	C236.926468,83.338982 236.147202,83.367378 235.208832,83.426849 
z"/>
<path fill="#877EFF" opacity="1.000000" stroke="none" 
	d="
M196.766663,55.112480 
	C198.597733,50.351856 200.905762,46.429611 205.085266,43.940956 
	C212.323730,51.806942 212.394241,74.911209 205.382965,83.437004 
	C197.087708,79.273605 193.324127,67.196945 196.766663,55.112480 
z"/>
<path fill="#877EFF" opacity="1.000000" stroke="none" 
	d="
M279.429504,170.379272 
	C286.947327,162.750336 287.976257,164.916885 279.768768,156.719452 
	C274.893738,151.850433 274.876465,151.867737 270.126770,156.599640 
	C263.477966,163.223557 263.484100,163.217773 270.040497,170.163879 
	C270.692688,170.854828 271.212250,171.670975 271.890076,172.555206 
	C265.608490,173.427475 251.986420,160.402939 250.761505,152.381470 
	C254.161621,153.276855 255.804596,156.074066 257.860992,158.207047 
	C259.804840,160.223267 261.220703,160.218719 263.244629,158.277710 
	C266.119751,155.520447 269.302155,153.083633 272.424316,150.449921 
	C269.137268,145.488403 265.654236,142.668076 262.522583,139.547470 
	C260.579346,137.611084 259.323212,139.340775 257.916107,140.516464 
	C255.183884,142.799347 253.356415,146.197571 249.732483,147.514786 
	C247.891678,145.131989 249.433472,143.596405 250.687393,142.116241 
	C251.976318,140.594742 253.367722,139.144180 254.834000,137.792419 
	C257.213440,135.598816 256.933411,133.786453 254.741104,131.490005 
	C253.108337,129.779678 250.013077,128.530212 251.238831,124.897446 
	C254.833099,124.523605 256.010620,127.661949 257.826416,129.451126 
	C259.889557,131.484055 261.308685,131.504868 263.155975,129.441406 
	C265.794312,126.494370 269.074310,124.119911 271.432617,120.312904 
	C267.348694,116.205032 264.021332,111.453964 257.775879,108.449120 
	C268.043488,94.626068 279.615509,82.611046 294.170837,72.514503 
	C294.881378,75.704697 292.673798,76.282677 292.754944,78.319252 
	C295.009552,81.598320 298.436371,84.256966 301.509094,87.253227 
	C302.895813,88.605408 304.054138,88.364670 305.384674,87.162010 
	C308.578827,84.274857 311.839569,81.461380 314.799438,78.859039 
	C312.523895,73.711945 307.578125,72.161171 306.476410,67.004204 
	C312.211548,66.770607 313.498474,72.560844 317.678833,74.147667 
	C321.114532,72.285904 323.384949,68.901688 326.282959,66.234528 
	C330.184875,62.643440 333.749451,62.613182 337.651733,66.275291 
	C338.379730,66.958473 339.053802,67.699074 339.753723,68.412216 
	C342.736664,71.451485 344.923798,76.141960 351.461853,72.843269 
	C347.509613,79.045654 352.247772,81.166161 355.015411,84.101608 
	C356.042786,85.191277 357.255646,86.118973 358.200775,87.270821 
	C361.142334,90.855843 360.918640,94.590828 357.634491,97.911331 
	C356.229401,99.331955 354.797607,100.729881 353.317505,102.071495 
	C351.972565,103.290619 350.545776,104.419441 349.111267,105.624840 
	C350.730469,109.144676 353.559998,110.794952 355.555450,113.141640 
	C356.527344,114.284622 357.958344,115.484299 356.336670,116.911491 
	C354.931000,118.148636 353.805450,116.671799 353.029144,115.738670 
	C351.114014,113.436676 349.395874,110.970840 346.662476,107.320938 
	C342.381866,112.190796 339.499146,115.598091 336.467285,118.867134 
	C334.886993,120.571037 335.534485,121.809380 336.856323,123.125389 
	C339.216522,125.475136 341.743042,127.687233 343.873779,130.230240 
	C346.263702,133.082565 347.886078,129.514008 351.414856,129.705322 
	C341.314911,144.100388 329.797607,155.529877 316.467560,165.519028 
	C311.759583,160.845886 307.683594,156.800049 303.449005,152.596802 
	C299.790161,156.317505 296.229736,159.938156 292.688354,163.539444 
	C293.966583,167.270477 298.857178,168.254654 299.349915,172.505981 
	C296.539276,174.275131 294.988495,172.204483 293.797180,170.648529 
	C290.546631,166.403091 287.871826,167.106110 284.613129,170.732330 
	C282.707977,172.852371 280.928131,176.122482 277.024933,174.927444 
	C276.311920,172.517899 278.153870,171.790817 279.429504,170.379272 
M298.180298,141.320084 
	C298.645050,141.792725 299.076477,142.304810 299.580750,142.730682 
	C301.110565,144.022720 302.450928,146.889603 304.824554,144.757416 
	C308.292206,141.642502 312.725616,139.220367 313.975586,134.190018 
	C314.077362,133.780350 313.314850,133.100586 312.872253,132.621841 
	C311.747467,131.405167 310.601624,130.205551 309.419464,129.044693 
	C303.469757,123.202171 303.428131,123.171806 297.597595,129.178696 
	C291.147980,135.823395 291.087341,133.940628 298.180298,141.320084 
M323.151764,103.648521 
	C321.738342,104.986221 320.491150,106.410912 322.353821,108.252068 
	C325.496368,111.358307 328.287445,114.860657 332.356323,117.652046 
	C335.800842,113.441620 340.570648,110.822662 343.166931,105.998047 
	C342.250153,104.995209 341.595001,104.257973 340.918121,103.541252 
	C332.310822,94.427414 332.310028,94.428162 323.151764,103.648521 
M336.739441,93.945129 
	C337.308319,94.548866 337.862396,95.167389 338.448303,95.754112 
	C346.763855,104.081161 346.676697,103.997742 354.835052,95.262764 
	C357.359711,92.559662 357.200714,90.857574 354.551239,88.364098 
	C344.919403,79.299385 348.072998,78.966591 338.179443,88.612480 
	C336.928833,89.831802 334.470856,90.906723 336.739441,93.945129 
M324.735016,115.713943 
	C322.354065,113.744003 320.680084,110.897964 316.282959,109.146805 
	C314.521637,111.338287 312.849640,114.169029 310.484894,116.188583 
	C306.747803,119.380127 306.995758,121.734604 310.484955,124.987053 
	C319.273407,133.179199 316.228149,133.292114 325.139374,125.132591 
	C328.675446,121.894798 328.912262,119.223236 324.735016,115.713943 
M275.306946,116.693687 
	C286.758972,108.387077 287.133240,105.496132 277.778748,97.605804 
	C277.525116,97.391884 277.269043,97.179825 277.027954,96.952255 
	C275.002930,95.040596 273.152161,95.947556 272.027924,97.773453 
	C269.861298,101.292358 263.797760,102.226639 265.165283,108.057564 
	C265.199280,108.202469 265.352661,108.331558 265.474060,108.441986 
	C268.515015,111.208328 270.740967,114.876915 275.306946,116.693687 
M321.020599,83.549515 
	C319.546326,82.202873 317.941925,80.361481 316.031555,82.569176 
	C313.098022,85.959236 308.417633,87.952026 307.523895,92.985451 
	C307.480042,93.232437 307.777924,93.597000 308.000122,93.825745 
	C311.167542,97.086441 314.009399,100.713997 318.668091,103.764984 
	C319.571625,102.468689 320.190552,101.234245 321.116638,100.306290 
	C329.263458,92.143059 329.279633,92.159210 321.020599,83.549515 
M327.829376,150.556046 
	C328.290588,149.832458 328.721497,148.990433 328.110687,148.260971 
	C325.142731,144.716415 322.356415,140.204681 318.108704,138.993256 
	C314.993805,138.104889 312.988678,143.001724 310.415100,145.225586 
	C309.080139,146.379150 307.483643,147.444290 306.958466,149.306519 
	C315.048401,161.538925 316.819244,161.759308 326.732452,151.804001 
	C326.966156,151.569305 327.185638,151.320450 327.829376,150.556046 
M289.487885,110.010376 
	C285.415802,112.139496 282.857391,115.946487 279.593384,118.969788 
	C278.490601,119.991241 278.156860,121.304642 279.396820,122.461647 
	C282.643982,125.491608 285.284302,129.207870 290.606628,132.310699 
	C291.966949,130.475418 293.262451,128.289948 294.972473,126.500610 
	C300.627319,120.583374 300.701385,120.621941 295.144257,114.957367 
	C293.518097,113.299767 291.767975,111.763794 289.487885,110.010376 
M340.890991,80.599792 
	C343.026337,78.821960 343.577881,77.240196 341.132507,74.997795 
	C330.485229,65.234299 333.914032,64.851494 323.535187,74.861382 
	C323.416016,74.976311 323.301697,75.099365 323.169006,75.196762 
	C320.802856,76.933907 321.303406,78.521942 323.077850,80.510857 
	C331.457977,89.903908 331.416290,89.941086 340.890991,80.599792 
M287.469055,159.081818 
	C288.528900,159.886322 289.554291,159.810593 290.682953,159.130356 
	C300.439240,153.250397 300.978699,149.192474 292.992981,141.472427 
	C292.277344,140.780609 291.556763,140.093704 290.829132,139.414536 
	C290.197662,138.825134 289.300323,138.218811 288.616882,138.738297 
	C284.914490,141.552460 281.087341,144.566238 278.988190,148.609253 
	C277.596710,151.289291 281.691223,152.612900 283.174255,154.648376 
	C284.238068,156.108490 285.675079,157.296707 287.469055,159.081818 
M302.879700,116.893364 
	C308.040588,114.880363 310.769012,110.282799 315.665863,105.502655 
	C312.108307,102.506325 308.927856,99.854393 305.780792,97.163414 
	C304.567383,96.125870 303.583008,95.519371 301.861603,96.604622 
	C291.910675,102.878204 291.492157,106.012444 299.771729,114.230339 
	C300.597382,115.049835 301.473145,115.818840 302.879700,116.893364 
M324.036072,138.515869 
	C325.922333,140.394684 327.858459,142.226547 329.681976,144.164368 
	C331.874146,146.493942 333.816284,145.322418 335.022797,143.408615 
	C337.212036,139.936050 344.194702,138.719315 341.526886,133.259781 
	C339.700775,129.522720 336.003113,126.337524 331.072693,123.280182 
	C328.482086,126.267464 326.011597,129.404083 323.228851,132.233612 
	C321.021637,134.477875 321.326904,136.213577 324.036072,138.515869 
M264.625885,133.939621 
	C265.778778,139.465179 270.696136,141.801529 274.303619,145.218140 
	C275.115692,145.987259 276.118805,145.002884 276.936432,144.425125 
	C286.736481,137.499832 286.950073,134.683411 278.258850,126.683907 
	C278.014343,126.458855 277.759827,126.242416 277.534119,125.999542 
	C275.827057,124.162926 274.210449,124.212776 272.454132,126.028954 
	C270.029236,128.536499 267.487976,130.931473 264.625885,133.939621 
M292.585541,83.984711 
	C290.316833,81.106186 288.216461,81.211800 285.704468,83.920723 
	C276.484436,93.863556 276.384033,90.318626 285.356659,99.874771 
	C288.396271,103.112030 290.178040,102.475845 292.921234,99.741173 
	C300.599304,92.086884 300.691864,92.179741 292.585541,83.984711 
z"/>
<path fill="#877EFF" opacity="1.000000" stroke="none" 
	d="
M124.619095,73.290466 
	C126.410034,71.562683 127.958649,70.051529 129.487991,68.521118 
	C130.854156,67.154015 132.233353,65.960014 134.397446,67.884193 
	C133.420105,72.366440 128.354904,73.771660 126.367973,78.339951 
	C130.547760,81.180550 132.341522,88.834579 138.562286,87.421150 
	C144.641464,86.039886 147.929398,78.103882 146.674805,73.406372 
	C160.950439,82.535339 172.430038,94.543068 182.890686,108.492416 
	C179.982285,109.704964 178.214493,111.140594 176.625107,112.821320 
	C167.307358,122.674561 167.509995,119.065231 176.621292,128.856903 
	C179.114090,131.535812 180.920868,131.804764 183.501511,128.992523 
	C185.060730,127.293373 186.327606,124.761360 189.483139,124.782944 
	C191.235458,128.275864 188.160187,129.731674 186.452255,131.216019 
	C183.222137,134.023315 183.497910,135.947205 186.514343,138.798401 
	C188.791916,140.951218 192.531052,142.622437 191.853912,147.217102 
	C187.657242,147.162720 186.213638,143.661530 184.106216,141.460785 
	C181.356598,138.589401 179.452896,138.099411 176.458771,141.221329 
	C166.702835,151.393677 168.074280,147.744522 176.448502,157.442184 
	C178.772049,160.132950 180.887650,160.434174 183.490158,157.655609 
	C185.248825,155.777969 186.711380,153.429489 189.367889,152.342468 
	C189.988144,158.911423 177.565903,171.792648 169.261292,173.131500 
	C169.701889,169.720215 172.711258,168.374435 174.511230,166.283127 
	C176.376389,164.116119 176.829498,162.657410 174.613510,160.431442 
	C171.927063,157.732880 169.635986,154.640747 167.214798,151.767548 
	C162.095474,154.841263 159.468369,158.552155 156.299713,161.652847 
	C154.463791,163.449402 155.723755,164.860291 157.027252,166.339355 
	C159.292953,168.910187 162.360031,170.812607 163.999985,174.262741 
	C161.972855,175.861649 160.488022,175.090332 159.098709,173.752029 
	C157.659256,172.365433 156.160431,171.020401 154.873749,169.499664 
	C152.588272,166.798370 150.607315,167.059128 148.262390,169.529190 
	C146.501648,171.383911 144.950821,174.274734 141.217407,172.842682 
	C141.590439,169.498489 144.304367,168.292923 146.005615,166.434875 
	C147.998047,164.258835 148.033112,162.616272 145.898392,160.504425 
	C143.194214,157.829208 140.782837,154.858002 137.784164,151.497803 
	C133.361053,156.814835 127.707825,159.439651 125.323853,166.269089 
	C111.158798,156.063843 99.151093,144.401047 89.291328,129.890793 
	C92.479118,128.723267 93.843224,132.739731 96.152214,130.269150 
	C99.092804,127.122765 102.706184,124.581505 104.852921,120.746056 
	C105.086647,120.328468 104.433167,119.201401 103.935905,118.622849 
	C101.137215,115.366608 98.260384,112.177528 95.615570,109.196983 
	C90.716377,111.840706 88.821648,116.019859 84.843437,117.836487 
	C82.300743,115.121490 84.378426,113.561623 85.952385,111.940262 
	C91.556717,106.167160 91.562927,106.173187 85.429993,100.071365 
	C79.601456,94.272385 78.950951,91.006645 82.857887,86.599953 
	C84.292122,84.982262 85.844200,83.457497 87.444031,82.001900 
	C88.675987,80.881004 90.066696,79.934586 90.484917,79.610184 
	C91.166992,76.546593 86.128273,71.129860 93.633705,74.141792 
	C95.598740,74.930374 96.619690,72.973808 97.673630,71.829285 
	C108.736862,59.815228 110.248940,61.596985 119.883247,72.001335 
	C121.028954,73.238609 122.118736,75.286659 124.619095,73.290466 
M149.711639,101.715553 
	C151.658951,103.476891 153.088867,102.081963 154.417908,100.837669 
	C156.474457,98.912254 158.353317,96.794861 160.436569,94.900795 
	C162.316727,93.191360 163.419983,91.246117 160.787476,89.710258 
	C157.013870,87.508675 155.965027,80.055450 149.931091,82.823647 
	C146.078522,84.591103 142.943665,88.223351 139.929245,93.087219 
	C143.011551,95.798607 146.109192,98.523476 149.711639,101.715553 
M121.080017,130.209961 
	C122.123123,131.256790 123.266769,131.831268 124.512016,130.590576 
	C127.324165,127.788666 130.181656,125.023247 132.843414,122.082512 
	C134.657318,120.078484 132.874512,118.513802 131.467850,117.590637 
	C128.071991,115.362030 127.086739,109.937363 121.817520,110.298401 
	C121.422745,110.325447 121.068703,110.911263 120.691277,111.232086 
	C110.698608,119.726181 110.689247,119.935455 119.896912,129.037659 
	C120.132301,129.270355 120.360275,129.510544 121.080017,130.209961 
M96.236046,82.422073 
	C95.056648,81.494453 93.836578,81.250999 92.661491,82.372833 
	C89.460960,85.428337 85.967491,88.220238 82.567642,93.435402 
	C85.675797,96.004509 88.885971,98.601906 92.028000,101.279289 
	C93.540970,102.568520 94.753815,102.495651 96.409706,101.319160 
	C106.327347,94.272827 106.546654,92.130951 97.893211,83.827621 
	C97.534760,83.483681 97.144516,83.172852 96.236046,82.422073 
M140.766739,126.728508 
	C139.445602,125.615059 138.179489,123.270508 136.281357,124.834557 
	C132.982544,127.552727 128.685089,130.300308 127.427879,133.940872 
	C125.852867,138.501678 131.994644,140.216599 134.330200,143.519547 
	C135.351120,144.963318 136.992798,146.510193 138.886642,144.702759 
	C142.185516,141.554413 145.873413,138.716263 148.398712,134.210480 
	C145.955734,131.824982 143.606415,129.530930 140.766739,126.728508 
M160.617325,112.846458 
	C162.445389,114.170372 163.489304,116.527214 167.357529,117.325684 
	C169.620514,114.723015 172.240204,111.514061 175.079559,108.512962 
	C176.993225,106.490295 176.459824,104.775009 174.574905,103.539452 
	C171.093750,101.257576 170.100906,95.516983 164.480469,96.259987 
	C164.343109,96.278152 164.227570,96.465569 164.102936,96.575287 
	C160.760849,99.517921 157.418930,102.460724 152.759766,106.563370 
	C155.986359,109.096855 158.060394,110.725357 160.617325,112.846458 
M147.982468,106.477013 
	C145.139465,101.985550 141.291718,98.538528 136.138580,94.462395 
	C133.275620,97.807251 130.764786,100.909332 128.061340,103.833321 
	C126.538597,105.480270 126.420525,106.687752 127.894722,108.519966 
	C136.176971,118.813652 136.589569,118.884491 145.556885,109.706062 
	C146.364319,108.879608 147.061737,107.945694 147.982468,106.477013 
M148.909363,140.506027 
	C145.788162,142.982010 142.666962,145.457977 139.545761,147.933960 
	C139.554733,148.888214 139.563705,149.842468 139.572678,150.796707 
	C142.338287,152.912659 145.110550,155.019974 147.866928,157.147858 
	C149.480026,158.393127 150.968033,161.077118 153.258011,158.826584 
	C156.486771,155.653412 160.818665,153.358170 162.195419,148.581696 
	C162.282898,148.278198 161.735855,147.723511 161.393036,147.375229 
	C158.822968,144.764191 156.208099,142.196991 153.652023,139.572464 
	C151.991684,137.867645 150.704361,138.774887 148.909363,140.506027 
M119.142365,134.034683 
	C116.484528,131.318436 113.843163,128.585754 111.160759,125.893990 
	C110.086029,124.815498 108.834747,123.664429 107.329636,125.069893 
	C104.553459,127.662277 101.835457,130.325836 99.227577,133.086639 
	C97.314095,135.112320 98.549591,136.945343 100.304329,138.065201 
	C103.676224,140.217117 105.244102,146.732101 110.043877,144.505508 
	C113.861374,142.734573 117.514999,139.140549 119.142365,134.034683 
M112.315804,98.315918 
	C111.178429,97.383453 110.233650,96.159599 108.193344,95.790123 
	C107.074562,96.801170 105.658562,97.917732 104.433342,99.214539 
	C96.601135,107.504288 96.129128,104.969490 104.571167,113.847366 
	C107.505737,116.933434 109.506203,117.210236 112.586777,113.972694 
	C121.292412,104.823418 121.441078,107.821098 112.315804,98.315918 
M115.655983,82.227180 
	C116.905434,80.733131 118.784470,79.731392 119.323692,77.512154 
	C117.776016,74.561264 114.772743,72.832504 112.772690,70.251793 
	C110.003044,66.678055 107.439209,67.044334 104.681145,70.143875 
	C103.802597,71.131195 102.811363,72.018265 101.871613,72.951134 
	C97.014343,77.772873 97.014336,77.772865 102.105789,82.716248 
	C108.725998,89.143921 108.725998,89.143921 115.655983,82.227180 
M166.940720,124.806908 
	C163.559631,125.479019 155.779236,132.256287 155.542709,134.735367 
	C155.407532,136.152374 163.025833,144.593201 165.052795,145.160065 
	C165.630829,145.321686 166.532654,145.392258 166.901703,145.067657 
	C170.250687,142.122055 174.432678,139.463562 175.933685,135.389633 
	C177.087265,132.258652 172.589783,130.640793 170.694275,128.287643 
	C169.767624,127.137299 168.583359,126.194481 166.940720,124.806908 
M119.539612,141.099670 
	C117.665871,142.987534 115.774086,144.857986 113.926826,146.771408 
	C113.128738,147.598053 111.974739,148.590393 112.743797,149.770645 
	C115.213745,153.561172 118.528656,156.599731 122.153122,159.254990 
	C123.270851,160.073837 124.308838,159.016327 125.244019,158.313431 
	C134.990112,150.988113 135.082169,149.981003 126.751060,141.409882 
	C126.519417,141.171555 126.278847,140.937057 126.079803,140.672653 
	C124.086105,138.024246 122.069832,138.106903 119.539612,141.099670 
M154.143234,129.419449 
	C157.221207,126.906670 160.299164,124.393890 163.456085,121.816643 
	C159.214508,116.359482 155.568298,112.887962 150.945404,108.975677 
	C147.757080,112.430153 144.855530,115.604980 141.915100,118.743408 
	C140.851898,119.878189 140.496384,121.080711 141.650589,122.248016 
	C144.450943,125.080193 147.291138,127.876892 150.207748,130.588409 
	C151.534668,131.822006 152.644073,130.773438 154.143234,129.419449 
M127.040215,99.513031 
	C134.492096,91.856323 134.492081,91.856339 126.765511,84.258553 
	C126.647415,84.142426 126.516151,84.035919 126.416336,83.905540 
	C124.105225,80.886818 122.075562,81.368164 119.595062,83.976891 
	C110.179672,93.878998 110.557823,90.591530 119.310059,99.979103 
	C121.928001,102.787094 124.125061,103.165344 127.040215,99.513031 
z"/>
</svg>