<!--?xml version="1.0" encoding="utf-8"?-->
<!-- Svg Vector Icons : http://www.onlinewebfonts.com/icon -->

<svg version="1.1" xmlns="http://www.w3.org/2000/svg" xmlns:xlink="http://www.w3.org/1999/xlink" x="0px" y="0px" viewBox="0 0 256 256" enable-background="new 0 0 256 256" xml:space="preserve">
<metadata> Svg Vector Icons : http://www.onlinewebfonts.com/icon </metadata>
<g><g><g><path fill="#877EFF" data-title="Layer 0" xs="0" d="M104.1,10.6c-1.4,0.7-2.5,2.5-7.5,11l-5.9,10.2H78.7H66.5l-1.4,1.4l-1.4,1.4v12c0,10.7-0.1,12-0.8,12.6c-0.5,0.4-5,3.1-10.2,6c-9.5,5.5-11.1,6.8-11.1,9.3c0,0.6,2.6,5.7,5.9,11.3c3.2,5.6,5.9,10.3,5.9,10.4c0,0.1-2.6,4.6-5.7,10c-4.7,8.2-5.7,10.1-5.7,11.8c0,1.5,0.2,2.3,1,3c0.6,0.6,5.4,3.6,10.8,6.7l9.7,5.6l0.2,12.3L64,158l1.3,1.3l1.3,1.3l12.2,0.1l12.1,0.1l5.4,9.5c3,5.2,6,10,6.8,10.7c2.3,2.3,3.3,1.9,14.6-4.5l10.2-5.9l10.2,5.9c11.2,6.5,12.2,6.8,14.6,4.5c0.8-0.7,3.8-5.5,6.8-10.6l5.4-9.4l12.2-0.2l12.2-0.2l1.3-1.3l1.3-1.3l0.2-12.3l0.2-12.3l9.7-5.6c5.3-3.1,10.2-6.1,10.8-6.7c0.8-0.8,1.1-1.6,1-3c0-1.6-1-3.6-5.8-11.8c-3.1-5.4-5.6-10.1-5.5-10.5c0.1-0.3,2.7-4.9,5.7-10c3-5.2,5.6-10.1,5.7-10.9c0.4-2.8-0.8-3.9-11.2-9.8c-5.3-3-9.8-5.8-10.2-6.2c-0.4-0.4-0.5-4.1-0.4-12.1c0-7.7-0.1-11.8-0.5-12.4c-1.3-2.3-1.8-2.4-14.6-2.4h-12l-5.8-10.1c-3.2-5.6-6.3-10.5-6.9-10.9c-2.3-1.5-3.7-1-14.2,5c-5.4,3.1-10.1,5.7-10.3,5.7s-4.8-2.5-10.2-5.6c-5.3-3-10.3-5.7-10.9-5.9C106.3,9.9,105.1,10.1,104.1,10.6z M116.4,26.6c3.9,2.3,7.8,4.5,8.7,5c2.9,1.5,4,1.1,13.3-4.2c4.8-2.8,8.9-5.1,9.2-5.2c0.3-0.1,2.9,3.9,5.8,9c3.8,6.8,5.6,9.3,6.6,9.8c1,0.6,3.5,0.7,11.9,0.7h10.6v10.6c0,8.4,0.1,10.9,0.7,12c0.5,1,3.1,2.7,9.8,6.6c5,2.9,9.1,5.4,9.1,5.6c0,0.2-2.3,4.4-5.2,9.2c-3.8,6.5-5.2,9.3-5.2,10.5s1.4,4,5.2,10.6c3,5.1,5.1,9.2,4.8,9.5c-0.2,0.2-4.1,2.5-8.6,5.1c-4.5,2.6-8.8,5.4-9.5,6.1l-1.3,1.4v10.8v10.7l-11,0.1c-10.8,0.1-11,0.1-12.2,1.3c-0.6,0.6-3.2,4.6-5.7,9c-6,10.4-5.5,9.8-7.1,8.9c-0.7-0.4-4.8-2.8-9.1-5.3c-5.4-3.1-8.3-4.5-9.3-4.5c-1,0-4.2,1.6-10.5,5.2c-4.9,2.8-9.2,5.1-9.5,5c-0.3-0.1-2.7-4-5.3-8.7s-5.4-8.9-6-9.5c-1.1-1.1-1.4-1.1-12.1-1.3l-11-0.1l-0.1-11l-0.1-11.1l-1.5-1.3c-0.8-0.7-4.8-3.2-8.9-5.6c-4.1-2.3-7.9-4.5-8.3-4.9c-0.8-0.7-0.7-1.1,4.3-9.8c3.8-6.7,5.3-9.5,5.3-10.7c0-1.2-1.4-3.9-5.2-10.5c-2.9-4.9-5.2-9.1-5.2-9.2c0-0.2,4.1-2.8,9.1-5.6c6.8-3.9,9.3-5.6,9.8-6.6c0.6-1.1,0.7-3.5,0.7-12V41.7h10.6c8.4,0,10.9-0.1,11.9-0.7c1-0.5,2.8-3.1,6.6-9.8c3.5-6,5.5-9.1,5.9-9C109,22.3,112.5,24.3,116.4,26.6z"/><path fill="#877EFF" data-title="Layer 1" xs="1" d="M118.2,46.4c-17.6,3.8-32.5,17-38.4,34c-3.7,10.8-3.3,23.6,1,34.2c5,12.3,15.9,23.4,27.9,28.4c6.8,2.9,11.7,3.8,19.3,3.8c5.8,0,7.5-0.2,11.3-1.2c6.2-1.6,10.7-3.6,15.7-6.8c12.5-8.1,20.8-20.7,23.3-35c0.9-5.3,0.3-15.6-1.2-20.7c-5.6-19-21.2-33.4-40.1-37C131.8,45.2,123.3,45.3,118.2,46.4z M138.6,56.6c19.3,5.2,31,21.4,30.1,41.6c-0.7,15.5-8.7,27.9-22.1,34.5c-6.3,3.1-9.1,3.8-16.7,4.1c-9.5,0.4-16.4-1.3-24.2-6C95,124.2,88,111.9,87.4,98.2c-1-22.1,13.3-39.4,35.3-42.6C125.7,55.1,135.4,55.8,138.6,56.6z"/><path fill="#877EFF" data-title="Layer 2" xs="2" d="M65.7,168.2c-1.2,1.1-3,5.7-11,27.9c-5.3,14.6-9.7,27.1-9.7,27.8c0,2.7,2.2,5,4.7,5c0.6,0,6.6-1.1,13.3-2.3c6.8-1.3,12.6-2.3,13-2.3c0.4,0,4.5,4.7,9.3,10.6c9.4,11.6,10.2,12.1,13.3,10.8c0.9-0.4,2-1.2,2.4-1.8c0.4-0.6,4.8-12.5,9.9-26.5c7.1-19.4,9.2-25.7,9-26.7c-0.9-3.7-5.6-5.3-8.2-2.7c-0.9,1-3.1,6.4-8.7,22c-4.1,11.4-7.6,20.8-7.7,20.8c-0.1,0-3.2-3.6-6.8-8c-3.9-4.8-7.1-8.3-8-8.7c-1.3-0.7-2.3-0.5-11.7,1.3c-5.6,1.1-10.4,1.9-10.6,1.8s3.2-9.9,7.5-21.9c4.4-12,7.9-22.5,7.9-23.4c0-2.1-0.7-3.2-2.3-4.1C69.2,166.5,67.3,166.7,65.7,168.2z"/><path fill="#877EFF" data-title="Layer 3" xs="3" d="M184.4,168.1c-2.7,2.3-2.7,2.2,5.9,25.7c4.3,11.9,7.9,22,8.1,22.5c0.3,1,1.3,1.1-12.1-1.4c-6.8-1.3-9-1.6-9.9-1.2c-1.3,0.5-3.4,2.9-10.9,12c-2.3,2.8-4.3,5-4.4,4.8c-0.1-0.1-3.6-9.5-7.7-20.8c-6.3-17.4-7.7-20.8-8.9-21.9c-3.1-2.8-8-0.6-8,3.7c0,1.1,17.6,50.1,18.8,52.4c0.7,1.3,3.4,2.3,5,2c1.8-0.5,2.2-0.8,11.2-11.8c4.5-5.5,8.4-10,8.8-10c0.3,0,6.2,1,13,2.3c6.8,1.3,12.9,2.3,13.6,2.3c1.7,0,4-2.1,4.4-3.9c0.2-1.2-1.5-6.6-9.1-27.5c-5.2-14.3-9.7-26.6-10.1-27.5C190.9,167,186.9,166,184.4,168.1z"/></g></g></g>
</svg>