<svg id="SvgjsSvg1032" width="256" height="256" xmlns="http://www.w3.org/2000/svg" version="1.1" xmlns:xlink="http://www.w3.org/1999/xlink" xmlns:svgjs="http://svgjs.com/svgjs"><defs id="SvgjsDefs1033"></defs><g id="SvgjsG1034"><svg xmlns="http://www.w3.org/2000/svg" viewBox="0 0 16 16" width="256" height="256"><path fill="#212121" d="M4.00029246,4.08524952 L4,10.5 C4,11.8254834 5.03153594,12.9100387 6.33562431,12.9946823 L6.5,13 L10.9143985,13.000703 C10.7082819,13.5829319 10.1528467,14 9.5,14 L6,14 C4.34314575,14 3,12.6568542 3,11 L3,5.5 C3,4.84678131 3.41754351,4.29108512 4.00029246,4.08524952 Z M11.5,2 C12.3284271,2 13,2.67157288 13,3.5 L13,10.5 C13,11.3284271 12.3284271,12 11.5,12 L6.5,12 C5.67157288,12 5,11.3284271 5,10.5 L5,3.5 C5,2.67157288 5.67157288,2 6.5,2 L11.5,2 Z" class="color212121 svgShape"></path></svg></g></svg>