<svg height="256px" width="256px" version="1.1" id="Layer_1" xmlns="http://www.w3.org/2000/svg" xmlns:xlink="http://www.w3.org/1999/xlink" viewBox="-10.05 -10.05 522.54 522.54" xml:space="preserve" fill="#877eff" stroke="#877eff" stroke-width="12.058632"><g id="SVGRepo_bgCarrier" stroke-width="0"></g><g id="SVGRepo_tracerCarrier" stroke-linecap="round" stroke-linejoin="round" stroke="#877eff" stroke-width="5.024430000000001"> <g transform="translate(1 8)"> <path style="fill:#efefef;" d="M319.348,232.722c0,0,0,17.92-17.067,34.133l0,0c28.16,79.36-13.653,166.4-92.16,195.413 c-79.36,29.013-168.107-11.947-197.12-92.16s11.947-168.107,92.16-197.12l128-41.813l11.093,29.867 c3.413,8.533,12.8,13.653,22.187,10.24c8.533-3.413,13.653-12.8,10.24-22.187l-11.093-29.013l215.893-65.707l17.067,51.2 l-153.6,83.627C327.881,198.589,319.348,215.655,319.348,232.722"></path> <path style="fill:#efefef;" d="M157.215,234.429c46.933,0,85.333,38.4,85.333,85.333s-38.4,85.333-85.333,85.333 s-85.333-38.4-85.333-85.333S110.281,234.429,157.215,234.429"></path> </g> <path style="fill:#877eff;" d="M158.215,485.629c-64.853,0-125.44-40.107-148.48-104.107c-14.507-39.253-12.8-82.773,5.12-120.32 c17.92-38.4,49.493-67.413,88.747-81.92l128-41.813c2.56-0.853,4.267,0.853,5.12,2.56l11.093,29.867 c2.56,6.827,10.24,10.24,16.213,7.68c6.827-2.56,10.24-9.387,7.68-16.213l-10.24-29.013c0-0.853,0-2.56,0-3.413 c0.853-0.853,1.707-1.707,2.56-2.56l215.893-65.707c2.56-0.853,4.267,0.853,5.12,2.56l17.067,51.2c0.853,1.707,0,4.267-1.707,5.12 l-153.6,83.627c-14.507,6.827-23.04,22.187-23.04,39.253c0,2.56-1.707,4.267-4.267,4.267c-2.56,0-4.267-1.707-4.267-4.267 c0-19.627,11.093-37.547,28.16-46.08l150.187-81.92l-14.507-43.52l-208.213,63.147l9.387,24.747 c4.267,11.093-1.707,23.04-12.8,27.307c-11.093,4.267-23.04-1.707-27.307-12.8l-9.387-26.453l-124.587,40.96 c-37.547,13.653-67.413,40.96-84.48,76.8s-18.773,76.8-5.12,114.347c28.16,77.653,114.347,117.76,191.147,89.6 c77.653-28.16,117.76-114.347,89.6-191.147c0-0.853,0-0.853,0-1.707c-5.973-14.507-13.653-29.013-23.893-40.96 c-1.707-1.707-0.853-4.267,0.853-5.973c1.707-1.707,4.267-0.853,5.973,0.853c11.093,13.653,19.627,29.013,25.6,46.08 c0,0.853,0,0.853,0,1.707c28.16,81.067-14.507,170.667-95.573,199.68C194.908,482.216,176.135,485.629,158.215,485.629z M158.215,419.069c-49.493,0-89.6-40.107-89.6-89.6s40.107-89.6,89.6-89.6s89.6,40.107,89.6,89.6S207.708,419.069,158.215,419.069z M158.215,248.402c-44.373,0-81.067,36.693-81.067,81.067s36.693,81.067,81.067,81.067s81.067-36.693,81.067-81.067 S203.441,248.402,158.215,248.402z M196.615,110.162c-0.853,0-1.707,0-2.56-0.853l-52.053-37.547 c-0.853-0.853-1.707-2.56-1.707-3.413s0-1.707,0.853-2.56c1.707-1.707,4.267-2.56,5.973-0.853l52.053,37.547 c0.853,0.853,1.707,2.56,1.707,3.413s0,1.707-0.853,2.56C199.175,109.309,198.321,110.162,196.615,110.162z M260.615,84.562 c-0.853,0-0.853,0-1.707,0c-1.707-0.853-2.56-2.56-2.56-4.267c0-0.853,0-0.853,0-1.707l23.04-54.613 c0.853-2.56,3.413-3.413,5.973-2.56c1.707,0.853,2.56,2.56,2.56,4.267c0,0.853,0,0.853,0,1.707l-23.04,54.613 C264.028,83.709,262.321,84.562,260.615,84.562z M221.361,82.855c-1.707,0-3.413-0.853-3.413-2.56l-29.013-58.027 c0-0.853-0.853-0.853-0.853-1.707c0-1.707,0.853-3.413,2.56-3.413c1.707-0.853,4.267,0,5.973,1.707l29.013,58.027 c0,0.853,0.853,0.853,0.853,1.707c0,1.707-0.853,3.413-2.56,3.413C223.068,82.002,222.215,82.855,221.361,82.855z"></path> </g><g id="SVGRepo_iconCarrier"> <g transform="translate(1 8)"> <path style="fill:#efefef;" d="M319.348,232.722c0,0,0,17.92-17.067,34.133l0,0c28.16,79.36-13.653,166.4-92.16,195.413 c-79.36,29.013-168.107-11.947-197.12-92.16s11.947-168.107,92.16-197.12l128-41.813l11.093,29.867 c3.413,8.533,12.8,13.653,22.187,10.24c8.533-3.413,13.653-12.8,10.24-22.187l-11.093-29.013l215.893-65.707l17.067,51.2 l-153.6,83.627C327.881,198.589,319.348,215.655,319.348,232.722"></path> <path style="fill:#efefef;" d="M157.215,234.429c46.933,0,85.333,38.4,85.333,85.333s-38.4,85.333-85.333,85.333 s-85.333-38.4-85.333-85.333S110.281,234.429,157.215,234.429"></path> </g> <path style="fill:#877eff;" d="M158.215,485.629c-64.853,0-125.44-40.107-148.48-104.107c-14.507-39.253-12.8-82.773,5.12-120.32 c17.92-38.4,49.493-67.413,88.747-81.92l128-41.813c2.56-0.853,4.267,0.853,5.12,2.56l11.093,29.867 c2.56,6.827,10.24,10.24,16.213,7.68c6.827-2.56,10.24-9.387,7.68-16.213l-10.24-29.013c0-0.853,0-2.56,0-3.413 c0.853-0.853,1.707-1.707,2.56-2.56l215.893-65.707c2.56-0.853,4.267,0.853,5.12,2.56l17.067,51.2c0.853,1.707,0,4.267-1.707,5.12 l-153.6,83.627c-14.507,6.827-23.04,22.187-23.04,39.253c0,2.56-1.707,4.267-4.267,4.267c-2.56,0-4.267-1.707-4.267-4.267 c0-19.627,11.093-37.547,28.16-46.08l150.187-81.92l-14.507-43.52l-208.213,63.147l9.387,24.747 c4.267,11.093-1.707,23.04-12.8,27.307c-11.093,4.267-23.04-1.707-27.307-12.8l-9.387-26.453l-124.587,40.96 c-37.547,13.653-67.413,40.96-84.48,76.8s-18.773,76.8-5.12,114.347c28.16,77.653,114.347,117.76,191.147,89.6 c77.653-28.16,117.76-114.347,89.6-191.147c0-0.853,0-0.853,0-1.707c-5.973-14.507-13.653-29.013-23.893-40.96 c-1.707-1.707-0.853-4.267,0.853-5.973c1.707-1.707,4.267-0.853,5.973,0.853c11.093,13.653,19.627,29.013,25.6,46.08 c0,0.853,0,0.853,0,1.707c28.16,81.067-14.507,170.667-95.573,199.68C194.908,482.216,176.135,485.629,158.215,485.629z M158.215,419.069c-49.493,0-89.6-40.107-89.6-89.6s40.107-89.6,89.6-89.6s89.6,40.107,89.6,89.6S207.708,419.069,158.215,419.069z M158.215,248.402c-44.373,0-81.067,36.693-81.067,81.067s36.693,81.067,81.067,81.067s81.067-36.693,81.067-81.067 S203.441,248.402,158.215,248.402z M196.615,110.162c-0.853,0-1.707,0-2.56-0.853l-52.053-37.547 c-0.853-0.853-1.707-2.56-1.707-3.413s0-1.707,0.853-2.56c1.707-1.707,4.267-2.56,5.973-0.853l52.053,37.547 c0.853,0.853,1.707,2.56,1.707,3.413s0,1.707-0.853,2.56C199.175,109.309,198.321,110.162,196.615,110.162z M260.615,84.562 c-0.853,0-0.853,0-1.707,0c-1.707-0.853-2.56-2.56-2.56-4.267c0-0.853,0-0.853,0-1.707l23.04-54.613 c0.853-2.56,3.413-3.413,5.973-2.56c1.707,0.853,2.56,2.56,2.56,4.267c0,0.853,0,0.853,0,1.707l-23.04,54.613 C264.028,83.709,262.321,84.562,260.615,84.562z M221.361,82.855c-1.707,0-3.413-0.853-3.413-2.56l-29.013-58.027 c0-0.853-0.853-0.853-0.853-1.707c0-1.707,0.853-3.413,2.56-3.413c1.707-0.853,4.267,0,5.973,1.707l29.013,58.027 c0,0.853,0.853,0.853,0.853,1.707c0,1.707-0.853,3.413-2.56,3.413C223.068,82.002,222.215,82.855,221.361,82.855z"></path> </g></svg>